<svg width="44" height="43" viewBox="0 0 44 43" fill="none" xmlns="http://www.w3.org/2000/svg">
<g clip-path="url(#clip0_207_1286)">
<path fill-rule="evenodd" clip-rule="evenodd" d="M0.636589 41.3927C0.596242 41.5394 0.595249 41.6942 0.633708 41.8414C0.672168 41.9887 0.748725 42.1232 0.855679 42.2315C0.962632 42.3398 1.09621 42.418 1.24298 42.4582C1.38975 42.4985 1.54453 42.4994 1.69176 42.4608L11.6736 39.85C14.8406 41.5654 18.3852 42.4642 21.9869 42.4652H21.9956C33.8819 42.4652 43.5713 32.8322 43.5713 20.9892C43.5789 18.165 43.0246 15.3675 41.9407 12.7595C40.8568 10.1516 39.2648 7.78541 37.2576 5.79867C35.2543 3.79502 32.8746 2.20738 30.2553 1.12716C27.636 0.0469402 24.8289 -0.504528 21.9956 -0.495496C10.1093 -0.495496 0.419922 9.1375 0.419922 20.9783C0.419922 24.7483 1.41225 28.4468 3.30159 31.712L0.636589 41.3883V41.3927ZM15.1576 10.7083C15.5541 10.7192 15.9939 10.7408 16.4121 11.6682C16.6894 12.2857 17.1553 13.4232 17.5366 14.3505C17.8313 15.072 18.0761 15.6657 18.1368 15.787C18.2754 16.0643 18.3621 16.3828 18.1801 16.7577L18.1194 16.8833C17.9721 17.1867 17.8681 17.4033 17.6211 17.685C17.5163 17.8065 17.413 17.9293 17.3113 18.0533C17.1271 18.2787 16.9429 18.4997 16.7869 18.6557C16.5074 18.933 16.2193 19.232 16.5399 19.7867C16.8606 20.3413 17.9873 22.1657 19.6491 23.6368C20.8655 24.7319 22.2599 25.6112 23.7723 26.2368C23.9239 26.3018 24.0474 26.356 24.1406 26.4015C24.6974 26.6788 25.0289 26.6355 25.3496 26.2628C25.6724 25.888 26.7428 24.64 27.1198 24.0853C27.4838 23.5307 27.8564 23.6173 28.3721 23.808C28.8878 24.0008 31.6308 25.3463 32.1876 25.6215L32.4974 25.7732C32.8853 25.9573 33.1474 26.0852 33.2601 26.2715C33.3988 26.5077 33.3988 27.617 32.9394 28.9192C32.4671 30.2192 30.1943 31.4672 29.1651 31.5625L28.8726 31.5972C27.9279 31.712 26.7319 31.8572 22.4679 30.178C17.2116 28.111 13.7428 22.9847 13.0429 21.9468L12.9281 21.7822L12.9151 21.7648C12.5966 21.338 10.6444 18.7272 10.6444 16.0318C10.6444 13.3365 11.9141 12.1102 12.4948 11.4992C12.5289 11.4632 12.5628 11.4271 12.5966 11.3908C12.7838 11.1793 13.0126 11.0086 13.2687 10.8893C13.5248 10.77 13.8027 10.7047 14.0851 10.6975C14.4599 10.6975 14.8369 10.6975 15.1576 10.7083Z" fill="white"/>
</g>
<defs>
<clipPath id="clip0_207_1286">
<rect width="44" height="43" fill="white"/>
</clipPath>
</defs>
</svg>
