<svg width="133" height="18" viewBox="0 0 133 18" fill="none" xmlns="http://www.w3.org/2000/svg">
<g clip-path="url(#clip0_273_1563)">
<path d="M133 5.39558C132.998 6.88175 132.381 8.30295 131.29 9.33101L122.698 17.8415L114.106 9.33101C112.52 7.86648 111.968 5.61483 112.702 3.59989C113.437 1.58495 115.317 0.191384 117.488 0.0528585C119.658 -0.0856684 121.706 1.05729 122.698 2.96202C123.612 1.14313 125.498 -0.00581425 127.56 2.21311e-05C130.574 0.0160837 133.007 2.42909 133 5.39558Z" fill="#A2A2A5"/>
<path d="M52.6045 17.6245V0.394897H56.9147V13.8282H62.1858V17.6524L52.6045 17.6245Z" fill="#A2A2A5"/>
<path d="M78.8471 15.4552C77.1654 17.1517 74.9044 18 72.0639 18C69.2234 18 66.967 17.1517 65.2948 15.4552C63.6131 13.7586 62.7746 11.6078 62.7793 9.00275C62.7793 6.41622 63.6178 4.27005 65.2948 2.56423C66.9764 0.853785 69.2328 0.000877053 72.0639 0.00551195C74.9044 0.00551195 77.1654 0.85842 78.8471 2.56423C80.5288 4.27468 81.3626 6.43012 81.3626 9.00275C81.3626 11.6171 80.5288 13.7447 78.8471 15.4552ZM75.6816 5.54014C74.763 4.60843 73.5618 4.14953 72.078 4.14953C70.5942 4.14953 69.393 4.60843 68.4744 5.54014C67.5559 6.47184 67.1036 7.62605 67.1036 9.00275C67.1036 10.4212 67.5559 11.5893 68.4744 12.5071C69.393 13.4249 70.5942 13.8838 72.078 13.8838C73.5618 13.8838 74.763 13.4249 75.6816 12.5071C76.6002 11.5893 77.0524 10.4212 77.0524 9.00275C77.0524 7.62605 76.6002 6.47184 75.6816 5.54014Z" fill="#A2A2A5"/>
<path d="M86.9874 17.6245L80.7412 0.394897H85.2775L89.4322 12.4515L93.6435 0.394897H98.1515L91.9336 17.6524L86.9874 17.6245Z" fill="#A2A2A5"/>
<path d="M109.555 13.9116V17.6384H99.5078V0.380981H109.485V4.12172H103.818V7.11153H109.315V10.6576H103.818V13.9116H109.555Z" fill="#A2A2A5"/>
<path d="M30.4174 0.144653V4.3582H26.7149V17.6107H22.433V4.3582H18.7305V0.144653H30.4174Z" fill="#A2A2A5"/>
<path d="M48.9727 11.0192C47.9298 15.3814 43.7411 18.2905 39.2149 17.7959C34.6887 17.3013 31.2505 13.5589 31.2055 9.07779C31.1606 4.59671 34.5231 0.788208 39.0385 0.205835C43.5539 -0.376538 47.8002 2.45062 48.9303 6.79173H44.2527C43.2228 4.95292 41.0498 4.04417 38.9897 4.59083C36.9297 5.13748 35.5155 6.99811 35.5648 9.09713C35.6141 11.1962 37.114 12.9905 39.1976 13.443C41.2811 13.8954 43.4092 12.8889 44.3516 11.0053H48.9727V11.0192Z" fill="#A2A2A5"/>
<path d="M17.7555 11.0192C16.7161 15.3798 12.5308 18.2895 8.00679 17.7967C3.48279 17.304 0.0455111 13.5639 0.000447761 9.0852C-0.0446156 4.60647 3.31673 0.800203 7.82993 0.219372C12.3431 -0.361459 16.5862 2.46616 17.7131 6.80565H13.0355C12.0056 4.96683 9.8326 4.05809 7.77253 4.60475C5.71247 5.1514 4.29834 7.01203 4.34762 9.11105C4.3969 11.2101 5.89684 13.0045 7.98036 13.4569C10.0639 13.9094 12.192 12.9028 13.1344 11.0192H17.7555Z" fill="#A2A2A5"/>
</g>
<defs>
<clipPath id="clip0_273_1563">
<rect width="133" height="18" fill="white"/>
</clipPath>
</defs>
</svg>
