<svg width="119" height="64" viewBox="0 0 119 64" fill="none" xmlns="http://www.w3.org/2000/svg">
<g clip-path="url(#clip0_273_1581)">
<path d="M59.3771 62.6442C27.091 62.6442 0.915039 48.9155 0.915039 31.9729C0.915039 15.0418 27.091 1.30005 59.3771 1.30005C91.6725 1.30005 117.887 15.0418 117.887 31.9729C117.887 48.9155 91.6725 62.6442 59.3771 62.6442Z" fill="#0E0E0E"/>
<path d="M59.4013 0.188843C26.6999 0.188843 0.186523 14.4202 0.186523 31.9727C0.186523 49.5266 26.6999 63.755 59.4013 63.755C92.1017 63.755 118.612 49.5266 118.612 31.9727C118.612 14.4202 92.1017 0.188843 59.4013 0.188843ZM59.4013 59.567C27.5459 59.567 1.7321 47.212 1.7321 31.9727C1.7321 16.7344 27.5459 4.38121 59.4013 4.38121C91.2464 4.38121 117.071 16.7344 117.071 31.9727C117.071 47.212 91.2464 59.567 59.4013 59.567Z" fill="#A2A2A5"/>
<path d="M59.4007 63.9435C26.6472 63.9435 0 49.6014 0 31.9725C0 14.3426 26.6472 0 59.4007 0C92.1515 0 118.797 14.3426 118.797 31.9725C118.797 49.6014 92.1515 63.9435 59.4007 63.9435ZM59.4007 0.377348C26.852 0.377348 0.372018 14.5509 0.372018 31.9725C0.372018 49.3932 26.852 63.5664 59.4007 63.5664C91.9471 63.5664 118.424 49.3932 118.424 31.9725C118.424 14.5509 91.9471 0.377348 59.4007 0.377348ZM59.4007 59.7555C27.4992 59.7555 1.54552 47.292 1.54552 31.9725C1.54552 16.6545 27.4992 4.1924 59.4007 4.1924C91.302 4.1924 117.257 16.6545 117.257 31.9725C117.257 47.292 91.302 59.7555 59.4007 59.7555ZM59.4007 4.56976C27.7045 4.56976 1.91754 16.8628 1.91754 31.9725C1.91754 47.0842 27.7045 59.3781 59.4007 59.3781C91.0976 59.3781 116.884 47.0842 116.884 31.9725C116.884 16.8628 91.0976 4.56976 59.4007 4.56976Z" fill="#0E0E0E"/>
<path d="M43.7156 23.4554C44.4896 23.1369 45.1141 23.0332 45.1141 23.0332C44.5235 24.3024 43.867 26.0711 43.9839 27.3652C44.1911 29.5605 46.0285 29.4478 47.5797 28.604C47.5797 28.604 48.0715 28.3085 48.4593 28.0113C48.6609 29.6525 50.3213 29.6722 53.5603 26.7908C53.7693 29.2824 55.4581 29.1617 55.9204 29.1598C56.996 29.1553 59.1206 28.2974 60.6008 27.0132L59.6878 29.1224H61.6669C61.6725 29.0454 63.3979 24.8473 63.3979 24.8473C63.7032 24.8473 65.6037 24.8421 65.6037 24.8421C65.1082 26.0802 64.9653 26.4289 64.677 27.1687C64.1193 28.608 64.8973 29.1598 65.438 29.1598C66.7132 29.1598 67.5343 28.6209 68.7888 27.5706C68.7475 29.7247 71.8253 29.3965 73.2041 28.5311C73.2041 28.5311 75.7451 27.2795 76.2652 24.0534C76.2652 24.0534 77.416 23.8772 77.9057 23.1578L76.284 26.8871C74.9012 30.3929 78.2089 29.0254 79.6141 28.1379C80.1303 27.8155 80.6144 27.4424 80.6144 27.4424C79.9382 30.8038 84.3535 28.3424 85.0297 27.4177C85.0297 27.4177 84.54 29.3235 86.0318 29.1598C87.4537 28.9977 88.7516 28.2826 90.1624 26.6748L89.8931 26.4002C88.196 28.1889 86.2389 28.9275 87.0074 27.0294L89.8291 20.1295L87.9738 20.1056L85.3027 26.4689C84.7056 27.1988 84.5173 27.3889 83.6112 27.9212C82.8635 28.3424 82.2059 28.2348 82.8784 26.6414L85.5249 20.1535L83.6546 20.1462L81.0477 26.4002C80.2678 27.1988 79.5596 27.6231 79.0623 27.8847C78.0848 28.3906 77.4988 28.5061 78.3221 26.6984L80.9628 20.1434L79.0811 20.1462L78.6988 21.0987C78.079 23.0189 76.348 23.3747 76.348 23.3747C76.5777 22.1648 75.9673 20.1056 74.1874 20.1654C73.4584 20.1945 73.0404 20.8264 72.9933 20.9831L74.7224 16.6685C58.6546 9.21219 42.5297 13.5818 29.623 19.8978L32.2753 13.6348C32.0642 13.631 18.7757 13.5775 18.7757 13.5775L17.355 15.6553L29.1553 15.6711L27.0393 20.858L26.2819 21.2926C26.2142 21.3409 16.1255 26.4002 15.3682 34.0828C14.9402 38.4965 18.4075 38.1602 20.617 36.4951C22.0702 35.4127 24.1021 33.1831 25.5394 29.8419C27.3077 25.7099 29.1085 21.3729 29.1085 21.3729C29.1085 21.3729 29.5045 21.2157 30.3481 21.1876C31.4426 21.147 30.3087 23.2128 30.1871 23.5023C29.4168 25.3087 29.3105 25.5452 28.5578 27.2433C27.8053 28.9414 29.4931 29.7734 31.7167 28.4591C31.7912 28.4115 28.2122 31.6014 27.7696 34.8261C27.5176 36.6125 28.0734 37.2431 28.2913 37.4304C29.5288 38.5365 32.0962 37.1981 33.5917 33.5461C34.3331 31.7195 38.0975 22.6664 38.0975 22.6664C38.0975 22.6664 38.8454 20.8862 39.3954 20.1817C40.2212 19.1093 41.0595 19.2816 41.262 19.382C42.5072 19.9523 41.7065 23.3943 41.7065 23.3943C40.0001 24.2059 37.7744 25.3633 37.3478 26.9849C37.264 27.3245 36.9787 29.5245 39.3991 29.0499C42.6775 28.4193 43.7156 23.4554 43.7156 23.4554ZM21.9911 32.5104C19.4576 37.6042 17.6536 37.4207 16.8186 37.012C16.2111 36.7205 15.2265 35.2388 17.1562 31.6913C18.2186 29.7452 19.1571 28.2421 21.1034 26.3659C23.7368 23.8205 26.8329 21.5238 26.8329 21.5238C26.8329 21.5238 23.9632 28.5468 21.9911 32.5104ZM48.6027 27.2214C48.6027 27.2214 48.2107 27.6268 47.6908 27.9682C47.1615 28.3052 46.5286 28.4908 46.1011 28.1889C45.8599 28.0113 45.4813 27.2795 46.0652 25.5567C46.0652 25.5567 46.7416 23.5539 47.4064 22.4376C48.3879 20.7782 50.0151 20.1535 50.7461 21.4851C50.7461 21.4851 48.4556 27.1238 48.6027 27.2214ZM73.4131 21.167C73.6581 20.9009 74.1271 20.6927 74.4192 20.8862C75.4927 21.6088 74.8279 23.4297 74.8279 23.4297C74.8279 23.4297 73.6242 23.4024 73.3152 22.7075C73.1004 22.2255 73.0967 21.5067 73.4131 21.167ZM74.6621 23.9565C74.6621 23.9565 73.7769 26.7471 71.9534 28.1889C70.9137 29.0017 70.0227 28.8529 70.311 27.5739C70.4033 27.1887 72.2134 22.8355 72.6258 21.8495C72.3489 23.8485 74.6621 23.9565 74.6621 23.9565ZM41.667 18.783C38.8226 18.2275 36.8553 20.8179 35.6581 23.7435C33.5467 28.8859 33.7182 28.704 30.7928 35.5694C30.2533 36.8513 29.5288 37.5506 28.8823 37.2718C28.1685 36.9574 28.6209 35.3927 29.4875 33.4085C30.4349 31.3812 31.3071 29.9574 33.6766 26.4689L33.4036 26.204C31.9888 28.064 29.8717 28.8339 30.8079 26.7737C31.4748 25.3169 31.7958 24.5028 32.505 22.8551C33.3658 20.858 31.7515 20.3382 29.1955 20.995L29.3349 20.7782C43.9538 14.0852 59.0097 13.3076 72.8068 16.8743C71.6427 19.6481 69.3182 25.4115 69.3182 25.4115C69.0809 25.8906 68.8454 26.8506 68.8454 26.8506C67.3574 28.2496 66.0934 28.888 66.5193 27.2496L69.3899 20.1056H67.5608L65.8428 24.2504H63.6241L65.3418 20.1056C64.8899 20.1056 63.4545 20.1056 63.4545 20.1056L60.9098 26.2527C59.8346 27.2214 57.7738 28.2172 56.8471 28.2497C56.0767 28.2751 55.0417 27.9374 55.4581 25.7706C55.6698 24.6821 56.1238 23.4024 56.8652 21.7407C57.7156 19.8367 58.241 19.265 58.9306 18.4224C60.7156 16.2466 62.5333 17.425 61.0246 19.3419C60.7667 19.671 60.4577 19.9734 60.2053 20.2552L61.4899 21.5286C63.1249 19.8296 63.4243 16.8423 61.0548 16.689C58.4613 16.5213 56.301 18.9363 55.1614 20.9415C54.3288 22.4104 53.6271 24.5842 53.5206 26.2C53.5206 26.2 52.886 26.8233 52.0507 27.4177C50.5814 28.4671 50.0124 27.9212 50.6953 26.1633L53.2024 20.1056H51.3622L50.991 21.0547C50.8055 20.8465 50.7461 20.7414 50.49 20.5752C49.3863 19.5549 46.8546 20.034 45.472 22.3936C45.472 22.3936 44.9615 22.5136 44.4444 22.676C44.0046 22.814 43.7578 22.8794 43.7578 22.8794C43.9538 21.4039 43.3641 19.1141 41.667 18.783ZM38.1701 28.1256C38.1701 28.1256 37.7519 27.8285 37.9845 26.9849C38.3819 25.5165 41.5596 24.0732 41.5596 24.0732C41.279 25.0308 40.6969 26.2812 40.3467 26.9075C39.9229 27.6685 38.9245 28.6442 38.1701 28.1256Z" fill="#A2A2A5"/>
<path d="M89.7106 18.8114C91.1177 18.4268 91.7656 16.7832 90.9989 15.2141C90.9312 16.4771 90.0119 17.3765 89.3508 17.6101C88.7952 17.8059 88.2188 18.1011 86.6045 17.6135C87.2296 18.4947 88.2619 19.2193 89.7106 18.8114Z" fill="#A2A2A5"/>
<path d="M104.768 42.0351C105.077 38.1468 102.284 37.6767 101.295 39.0927L104.124 32.0984L87.5239 32.0452C86.5424 32.0452 84.8813 32.0892 84.5403 33.6129C84.2011 35.1433 84.7456 36.7654 85.2691 38.4737C85.6591 39.7593 85.1316 42.1955 85.0017 42.7391C84.3461 45.3711 83.3591 46.288 83.1689 46.4753C82.7038 46.9148 80.7842 47.6245 81.1628 44.6075C81.1554 44.6755 81.3644 43.3687 81.6036 42.5795C82.0049 41.4398 82.7488 38.9398 84.7173 38.7849L84.5741 38.3962C82.7488 38.2327 81.3154 39.3659 80.6901 40.2809C79.0739 42.6273 79.6202 45.2028 79.6202 45.2028C79.6202 45.2028 75.4592 48.2885 77.098 44.5579L79.8424 38.0054H77.9173L76.2787 41.9661C73.3081 42.8584 74.0428 40.0365 74.0428 40.0365C74.393 37.8431 75.8472 35.3927 77.9041 35.7108C78.5615 35.812 78.8197 36.0708 79.2737 36.6165L79.8086 36.3355C79.3038 35.7882 78.2678 35 76.953 34.5969C72.1629 33.1372 69.3243 33.4285 66.7399 33.9713C61.4865 35.0593 57.4616 37.7819 53.8939 40.5666L54.8923 38.1755C52.2101 39.1289 51.272 39.0515 51.272 39.0515C51.709 37.1819 51.7805 33.9579 49.4429 33.5049C47.7261 33.1668 46.5215 34.3609 46.1673 35.2388C45.5099 36.8649 45.6625 39.3409 48.8948 39.7384C48.0398 42.9826 47.0564 44.6831 46.3744 45.5849C45.0636 47.3026 44.228 47.6504 42.9821 47.3713C41.3623 46.9988 41.2718 45.4951 41.3113 43.3362C41.3414 41.7466 42.904 34.0991 46.9377 32.2974C48.7725 31.4788 49.7322 31.88 50.4884 32.3492C50.8876 32.604 51.1553 32.9814 51.3625 33.1831L51.6016 32.8449C51.6374 32.8849 50.8445 31.1572 48.9637 30.8186C48.4014 30.7226 47.2513 30.8219 46.4498 31.0772C43.8184 31.9045 41.318 33.8699 39.9062 38.3447C39.7065 38.9894 38.9173 41.5287 39.5972 44.7807C40.0586 46.9882 41.431 47.4487 42.0206 47.7497C42.694 48.0918 45.3246 48.5541 47.7194 46.1513C48.5257 45.3271 49.4977 44.0362 50.3942 42.0713C50.931 40.8675 51.1553 39.8988 51.1553 39.8988C51.1553 39.8988 52.34 39.7899 52.4831 39.6831C52.4831 39.6831 50.2087 45.2619 49.3121 47.2339H51.1261L53.022 42.6042C53.022 42.6042 54.9582 41.7972 54.4497 43.2042C53.8487 44.8207 54.0475 44.1673 53.4458 45.8447C52.7638 47.6981 54.9431 47.7068 57.4296 45.9614L56.9126 47.2339H58.6275C58.554 47.2339 61.4281 40.6212 61.4281 40.6212C61.4281 40.6212 61.8574 40.3097 62.5714 40.0193C63.0254 39.8445 64.1971 39.2494 63.7167 40.4148L60.8762 47.2339C61.477 47.2339 62.7804 47.2339 62.7804 47.2339L65.3648 40.8885C68.1412 39.3409 67.4783 40.6421 67.3576 40.9325L65.5778 45.1167C64.6773 47.1259 65.6473 47.9235 68.0904 46.7619C68.518 46.5631 68.6894 46.4332 68.6894 46.4332C69.1547 48.6706 73.2272 45.82 75.5195 42.7649C75.5195 42.7649 75.7512 42.7744 75.979 42.6951L75.0242 45.1017C74.3176 47.7459 76.0676 47.8873 79.7313 45.8153C79.7313 45.8153 80.2154 47.2817 82.1498 47.2817C83.4043 47.4009 84.8416 46.2555 85.386 45.4951C85.386 45.4951 86.081 45.4264 84.9678 47.0064C83.9072 48.5082 82.9334 49.196 82.2101 50.6137C80.5808 53.8694 81.7091 55.7984 82.472 55.9224C83.7397 56.1193 85.1712 55.7247 87.2376 51.4125C87.2376 51.4125 91.2328 42.2146 92.4664 39.2235C93.3593 37.0645 94.5309 37.1781 94.8756 37.3826C96.0529 38.0744 95.3127 41.4962 95.3127 41.4962C89.5431 43.4602 89.95 48.0087 92.9995 47.1028C94.0619 46.7906 96.3544 45.0577 97.3452 41.5153C97.3452 41.5153 98.3116 41.2631 98.6806 41.1579C98.6806 41.1579 98.3981 42.0235 97.7463 43.5214C96.7801 45.712 97.3997 47.1518 98.9933 47.2339C103.369 47.4459 104.667 42.5221 104.667 42.5221C104.727 42.5355 105.893 42.5546 106.724 41.668L106.419 41.3673C105.878 42.0675 104.825 42.0494 104.768 42.0351ZM49.1001 38.9504C49.1001 38.9504 48.9166 38.9741 48.1112 38.7372C46.5957 38.3007 46.3538 36.4788 47.0998 35.3993C47.7505 34.4593 48.6612 34.8701 48.9194 35.216C49.6972 36.2628 49.1001 38.9504 49.1001 38.9504ZM57.8288 45.0529C57.6198 45.3795 54.2934 47.6656 55.186 45.5247C55.6384 44.4376 55.7332 44.192 56.0997 43.2988C57.2883 40.5198 53.3978 41.84 53.3978 41.84C53.3298 41.8725 53.5532 41.4398 53.5532 41.4398C55.6411 39.9831 59.7897 37.7054 61.0455 37.1915L57.8288 45.0529ZM71.3661 45.9536C71.0306 46.1628 69.8761 46.376 70.833 44.192C70.8933 44.1854 68.9928 44.192 68.9928 44.192C68.7365 44.7024 68.6198 45.1301 68.5838 45.8381C68.5838 45.8381 68.0735 46.2384 67.6045 46.376C67.3822 46.4391 66.6682 46.5955 67.2391 45.3471L69.2753 40.5522C70.1304 38.5682 68.6669 38.6054 67.3314 39.1202C66.4084 39.4777 65.7812 39.916 65.7812 39.916C65.7812 39.916 66.542 38.4209 65.137 38.4449C64.2799 38.464 62.7974 38.8108 61.7069 39.6831L63.0254 36.5591C63.0254 36.5591 67.8193 34.2682 76.3935 35.216C74.9393 35.2647 73.4229 35.9562 72.4719 38.2289C71.9632 39.4442 72.0838 41.5515 72.969 42.3922C73.5322 42.9158 74.6417 42.8624 74.6417 42.8624C74.6417 42.8624 73.0105 44.9275 71.3661 45.9536ZM93.7963 45.1264C93.4177 45.7969 92.6378 46.8191 91.8561 46.5737C91.34 46.4007 91.3344 45.6795 91.34 45.6393C91.4323 43.7087 95.1468 42.1515 95.1468 42.1515C94.5762 43.852 94.0619 44.6659 93.7963 45.1264ZM97.3264 40.9421C97.5391 38.7047 96.3261 36.7598 94.8492 36.7205C91.877 36.6393 90.4077 39.2932 89.2286 42.1038C87.2376 46.8736 84.1824 54.2612 84.1824 54.2612C83.5853 55.6101 82.875 55.6979 82.5474 55.5049C82.3025 55.3617 82.0575 54.9202 82.2797 53.816C82.472 52.8339 83.0371 50.9939 85.6157 47.3781C86.4426 46.2184 87.1527 44.9353 85.985 44.7958C85.985 44.7958 87.0191 43.1144 87.0982 41.3052C87.1659 39.5551 86.5707 38.1755 86.258 37.4675C85.0601 34.6962 84.6514 33.7849 87.6765 33.7906C90.6524 33.7925 101.885 33.7906 101.885 33.7906C101.841 33.9033 98.9933 40.4492 98.9933 40.4492C98.3341 40.6212 97.3264 40.9421 97.3264 40.9421ZM99.2269 46.6242C98.2343 46.5193 98.7071 45.1932 98.9047 44.7461C99.5245 43.3638 100.253 41.588 101.043 39.7899C100.713 41.3673 102.135 42.1268 102.979 42.3129C102.979 42.3129 101.158 46.8153 99.2269 46.6242ZM103.128 41.7751C103.128 41.7751 101.446 41.3605 101.557 39.9831C101.632 39.1289 102.41 38.9245 102.762 39.2092C103.621 39.916 103.128 41.7751 103.128 41.7751Z" fill="#A2A2A5"/>
<path d="M95.7139 23.708C97.1549 23.708 98.3171 22.5416 98.3171 21.1105C98.3171 19.6804 97.1549 18.5216 95.7139 18.5216C94.2655 18.5216 93.0996 19.6804 93.0996 21.1105C93.0996 22.5416 94.2655 23.708 95.7139 23.708ZM95.7139 18.8197C96.9835 18.8197 98.0139 19.85 98.0139 21.1105C98.0139 22.3816 96.9835 23.4105 95.7139 23.4105C94.4351 23.4105 93.4028 22.3816 93.4028 21.1105C93.4028 19.85 94.4351 18.8197 95.7139 18.8197Z" fill="#A2A2A5"/>
<path d="M95.1032 21.3728L95.7418 21.3594L96.1749 22.693C96.1749 22.693 96.8249 22.693 96.8852 22.693C96.8852 22.693 96.4029 21.3728 96.4124 21.3594C96.5291 21.3321 96.9437 21.1469 96.9437 20.5364C96.9437 19.8366 96.4876 19.5266 96.0093 19.5266H94.4834V22.693H95.1146L95.1032 21.3728ZM95.1032 20.0525L95.885 20.0459C95.885 20.0459 96.3013 20.0253 96.3088 20.4394C96.3201 20.8579 95.8342 20.8326 95.8342 20.8326H95.1032V20.0525Z" fill="#A2A2A5"/>
</g>
<defs>
<clipPath id="clip0_273_1581">
<rect width="119" height="64" fill="white"/>
</clipPath>
</defs>
</svg>
