<svg width="56" height="59" viewBox="0 0 56 59" fill="none" xmlns="http://www.w3.org/2000/svg">
<g clip-path="url(#clip0_273_1883)">
<path fill-rule="evenodd" clip-rule="evenodd" d="M0 30.6736V36.0081L3.09924 34.7278V49.8246L0 51.1582V56.6528L11.5954 52.5452V48.7043H13.7328L13.4656 49.5045L14.5878 50.7314L15.4427 50.1446C15.1435 49.1631 15.9593 49.1311 16.4046 49.2378C17.5588 49.8779 16.8855 50.5002 16.4046 50.7314L17.0458 51.1582C18.3282 50.6034 18.8626 49.8246 18.9695 49.5045C18.3282 49.5045 18.2748 47.4774 19.6107 47.7975C20.6794 48.0535 20.4478 49.0422 20.1985 49.5045C19.6285 50.2335 18.0397 52.0117 16.2443 53.292C14.4489 54.5723 12.7531 54.7502 12.1298 54.679L10.5802 56.0126L10.4198 57.0795H10.8473L11.3282 58.3065L11.4886 57.8797L12.5038 58.9466L12.6641 57.8797L13.8397 58.8399V57.8797L15.8168 56.1193L25.2748 49.8246C24.4198 48.9889 23.287 46.8052 25.5954 44.7568C27.9038 42.7083 30.9745 43.9032 32.2214 44.7568C36.6244 47.5307 41.5725 47.9397 43.4962 47.7975C52.2168 48.0962 55.2875 41.1293 55.7328 37.6085V11.3092L42.8015 15.8436V21.2848L46.3817 20.1112V35.3146C46.4351 35.9548 45.313 38.4087 42.5878 37.8752C40.4076 37.4484 37.5827 35.1012 36.4427 33.981C39.2748 33.1275 44.0305 29.2333 42.2137 23.7387C41.1751 20.5974 38.5646 19.3577 36.3986 18.9839C34.9173 18.7282 33.4282 19.1345 32.0091 19.6299L17.7939 24.5922V29.66L19.9847 29.0199V36.3282L10.1527 27.0994L0 30.6736ZM11.5954 46.4105L13.3588 45.3436V44.9722C13.3588 44.5179 13.4885 44.0731 13.7328 43.6899L14.2672 44.4367V42.3562L11.5954 39.9557V46.4105ZM28.4275 26.1392V31.3137L31.8473 30.0868C33.3008 29.66 33.6285 28.771 33.6107 28.3797V26.1392C33.3542 24.9016 32.0432 24.9834 31.4198 25.179L28.4275 26.1392Z" fill="#A2A2A5"/>
<path d="M50.336 11.3092C53.4642 11.3092 56.0001 8.77757 56.0001 5.65461C56.0001 2.53166 53.4642 0 50.336 0C47.2078 0 44.6719 2.53166 44.6719 5.65461C44.6719 8.77757 47.2078 11.3092 50.336 11.3092Z" fill="#A2A2A5"/>
</g>
<defs>
<clipPath id="clip0_273_1883">
<rect width="56" height="59" fill="white"/>
</clipPath>
</defs>
</svg>
