<svg width="103" height="48" viewBox="0 0 103 48" fill="none" xmlns="http://www.w3.org/2000/svg">
<path d="M0 40V13H14.2041C17.5 13 18.7467 14.2467 19 14.5C25.7453 21.2453 23.0204 29.3019 18.6122 31.3396L24 40H16.1633L11.2653 32.8679H7.34694V40H0Z" fill="#A2A2A5"/>
<path d="M8 19V27" stroke="#0D0D0D" stroke-width="2"/>
<path d="M8 19H12C14.2091 19 16 20.7909 16 23C16 25.2091 14.2091 27 12 27H8V19Z" fill="#0D0D0D"/>
<path d="M27 13H51V29C51 35.0751 46.0751 40 40 40H38C31.9249 40 27 35.0751 27 29V13Z" fill="#A2A2A5"/>
<path d="M34 13H44V29C44 31.7614 41.7614 34 39 34C36.2386 34 34 31.7614 34 29V13Z" fill="#090909"/>
<circle cx="79" cy="24" r="24" fill="#A2A2A5"/>
<path d="M66 20.6V18H81.1667L84.6333 26.2333L88.5333 18H92L86.3667 31H82.4667L78.1333 20.6H73.8V31H70.3333V20.6H66Z" fill="#090909" stroke="#090909"/>
</svg>
