<svg width="39" height="39" viewBox="0 0 39 39" fill="none" xmlns="http://www.w3.org/2000/svg">
<path d="M26.8125 3.04688V6.09375M12.1875 3.04688V6.09375M6.09375 13.4062H32.9062M24.9844 19.5L17.8701 26.2031L14.0156 22.5469M31.6875 6.09375H7.3125C6.98927 6.09375 6.67927 6.22215 6.45071 6.45071C6.22215 6.67927 6.09375 6.98927 6.09375 7.3125V31.6875C6.09375 32.3602 6.63975 32.9062 7.3125 32.9062H31.6875C32.0107 32.9062 32.3207 32.7778 32.5493 32.5493C32.7778 32.3207 32.9062 32.0107 32.9062 31.6875V7.3125C32.9062 6.98927 32.7778 6.67927 32.5493 6.45071C32.3207 6.22215 32.0107 6.09375 31.6875 6.09375Z" stroke="white" stroke-width="0.958333" stroke-linecap="round" stroke-linejoin="round"/>
<path d="M26.8125 3.04688V6.09375M12.1875 3.04688V6.09375M6.09375 13.4062H32.9062M24.9844 19.5L17.8701 26.2031L14.0156 22.5469M31.6875 6.09375H7.3125C6.98927 6.09375 6.67927 6.22215 6.45071 6.45071C6.22215 6.67927 6.09375 6.98927 6.09375 7.3125V31.6875C6.09375 32.3602 6.63975 32.9062 7.3125 32.9062H31.6875C32.0107 32.9062 32.3207 32.7778 32.5493 32.5493C32.7778 32.3207 32.9062 32.0107 32.9062 31.6875V7.3125C32.9062 6.98927 32.7778 6.67927 32.5493 6.45071C32.3207 6.22215 32.0107 6.09375 31.6875 6.09375Z" stroke="url(#paint0_linear_207_877)" stroke-width="0.958333" stroke-linecap="round" stroke-linejoin="round"/>
<defs>
<linearGradient id="paint0_linear_207_877" x1="-0.766356" y1="17.9766" x2="38.8245" y2="17.9766" gradientUnits="userSpaceOnUse">
<stop stop-color="#999999"/>
<stop offset="0.508626" stop-color="white"/>
<stop offset="1" stop-color="#999999"/>
</linearGradient>
</defs>
</svg>
