<svg width="39" height="39" viewBox="0 0 39 39" fill="none" xmlns="http://www.w3.org/2000/svg">
<path d="M36.0588 18.5575L32.2969 20.4295L27.4219 11.1068L31.2309 9.20233C31.5138 9.05819 31.8422 9.0318 32.1445 9.12892C32.4468 9.22603 32.6985 9.43876 32.8445 9.7207L36.5934 16.8951C36.6694 17.0387 36.716 17.1961 36.7303 17.358C36.7446 17.5199 36.7264 17.683 36.6767 17.8377C36.627 17.9925 36.5469 18.1357 36.4411 18.259C36.3352 18.3824 36.2058 18.4833 36.0604 18.5558L36.0588 18.5575Z" stroke="white" stroke-width="0.958333" stroke-linecap="round" stroke-linejoin="round"/>
<path d="M36.0588 18.5575L32.2969 20.4295L27.4219 11.1068L31.2309 9.20233C31.5138 9.05819 31.8422 9.0318 32.1445 9.12892C32.4468 9.22603 32.6985 9.43876 32.8445 9.7207L36.5934 16.8951C36.6694 17.0387 36.716 17.1961 36.7303 17.358C36.7446 17.5199 36.7264 17.683 36.6767 17.8377C36.627 17.9925 36.5469 18.1357 36.4411 18.259C36.3352 18.3824 36.2058 18.4833 36.0604 18.5558L36.0588 18.5575Z" stroke="url(#paint0_linear_207_888)" stroke-width="0.958333" stroke-linecap="round" stroke-linejoin="round"/>
<path d="M6.70335 20.2785L2.93985 18.3886C2.79498 18.3177 2.66587 18.2184 2.56019 18.0965C2.45451 17.9747 2.37443 17.8328 2.3247 17.6794C2.27497 17.5259 2.25661 17.3641 2.27073 17.2034C2.28484 17.0427 2.33113 16.8865 2.40685 16.7441L6.1541 9.56812C6.30074 9.28626 6.55165 9.07281 6.85337 8.97325C7.15508 8.87369 7.48376 8.89589 7.76935 9.03512L11.5783 10.9396L6.70335 20.2785Z" stroke="white" stroke-width="0.958333" stroke-linecap="round" stroke-linejoin="round"/>
<path d="M6.70335 20.2785L2.93985 18.3886C2.79498 18.3177 2.66587 18.2184 2.56019 18.0965C2.45451 17.9747 2.37443 17.8328 2.3247 17.6794C2.27497 17.5259 2.25661 17.3641 2.27073 17.2034C2.28484 17.0427 2.33113 16.8865 2.40685 16.7441L6.1541 9.56812C6.30074 9.28626 6.55165 9.07281 6.85337 8.97325C7.15508 8.87369 7.48376 8.89589 7.76935 9.03512L11.5783 10.9396L6.70335 20.2785Z" stroke="url(#paint1_linear_207_888)" stroke-width="0.958333" stroke-linecap="round" stroke-linejoin="round"/>
<path d="M32.2969 20.4263L30.4688 23.2911L24.8625 28.8974C24.7096 29.0403 24.5243 29.1441 24.3225 29.1998C24.1208 29.2556 23.9085 29.2616 23.7039 29.2175L14.8687 27.0075C14.7074 26.9629 14.5569 26.8854 14.4268 26.78L6.70312 20.2751" stroke="white" stroke-width="0.958333" stroke-linecap="round" stroke-linejoin="round"/>
<path d="M32.2969 20.4263L30.4688 23.2911L24.8625 28.8974C24.7096 29.0403 24.5243 29.1441 24.3225 29.1998C24.1208 29.2556 23.9085 29.2616 23.7039 29.2175L14.8687 27.0075C14.7074 26.9629 14.5569 26.8854 14.4268 26.78L6.70312 20.2751" stroke="url(#paint2_linear_207_888)" stroke-width="0.958333" stroke-linecap="round" stroke-linejoin="round"/>
<path d="M30.4686 23.2959L23.7655 18.4209L21.8155 19.8834C20.9707 20.514 19.9447 20.8548 18.8905 20.8548C17.8363 20.8548 16.8103 20.514 15.9655 19.8834L15.1416 19.2594C15.0026 19.1535 14.8875 19.0193 14.8042 18.8656C14.7208 18.7119 14.6711 18.5423 14.6582 18.3679C14.6453 18.1936 14.6695 18.0185 14.7293 17.8542C14.7891 17.69 14.8832 17.5403 15.0051 17.415L20.977 11.4594C21.0891 11.3476 21.2222 11.2591 21.3686 11.1988C21.515 11.1386 21.6718 11.1079 21.8301 11.1084H27.4201" stroke="white" stroke-width="0.958333" stroke-linecap="round" stroke-linejoin="round"/>
<path d="M30.4686 23.2959L23.7655 18.4209L21.8155 19.8834C20.9707 20.514 19.9447 20.8548 18.8905 20.8548C17.8363 20.8548 16.8103 20.514 15.9655 19.8834L15.1416 19.2594C15.0026 19.1535 14.8875 19.0193 14.8042 18.8656C14.7208 18.7119 14.6711 18.5423 14.6582 18.3679C14.6453 18.1936 14.6695 18.0185 14.7293 17.8542C14.7891 17.69 14.8832 17.5403 15.0051 17.415L20.977 11.4594C21.0891 11.3476 21.2222 11.2591 21.3686 11.1988C21.515 11.1386 21.6718 11.1079 21.8301 11.1084H27.4201" stroke="url(#paint3_linear_207_888)" stroke-width="0.958333" stroke-linecap="round" stroke-linejoin="round"/>
<path d="M11.6709 10.9396L18.8761 8.65482C19.1539 8.57478 19.4511 8.59609 19.7146 8.71495L24.9845 11.1069" stroke="white" stroke-width="0.958333" stroke-linecap="round" stroke-linejoin="round"/>
<path d="M11.6709 10.9396L18.8761 8.65482C19.1539 8.57478 19.4511 8.59609 19.7146 8.71495L24.9845 11.1069" stroke="url(#paint4_linear_207_888)" stroke-width="0.958333" stroke-linecap="round" stroke-linejoin="round"/>
<defs>
<linearGradient id="paint0_linear_207_888" x1="25.0391" y1="14.7504" x2="38.7906" y2="14.7504" gradientUnits="userSpaceOnUse">
<stop stop-color="#999999"/>
<stop offset="0.508626" stop-color="white"/>
<stop offset="1" stop-color="#999999"/>
</linearGradient>
<linearGradient id="paint1_linear_207_888" x1="-0.116466" y1="14.5952" x2="13.6338" y2="14.5952" gradientUnits="userSpaceOnUse">
<stop stop-color="#999999"/>
<stop offset="0.508626" stop-color="white"/>
<stop offset="1" stop-color="#999999"/>
</linearGradient>
<linearGradient id="paint2_linear_207_888" x1="0.154842" y1="24.7609" x2="37.9461" y2="24.7609" gradientUnits="userSpaceOnUse">
<stop stop-color="#999999"/>
<stop offset="0.508626" stop-color="white"/>
<stop offset="1" stop-color="#999999"/>
</linearGradient>
<linearGradient id="paint3_linear_207_888" x1="10.6087" y1="17.2022" x2="33.9592" y2="17.2022" gradientUnits="userSpaceOnUse">
<stop stop-color="#999999"/>
<stop offset="0.508626" stop-color="white"/>
<stop offset="1" stop-color="#999999"/>
</linearGradient>
<linearGradient id="paint4_linear_207_888" x1="8.26454" y1="9.85706" x2="27.9232" y2="9.85706" gradientUnits="userSpaceOnUse">
<stop stop-color="#999999"/>
<stop offset="0.508626" stop-color="white"/>
<stop offset="1" stop-color="#999999"/>
</linearGradient>
</defs>
</svg>
