<svg width="39" height="39" viewBox="0 0 39 39" fill="none" xmlns="http://www.w3.org/2000/svg">
<path d="M14.0156 13.4062V7.92188C14.0156 6.46733 14.5934 5.07236 15.622 4.04384C16.6505 3.01532 18.0455 2.4375 19.5 2.4375C20.9545 2.4375 22.3495 3.01532 23.378 4.04384C24.4066 5.07236 24.9844 6.46733 24.9844 7.92188V13.4062M19.5 24.9844C19.9001 24.9844 20.2963 24.9056 20.666 24.7524C21.0357 24.5993 21.3715 24.3749 21.6545 24.092C21.9374 23.809 22.1618 23.4732 22.3149 23.1035C22.4681 22.7338 22.5469 22.3376 22.5469 21.9375C22.5469 21.5374 22.4681 21.1412 22.3149 20.7715C22.1618 20.4018 21.9374 20.066 21.6545 19.783C21.3715 19.5001 21.0357 19.2757 20.666 19.1226C20.2963 18.9694 19.9001 18.8906 19.5 18.8906C18.6919 18.8906 17.9169 19.2116 17.3455 19.783C16.7741 20.3544 16.4531 21.1294 16.4531 21.9375C16.4531 22.7456 16.7741 23.5206 17.3455 24.092C17.9169 24.6634 18.6919 24.9844 19.5 24.9844ZM19.5 24.9844V27.4219M31.6875 13.4062H7.3125C6.98927 13.4062 6.67927 13.5347 6.45071 13.7632C6.22215 13.9918 6.09375 14.3018 6.09375 14.625V31.6875C6.09375 32.3602 6.63975 32.9062 7.3125 32.9062H31.6875C32.0107 32.9062 32.3207 32.7778 32.5493 32.5493C32.7778 32.3207 32.9062 32.0107 32.9062 31.6875V14.625C32.9062 14.3018 32.7778 13.9918 32.5493 13.7632C32.3207 13.5347 32.0107 13.4062 31.6875 13.4062Z" stroke="white" stroke-width="0.958333" stroke-linecap="round" stroke-linejoin="round"/>
<path d="M14.0156 13.4062V7.92188C14.0156 6.46733 14.5934 5.07236 15.622 4.04384C16.6505 3.01532 18.0455 2.4375 19.5 2.4375C20.9545 2.4375 22.3495 3.01532 23.378 4.04384C24.4066 5.07236 24.9844 6.46733 24.9844 7.92188V13.4062M19.5 24.9844C19.9001 24.9844 20.2963 24.9056 20.666 24.7524C21.0357 24.5993 21.3715 24.3749 21.6545 24.092C21.9374 23.809 22.1618 23.4732 22.3149 23.1035C22.4681 22.7338 22.5469 22.3376 22.5469 21.9375C22.5469 21.5374 22.4681 21.1412 22.3149 20.7715C22.1618 20.4018 21.9374 20.066 21.6545 19.783C21.3715 19.5001 21.0357 19.2757 20.666 19.1226C20.2963 18.9694 19.9001 18.8906 19.5 18.8906C18.6919 18.8906 17.9169 19.2116 17.3455 19.783C16.7741 20.3544 16.4531 21.1294 16.4531 21.9375C16.4531 22.7456 16.7741 23.5206 17.3455 24.092C17.9169 24.6634 18.6919 24.9844 19.5 24.9844ZM19.5 24.9844V27.4219M31.6875 13.4062H7.3125C6.98927 13.4062 6.67927 13.5347 6.45071 13.7632C6.22215 13.9918 6.09375 14.3018 6.09375 14.625V31.6875C6.09375 32.3602 6.63975 32.9062 7.3125 32.9062H31.6875C32.0107 32.9062 32.3207 32.7778 32.5493 32.5493C32.7778 32.3207 32.9062 32.0107 32.9062 31.6875V14.625C32.9062 14.3018 32.7778 13.9918 32.5493 13.7632C32.3207 13.5347 32.0107 13.4062 31.6875 13.4062Z" stroke="url(#paint0_linear_207_883)" stroke-width="0.958333" stroke-linecap="round" stroke-linejoin="round"/>
<defs>
<linearGradient id="paint0_linear_207_883" x1="-0.766356" y1="17.6719" x2="38.8245" y2="17.6719" gradientUnits="userSpaceOnUse">
<stop stop-color="#999999"/>
<stop offset="0.508626" stop-color="white"/>
<stop offset="1" stop-color="#999999"/>
</linearGradient>
</defs>
</svg>
