<svg width="39" height="39" viewBox="0 0 39 39" fill="none" xmlns="http://www.w3.org/2000/svg">
<path d="M8.30375 30.6962C6.90138 29.2955 7.83087 26.3559 7.11425 24.635C6.39925 22.9125 3.65625 21.4029 3.65625 19.5C3.65625 17.5955 6.36837 16.1476 7.11425 14.365C7.86175 12.584 6.90138 9.7045 8.30213 8.30375C9.7045 6.90138 12.6441 7.83087 14.3666 7.11425C16.0875 6.39925 17.5955 3.65625 19.5 3.65625C21.4045 3.65625 22.8524 6.36837 24.635 7.11425C26.416 7.86175 29.2955 6.90138 30.6962 8.30213C32.0986 9.7045 31.1691 12.6441 31.8857 14.3666C32.6007 16.0875 35.3438 17.5955 35.3438 19.5C35.3438 21.4045 32.6316 22.8524 31.8857 24.635C31.1382 26.416 32.0986 29.2955 30.6979 30.6962C29.2955 32.0986 26.3559 31.1691 24.6334 31.8857C22.9125 32.6007 21.4045 35.3438 19.5 35.3438C17.5955 35.3438 16.1476 32.6316 14.365 31.8857C12.584 31.1382 9.7045 32.0986 8.30375 30.6979V30.6962Z" stroke="white" stroke-width="0.958333" stroke-linecap="round" stroke-linejoin="round"/>
<path d="M8.30375 30.6962C6.90138 29.2955 7.83087 26.3559 7.11425 24.635C6.39925 22.9125 3.65625 21.4029 3.65625 19.5C3.65625 17.5955 6.36837 16.1476 7.11425 14.365C7.86175 12.584 6.90138 9.7045 8.30213 8.30375C9.7045 6.90138 12.6441 7.83087 14.3666 7.11425C16.0875 6.39925 17.5955 3.65625 19.5 3.65625C21.4045 3.65625 22.8524 6.36837 24.635 7.11425C26.416 7.86175 29.2955 6.90138 30.6962 8.30213C32.0986 9.7045 31.1691 12.6441 31.8857 14.3666C32.6007 16.0875 35.3438 17.5955 35.3438 19.5C35.3438 21.4045 32.6316 22.8524 31.8857 24.635C31.1382 26.416 32.0986 29.2955 30.6979 30.6962C29.2955 32.0986 26.3559 31.1691 24.6334 31.8857C22.9125 32.6007 21.4045 35.3438 19.5 35.3438C17.5955 35.3438 16.1476 32.6316 14.365 31.8857C12.584 31.1382 9.7045 32.0986 8.30375 30.6979V30.6962Z" stroke="url(#paint0_linear_207_898)" stroke-width="0.958333" stroke-linecap="round" stroke-linejoin="round"/>
<path d="M26.2031 15.8438L17.2607 24.375L12.7969 20.1094" stroke="white" stroke-width="0.958333" stroke-linecap="round" stroke-linejoin="round"/>
<path d="M26.2031 15.8438L17.2607 24.375L12.7969 20.1094" stroke="url(#paint1_linear_207_898)" stroke-width="0.958333" stroke-linecap="round" stroke-linejoin="round"/>
<defs>
<linearGradient id="paint0_linear_207_898" x1="-4.45115" y1="19.5" x2="42.338" y2="19.5" gradientUnits="userSpaceOnUse">
<stop stop-color="#999999"/>
<stop offset="0.508626" stop-color="white"/>
<stop offset="1" stop-color="#999999"/>
</linearGradient>
<linearGradient id="paint1_linear_207_898" x1="9.36682" y1="20.1094" x2="29.1622" y2="20.1094" gradientUnits="userSpaceOnUse">
<stop stop-color="#999999"/>
<stop offset="0.508626" stop-color="white"/>
<stop offset="1" stop-color="#999999"/>
</linearGradient>
</defs>
</svg>
