<svg width="219" height="179" viewBox="0 0 219 179" fill="none" xmlns="http://www.w3.org/2000/svg">
<path d="M207.477 107.538L185.831 118.386L157.781 64.3628L179.698 53.3265C181.326 52.4912 183.215 52.3383 184.955 52.9011C186.694 53.4638 188.142 54.6966 188.982 56.3304L210.553 97.905C210.99 98.7373 211.258 99.6494 211.34 100.587C211.423 101.526 211.318 102.471 211.032 103.368C210.746 104.264 210.285 105.094 209.676 105.809C209.067 106.524 208.323 107.108 207.486 107.529L207.477 107.538Z" stroke="white" stroke-opacity="0.19" stroke-width="0.958333" stroke-linecap="round" stroke-linejoin="round"/>
<path d="M38.5692 117.51L16.9146 106.559C16.0811 106.148 15.3382 105.572 14.7302 104.866C14.1221 104.16 13.6613 103.338 13.3752 102.449C13.089 101.56 12.9834 100.622 13.0646 99.6907C13.1458 98.7596 13.4122 97.8545 13.8478 97.0292L35.4089 55.4452C36.2527 53.8119 37.6964 52.575 39.4324 51.998C41.1685 51.4211 43.0596 51.5497 44.7028 52.3566L66.6192 63.3929L38.5692 117.51Z" stroke="white" stroke-opacity="0.19" stroke-width="0.958333" stroke-linecap="round" stroke-linejoin="round"/>
<path d="M185.831 118.367L175.312 134.969L143.055 167.457C142.175 168.285 141.109 168.886 139.948 169.209C138.787 169.532 137.565 169.567 136.388 169.312L85.5521 156.505C84.6234 156.246 83.7577 155.797 83.0089 155.187L38.5684 117.492" stroke="white" stroke-opacity="0.19" stroke-width="0.958333" stroke-linecap="round" stroke-linejoin="round"/>
<path d="M175.313 134.997L136.744 106.747L125.524 115.222C120.663 118.877 114.76 120.851 108.694 120.851C102.628 120.851 96.7248 118.877 91.864 115.222L87.1236 111.606C86.3233 110.993 85.6614 110.215 85.1818 109.324C84.7023 108.434 84.4159 107.451 84.3416 106.44C84.2674 105.43 84.407 104.415 84.7512 103.464C85.0954 102.512 85.6363 101.644 86.3382 100.918L120.699 66.4064C121.344 65.7586 122.11 65.2455 122.952 64.8964C123.795 64.5474 124.697 64.3693 125.608 64.3724H157.772" stroke="white" stroke-opacity="0.19" stroke-width="0.958333" stroke-linecap="round" stroke-linejoin="round"/>
<path d="M67.1514 63.3931L108.609 50.1533C110.208 49.6895 111.918 49.813 113.434 50.5017L143.756 64.363" stroke="white" stroke-opacity="0.19" stroke-width="0.958333" stroke-linecap="round" stroke-linejoin="round"/>
</svg>
