<svg width="238" height="231" viewBox="0 0 238 231" fill="none" xmlns="http://www.w3.org/2000/svg">
<path d="M79.5706 144.375C85.7452 144.375 91.8593 143.161 97.5639 140.803C103.268 138.445 108.452 134.989 112.818 130.632C117.184 126.275 120.647 121.102 123.01 115.409C125.373 109.717 126.589 103.615 126.589 97.4531C126.589 91.2913 125.373 85.1897 123.01 79.4969C120.647 73.8041 117.184 68.6314 112.818 64.2743C108.452 59.9173 103.268 56.461 97.5639 54.103C91.8593 51.7449 85.7452 50.5312 79.5706 50.5312C67.1004 50.5313 55.141 55.4748 46.3233 64.2743C37.5055 73.0739 32.5518 85.0087 32.5518 97.4531C32.5518 109.898 37.5055 121.832 46.3233 130.632C55.141 139.431 67.1004 144.375 79.5706 144.375Z" stroke="white" stroke-opacity="0.19" stroke-width="0.958333" stroke-linecap="round" stroke-linejoin="round"/>
<path d="M140.507 52.2445C144.663 51.118 148.95 50.542 153.257 50.5312C159.432 50.5312 165.546 51.7449 171.251 54.103C176.955 56.461 182.139 59.9173 186.505 64.2743C190.871 68.6314 194.334 73.8041 196.697 79.4969C199.06 85.1897 200.276 91.2913 200.276 97.4531C200.276 103.615 199.06 109.717 196.697 115.409C194.334 121.102 190.871 126.275 186.505 130.632C182.139 134.989 176.955 138.445 171.251 140.803C165.546 143.161 159.432 144.375 153.257 144.375" stroke="white" stroke-opacity="0.19" stroke-width="0.958333" stroke-linecap="round" stroke-linejoin="round"/>
<path d="M14.4678 178.13C21.8095 167.704 31.5576 159.194 42.8889 153.32C54.2202 147.446 66.8017 144.379 79.5708 144.379C92.3398 144.379 104.921 147.446 116.253 153.32C127.584 159.194 137.332 167.704 144.674 178.13" stroke="white" stroke-opacity="0.19" stroke-width="0.958333" stroke-linecap="round" stroke-linejoin="round"/>
<path d="M153.257 144.375C166.027 144.367 178.611 147.43 189.943 153.304C201.275 159.178 211.023 167.69 218.36 178.12" stroke="white" stroke-opacity="0.19" stroke-width="0.958333" stroke-linecap="round" stroke-linejoin="round"/>
</svg>
