<svg width="194" height="202" viewBox="0 0 194 202" fill="none" xmlns="http://www.w3.org/2000/svg">
<g clip-path="url(#clip0_207_1303)">
<path d="M79.5701 144.375C85.7447 144.375 91.8588 143.161 97.5634 140.803C103.268 138.445 108.451 134.989 112.817 130.632C117.184 126.275 120.647 121.102 123.01 115.409C125.373 109.717 126.589 103.615 126.589 97.4531C126.589 91.2913 125.373 85.1897 123.01 79.4969C120.647 73.8041 117.184 68.6314 112.817 64.2743C108.451 59.9173 103.268 56.461 97.5634 54.103C91.8588 51.7449 85.7447 50.5312 79.5701 50.5312C67.0999 50.5313 55.1405 55.4748 46.3228 64.2743C37.505 73.0739 32.5513 85.0087 32.5513 97.4531C32.5513 109.898 37.505 121.832 46.3228 130.632C55.1405 139.431 67.0999 144.375 79.5701 144.375Z" stroke="white" stroke-opacity="0.19" stroke-width="0.958333" stroke-linecap="round" stroke-linejoin="round"/>
<path d="M140.506 52.2445C144.663 51.118 148.95 50.542 153.257 50.5312C159.431 50.5312 165.546 51.7449 171.25 54.103C176.955 56.461 182.138 59.9173 186.504 64.2743C190.87 68.6314 194.334 73.8041 196.697 79.4969C199.06 85.1897 200.276 91.2913 200.276 97.4531C200.276 103.615 199.06 109.717 196.697 115.409C194.334 121.102 190.87 126.275 186.504 130.632C182.138 134.989 176.955 138.445 171.25 140.803C165.546 143.161 159.431 144.375 153.257 144.375" stroke="white" stroke-opacity="0.19" stroke-width="0.958333" stroke-linecap="round" stroke-linejoin="round"/>
<path d="M14.4673 178.13C21.809 167.704 31.5572 159.194 42.8884 153.32C54.2197 147.446 66.8012 144.379 79.5703 144.379C92.3393 144.379 104.921 147.446 116.252 153.32C127.583 159.194 137.332 167.704 144.673 178.13" stroke="white" stroke-opacity="0.19" stroke-width="0.958333" stroke-linecap="round" stroke-linejoin="round"/>
<path d="M153.257 144.375C166.027 144.367 178.611 147.43 189.943 153.304C201.275 159.178 211.023 167.69 218.36 178.12" stroke="white" stroke-opacity="0.19" stroke-width="0.958333" stroke-linecap="round" stroke-linejoin="round"/>
</g>
<defs>
<clipPath id="clip0_207_1303">
<rect width="194" height="202" fill="white"/>
</clipPath>
</defs>
</svg>
