<svg width="139" height="175" viewBox="0 0 139 175" fill="none" xmlns="http://www.w3.org/2000/svg">
<g clip-path="url(#clip0_207_1314)">
<path d="M87.1878 173.375C98.4343 173.375 109.571 171.154 119.961 166.838C130.352 162.523 139.793 156.197 147.745 148.223C155.698 140.249 162.006 130.782 166.31 120.363C170.614 109.944 172.829 98.7773 172.829 87.5C172.829 76.2227 170.614 65.0559 166.31 54.6371C162.006 44.2182 155.698 34.7514 147.745 26.7772C139.793 18.803 130.352 12.4775 119.961 8.16184C109.571 3.84622 98.4343 1.625 87.1878 1.625C64.4744 1.625 42.6913 10.6725 26.6305 26.7772C10.5697 42.8819 1.54688 64.7245 1.54688 87.5C1.54687 110.275 10.5697 132.118 26.6305 148.223C42.6913 164.327 64.4744 173.375 87.1878 173.375Z" stroke="white" stroke-opacity="0.19" stroke-width="0.958333" stroke-linecap="round" stroke-linejoin="round"/>
<path d="M164.074 125.419L115.639 95.5437C114.809 95.0034 113.864 94.6637 112.88 94.5513L92.4498 91.7842C90.925 91.562 89.3698 91.8536 88.0282 92.6135C86.6865 93.3733 85.6345 94.5584 85.0371 95.9826L72.819 123.453C72.2455 124.729 72.0578 126.146 72.2794 127.529C72.501 128.911 73.122 130.198 74.0656 131.229L90.8417 149.387C91.5993 150.224 92.154 151.226 92.4626 152.313C92.7712 153.4 92.8255 154.544 92.6211 155.656L89.1479 173.365" stroke="white" stroke-opacity="0.19" stroke-width="0.958333" stroke-linecap="round" stroke-linejoin="round"/>
<path d="M30.9884 22.7122L22.9572 41.6905C22.2538 43.3758 22.2197 45.267 22.8621 46.9766L33.139 74.3326C33.5406 75.4734 34.2274 76.4918 35.1338 77.2903C36.0401 78.0889 37.1356 78.6408 38.3155 78.8935L57.4039 83.0155C58.4621 83.2316 59.4557 83.6915 60.3062 84.3589C61.1567 85.0262 61.8408 85.8828 62.3045 86.8608L65.7016 93.9216C66.3031 95.1172 67.2198 96.1246 68.3522 96.8345C69.4846 97.5444 70.7893 97.9296 72.1246 97.9482H84.1619" stroke="white" stroke-opacity="0.19" stroke-width="0.958333" stroke-linecap="round" stroke-linejoin="round"/>
<path d="M109.046 4.39209L117.343 19.4107C118.109 20.8241 118.384 22.4525 118.126 24.0399C117.867 25.6273 117.09 27.0835 115.916 28.1795L91.9174 49.9058C91.5175 50.2898 91.0697 50.6201 90.5852 50.8886L79.6136 56.9762C78.5649 57.5314 77.4021 57.8351 76.2165 57.8636H57.1281C55.7209 57.8716 54.3465 58.2911 53.1735 59.0707C52.0004 59.8503 51.0798 60.9562 50.5243 62.2528L43.1211 79.8762" stroke="white" stroke-opacity="0.19" stroke-width="0.958333" stroke-linecap="round" stroke-linejoin="round"/>
</g>
<defs>
<clipPath id="clip0_207_1314">
<rect width="139" height="175" fill="white"/>
</clipPath>
</defs>
</svg>
