<svg width="174" height="175" viewBox="0 0 174 175" fill="none" xmlns="http://www.w3.org/2000/svg">
<path d="M87.1878 173.375C98.4343 173.375 109.571 171.154 119.961 166.838C130.352 162.523 139.793 156.197 147.745 148.223C155.698 140.249 162.006 130.782 166.31 120.363C170.614 109.944 172.829 98.7773 172.829 87.5C172.829 76.2227 170.614 65.0559 166.31 54.6371C162.006 44.2182 155.698 34.7514 147.745 26.7772C139.793 18.803 130.352 12.4775 119.961 8.16184C109.571 3.84622 98.4343 1.625 87.1878 1.625C64.4744 1.625 42.6913 10.6725 26.6305 26.7772C10.5697 42.8819 1.54688 64.7245 1.54688 87.5C1.54687 110.275 10.5697 132.118 26.6305 148.223C42.6913 164.327 64.4744 173.375 87.1878 173.375Z" stroke="white" stroke-opacity="0.19" stroke-width="0.958333" stroke-linecap="round" stroke-linejoin="round"/>
<path d="M164.075 125.419L115.64 95.5437C114.809 95.0034 113.864 94.6637 112.88 94.5513L92.4503 91.7842C90.9255 91.562 89.3703 91.8536 88.0286 92.6135C86.687 93.3733 85.635 94.5584 85.0376 95.9826L72.8195 123.453C72.2459 124.729 72.0583 126.146 72.2799 127.529C72.5015 128.911 73.1225 130.198 74.0661 131.229L90.8422 149.387C91.5998 150.224 92.1545 151.226 92.4631 152.313C92.7717 153.4 92.826 154.544 92.6216 155.656L89.1484 173.365" stroke="white" stroke-opacity="0.19" stroke-width="0.958333" stroke-linecap="round" stroke-linejoin="round"/>
<path d="M30.988 22.7122L22.9567 41.6905C22.2533 43.3758 22.2192 45.267 22.8616 46.9766L33.1385 74.3326C33.5401 75.4734 34.2269 76.4918 35.1333 77.2903C36.0396 78.0889 37.1351 78.6408 38.315 78.8935L57.4034 83.0155C58.4616 83.2316 59.4552 83.6915 60.3057 84.3589C61.1562 85.0262 61.8403 85.8828 62.304 86.8608L65.7011 93.9216C66.3026 95.1172 67.2193 96.1246 68.3517 96.8345C69.4841 97.5444 70.7888 97.9296 72.1241 97.9482H84.1614" stroke="white" stroke-opacity="0.19" stroke-width="0.958333" stroke-linecap="round" stroke-linejoin="round"/>
<path d="M109.046 4.39209L117.343 19.4107C118.109 20.8241 118.384 22.4525 118.126 24.0399C117.867 25.6273 117.09 27.0835 115.916 28.1795L91.9174 49.9058C91.5175 50.2898 91.0697 50.6201 90.5852 50.8886L79.6136 56.9762C78.5649 57.5314 77.4021 57.8351 76.2165 57.8636H57.1281C55.7209 57.8716 54.3465 58.2911 53.1735 59.0707C52.0004 59.8503 51.0798 60.9562 50.5243 62.2528L43.1211 79.8762" stroke="white" stroke-opacity="0.19" stroke-width="0.958333" stroke-linecap="round" stroke-linejoin="round"/>
</svg>
