<svg width="190" height="200" viewBox="0 0 190 200" fill="none" xmlns="http://www.w3.org/2000/svg">
<g clip-path="url(#clip0_207_1324)">
<path d="M125.193 28.2944C122.303 19.3914 109.707 19.3914 106.807 28.2944L92.1233 73.4764C91.4908 75.4161 90.2609 77.1059 88.6097 78.304C86.9584 79.502 84.9704 80.147 82.9303 80.1464H35.4283C26.0709 80.1464 22.1656 92.1331 29.7443 97.6431L68.1789 125.56C69.8299 126.761 71.0586 128.453 71.689 130.394C72.3193 132.336 72.319 134.427 71.6879 136.368L57.0139 181.55C54.1139 190.453 64.3123 197.867 71.8813 192.357L110.316 164.44C111.968 163.239 113.958 162.592 116 162.592C118.042 162.592 120.032 163.239 121.684 164.44L160.119 192.357C167.688 197.867 177.886 190.462 174.986 181.55L160.312 136.368C159.681 134.427 159.681 132.336 160.311 130.394C160.941 128.453 162.17 126.761 163.821 125.56L202.256 97.6431C209.825 92.1331 205.939 80.1464 196.572 80.1464H149.06C147.021 80.1449 145.036 79.4991 143.386 78.3011C141.737 77.1032 140.509 75.4145 139.877 73.4764L125.193 28.2944Z" stroke="white" stroke-opacity="0.19" stroke-width="0.895833" stroke-linecap="round" stroke-linejoin="round"/>
</g>
<defs>
<clipPath id="clip0_207_1324">
<rect width="190" height="200" fill="white"/>
</clipPath>
</defs>
</svg>
