<svg width="182" height="180" viewBox="0 0 182 180" fill="none" xmlns="http://www.w3.org/2000/svg">
<path d="M100.193 8.29444C97.3026 -0.608563 84.7069 -0.608563 81.8069 8.29444L67.1233 53.4764C66.4908 55.4161 65.2609 57.1059 63.6097 58.304C61.9584 59.502 59.9704 60.147 57.9303 60.1464H10.4283C1.07095 60.1464 -2.83439 72.1331 4.74428 77.6431L43.1789 105.56C44.8299 106.761 46.0586 108.453 46.689 110.394C47.3193 112.336 47.319 114.427 46.6879 116.368L32.0139 161.55C29.1139 170.453 39.3123 177.867 46.8813 172.357L85.3159 144.44C86.9679 143.239 88.9577 142.592 90.9999 142.592C93.0422 142.592 95.032 143.239 96.6839 144.44L135.119 172.357C142.688 177.867 152.886 170.462 149.986 161.55L135.312 116.368C134.681 114.427 134.681 112.336 135.311 110.394C135.941 108.453 137.17 106.761 138.821 105.56L177.256 77.6431C184.825 72.1331 180.939 60.1464 171.572 60.1464H124.06C122.021 60.1449 120.036 59.4991 118.386 58.3011C116.737 57.1032 115.509 55.4145 114.877 53.4764L100.193 8.29444Z" stroke="white" stroke-opacity="0.19" stroke-width="0.895833" stroke-linecap="round" stroke-linejoin="round"/>
</svg>
