<svg width="131" height="53" viewBox="0 0 131 53" fill="none" xmlns="http://www.w3.org/2000/svg">
<path d="M20.5122 22.7299L20.6244 22.7687C20.6465 22.8606 20.666 22.9927 20.5298 22.9821L20.4903 22.9366C20.4656 22.8587 20.488 22.8059 20.5122 22.7299Z" fill="#9C9C9C"/>
<path d="M24.9563 15.8317C25.5196 15.8633 27.1773 16.7893 26.9624 17.101C26.8321 17.29 25.6663 17.5248 25.4105 17.5513C24.6113 17.6183 23.0906 16.4593 23.4693 16.145C23.7218 15.9356 24.6309 15.8153 24.9563 15.8317Z" fill="#9C9C9C"/>
<path d="M29.8624 36.8048C30.2739 36.8181 32.038 37.5732 31.7019 37.9153C31.377 38.2457 30.3647 38.4602 29.9013 38.4618C29.1996 38.4095 28.3742 37.9404 27.9721 37.3886C28.5078 36.9548 29.1806 36.8093 29.8624 36.8048Z" fill="#9C9C9C"/>
<path d="M27.4937 31.7587C28.0303 32.6214 27.9791 34.2157 27.1655 34.9356C26.9605 35.1171 26.6686 35.3496 26.3791 35.3357C25.2926 34.4093 26.4676 32.1709 27.4937 31.7587Z" fill="#9C9C9C"/>
<path d="M22.9275 34.3441C23.3874 34.356 24.0005 34.653 24.5302 34.7382C24.0176 35.663 23.0379 36.0213 21.9945 35.888C21.3933 35.806 20.7112 35.5535 20.424 34.9955C21.0628 34.4713 22.1056 34.2882 22.9275 34.3441Z" fill="#9C9C9C"/>
<path d="M23.543 23.1836C23.7978 23.2299 24.088 26.0829 21.8377 26.9162C21.7387 26.953 21.6793 26.9669 21.5799 26.9228C20.8286 25.3529 22.0171 23.7511 23.543 23.1836Z" fill="#9C9C9C"/>
<path d="M20.5116 22.7295C20.5593 20.248 21.9533 19.06 24.5221 19.4793C24.0794 21.5105 20.7892 21.9939 20.6236 22.7682L20.5116 22.7295Z" fill="#9C9C9C"/>
<path d="M18.2613 16.103C19.7527 16.8296 20.5418 18.4806 20.2493 20.0696C20.2178 20.2403 20.1715 20.3602 20.0207 20.4637C19.4662 20.7298 18.6802 19.7038 18.4538 19.3267C17.8337 18.2938 17.9658 17.2051 18.2613 16.103Z" fill="#9C9C9C"/>
<path d="M27.6195 9.71159C27.8189 9.71331 27.7203 10.1551 27.7069 10.2882C27.5415 11.9318 26.1728 13.4037 24.5951 13.9421C24.298 13.8971 24.6685 12.5747 24.7334 12.3628C25.1326 11.0582 26.3531 10.1648 27.6195 9.71159Z" fill="#9C9C9C"/>
<path d="M25.7694 37.2901C26.2696 37.3119 28.4421 38.2214 27.6417 38.8294C26.9718 39.3383 25.9767 39.5694 25.141 39.4675C24.8648 39.4324 24.531 39.4041 24.2813 39.2819C24.0372 39.1623 22.7576 38.4928 23.112 38.1631C23.8018 37.5212 24.8305 37.2482 25.7694 37.2901Z" fill="#9C9C9C"/>
<path d="M21.9207 10.9846C23.2805 12.1307 23.8276 14.8629 22.3214 16.0756C21.5267 16.4931 21.0057 14.3036 21.0077 13.8478C21.0106 13.1624 21.481 11.4064 21.9207 10.9846Z" fill="#9C9C9C"/>
<path d="M19.0351 28.6911C21.0455 28.8561 22.2294 30.5335 22.6181 32.3159C22.2041 32.3082 21.7803 32.223 21.3711 32.1629C19.4948 31.9055 18.3928 30.8304 17.8315 29.0713C17.648 28.4968 18.5883 28.6661 19.0351 28.6911Z" fill="#9C9C9C"/>
<path d="M24.3714 28.1407C24.7384 28.1616 25.3112 29.193 25.4801 29.496C25.8512 30.1609 26.2424 32.1018 25.3954 32.5277C25.1102 32.5182 24.8322 32.4614 24.5529 32.4094C24.0066 32.2895 23.6844 32.0537 23.0773 32.0341C22.0934 30.825 23.1246 28.8663 24.3714 28.1407Z" fill="#9C9C9C"/>
<path d="M16.7219 22.9778C17.0183 23.0683 17.3392 23.1145 17.6417 23.1878C19.5744 23.6556 20.1653 24.8988 20.7334 26.5679C20.8174 26.8145 21.3709 28.1227 21.3497 28.2034C21.2441 28.1291 21.1907 28.0354 21.1246 27.9299C20.4312 26.8211 18.5197 27.618 17.2286 25.305C16.9068 24.7284 16.537 23.5782 16.7219 22.9778Z" fill="#9C9C9C"/>
<path d="M110.287 22.7299L110.174 22.7687C110.152 22.8606 110.133 22.9927 110.269 22.9821L110.309 22.9366C110.333 22.8587 110.311 22.8059 110.287 22.7299Z" fill="#9C9C9C"/>
<path d="M105.843 15.8317C105.279 15.8633 103.622 16.7893 103.836 17.101C103.967 17.29 105.133 17.5248 105.388 17.5513C106.188 17.6183 107.708 16.4593 107.329 16.145C107.077 15.9356 106.168 15.8153 105.843 15.8317Z" fill="#9C9C9C"/>
<path d="M100.934 36.8048C100.523 36.8181 98.7588 37.5732 99.0949 37.9153C99.4199 38.2457 100.432 38.4602 100.896 38.4618C101.597 38.4095 102.423 37.9404 102.825 37.3886C102.289 36.9548 101.616 36.8093 100.934 36.8048Z" fill="#9C9C9C"/>
<path d="M103.307 31.7587C102.771 32.6214 102.822 34.2157 103.635 34.9356C103.84 35.1171 104.132 35.3496 104.422 35.3357C105.508 34.4093 104.333 32.1709 103.307 31.7587Z" fill="#9C9C9C"/>
<path d="M107.871 34.3441C107.411 34.356 106.798 34.653 106.269 34.7382C106.781 35.663 107.761 36.0213 108.804 35.888C109.405 35.806 110.088 35.5535 110.375 34.9955C109.736 34.4713 108.693 34.2882 107.871 34.3441Z" fill="#9C9C9C"/>
<path d="M107.254 23.1836C106.999 23.2299 106.709 26.0829 108.959 26.9162C109.058 26.953 109.118 26.9669 109.217 26.9228C109.968 25.3529 108.78 23.7511 107.254 23.1836Z" fill="#9C9C9C"/>
<path d="M110.285 22.7295C110.238 20.248 108.844 19.06 106.275 19.4793C106.717 21.5105 110.008 21.9939 110.173 22.7682L110.285 22.7295Z" fill="#9C9C9C"/>
<path d="M112.534 16.103C111.042 16.8296 110.253 18.4806 110.546 20.0696C110.577 20.2403 110.623 20.3602 110.774 20.4637C111.329 20.7298 112.115 19.7038 112.341 19.3267C112.961 18.2938 112.829 17.2051 112.534 16.103Z" fill="#9C9C9C"/>
<path d="M103.175 9.71159C102.976 9.71331 103.075 10.1551 103.088 10.2882C103.253 11.9318 104.622 13.4037 106.2 13.9421C106.497 13.8971 106.126 12.5747 106.062 12.3628C105.662 11.0582 104.442 10.1648 103.175 9.71159Z" fill="#9C9C9C"/>
<path d="M105.031 37.2901C104.531 37.3119 102.359 38.2214 103.159 38.8294C103.829 39.3383 104.824 39.5694 105.66 39.4675C105.936 39.4324 106.27 39.4041 106.519 39.2819C106.764 39.1623 108.043 38.4928 107.689 38.1631C106.999 37.5212 105.97 37.2482 105.031 37.2901Z" fill="#9C9C9C"/>
<path d="M108.874 10.9845C107.514 12.1305 106.967 14.8627 108.474 16.0755C109.268 16.493 109.789 14.3034 109.787 13.8477C109.784 13.1622 109.314 11.4063 108.874 10.9845Z" fill="#9C9C9C"/>
<path d="M111.76 28.6911C109.749 28.8561 108.566 30.5335 108.177 32.3159C108.591 32.3082 109.015 32.223 109.424 32.1629C111.3 31.9055 112.402 30.8304 112.963 29.0713C113.147 28.4968 112.207 28.6661 111.76 28.6911Z" fill="#9C9C9C"/>
<path d="M106.425 28.1407C106.058 28.1616 105.486 29.193 105.317 29.496C104.946 30.1609 104.554 32.1018 105.401 32.5277C105.687 32.5182 105.965 32.4614 106.244 32.4094C106.79 32.2895 107.112 32.0537 107.72 32.0341C108.703 30.825 107.672 28.8663 106.425 28.1407Z" fill="#9C9C9C"/>
<path d="M114.077 22.9778C113.781 23.0683 113.46 23.1145 113.157 23.1878C111.224 23.6556 110.634 24.8988 110.065 26.5679C109.981 26.8145 109.428 28.1227 109.449 28.2034C109.555 28.1291 109.608 28.0354 109.674 27.9299C110.368 26.8211 112.279 27.618 113.57 25.305C113.892 24.7284 114.262 23.5782 114.077 22.9778Z" fill="#9C9C9C"/>
<path d="M36.9485 20.8514H36.2165L35.3074 19.4516L36.2165 18.0519H36.9485L35.9993 19.4516L36.9485 20.8514ZM38.3483 20.8514H37.6243L36.7152 19.4516L37.6243 18.0519H38.3483L37.4232 19.4516L38.3483 20.8514ZM41.8122 16.459C41.4743 16.459 41.1847 16.5207 40.9434 16.6441C40.7074 16.7674 40.5117 16.9337 40.3561 17.1428C40.206 17.352 40.096 17.5933 40.0263 17.8668C39.9566 18.135 39.9217 18.4166 39.9217 18.7115C39.9217 19.028 39.9593 19.3256 40.0343 19.6045C40.1094 19.8834 40.2247 20.1274 40.3803 20.3366C40.5358 20.5404 40.7342 20.7039 40.9756 20.8273C41.2169 20.9453 41.5038 21.0043 41.8363 21.0043C42.2386 21.0043 42.5765 20.9211 42.85 20.7549C43.1235 20.5886 43.3005 20.3661 43.3809 20.0872H44.1452C44.0218 20.5591 43.7617 20.9372 43.3648 21.2215C42.968 21.5004 42.4531 21.6398 41.8203 21.6398C41.3805 21.6398 40.997 21.5674 40.6699 21.4226C40.3427 21.2778 40.0692 21.0767 39.8493 20.8192C39.6348 20.5618 39.4739 20.2561 39.3666 19.9021C39.2594 19.5482 39.2057 19.1594 39.2057 18.7357C39.2057 18.3173 39.2594 17.9312 39.3666 17.5772C39.4739 17.2233 39.6375 16.9176 39.8574 16.6601C40.0772 16.3974 40.3508 16.1936 40.6779 16.0488C41.0051 15.8986 41.3912 15.8235 41.8363 15.8235C42.1474 15.8235 42.4263 15.861 42.673 15.9361C42.9251 16.0112 43.1423 16.1185 43.3246 16.2579C43.5123 16.392 43.6652 16.5556 43.7832 16.7486C43.9011 16.9363 43.987 17.1455 44.0406 17.3761H43.3327C43.2522 17.0972 43.0779 16.8747 42.8098 16.7084C42.547 16.5422 42.2144 16.459 41.8122 16.459ZM46.9364 17.2876C47.2742 17.2876 47.5665 17.3413 47.8132 17.4485C48.0599 17.5558 48.2664 17.706 48.4327 17.899C48.6043 18.0921 48.7303 18.3227 48.8108 18.5909C48.8966 18.8537 48.9395 19.1433 48.9395 19.4597C48.9395 19.7761 48.8966 20.0684 48.8108 20.3366C48.7303 20.5994 48.6043 20.8273 48.4327 21.0204C48.2664 21.2081 48.0572 21.3556 47.8052 21.4628C47.5531 21.5701 47.2581 21.6237 46.9203 21.6237C46.5824 21.6237 46.2874 21.5701 46.0353 21.4628C45.7886 21.3556 45.5795 21.2081 45.4079 21.0204C45.2416 20.8273 45.1156 20.5994 45.0298 20.3366C44.9493 20.0684 44.9091 19.7761 44.9091 19.4597C44.9091 19.1433 44.9493 18.8537 45.0298 18.5909C45.1156 18.3227 45.2416 18.0921 45.4079 17.899C45.5795 17.706 45.7913 17.5558 46.0434 17.4485C46.2955 17.3413 46.5931 17.2876 46.9364 17.2876ZM46.9203 21.0204C47.1509 21.0204 47.3493 20.9801 47.5156 20.8997C47.6872 20.8192 47.8266 20.7093 47.9339 20.5699C48.0465 20.4251 48.127 20.2588 48.1752 20.0711C48.2289 19.8834 48.2557 19.6796 48.2557 19.4597C48.2557 19.2452 48.2289 19.0441 48.1752 18.8563C48.127 18.6633 48.0465 18.497 47.9339 18.3576C47.8266 18.2128 47.6872 18.1001 47.5156 18.0197C47.3493 17.9393 47.1509 17.899 46.9203 17.899C46.6896 17.899 46.4912 17.9393 46.325 18.0197C46.1587 18.1001 46.0193 18.2128 45.9066 18.3576C45.7994 18.497 45.7189 18.6633 45.6653 18.8563C45.617 19.0441 45.5929 19.2452 45.5929 19.4597C45.5929 19.6796 45.617 19.8834 45.6653 20.0711C45.7189 20.2588 45.7994 20.4251 45.9066 20.5699C46.0193 20.7093 46.1587 20.8192 46.325 20.8997C46.4912 20.9801 46.6896 21.0204 46.9203 21.0204ZM50.4478 18.2932C50.5282 18.1806 50.6221 18.0867 50.7293 18.0117C50.8366 17.9312 50.9519 17.8642 51.0753 17.8105C51.204 17.7569 51.3327 17.7194 51.4614 17.6979C51.5955 17.6711 51.7242 17.6577 51.8476 17.6577C52.1372 17.6577 52.3919 17.7033 52.6118 17.7944C52.8371 17.8856 53.0248 18.017 53.1749 18.1886C53.3305 18.3549 53.4484 18.556 53.5289 18.792C53.6093 19.028 53.6496 19.2908 53.6496 19.5804C53.6496 19.87 53.6067 20.1408 53.5208 20.3929C53.435 20.6396 53.309 20.8541 53.1427 21.0364C52.9819 21.2188 52.7807 21.3636 52.5394 21.4709C52.3034 21.5728 52.0299 21.6237 51.7188 21.6237C51.3649 21.6237 51.0672 21.562 50.8259 21.4387C50.5845 21.31 50.3888 21.141 50.2386 20.9319C50.0938 20.7173 49.9866 20.4626 49.9168 20.1676C49.8471 19.8727 49.8096 19.583 49.8042 19.2988C49.7935 19.213 49.7881 19.0414 49.7881 18.7839C49.7935 18.5211 49.8069 18.2852 49.8283 18.076C49.8498 17.8615 49.8847 17.655 49.9329 17.4566C49.9866 17.2528 50.059 17.0731 50.1501 16.9176C50.2949 16.6601 50.4773 16.4698 50.6972 16.3464C50.9224 16.2231 51.1799 16.1372 51.4695 16.089C51.5606 16.0729 51.7644 16.0434 52.0809 16.0005C52.4026 15.9522 52.6225 15.92 52.7405 15.904C52.8424 15.8932 52.9524 15.8798 53.0703 15.8637C53.1937 15.8423 53.3144 15.8208 53.4324 15.7994V16.4269C53.3519 16.4537 53.2527 16.4778 53.1347 16.4993C53.0167 16.5153 52.8826 16.5314 52.7325 16.5475C52.6252 16.5636 52.5126 16.5797 52.3946 16.5958C52.282 16.6065 52.164 16.6199 52.0406 16.636C51.9226 16.6467 51.7403 16.6709 51.4936 16.7084C51.3112 16.7352 51.1611 16.7862 51.0431 16.8613C50.9305 16.9363 50.8312 17.0356 50.7454 17.1589C50.6435 17.3091 50.5685 17.4914 50.5202 17.706C50.4773 17.9151 50.4531 18.1109 50.4478 18.2932ZM51.7349 21.0204C51.9334 21.0204 52.1077 20.9828 52.2578 20.9077C52.4134 20.8326 52.5421 20.7307 52.644 20.602C52.7512 20.4733 52.8317 20.3232 52.8853 20.1515C52.939 19.9799 52.9658 19.7976 52.9658 19.6045C52.9658 19.4168 52.9363 19.2425 52.8773 19.0816C52.8236 18.9153 52.7459 18.7732 52.644 18.6552C52.5421 18.5319 52.4187 18.438 52.2739 18.3737C52.1291 18.3039 51.9521 18.2691 51.743 18.2691C51.5499 18.2744 51.3783 18.312 51.2281 18.3817C51.078 18.4514 50.9492 18.5506 50.842 18.6794C50.7347 18.8027 50.6543 18.9475 50.6006 19.1138C50.547 19.2747 50.5175 19.4436 50.5121 19.6206C50.5121 19.8083 50.5363 19.988 50.5845 20.1596C50.6382 20.3258 50.7159 20.4733 50.8178 20.602C50.9197 20.7307 51.0458 20.8326 51.1959 20.9077C51.3515 20.9828 51.5311 21.0204 51.7349 21.0204ZM54.568 17.3359H55.2679V18.9529H56.0322C56.2735 18.9529 56.4934 18.9716 56.6918 19.0092C56.8956 19.0414 57.0753 19.1111 57.2308 19.2184C57.3756 19.3256 57.4856 19.4624 57.5607 19.6286C57.6411 19.7895 57.6813 19.9906 57.6813 20.232C57.6706 20.4733 57.625 20.6744 57.5446 20.8353C57.4695 20.9909 57.3703 21.1223 57.2469 21.2295C57.0967 21.3529 56.9144 21.4414 56.6999 21.495C56.4853 21.5486 56.2655 21.5754 56.0402 21.5754H54.568V17.3359ZM58.2686 21.5754V17.3359H58.9524V21.5754H58.2686ZM55.4932 20.9801C55.697 20.9801 55.9008 20.9775 56.1046 20.9721C56.3137 20.9614 56.4934 20.9185 56.6436 20.8434C56.7455 20.8005 56.8259 20.7281 56.8849 20.6262C56.9493 20.5189 56.9841 20.3956 56.9895 20.2561C56.9895 20.0899 56.9546 19.9585 56.8849 19.8619C56.8205 19.7654 56.7347 19.6957 56.6275 19.6528C56.5256 19.6045 56.4103 19.575 56.2816 19.5643C56.1528 19.5535 56.0268 19.5482 55.9035 19.5482H55.2679V20.9801H55.4932ZM63.1574 17.3359V17.9393H61.7013V21.5754H61.0175V17.9393H59.5614V17.3359H63.1574ZM64.4353 21.5754H63.7676V17.3359H64.4514V20.5859C64.4889 20.5109 64.5398 20.4304 64.6042 20.3446C64.6686 20.2534 64.7195 20.1837 64.757 20.1354L66.8084 17.3359H67.4842V21.5754H66.8004V18.3254C66.7575 18.4058 66.7092 18.4836 66.6556 18.5587C66.6073 18.6284 66.5617 18.6901 66.5188 18.7437L64.4353 21.5754ZM69.0907 19.7091C69.1068 19.8968 69.1444 20.0711 69.2034 20.232C69.2677 20.3875 69.3535 20.5243 69.4608 20.6423C69.568 20.7602 69.6994 20.8541 69.855 20.9238C70.0159 20.9882 70.2009 21.0204 70.4101 21.0204C70.512 21.0204 70.6165 21.0123 70.7238 20.9962C70.8364 20.9748 70.941 20.9426 71.0375 20.8997C71.1341 20.8514 71.2199 20.7897 71.295 20.7147C71.3701 20.6396 71.4264 20.5484 71.4639 20.4411H72.1638C72.1155 20.6449 72.0324 20.8219 71.9144 20.9721C71.8018 21.1223 71.665 21.2456 71.5041 21.3421C71.3486 21.4387 71.1743 21.5111 70.9812 21.5594C70.7882 21.6023 70.5924 21.6237 70.394 21.6237C70.0561 21.6237 69.7611 21.5701 69.5091 21.4628C69.2624 21.3556 69.0559 21.2081 68.8896 21.0204C68.7234 20.8273 68.6 20.5994 68.5196 20.3366C68.4391 20.0684 68.3989 19.7761 68.3989 19.4597C68.3989 19.1433 68.4418 18.8537 68.5276 18.5909C68.6188 18.3227 68.7475 18.0921 68.9137 17.899C69.08 17.706 69.2838 17.5558 69.5251 17.4485C69.7665 17.3413 70.0534 17.2876 70.3859 17.2876C70.7238 17.2876 71.0161 17.3547 71.2628 17.4887C71.5095 17.6228 71.7079 17.7998 71.8581 18.0197C72.0083 18.2342 72.1128 18.4675 72.1718 18.7196C72.2362 18.9716 72.263 19.2049 72.2523 19.4195C72.2523 19.4677 72.2496 19.516 72.2442 19.5643C72.2442 19.6125 72.2416 19.6608 72.2362 19.7091H69.0907ZM71.5604 19.1138C71.5497 18.7544 71.4371 18.4622 71.2226 18.2369C71.008 18.0117 70.7211 17.899 70.3618 17.899C70.1634 17.899 69.9891 17.9312 69.8389 17.9956C69.6887 18.0599 69.5627 18.1484 69.4608 18.261C69.3589 18.3737 69.2784 18.5051 69.2194 18.6552C69.1605 18.8 69.1229 18.9529 69.1068 19.1138H71.5604ZM75.3396 21.5754V17.3359H78.2679V17.9393H76.0234V21.5754H75.3396ZM80.7805 17.2876C81.1184 17.2876 81.4107 17.3413 81.6574 17.4485C81.9041 17.5558 82.1106 17.706 82.2768 17.899C82.4484 18.0921 82.5745 18.3227 82.6549 18.5909C82.7407 18.8537 82.7836 19.1433 82.7836 19.4597C82.7836 19.7761 82.7407 20.0684 82.6549 20.3366C82.5745 20.5994 82.4484 20.8273 82.2768 21.0204C82.1106 21.2081 81.9014 21.3556 81.6493 21.4628C81.3973 21.5701 81.1023 21.6237 80.7644 21.6237C80.4265 21.6237 80.1316 21.5701 79.8795 21.4628C79.6328 21.3556 79.4236 21.2081 79.252 21.0204C79.0858 20.8273 78.9597 20.5994 78.8739 20.3366C78.7935 20.0684 78.7533 19.7761 78.7533 19.4597C78.7533 19.1433 78.7935 18.8537 78.8739 18.5909C78.9597 18.3227 79.0858 18.0921 79.252 17.899C79.4236 17.706 79.6355 17.5558 79.8875 17.4485C80.1396 17.3413 80.4373 17.2876 80.7805 17.2876ZM80.7644 21.0204C80.995 21.0204 81.1935 20.9801 81.3597 20.8997C81.5313 20.8192 81.6708 20.7093 81.778 20.5699C81.8907 20.4251 81.9711 20.2588 82.0194 20.0711C82.073 19.8834 82.0998 19.6796 82.0998 19.4597C82.0998 19.2452 82.073 19.0441 82.0194 18.8563C81.9711 18.6633 81.8907 18.497 81.778 18.3576C81.6708 18.2128 81.5313 18.1001 81.3597 18.0197C81.1935 17.9393 80.995 17.899 80.7644 17.899C80.5338 17.899 80.3354 17.9393 80.1691 18.0197C80.0029 18.1001 79.8634 18.2128 79.7508 18.3576C79.6435 18.497 79.5631 18.6633 79.5095 18.8563C79.4612 19.0441 79.437 19.2452 79.437 19.4597C79.437 19.6796 79.4612 19.8834 79.5095 20.0711C79.5631 20.2588 79.6435 20.4251 79.7508 20.5699C79.8634 20.7093 80.0029 20.8192 80.1691 20.8997C80.3354 20.9801 80.5338 21.0204 80.7644 21.0204ZM84.0869 18.2691C84.0923 18.1136 84.095 17.958 84.095 17.8025C84.095 17.647 84.095 17.4914 84.095 17.3359H87.1037V20.9801H87.6588V22.8787H86.9991V21.5754H83.9019V22.8787H83.2422V20.9801C83.4568 20.9801 83.6257 20.8836 83.7491 20.6905C83.8241 20.5833 83.8831 20.4304 83.926 20.232C83.9689 20.0282 84.0011 19.8137 84.0226 19.5884C84.0494 19.3417 84.0655 19.0977 84.0708 18.8563C84.0816 18.6096 84.0869 18.4139 84.0869 18.2691ZM86.4199 17.9393H84.7466C84.7412 18.1645 84.7359 18.4166 84.7305 18.6954C84.7251 18.9743 84.7144 19.2344 84.6983 19.4758C84.693 19.583 84.6849 19.701 84.6742 19.8297C84.6635 19.9531 84.6447 20.0818 84.6179 20.2159C84.5964 20.3446 84.5616 20.476 84.5133 20.6101C84.4704 20.7442 84.4087 20.8675 84.3283 20.9801H86.4199V17.9393ZM91.1644 21.0364C91.0732 21.1598 90.9687 21.259 90.8507 21.3341C90.7327 21.4092 90.6093 21.4682 90.4806 21.5111C90.3573 21.554 90.2312 21.5835 90.1025 21.5996C89.9792 21.6157 89.8558 21.6237 89.7325 21.6237C89.534 21.6237 89.3463 21.5996 89.1693 21.5513C88.9924 21.503 88.8315 21.4253 88.6867 21.318C88.5472 21.2107 88.4346 21.0767 88.3488 20.9158C88.2683 20.7549 88.2281 20.5725 88.2281 20.3687C88.2281 20.1274 88.271 19.9263 88.3568 19.7654C88.448 19.5991 88.5687 19.4651 88.7188 19.3632C88.869 19.2613 89.0406 19.1915 89.2337 19.154C89.4321 19.1111 89.6413 19.0896 89.8612 19.0896H91.1081C91.1081 18.7303 91.0303 18.4461 90.8748 18.2369C90.7193 18.0224 90.4565 17.9098 90.0864 17.899C89.8612 17.899 89.6627 17.9366 89.4911 18.0117C89.3195 18.0867 89.2015 18.2101 89.1372 18.3817H88.4051C88.4426 18.1886 88.5177 18.0251 88.6303 17.891C88.743 17.7515 88.877 17.6389 89.0326 17.5531C89.1881 17.4619 89.357 17.3949 89.5394 17.352C89.7217 17.3091 89.9041 17.2876 90.0864 17.2876C90.4029 17.2876 90.6683 17.3413 90.8829 17.4485C91.1027 17.5504 91.2797 17.6872 91.4138 17.8588C91.5479 18.0251 91.6417 18.2289 91.6954 18.4702C91.749 18.7115 91.7758 18.9824 91.7758 19.2827V21.5754H91.2046L91.1644 21.0364ZM90.3599 19.6608C90.2312 19.6608 90.0811 19.6635 89.9094 19.6689C89.7432 19.6689 89.5823 19.6849 89.4268 19.7171C89.2712 19.7493 89.1452 19.8163 89.0487 19.9182C88.9575 20.0201 88.9119 20.1542 88.9119 20.3205C88.9119 20.4438 88.936 20.5484 88.9843 20.6342C89.0326 20.72 89.0969 20.7924 89.1774 20.8514C89.2632 20.9104 89.3597 20.9533 89.467 20.9801C89.5743 21.0069 89.6842 21.0204 89.7968 21.0204C90.1991 21.0204 90.5155 20.9238 90.7461 20.7307C90.9821 20.5323 91.1027 20.2454 91.1081 19.87V19.6608H90.3599ZM94.1706 18.0519H94.9027L95.8117 19.4516L94.9027 20.8514H94.1706L95.1199 19.4516L94.1706 18.0519ZM92.7708 18.0519H93.4949L94.4039 19.4516L93.4949 20.8514H92.7708L93.696 19.4516L92.7708 18.0519ZM48.4356 29.5884C48.5804 29.4651 48.7387 29.331 48.9103 29.1862C49.0873 29.036 49.2508 28.8751 49.401 28.7035C49.5565 28.5319 49.6879 28.3522 49.7952 28.1645C49.9025 27.9714 49.9588 27.7623 49.9641 27.537C49.9749 27.1938 49.8756 26.931 49.6665 26.7486C49.4573 26.5609 49.1811 26.4671 48.8379 26.4671C48.5644 26.4671 48.3257 26.5234 48.1219 26.636C47.9181 26.7486 47.784 26.9122 47.7197 27.1267H46.9715C47.0091 26.9069 47.0868 26.7165 47.2048 26.5556C47.3282 26.3893 47.4756 26.2526 47.6473 26.1453C47.8243 26.038 48.0173 25.9576 48.2265 25.904C48.4356 25.8503 48.6502 25.8235 48.8701 25.8235C49.1329 25.8235 49.3742 25.861 49.5941 25.9361C49.814 26.0058 50.0044 26.1104 50.1652 26.2499C50.3261 26.3893 50.4495 26.5636 50.5353 26.7728C50.6265 26.9766 50.6721 27.2099 50.6721 27.4727C50.6721 27.7355 50.6318 27.9714 50.5514 28.1806C50.4763 28.3898 50.3717 28.5828 50.2377 28.7598C50.1089 28.9368 49.9615 29.103 49.7952 29.2586C49.6289 29.4141 49.4573 29.5696 49.2803 29.7252L47.8403 30.9399H50.7364V31.5754H46.8267V30.9962L48.4356 29.5884ZM56.0411 28.7357C56.0411 29.1004 56.0036 29.457 55.9285 29.8056C55.8588 30.1542 55.7381 30.4653 55.5665 30.7388C55.3949 31.0069 55.1669 31.2242 54.8827 31.3904C54.5984 31.5567 54.2445 31.6398 53.8208 31.6398C53.3917 31.6398 53.0351 31.5567 52.7509 31.3904C52.4666 31.2242 52.2387 31.0069 52.0671 30.7388C51.8954 30.4653 51.7748 30.1596 51.705 29.8217C51.6353 29.4838 51.6005 29.1218 51.6005 28.7357C51.6005 28.3495 51.6353 27.9875 51.705 27.6496C51.7748 27.3064 51.8954 27.0007 52.0671 26.7326C52.2387 26.4644 52.4666 26.2472 52.7509 26.0809C53.0351 25.9093 53.3917 25.8235 53.8208 25.8235C54.2445 25.8235 54.5984 25.9066 54.8827 26.0729C55.1669 26.2391 55.3949 26.459 55.5665 26.7326C55.7381 27.0061 55.8588 27.3171 55.9285 27.6657C56.0036 28.0143 56.0411 28.371 56.0411 28.7357ZM52.3164 28.7357C52.3164 28.9931 52.3352 29.2559 52.3728 29.524C52.4103 29.7922 52.4827 30.0362 52.59 30.2561C52.6972 30.476 52.8474 30.6557 53.0405 30.7951C53.2389 30.9345 53.499 31.0043 53.8208 31.0043C54.1372 31.0043 54.392 30.9345 54.585 30.7951C54.7835 30.6557 54.9363 30.476 55.0436 30.2561C55.1508 30.0362 55.2232 29.7922 55.2608 29.524C55.2983 29.2559 55.3171 28.9931 55.3171 28.7357C55.3171 28.4836 55.2983 28.2235 55.2608 27.9553C55.2232 27.6872 55.1508 27.4432 55.0436 27.2233C54.9363 26.998 54.7835 26.8157 54.585 26.6762C54.392 26.5314 54.1372 26.459 53.8208 26.459C53.499 26.459 53.2389 26.5314 53.0405 26.6762C52.8474 26.8157 52.6972 26.998 52.59 27.2233C52.4827 27.4432 52.4103 27.6872 52.3728 27.9553C52.3352 28.2235 52.3164 28.4836 52.3164 28.7357ZM58.5514 31.5754H57.8515V27.0141H56.6931V26.5395C56.8539 26.5288 57.0014 26.5153 57.1355 26.4993C57.2696 26.4778 57.3929 26.4429 57.5056 26.3947C57.6182 26.3464 57.7201 26.282 57.8113 26.2016C57.9024 26.1212 57.9856 26.0166 58.0606 25.8879H58.5514V31.5754ZM60.2189 31.5754L62.5197 26.5314H59.5109V25.8879H63.2919V26.4671L60.9912 31.5754H60.2189ZM63.7044 31.5915C63.565 31.5808 63.4524 31.5352 63.3665 31.4548C63.2807 31.3743 63.2378 31.2671 63.2378 31.133C63.2432 30.9935 63.2915 30.8836 63.3826 30.8032C63.4792 30.7173 63.5891 30.6744 63.7125 30.6744C63.868 30.6744 63.9913 30.7307 64.0825 30.8434C64.1791 30.956 64.2273 31.1142 64.2273 31.318C64.2273 31.4306 64.2032 31.554 64.1549 31.6881C64.112 31.8275 64.053 31.9535 63.9779 32.0662C63.9029 32.1788 63.8144 32.278 63.7125 32.3638C63.6159 32.4496 63.514 32.5113 63.4068 32.5488L63.2137 32.2834C63.321 32.2083 63.4202 32.1064 63.5114 31.9777C63.6079 31.849 63.6722 31.7202 63.7044 31.5915ZM68.5473 29.5884C68.6921 29.4651 68.8503 29.331 69.0219 29.1862C69.1989 29.036 69.3625 28.8751 69.5127 28.7035C69.6682 28.5319 69.7996 28.3522 69.9069 28.1645C70.0141 27.9714 70.0704 27.7623 70.0758 27.537C70.0865 27.1938 69.9873 26.931 69.7781 26.7486C69.569 26.5609 69.2928 26.4671 68.9495 26.4671C68.676 26.4671 68.4374 26.5234 68.2336 26.636C68.0298 26.7486 67.8957 26.9122 67.8313 27.1267H67.0832C67.1207 26.9069 67.1985 26.7165 67.3165 26.5556C67.4398 26.3893 67.5873 26.2526 67.7589 26.1453C67.9359 26.038 68.129 25.9576 68.3381 25.904C68.5473 25.8503 68.7618 25.8235 68.9817 25.8235C69.2445 25.8235 69.4859 25.861 69.7057 25.9361C69.9256 26.0058 70.116 26.1104 70.2769 26.2499C70.4378 26.3893 70.5612 26.5636 70.647 26.7728C70.7381 26.9766 70.7837 27.2099 70.7837 27.4727C70.7837 27.7355 70.7435 27.9714 70.6631 28.1806C70.588 28.3898 70.4834 28.5828 70.3493 28.7598C70.2206 28.9368 70.0731 29.103 69.9069 29.2586C69.7406 29.4141 69.569 29.5696 69.392 29.7252L67.952 30.9399H70.8481V31.5754H66.9384V30.9962L68.5473 29.5884ZM76.1528 28.7357C76.1528 29.1004 76.1152 29.457 76.0402 29.8056C75.9704 30.1542 75.8498 30.4653 75.6782 30.7388C75.5065 31.0069 75.2786 31.2242 74.9944 31.3904C74.7101 31.5567 74.3561 31.6398 73.9325 31.6398C73.5034 31.6398 73.1468 31.5567 72.8625 31.3904C72.5783 31.2242 72.3503 31.0069 72.1787 30.7388C72.0071 30.4653 71.8864 30.1596 71.8167 29.8217C71.747 29.4838 71.7121 29.1218 71.7121 28.7357C71.7121 28.3495 71.747 27.9875 71.8167 27.6496C71.8864 27.3064 72.0071 27.0007 72.1787 26.7326C72.3503 26.4644 72.5783 26.2472 72.8625 26.0809C73.1468 25.9093 73.5034 25.8235 73.9325 25.8235C74.3561 25.8235 74.7101 25.9066 74.9944 26.0729C75.2786 26.2391 75.5065 26.459 75.6782 26.7326C75.8498 27.0061 75.9704 27.3171 76.0402 27.6657C76.1152 28.0143 76.1528 28.371 76.1528 28.7357ZM72.4281 28.7357C72.4281 28.9931 72.4469 29.2559 72.4844 29.524C72.522 29.7922 72.5944 30.0362 72.7016 30.2561C72.8089 30.476 72.9591 30.6557 73.1521 30.7951C73.3506 30.9345 73.6107 31.0043 73.9325 31.0043C74.2489 31.0043 74.5036 30.9345 74.6967 30.7951C74.8951 30.6557 75.048 30.476 75.1552 30.2561C75.2625 30.0362 75.3349 29.7922 75.3725 29.524C75.41 29.2559 75.4288 28.9931 75.4288 28.7357C75.4288 28.4836 75.41 28.2235 75.3725 27.9553C75.3349 27.6872 75.2625 27.4432 75.1552 27.2233C75.048 26.998 74.8951 26.8157 74.6967 26.6762C74.5036 26.5314 74.2489 26.459 73.9325 26.459C73.6107 26.459 73.3506 26.5314 73.1521 26.6762C72.9591 26.8157 72.8089 26.998 72.7016 27.2233C72.5944 27.4432 72.522 27.6872 72.4844 27.9553C72.4469 28.2235 72.4281 28.4836 72.4281 28.7357ZM78.663 31.5754H77.9631V27.0141H76.8047V26.5395C76.9656 26.5288 77.1131 26.5153 77.2472 26.4993C77.3813 26.4778 77.5046 26.4429 77.6172 26.3947C77.7299 26.3464 77.8318 26.282 77.9229 26.2016C78.0141 26.1212 78.0972 26.0166 78.1723 25.8879H78.663V31.5754ZM84.0713 29.9906C84.0713 30.2963 84.0123 30.5564 83.8943 30.771C83.7763 30.9801 83.6208 31.1491 83.4277 31.2778C83.24 31.4065 83.0228 31.5004 82.7761 31.5594C82.5348 31.613 82.2854 31.6398 82.028 31.6398C81.7705 31.6398 81.5185 31.613 81.2718 31.5594C81.0304 31.5004 80.8132 31.4065 80.6202 31.2778C80.4271 31.1491 80.2715 30.9801 80.1536 30.771C80.0409 30.5564 79.9846 30.2963 79.9846 29.9906C79.9846 29.6689 80.0678 29.3927 80.234 29.162C80.4003 28.9261 80.6309 28.7518 80.9258 28.6391C80.765 28.5641 80.6336 28.4729 80.5317 28.3656C80.4298 28.2584 80.3493 28.1457 80.2903 28.0277C80.2367 27.9044 80.1991 27.7837 80.1777 27.6657C80.1616 27.5424 80.1536 27.4298 80.1536 27.3279C80.1536 27.0651 80.2072 26.8398 80.3145 26.6521C80.4217 26.459 80.5612 26.3008 80.7328 26.1775C80.9098 26.0541 81.1109 25.9656 81.3361 25.912C81.5614 25.853 81.792 25.8235 82.028 25.8235C82.2639 25.8235 82.4946 25.853 82.7198 25.912C82.9451 25.9656 83.1435 26.0541 83.3151 26.1775C83.4921 26.3008 83.6342 26.459 83.7415 26.6521C83.8487 26.8398 83.9024 27.0651 83.9024 27.3279C83.9024 27.4298 83.8916 27.5424 83.8702 27.6657C83.8487 27.7837 83.8085 27.9017 83.7495 28.0197C83.6959 28.1323 83.6181 28.2423 83.5162 28.3495C83.4143 28.4514 83.2829 28.5399 83.122 28.615C83.4277 28.7276 83.661 28.9046 83.8219 29.146C83.9882 29.3873 84.0713 29.6689 84.0713 29.9906ZM82.028 26.459C81.8671 26.459 81.7169 26.4778 81.5775 26.5153C81.438 26.5529 81.3147 26.6119 81.2074 26.6923C81.1055 26.7674 81.0251 26.8666 80.9661 26.99C80.9071 27.108 80.8776 27.2528 80.8776 27.4244C80.8776 27.6014 80.9098 27.7489 80.9741 27.8668C81.0385 27.9848 81.1243 28.0814 81.2315 28.1565C81.3388 28.2315 81.4595 28.2879 81.5936 28.3254C81.733 28.3629 81.8778 28.3817 82.028 28.3817C82.1781 28.3817 82.3203 28.3629 82.4543 28.3254C82.5938 28.2879 82.7144 28.2315 82.8163 28.1565C82.9236 28.0814 83.0094 27.9848 83.0738 27.8668C83.1381 27.7489 83.173 27.6121 83.1784 27.4566C83.1784 27.2742 83.1462 27.1214 83.0818 26.998C83.0228 26.8693 82.9397 26.7647 82.8324 26.6843C82.7305 26.6038 82.6099 26.5475 82.4704 26.5153C82.331 26.4778 82.1835 26.459 82.028 26.459ZM82.028 29.0011C81.8617 29.0011 81.6981 29.0199 81.5372 29.0575C81.3817 29.0896 81.2396 29.146 81.1109 29.2264C80.9875 29.3068 80.8883 29.4114 80.8132 29.5401C80.7381 29.6635 80.7006 29.8163 80.7006 29.9987C80.7006 30.2078 80.7462 30.3768 80.8374 30.5055C80.9285 30.6342 81.0412 30.7361 81.1752 30.8112C81.3093 30.8863 81.4514 30.9372 81.6016 30.964C81.7571 30.9909 81.8993 31.0043 82.028 31.0043C82.1567 31.0043 82.2961 30.9909 82.4463 30.964C82.6018 30.9372 82.7439 30.8863 82.8727 30.8112C83.0067 30.7361 83.1194 30.6342 83.2105 30.5055C83.3017 30.3768 83.3473 30.2078 83.3473 29.9987C83.3473 29.8163 83.3098 29.6635 83.2347 29.5401C83.1596 29.4114 83.0604 29.3068 82.937 29.2264C82.8137 29.146 82.6715 29.0896 82.5106 29.0575C82.3551 29.0199 82.1942 29.0011 82.028 29.0011Z" fill="white"/>
</svg>
