<svg width="261" height="105" viewBox="0 0 261 105" fill="none" xmlns="http://www.w3.org/2000/svg">
<path d="M40.8035 45.2075L41.0266 45.2845C41.0706 45.4673 41.1095 45.73 40.8385 45.7089L40.76 45.6186C40.7108 45.4635 40.7553 45.3585 40.8035 45.2075Z" fill="#9C9C9C"/>
<path d="M49.6387 31.4878C50.759 31.5505 54.0561 33.3922 53.6286 34.0123C53.3694 34.3881 51.0508 34.8552 50.542 34.9079C48.9525 35.0411 45.928 32.736 46.6813 32.1109C47.1834 31.6943 48.9915 31.455 49.6387 31.4878Z" fill="#9C9C9C"/>
<path d="M59.4006 73.2013C60.219 73.2277 63.7277 74.7295 63.0592 75.41C62.4129 76.0672 60.3996 76.4939 59.478 76.4969C58.0824 76.3929 56.4407 75.46 55.641 74.3625C56.7065 73.4997 58.0445 73.2103 59.4006 73.2013Z" fill="#9C9C9C"/>
<path d="M54.6846 63.1647C55.7517 64.8805 55.65 68.0515 54.0319 69.4833C53.6242 69.8443 53.0435 70.3066 52.4676 70.279C50.3067 68.4365 52.6438 63.9845 54.6846 63.1647Z" fill="#9C9C9C"/>
<path d="M45.6062 68.3075C46.5209 68.3311 47.7403 68.9219 48.7938 69.0914C47.7743 70.9308 45.8258 71.6434 43.7506 71.3781C42.555 71.2152 41.1982 70.7129 40.6271 69.603C41.8976 68.5606 43.9716 68.1964 45.6062 68.3075Z" fill="#9C9C9C"/>
<path d="M46.8311 46.1102C47.3379 46.2021 47.915 51.8766 43.4395 53.534C43.2425 53.6071 43.1244 53.6348 42.9267 53.547C41.4325 50.4246 43.7963 47.2389 46.8311 46.1102Z" fill="#9C9C9C"/>
<path d="M40.8044 45.2074C40.8994 40.2721 43.6719 37.9092 48.781 38.7431C47.9004 42.7829 41.3566 43.7445 41.0271 45.2844L40.8044 45.2074Z" fill="#9C9C9C"/>
<path d="M36.3317 32.0272C39.2979 33.4723 40.8673 36.756 40.2855 39.9164C40.2229 40.2558 40.1307 40.4943 39.8308 40.7001C38.7279 41.2294 37.1647 39.1889 36.7144 38.4389C35.4811 36.3846 35.7439 34.2191 36.3317 32.0272Z" fill="#9C9C9C"/>
<path d="M54.9397 19.3157C55.3364 19.3191 55.1404 20.1978 55.1137 20.4625C54.7846 23.7315 52.0625 26.659 48.9246 27.7297C48.3337 27.6403 49.0707 25.0101 49.1996 24.5886C49.9936 21.994 52.4211 20.217 54.9397 19.3157Z" fill="#9C9C9C"/>
<path d="M51.2541 74.1665C52.2489 74.2097 56.5698 76.0186 54.9778 77.2279C53.6455 78.24 51.6664 78.6997 50.0043 78.497C49.4549 78.4272 48.791 78.3709 48.2944 78.1278C47.809 77.8901 45.264 76.5585 45.9688 75.9027C47.3407 74.6261 49.3867 74.0831 51.2541 74.1665Z" fill="#9C9C9C"/>
<path d="M43.6056 21.8471C46.3101 24.1264 47.3981 29.5605 44.4025 31.9725C42.822 32.8029 41.7857 28.4481 41.7896 27.5416C41.7955 26.1784 42.731 22.686 43.6056 21.8471Z" fill="#9C9C9C"/>
<path d="M37.8678 57.0634C41.8663 57.3917 44.2209 60.728 44.9941 64.273C44.1705 64.2576 43.3277 64.0881 42.514 63.9685C38.7822 63.4566 36.5904 61.3184 35.4739 57.8198C35.109 56.677 36.9791 57.0138 37.8678 57.0634Z" fill="#9C9C9C"/>
<path d="M48.472 55.9695C49.2019 56.0111 50.3411 58.0625 50.6771 58.6652C51.4152 59.9875 52.1932 63.8479 50.5087 64.6948C49.9415 64.676 49.3884 64.5629 48.833 64.4596C47.7465 64.2212 47.1057 63.7522 45.8981 63.7132C43.9414 61.3083 45.9923 57.4126 48.472 55.9695Z" fill="#9C9C9C"/>
<path d="M33.2611 45.7018C33.8505 45.8817 34.4888 45.9737 35.0904 46.1194C38.9344 47.0499 40.1097 49.5225 41.2396 52.8421C41.4066 53.3326 42.5074 55.9344 42.4652 56.095C42.2553 55.9472 42.149 55.7608 42.0176 55.5511C40.6384 53.3458 36.8367 54.9307 34.2688 50.3304C33.6288 49.1836 32.8932 46.896 33.2611 45.7018Z" fill="#9C9C9C"/>
<path d="M219.35 45.2075L219.127 45.2845C219.083 45.4673 219.044 45.73 219.315 45.7089L219.393 45.6186C219.443 45.4635 219.398 45.3585 219.35 45.2075Z" fill="#9C9C9C"/>
<path d="M210.515 31.4878C209.394 31.5505 206.097 33.3922 206.525 34.0123C206.784 34.3881 209.103 34.8552 209.611 34.9079C211.201 35.0411 214.225 32.736 213.472 32.1109C212.97 31.6943 211.162 31.455 210.515 31.4878Z" fill="#9C9C9C"/>
<path d="M200.753 73.2013C199.934 73.2277 196.426 74.7295 197.094 75.41C197.74 76.0672 199.754 76.4939 200.675 76.4969C202.071 76.3929 203.713 75.46 204.512 74.3625C203.447 73.4997 202.109 73.2103 200.753 73.2013Z" fill="#9C9C9C"/>
<path d="M205.469 63.1647C204.402 64.8805 204.503 68.0515 206.121 69.4833C206.529 69.8443 207.11 70.3066 207.686 70.279C209.847 68.4365 207.51 63.9845 205.469 63.1647Z" fill="#9C9C9C"/>
<path d="M214.547 68.3075C213.632 68.3311 212.413 68.9219 211.36 69.0914C212.379 70.9308 214.327 71.6434 216.403 71.3781C217.598 71.2152 218.955 70.7129 219.526 69.603C218.256 68.5606 216.182 68.1964 214.547 68.3075Z" fill="#9C9C9C"/>
<path d="M213.322 46.1102C212.815 46.2021 212.238 51.8766 216.714 53.534C216.911 53.6071 217.029 53.6348 217.227 53.547C218.721 50.4246 216.357 47.2389 213.322 46.1102Z" fill="#9C9C9C"/>
<path d="M219.349 45.2074C219.254 40.2721 216.481 37.9092 211.372 38.7431C212.253 42.7829 218.797 43.7445 219.126 45.2844L219.349 45.2074Z" fill="#9C9C9C"/>
<path d="M223.822 32.0272C220.855 33.4723 219.286 36.756 219.868 39.9164C219.93 40.2558 220.023 40.4943 220.323 40.7001C221.425 41.2294 222.989 39.1889 223.439 38.4389C224.672 36.3846 224.409 34.2191 223.822 32.0272Z" fill="#9C9C9C"/>
<path d="M205.214 19.3157C204.817 19.3191 205.013 20.1978 205.04 20.4625C205.369 23.7315 208.091 26.659 211.229 27.7297C211.82 27.6403 211.083 25.0101 210.954 24.5886C210.16 21.994 207.732 20.217 205.214 19.3157Z" fill="#9C9C9C"/>
<path d="M208.899 74.1665C207.904 74.2097 203.584 76.0186 205.175 77.2279C206.508 78.24 208.487 78.6997 210.149 78.497C210.698 78.4272 211.362 78.3709 211.859 78.1278C212.344 77.8901 214.889 76.5585 214.185 75.9027C212.813 74.6261 210.767 74.0831 208.899 74.1665Z" fill="#9C9C9C"/>
<path d="M216.548 21.8471C213.843 24.1264 212.755 29.5605 215.751 31.9725C217.331 32.8029 218.368 28.4481 218.364 27.5416C218.358 26.1784 217.422 22.686 216.548 21.8471Z" fill="#9C9C9C"/>
<path d="M222.285 57.0634C218.287 57.3917 215.932 60.728 215.159 64.273C215.983 64.2576 216.826 64.0881 217.639 63.9685C221.371 63.4566 223.563 61.3184 224.679 57.8198C225.044 56.677 223.174 57.0138 222.285 57.0634Z" fill="#9C9C9C"/>
<path d="M211.681 55.9695C210.951 56.0111 209.812 58.0625 209.476 58.6652C208.738 59.9875 207.96 63.8479 209.645 64.6948C210.212 64.676 210.765 64.5629 211.32 64.4596C212.407 64.2212 213.048 63.7522 214.255 63.7132C216.212 61.3083 214.161 57.4126 211.681 55.9695Z" fill="#9C9C9C"/>
<path d="M226.892 45.7018C226.303 45.8817 225.665 45.9737 225.063 46.1194C221.219 47.0499 220.044 49.5225 218.914 52.8421C218.747 53.3326 217.646 55.9344 217.688 56.095C217.898 55.9472 218.004 55.7608 218.136 55.5511C219.515 53.3458 223.317 54.9307 225.885 50.3304C226.524 49.1836 227.26 46.896 226.892 45.7018Z" fill="#9C9C9C"/>
<path d="M73.4822 41.56H72.0262L70.2182 38.776L72.0262 35.992H73.4822L71.5942 38.776L73.4822 41.56ZM76.2662 41.56H74.8262L73.0182 38.776L74.8262 35.992H76.2662L74.4262 38.776L76.2662 41.56ZM83.1556 32.824C82.4836 32.824 81.9076 32.9467 81.4276 33.192C80.9582 33.4373 80.5689 33.768 80.2596 34.184C79.9609 34.6 79.7422 35.08 79.6036 35.624C79.4649 36.1573 79.3956 36.7173 79.3956 37.304C79.3956 37.9333 79.4702 38.5253 79.6196 39.08C79.7689 39.6347 79.9982 40.12 80.3076 40.536C80.6169 40.9413 81.0116 41.2667 81.4916 41.512C81.9716 41.7467 82.5422 41.864 83.2036 41.864C84.0036 41.864 84.6756 41.6987 85.2196 41.368C85.7636 41.0373 86.1156 40.5947 86.2756 40.04H87.7956C87.5502 40.9787 87.0329 41.7307 86.2436 42.296C85.4542 42.8507 84.4302 43.128 83.1716 43.128C82.2969 43.128 81.5342 42.984 80.8836 42.696C80.2329 42.408 79.6889 42.008 79.2516 41.496C78.8249 40.984 78.5049 40.376 78.2916 39.672C78.0782 38.968 77.9716 38.1947 77.9716 37.352C77.9716 36.52 78.0782 35.752 78.2916 35.048C78.5049 34.344 78.8302 33.736 79.2676 33.224C79.7049 32.7013 80.2489 32.296 80.8996 32.008C81.5502 31.7093 82.3182 31.56 83.2036 31.56C83.8222 31.56 84.3769 31.6347 84.8676 31.784C85.3689 31.9333 85.8009 32.1467 86.1636 32.424C86.5369 32.6907 86.8409 33.016 87.0756 33.4C87.3102 33.7733 87.4809 34.1893 87.5876 34.648H86.1796C86.0196 34.0933 85.6729 33.6507 85.1396 33.32C84.6169 32.9893 83.9556 32.824 83.1556 32.824ZM93.3469 34.472C94.0189 34.472 94.6003 34.5787 95.0909 34.792C95.5816 35.0053 95.9923 35.304 96.3229 35.688C96.6643 36.072 96.9149 36.5307 97.0749 37.064C97.2456 37.5867 97.3309 38.1627 97.3309 38.792C97.3309 39.4213 97.2456 40.0027 97.0749 40.536C96.9149 41.0587 96.6643 41.512 96.3229 41.896C95.9923 42.2693 95.5763 42.5627 95.0749 42.776C94.5736 42.9893 93.9869 43.096 93.3149 43.096C92.6429 43.096 92.0563 42.9893 91.5549 42.776C91.0643 42.5627 90.6483 42.2693 90.3069 41.896C89.9763 41.512 89.7256 41.0587 89.5549 40.536C89.3949 40.0027 89.3149 39.4213 89.3149 38.792C89.3149 38.1627 89.3949 37.5867 89.5549 37.064C89.7256 36.5307 89.9763 36.072 90.3069 35.688C90.6483 35.304 91.0696 35.0053 91.5709 34.792C92.0723 34.5787 92.6643 34.472 93.3469 34.472ZM93.3149 41.896C93.7736 41.896 94.1683 41.816 94.4989 41.656C94.8403 41.496 95.1176 41.2773 95.3309 41C95.5549 40.712 95.7149 40.3813 95.8109 40.008C95.9176 39.6347 95.9709 39.2293 95.9709 38.792C95.9709 38.3653 95.9176 37.9653 95.8109 37.592C95.7149 37.208 95.5549 36.8773 95.3309 36.6C95.1176 36.312 94.8403 36.088 94.4989 35.928C94.1683 35.768 93.7736 35.688 93.3149 35.688C92.8563 35.688 92.4616 35.768 92.1309 35.928C91.8003 36.088 91.5229 36.312 91.2989 36.6C91.0856 36.8773 90.9256 37.208 90.8189 37.592C90.7229 37.9653 90.6749 38.3653 90.6749 38.792C90.6749 39.2293 90.7229 39.6347 90.8189 40.008C90.9256 40.3813 91.0856 40.712 91.2989 41C91.5229 41.2773 91.8003 41.496 92.1309 41.656C92.4616 41.816 92.8563 41.896 93.3149 41.896ZM100.331 36.472C100.491 36.248 100.677 36.0613 100.891 35.912C101.104 35.752 101.333 35.6187 101.579 35.512C101.835 35.4053 102.091 35.3307 102.347 35.288C102.613 35.2347 102.869 35.208 103.115 35.208C103.691 35.208 104.197 35.2987 104.635 35.48C105.083 35.6613 105.456 35.9227 105.755 36.264C106.064 36.5947 106.299 36.9947 106.459 37.464C106.619 37.9333 106.699 38.456 106.699 39.032C106.699 39.608 106.613 40.1467 106.443 40.648C106.272 41.1387 106.021 41.5653 105.691 41.928C105.371 42.2907 104.971 42.5787 104.491 42.792C104.021 42.9947 103.477 43.096 102.859 43.096C102.155 43.096 101.563 42.9733 101.083 42.728C100.603 42.472 100.213 42.136 99.9148 41.72C99.6268 41.2933 99.4135 40.7867 99.2748 40.2C99.1362 39.6133 99.0615 39.0373 99.0508 38.472C99.0295 38.3013 99.0188 37.96 99.0188 37.448C99.0295 36.9253 99.0562 36.456 99.0988 36.04C99.1415 35.6133 99.2108 35.2027 99.3068 34.808C99.4135 34.4027 99.5575 34.0453 99.7388 33.736C100.027 33.224 100.389 32.8453 100.827 32.6C101.275 32.3547 101.787 32.184 102.363 32.088C102.544 32.056 102.949 31.9973 103.579 31.912C104.219 31.816 104.656 31.752 104.891 31.72C105.093 31.6987 105.312 31.672 105.547 31.64C105.792 31.5973 106.032 31.5547 106.267 31.512V32.76C106.107 32.8133 105.909 32.8613 105.675 32.904C105.44 32.936 105.173 32.968 104.875 33C104.661 33.032 104.437 33.064 104.203 33.096C103.979 33.1173 103.744 33.144 103.499 33.176C103.264 33.1973 102.901 33.2453 102.411 33.32C102.048 33.3733 101.749 33.4747 101.515 33.624C101.291 33.7733 101.093 33.9707 100.923 34.216C100.72 34.5147 100.571 34.8773 100.475 35.304C100.389 35.72 100.341 36.1093 100.331 36.472ZM102.891 41.896C103.285 41.896 103.632 41.8213 103.931 41.672C104.24 41.5227 104.496 41.32 104.699 41.064C104.912 40.808 105.072 40.5093 105.179 40.168C105.285 39.8267 105.339 39.464 105.339 39.08C105.339 38.7067 105.28 38.36 105.163 38.04C105.056 37.7093 104.901 37.4267 104.699 37.192C104.496 36.9467 104.251 36.76 103.963 36.632C103.675 36.4933 103.323 36.424 102.907 36.424C102.523 36.4347 102.181 36.5093 101.883 36.648C101.584 36.7867 101.328 36.984 101.115 37.24C100.901 37.4853 100.741 37.7733 100.635 38.104C100.528 38.424 100.469 38.76 100.459 39.112C100.459 39.4853 100.507 39.8427 100.603 40.184C100.709 40.5147 100.864 40.808 101.067 41.064C101.269 41.32 101.52 41.5227 101.819 41.672C102.128 41.8213 102.485 41.896 102.891 41.896ZM108.526 34.568H109.918V37.784H111.438C111.918 37.784 112.355 37.8213 112.75 37.896C113.155 37.96 113.512 38.0987 113.822 38.312C114.11 38.5253 114.328 38.7973 114.478 39.128C114.638 39.448 114.718 39.848 114.718 40.328C114.696 40.808 114.606 41.208 114.446 41.528C114.296 41.8373 114.099 42.0987 113.854 42.312C113.555 42.5573 113.192 42.7333 112.766 42.84C112.339 42.9467 111.902 43 111.454 43H108.526V34.568ZM115.886 43V34.568H117.246V43H115.886ZM110.366 41.816C110.771 41.816 111.176 41.8107 111.582 41.8C111.998 41.7787 112.355 41.6933 112.654 41.544C112.856 41.4587 113.016 41.3147 113.134 41.112C113.262 40.8987 113.331 40.6533 113.342 40.376C113.342 40.0453 113.272 39.784 113.134 39.592C113.006 39.4 112.835 39.2613 112.622 39.176C112.419 39.08 112.19 39.0213 111.934 39C111.678 38.9787 111.427 38.968 111.182 38.968H109.918V41.816H110.366ZM125.609 34.568V35.768H122.713V43H121.353V35.768H118.457V34.568H125.609ZM128.15 43H126.822V34.568H128.182V41.032C128.257 40.8827 128.358 40.7227 128.486 40.552C128.614 40.3707 128.716 40.232 128.79 40.136L132.87 34.568H134.214V43H132.854V36.536C132.769 36.696 132.673 36.8507 132.566 37C132.47 37.1387 132.38 37.2613 132.294 37.368L128.15 43ZM137.41 39.288C137.442 39.6613 137.516 40.008 137.634 40.328C137.762 40.6373 137.932 40.9093 138.146 41.144C138.359 41.3787 138.62 41.5653 138.93 41.704C139.25 41.832 139.618 41.896 140.034 41.896C140.236 41.896 140.444 41.88 140.658 41.848C140.882 41.8053 141.09 41.7413 141.282 41.656C141.474 41.56 141.644 41.4373 141.794 41.288C141.943 41.1387 142.055 40.9573 142.13 40.744H143.522C143.426 41.1493 143.26 41.5013 143.026 41.8C142.802 42.0987 142.53 42.344 142.21 42.536C141.9 42.728 141.554 42.872 141.17 42.968C140.786 43.0533 140.396 43.096 140.002 43.096C139.33 43.096 138.743 42.9893 138.242 42.776C137.751 42.5627 137.34 42.2693 137.01 41.896C136.679 41.512 136.434 41.0587 136.274 40.536C136.114 40.0027 136.034 39.4213 136.034 38.792C136.034 38.1627 136.119 37.5867 136.29 37.064C136.471 36.5307 136.727 36.072 137.058 35.688C137.388 35.304 137.794 35.0053 138.274 34.792C138.754 34.5787 139.324 34.472 139.986 34.472C140.658 34.472 141.239 34.6053 141.73 34.872C142.22 35.1387 142.615 35.4907 142.914 35.928C143.212 36.3547 143.42 36.8187 143.538 37.32C143.666 37.8213 143.719 38.2853 143.698 38.712C143.698 38.808 143.692 38.904 143.682 39C143.682 39.096 143.676 39.192 143.666 39.288H137.41ZM142.322 38.104C142.3 37.3893 142.076 36.808 141.65 36.36C141.223 35.912 140.652 35.688 139.938 35.688C139.543 35.688 139.196 35.752 138.898 35.88C138.599 36.008 138.348 36.184 138.146 36.408C137.943 36.632 137.783 36.8933 137.666 37.192C137.548 37.48 137.474 37.784 137.442 38.104H142.322ZM149.838 43V34.568H155.662V35.768H151.198V43H149.838ZM160.659 34.472C161.331 34.472 161.913 34.5787 162.403 34.792C162.894 35.0053 163.305 35.304 163.635 35.688C163.977 36.072 164.227 36.5307 164.387 37.064C164.558 37.5867 164.643 38.1627 164.643 38.792C164.643 39.4213 164.558 40.0027 164.387 40.536C164.227 41.0587 163.977 41.512 163.635 41.896C163.305 42.2693 162.889 42.5627 162.387 42.776C161.886 42.9893 161.299 43.096 160.627 43.096C159.955 43.096 159.369 42.9893 158.867 42.776C158.377 42.5627 157.961 42.2693 157.619 41.896C157.289 41.512 157.038 41.0587 156.867 40.536C156.707 40.0027 156.627 39.4213 156.627 38.792C156.627 38.1627 156.707 37.5867 156.867 37.064C157.038 36.5307 157.289 36.072 157.619 35.688C157.961 35.304 158.382 35.0053 158.883 34.792C159.385 34.5787 159.977 34.472 160.659 34.472ZM160.627 41.896C161.086 41.896 161.481 41.816 161.811 41.656C162.153 41.496 162.43 41.2773 162.643 41C162.867 40.712 163.027 40.3813 163.123 40.008C163.23 39.6347 163.283 39.2293 163.283 38.792C163.283 38.3653 163.23 37.9653 163.123 37.592C163.027 37.208 162.867 36.8773 162.643 36.6C162.43 36.312 162.153 36.088 161.811 35.928C161.481 35.768 161.086 35.688 160.627 35.688C160.169 35.688 159.774 35.768 159.443 35.928C159.113 36.088 158.835 36.312 158.611 36.6C158.398 36.8773 158.238 37.208 158.131 37.592C158.035 37.9653 157.987 38.3653 157.987 38.792C157.987 39.2293 158.035 39.6347 158.131 40.008C158.238 40.3813 158.398 40.712 158.611 41C158.835 41.2773 159.113 41.496 159.443 41.656C159.774 41.816 160.169 41.896 160.627 41.896ZM167.236 36.424C167.246 36.1147 167.252 35.8053 167.252 35.496C167.252 35.1867 167.252 34.8773 167.252 34.568H173.236V41.816H174.34V45.592H173.028V43H166.868V45.592H165.556V41.816C165.982 41.816 166.318 41.624 166.564 41.24C166.713 41.0267 166.83 40.7227 166.916 40.328C167.001 39.9227 167.065 39.496 167.108 39.048C167.161 38.5573 167.193 38.072 167.204 37.592C167.225 37.1013 167.236 36.712 167.236 36.424ZM171.876 35.768H168.548C168.537 36.216 168.526 36.7173 168.516 37.272C168.505 37.8267 168.484 38.344 168.452 38.824C168.441 39.0373 168.425 39.272 168.404 39.528C168.382 39.7733 168.345 40.0293 168.292 40.296C168.249 40.552 168.18 40.8133 168.084 41.08C167.998 41.3467 167.876 41.592 167.716 41.816H171.876V35.768ZM181.312 41.928C181.131 42.1733 180.923 42.3707 180.688 42.52C180.453 42.6693 180.208 42.7867 179.952 42.872C179.707 42.9573 179.456 43.016 179.2 43.048C178.955 43.08 178.709 43.096 178.464 43.096C178.069 43.096 177.696 43.048 177.344 42.952C176.992 42.856 176.672 42.7013 176.384 42.488C176.107 42.2747 175.883 42.008 175.712 41.688C175.552 41.368 175.472 41.0053 175.472 40.6C175.472 40.12 175.557 39.72 175.728 39.4C175.909 39.0693 176.149 38.8027 176.448 38.6C176.747 38.3973 177.088 38.2587 177.472 38.184C177.867 38.0987 178.283 38.056 178.72 38.056H181.2C181.2 37.3413 181.045 36.776 180.736 36.36C180.427 35.9333 179.904 35.7093 179.168 35.688C178.72 35.688 178.325 35.7627 177.984 35.912C177.643 36.0613 177.408 36.3067 177.28 36.648H175.824C175.899 36.264 176.048 35.9387 176.272 35.672C176.496 35.3947 176.763 35.1707 177.072 35C177.381 34.8187 177.717 34.6853 178.08 34.6C178.443 34.5147 178.805 34.472 179.168 34.472C179.797 34.472 180.325 34.5787 180.752 34.792C181.189 34.9947 181.541 35.2667 181.808 35.608C182.075 35.9387 182.261 36.344 182.368 36.824C182.475 37.304 182.528 37.8427 182.528 38.44V43H181.392L181.312 41.928ZM179.712 39.192C179.456 39.192 179.157 39.1973 178.816 39.208C178.485 39.208 178.165 39.24 177.856 39.304C177.547 39.368 177.296 39.5013 177.104 39.704C176.923 39.9067 176.832 40.1733 176.832 40.504C176.832 40.7493 176.88 40.9573 176.976 41.128C177.072 41.2987 177.2 41.4427 177.36 41.56C177.531 41.6773 177.723 41.7627 177.936 41.816C178.149 41.8693 178.368 41.896 178.592 41.896C179.392 41.896 180.021 41.704 180.48 41.32C180.949 40.9253 181.189 40.3547 181.2 39.608V39.192H179.712ZM187.291 35.992H188.747L190.555 38.776L188.747 41.56H187.291L189.179 38.776L187.291 35.992ZM184.507 35.992H185.947L187.755 38.776L185.947 41.56H184.507L186.347 38.776L184.507 35.992ZM96.3289 60.048C96.6169 59.8027 96.9315 59.536 97.2729 59.248C97.6249 58.9493 97.9502 58.6293 98.2489 58.288C98.5582 57.9467 98.8195 57.5893 99.0329 57.216C99.2462 56.832 99.3582 56.416 99.3689 55.968C99.3902 55.2853 99.1929 54.7627 98.7769 54.4C98.3609 54.0267 97.8115 53.84 97.1289 53.84C96.5849 53.84 96.1102 53.952 95.7049 54.176C95.2995 54.4 95.0329 54.7253 94.9049 55.152H93.4169C93.4915 54.7147 93.6462 54.336 93.8809 54.016C94.1262 53.6853 94.4195 53.4133 94.7609 53.2C95.1129 52.9867 95.4969 52.8267 95.9129 52.72C96.3289 52.6133 96.7555 52.56 97.1929 52.56C97.7155 52.56 98.1955 52.6347 98.6329 52.784C99.0702 52.9227 99.4489 53.1307 99.7689 53.408C100.089 53.6853 100.334 54.032 100.505 54.448C100.686 54.8533 100.777 55.3173 100.777 55.84C100.777 56.3627 100.697 56.832 100.537 57.248C100.388 57.664 100.18 58.048 99.9129 58.4C99.6569 58.752 99.3635 59.0827 99.0329 59.392C98.7022 59.7013 98.3609 60.0107 98.0089 60.32L95.1449 62.736H100.905V64H93.1289V62.848L96.3289 60.048ZM111.455 58.352C111.455 59.0773 111.381 59.7867 111.231 60.48C111.093 61.1733 110.853 61.792 110.511 62.336C110.17 62.8693 109.717 63.3013 109.151 63.632C108.586 63.9627 107.882 64.128 107.039 64.128C106.186 64.128 105.477 63.9627 104.911 63.632C104.346 63.3013 103.893 62.8693 103.551 62.336C103.21 61.792 102.97 61.184 102.831 60.512C102.693 59.84 102.623 59.12 102.623 58.352C102.623 57.584 102.693 56.864 102.831 56.192C102.97 55.5093 103.21 54.9013 103.551 54.368C103.893 53.8347 104.346 53.4027 104.911 53.072C105.477 52.7307 106.186 52.56 107.039 52.56C107.882 52.56 108.586 52.7253 109.151 53.056C109.717 53.3867 110.17 53.824 110.511 54.368C110.853 54.912 111.093 55.5307 111.231 56.224C111.381 56.9173 111.455 57.6267 111.455 58.352ZM104.047 58.352C104.047 58.864 104.085 59.3867 104.159 59.92C104.234 60.4533 104.378 60.9387 104.591 61.376C104.805 61.8133 105.103 62.1707 105.487 62.448C105.882 62.7253 106.399 62.864 107.039 62.864C107.669 62.864 108.175 62.7253 108.559 62.448C108.954 62.1707 109.258 61.8133 109.471 61.376C109.685 60.9387 109.829 60.4533 109.903 59.92C109.978 59.3867 110.015 58.864 110.015 58.352C110.015 57.8507 109.978 57.3333 109.903 56.8C109.829 56.2667 109.685 55.7813 109.471 55.344C109.258 54.896 108.954 54.5333 108.559 54.256C108.175 53.968 107.669 53.824 107.039 53.824C106.399 53.824 105.882 53.968 105.487 54.256C105.103 54.5333 104.805 54.896 104.591 55.344C104.378 55.7813 104.234 56.2667 104.159 56.8C104.085 57.3333 104.047 57.8507 104.047 58.352ZM116.448 64H115.056V54.928H112.752V53.984C113.072 53.9627 113.365 53.936 113.632 53.904C113.899 53.8613 114.144 53.792 114.368 53.696C114.592 53.6 114.795 53.472 114.976 53.312C115.157 53.152 115.323 52.944 115.472 52.688H116.448V64ZM119.765 64L124.341 53.968H118.357V52.688H125.877V53.84L121.301 64H119.765ZM126.697 64.032C126.42 64.0107 126.196 63.92 126.025 63.76C125.854 63.6 125.769 63.3867 125.769 63.12C125.78 62.8427 125.876 62.624 126.057 62.464C126.249 62.2933 126.468 62.208 126.713 62.208C127.022 62.208 127.268 62.32 127.449 62.544C127.641 62.768 127.737 63.0827 127.737 63.488C127.737 63.712 127.689 63.9573 127.593 64.224C127.508 64.5013 127.39 64.752 127.241 64.976C127.092 65.2 126.916 65.3973 126.713 65.568C126.521 65.7387 126.318 65.8613 126.105 65.936L125.721 65.408C125.934 65.2587 126.132 65.056 126.313 64.8C126.505 64.544 126.633 64.288 126.697 64.032ZM136.329 60.048C136.617 59.8027 136.932 59.536 137.273 59.248C137.625 58.9493 137.95 58.6293 138.249 58.288C138.558 57.9467 138.82 57.5893 139.033 57.216C139.246 56.832 139.358 56.416 139.369 55.968C139.39 55.2853 139.193 54.7627 138.777 54.4C138.361 54.0267 137.812 53.84 137.129 53.84C136.585 53.84 136.11 53.952 135.705 54.176C135.3 54.4 135.033 54.7253 134.905 55.152H133.417C133.492 54.7147 133.646 54.336 133.881 54.016C134.126 53.6853 134.42 53.4133 134.761 53.2C135.113 52.9867 135.497 52.8267 135.913 52.72C136.329 52.6133 136.756 52.56 137.193 52.56C137.716 52.56 138.196 52.6347 138.633 52.784C139.07 52.9227 139.449 53.1307 139.769 53.408C140.089 53.6853 140.334 54.032 140.505 54.448C140.686 54.8533 140.777 55.3173 140.777 55.84C140.777 56.3627 140.697 56.832 140.537 57.248C140.388 57.664 140.18 58.048 139.913 58.4C139.657 58.752 139.364 59.0827 139.033 59.392C138.702 59.7013 138.361 60.0107 138.009 60.32L135.145 62.736H140.905V64H133.129V62.848L136.329 60.048ZM151.455 58.352C151.455 59.0773 151.381 59.7867 151.231 60.48C151.093 61.1733 150.853 61.792 150.511 62.336C150.17 62.8693 149.717 63.3013 149.151 63.632C148.586 63.9627 147.882 64.128 147.039 64.128C146.186 64.128 145.477 63.9627 144.911 63.632C144.346 63.3013 143.893 62.8693 143.551 62.336C143.21 61.792 142.97 61.184 142.831 60.512C142.693 59.84 142.623 59.12 142.623 58.352C142.623 57.584 142.693 56.864 142.831 56.192C142.97 55.5093 143.21 54.9013 143.551 54.368C143.893 53.8347 144.346 53.4027 144.911 53.072C145.477 52.7307 146.186 52.56 147.039 52.56C147.882 52.56 148.586 52.7253 149.151 53.056C149.717 53.3867 150.17 53.824 150.511 54.368C150.853 54.912 151.093 55.5307 151.231 56.224C151.381 56.9173 151.455 57.6267 151.455 58.352ZM144.047 58.352C144.047 58.864 144.085 59.3867 144.159 59.92C144.234 60.4533 144.378 60.9387 144.591 61.376C144.805 61.8133 145.103 62.1707 145.487 62.448C145.882 62.7253 146.399 62.864 147.039 62.864C147.669 62.864 148.175 62.7253 148.559 62.448C148.954 62.1707 149.258 61.8133 149.471 61.376C149.685 60.9387 149.829 60.4533 149.903 59.92C149.978 59.3867 150.015 58.864 150.015 58.352C150.015 57.8507 149.978 57.3333 149.903 56.8C149.829 56.2667 149.685 55.7813 149.471 55.344C149.258 54.896 148.954 54.5333 148.559 54.256C148.175 53.968 147.669 53.824 147.039 53.824C146.399 53.824 145.882 53.968 145.487 54.256C145.103 54.5333 144.805 54.896 144.591 55.344C144.378 55.7813 144.234 56.2667 144.159 56.8C144.085 57.3333 144.047 57.8507 144.047 58.352ZM156.448 64H155.056V54.928H152.752V53.984C153.072 53.9627 153.365 53.936 153.632 53.904C153.899 53.8613 154.144 53.792 154.368 53.696C154.592 53.6 154.795 53.472 154.976 53.312C155.157 53.152 155.323 52.944 155.472 52.688H156.448V64ZM167.205 60.848C167.205 61.456 167.087 61.9733 166.853 62.4C166.618 62.816 166.309 63.152 165.925 63.408C165.551 63.664 165.119 63.8507 164.629 63.968C164.149 64.0747 163.653 64.128 163.141 64.128C162.629 64.128 162.127 64.0747 161.637 63.968C161.157 63.8507 160.725 63.664 160.341 63.408C159.957 63.152 159.647 62.816 159.413 62.4C159.189 61.9733 159.077 61.456 159.077 60.848C159.077 60.208 159.242 59.6587 159.573 59.2C159.903 58.7307 160.362 58.384 160.949 58.16C160.629 58.0107 160.367 57.8293 160.165 57.616C159.962 57.4027 159.802 57.1787 159.685 56.944C159.578 56.6987 159.503 56.4587 159.461 56.224C159.429 55.9787 159.413 55.7547 159.413 55.552C159.413 55.0293 159.519 54.5813 159.733 54.208C159.946 53.824 160.223 53.5093 160.565 53.264C160.917 53.0187 161.317 52.8427 161.765 52.736C162.213 52.6187 162.671 52.56 163.141 52.56C163.61 52.56 164.069 52.6187 164.517 52.736C164.965 52.8427 165.359 53.0187 165.701 53.264C166.053 53.5093 166.335 53.824 166.549 54.208C166.762 54.5813 166.869 55.0293 166.869 55.552C166.869 55.7547 166.847 55.9787 166.805 56.224C166.762 56.4587 166.682 56.6933 166.565 56.928C166.458 57.152 166.303 57.3707 166.101 57.584C165.898 57.7867 165.637 57.9627 165.317 58.112C165.925 58.336 166.389 58.688 166.709 59.168C167.039 59.648 167.205 60.208 167.205 60.848ZM163.141 53.824C162.821 53.824 162.522 53.8613 162.245 53.936C161.967 54.0107 161.722 54.128 161.509 54.288C161.306 54.4373 161.146 54.6347 161.029 54.88C160.911 55.1147 160.853 55.4027 160.853 55.744C160.853 56.096 160.917 56.3893 161.045 56.624C161.173 56.8587 161.343 57.0507 161.557 57.2C161.77 57.3493 162.01 57.4613 162.277 57.536C162.554 57.6107 162.842 57.648 163.141 57.648C163.439 57.648 163.722 57.6107 163.989 57.536C164.266 57.4613 164.506 57.3493 164.709 57.2C164.922 57.0507 165.093 56.8587 165.221 56.624C165.349 56.3893 165.418 56.1173 165.429 55.808C165.429 55.4453 165.365 55.1413 165.237 54.896C165.119 54.64 164.954 54.432 164.741 54.272C164.538 54.112 164.298 54 164.021 53.936C163.743 53.8613 163.45 53.824 163.141 53.824ZM163.141 58.88C162.81 58.88 162.485 58.9173 162.165 58.992C161.855 59.056 161.573 59.168 161.317 59.328C161.071 59.488 160.874 59.696 160.725 59.952C160.575 60.1973 160.501 60.5013 160.501 60.864C160.501 61.28 160.591 61.616 160.773 61.872C160.954 62.128 161.178 62.3307 161.445 62.48C161.711 62.6293 161.994 62.7307 162.293 62.784C162.602 62.8373 162.885 62.864 163.141 62.864C163.397 62.864 163.674 62.8373 163.973 62.784C164.282 62.7307 164.565 62.6293 164.821 62.48C165.087 62.3307 165.311 62.128 165.493 61.872C165.674 61.616 165.765 61.28 165.765 60.864C165.765 60.5013 165.69 60.1973 165.541 59.952C165.391 59.696 165.194 59.488 164.949 59.328C164.703 59.168 164.421 59.056 164.101 58.992C163.791 58.9173 163.471 58.88 163.141 58.88Z" fill="white"/>
</svg>
