<svg width="143" height="53" viewBox="0 0 143 53" fill="none" xmlns="http://www.w3.org/2000/svg">
<path d="M21.0219 22.7301L21.1341 22.7688C21.1562 22.8607 21.1758 22.9928 21.0395 22.9822L21.0001 22.9368C20.9753 22.8588 20.9977 22.806 21.0219 22.7301Z" fill="#9C9C9C"/>
<path d="M25.47 15.8317C26.0332 15.8633 27.691 16.7893 27.476 17.101C27.3457 17.29 26.1799 17.5248 25.9242 17.5513C25.1249 17.6183 23.6042 16.4593 23.983 16.145C24.2354 15.9356 25.1446 15.8153 25.47 15.8317Z" fill="#9C9C9C"/>
<path d="M30.3761 36.8048C30.7876 36.8181 32.5517 37.5732 32.2156 37.9153C31.8906 38.2457 30.8784 38.4602 30.415 38.4618C29.7133 38.4095 28.8879 37.9404 28.4858 37.3886C29.0215 36.9548 29.6943 36.8093 30.3761 36.8048Z" fill="#9C9C9C"/>
<path d="M28.0054 31.7587C28.542 32.6214 28.4908 34.2157 27.6773 34.9356C27.4723 35.1171 27.1803 35.3496 26.8908 35.3357C25.8043 34.4093 26.9793 32.1709 28.0054 31.7587Z" fill="#9C9C9C"/>
<path d="M23.4411 34.3441C23.901 34.356 24.5141 34.653 25.0438 34.7382C24.5313 35.663 23.5516 36.0213 22.5082 35.888C21.907 35.806 21.2248 35.5535 20.9377 34.9955C21.5765 34.4713 22.6193 34.2882 23.4411 34.3441Z" fill="#9C9C9C"/>
<path d="M24.0547 23.1836C24.3095 23.2299 24.5997 26.0829 22.3494 26.9162C22.2504 26.953 22.191 26.9669 22.0916 26.9228C21.3403 25.3529 22.5288 23.7511 24.0547 23.1836Z" fill="#9C9C9C"/>
<path d="M21.0252 22.7295C21.073 20.248 22.467 19.06 25.0358 19.4793C24.5931 21.5105 21.3029 21.9939 21.1372 22.7682L21.0252 22.7295Z" fill="#9C9C9C"/>
<path d="M18.777 16.103C20.2684 16.8296 21.0574 18.4806 20.7649 20.0696C20.7335 20.2403 20.6871 20.3602 20.5363 20.4637C19.9818 20.7298 19.1958 19.7038 18.9694 19.3267C18.3493 18.2938 18.4815 17.2051 18.777 16.103Z" fill="#9C9C9C"/>
<path d="M28.1331 9.71159C28.3326 9.71331 28.234 10.1551 28.2206 10.2882C28.0551 11.9318 26.6865 13.4037 25.1088 13.9421C24.8117 13.8971 25.1822 12.5747 25.2471 12.3628C25.6463 11.0582 26.8668 10.1648 28.1331 9.71159Z" fill="#9C9C9C"/>
<path d="M26.2791 37.2901C26.7793 37.3119 28.9518 38.2214 28.1514 38.8294C27.4815 39.3383 26.4865 39.5694 25.6508 39.4675C25.3745 39.4324 25.0407 39.4041 24.791 39.2819C24.547 39.1623 23.2674 38.4928 23.6217 38.1631C24.3115 37.5212 25.3402 37.2482 26.2791 37.2901Z" fill="#9C9C9C"/>
<path d="M22.4325 10.9845C23.7922 12.1305 24.3393 14.8627 22.8331 16.0755C22.0385 16.493 21.5174 14.3034 21.5194 13.8477C21.5223 13.1622 21.9927 11.4063 22.4325 10.9845Z" fill="#9C9C9C"/>
<path d="M19.5468 28.6911C21.5572 28.8561 22.7411 30.5335 23.1299 32.3159C22.7158 32.3082 22.292 32.223 21.8829 32.1629C20.0066 31.9055 18.9046 30.8304 18.3432 29.0713C18.1597 28.4968 19.1 28.6661 19.5468 28.6911Z" fill="#9C9C9C"/>
<path d="M24.8792 28.1407C25.2462 28.1616 25.819 29.193 25.9879 29.496C26.359 30.1609 26.7502 32.1018 25.9032 32.5277C25.6181 32.5182 25.34 32.4614 25.0607 32.4094C24.5144 32.2895 24.1923 32.0537 23.5851 32.0341C22.6013 30.825 23.6325 28.8663 24.8792 28.1407Z" fill="#9C9C9C"/>
<path d="M17.2356 22.9778C17.5319 23.0683 17.8529 23.1145 18.1554 23.1878C20.0881 23.6556 20.679 24.8988 21.2471 26.5679C21.3311 26.8145 21.8846 28.1227 21.8633 28.2034C21.7578 28.1291 21.7044 28.0354 21.6383 27.9299C20.9448 26.8211 19.0334 27.618 17.7422 25.305C17.4205 24.7284 17.0506 23.5782 17.2356 22.9778Z" fill="#9C9C9C"/>
<path d="M121.689 22.7299L121.577 22.7687C121.555 22.8606 121.535 22.9927 121.671 22.9821L121.711 22.9366C121.736 22.8587 121.713 22.8059 121.689 22.7299Z" fill="#9C9C9C"/>
<path d="M117.247 15.8317C116.684 15.8633 115.026 16.7893 115.241 17.101C115.371 17.29 116.537 17.5248 116.793 17.5513C117.592 17.6183 119.113 16.4593 118.734 16.145C118.481 15.9356 117.572 15.8153 117.247 15.8317Z" fill="#9C9C9C"/>
<path d="M112.337 36.8048C111.925 36.8181 110.161 37.5732 110.497 37.9153C110.822 38.2457 111.835 38.4602 112.298 38.4618C113 38.4095 113.825 37.9404 114.227 37.3886C113.691 36.9548 113.019 36.8093 112.337 36.8048Z" fill="#9C9C9C"/>
<path d="M114.711 31.7587C114.175 32.6214 114.226 34.2157 115.04 34.9356C115.245 35.1171 115.537 35.3496 115.826 35.3357C116.913 34.4093 115.737 32.1709 114.711 31.7587Z" fill="#9C9C9C"/>
<path d="M119.276 34.3441C118.816 34.356 118.203 34.653 117.673 34.7382C118.186 35.663 119.165 36.0213 120.209 35.888C120.81 35.806 121.492 35.5535 121.779 34.9955C121.14 34.4713 120.098 34.2882 119.276 34.3441Z" fill="#9C9C9C"/>
<path d="M118.658 23.1836C118.403 23.2299 118.113 26.0829 120.363 26.9162C120.462 26.953 120.522 26.9669 120.621 26.9228C121.373 25.3529 120.184 23.7511 118.658 23.1836Z" fill="#9C9C9C"/>
<path d="M121.69 22.7295C121.642 20.248 120.248 19.06 117.679 19.4793C118.122 21.5105 121.412 21.9939 121.578 22.7682L121.69 22.7295Z" fill="#9C9C9C"/>
<path d="M123.94 16.103C122.448 16.8296 121.659 18.4806 121.952 20.0696C121.983 20.2403 122.03 20.3602 122.181 20.4637C122.735 20.7298 123.521 19.7038 123.747 19.3267C124.368 18.2938 124.235 17.2051 123.94 16.103Z" fill="#9C9C9C"/>
<path d="M114.582 9.71159C114.382 9.71331 114.481 10.1551 114.494 10.2882C114.66 11.9318 116.028 13.4037 117.606 13.9421C117.903 13.8971 117.533 12.5747 117.468 12.3628C117.069 11.0582 115.848 10.1648 114.582 9.71159Z" fill="#9C9C9C"/>
<path d="M116.436 37.2901C115.936 37.3119 113.763 38.2214 114.563 38.8294C115.233 39.3383 116.228 39.5694 117.064 39.4675C117.34 39.4324 117.674 39.4041 117.924 39.2819C118.168 39.1623 119.447 38.4928 119.093 38.1631C118.403 37.5212 117.375 37.2482 116.436 37.2901Z" fill="#9C9C9C"/>
<path d="M120.28 10.9846C118.921 12.1307 118.374 14.8629 119.88 16.0756C120.674 16.4931 121.195 14.3036 121.194 13.8478C121.191 13.1624 120.72 11.4064 120.28 10.9846Z" fill="#9C9C9C"/>
<path d="M123.162 28.6911C121.152 28.8561 119.968 30.5335 119.579 32.3159C119.993 32.3082 120.417 32.223 120.826 32.1629C122.702 31.9055 123.804 30.8304 124.366 29.0713C124.549 28.4968 123.609 28.6661 123.162 28.6911Z" fill="#9C9C9C"/>
<path d="M117.836 28.1408C117.469 28.1617 116.896 29.1931 116.727 29.4962C116.356 30.161 115.965 32.102 116.812 32.5278C117.097 32.5183 117.375 32.4615 117.654 32.4095C118.2 32.2896 118.523 32.0538 119.13 32.0342C120.114 30.8251 119.082 28.8664 117.836 28.1408Z" fill="#9C9C9C"/>
<path d="M125.479 22.9778C125.183 23.0683 124.862 23.1145 124.559 23.1878C122.627 23.6556 122.036 24.8988 121.468 26.5679C121.384 26.8145 120.83 28.1227 120.852 28.2034C120.957 28.1291 121.01 28.0354 121.077 27.9299C121.77 26.8211 123.681 27.618 124.973 25.305C125.294 24.7284 125.664 23.5782 125.479 22.9778Z" fill="#9C9C9C"/>
<path d="M37.4087 21.3541H36.6766L35.7675 19.9543L36.6766 18.5546H37.4087L36.4594 19.9543L37.4087 21.3541ZM38.8084 21.3541H38.0844L37.1754 19.9543L38.0844 18.5546H38.8084L37.8833 19.9543L38.8084 21.3541ZM41.9506 16.9617C41.8004 16.9617 41.6476 16.9751 41.492 17.0019C41.3419 17.0288 41.2051 17.077 41.0817 17.1467C40.9584 17.2111 40.8565 17.3023 40.776 17.4203C40.701 17.5329 40.6634 17.6777 40.6634 17.8547C40.6634 18.0692 40.7197 18.2435 40.8324 18.3776C40.945 18.5063 41.0817 18.6055 41.2426 18.6752C41.3714 18.7289 41.5081 18.7744 41.6529 18.812C41.7977 18.8495 41.9452 18.8844 42.0954 18.9166C42.2509 18.9488 42.4011 18.9809 42.5459 19.0131C42.696 19.0453 42.8408 19.0855 42.9803 19.1338C43.3074 19.2464 43.5675 19.4073 43.7606 19.6165C43.9591 19.8256 44.0583 20.1018 44.0583 20.4451C44.0583 20.7668 44.002 21.0323 43.8893 21.2415C43.7821 21.4506 43.6346 21.6223 43.4469 21.7563C43.2645 21.8904 43.05 21.9896 42.8033 22.054C42.562 22.113 42.3045 22.1425 42.031 22.1425C41.7575 22.1425 41.4947 22.1157 41.2426 22.062C40.9959 22.0084 40.7707 21.9199 40.5669 21.7966C40.3631 21.6732 40.1888 21.5123 40.044 21.3139C39.8992 21.1154 39.7973 20.8741 39.7383 20.5899H40.4703C40.524 20.7722 40.6071 20.9224 40.7197 21.0404C40.8324 21.1584 40.9611 21.2522 41.1059 21.3219C41.2507 21.3916 41.4062 21.4399 41.5725 21.4667C41.7441 21.4935 41.913 21.507 42.0793 21.507C42.2402 21.507 42.3957 21.4909 42.5459 21.4587C42.7014 21.4211 42.8382 21.3648 42.9561 21.2897C43.0741 21.2147 43.168 21.1181 43.2377 21.0001C43.3074 20.8822 43.3423 20.74 43.3423 20.5738C43.3423 20.3217 43.2753 20.134 43.1412 20.0106C43.0071 19.8873 42.8274 19.7934 42.6022 19.7291C42.452 19.6808 42.2938 19.6406 42.1275 19.6084C41.9613 19.5762 41.795 19.5414 41.6288 19.5038C41.4625 19.4663 41.2989 19.4234 41.1381 19.3751C40.9772 19.3215 40.8297 19.2598 40.6956 19.1901C40.4811 19.0882 40.3014 18.9327 40.1566 18.7235C40.0118 18.509 39.9394 18.2408 39.9394 17.919C39.9394 17.6187 39.9984 17.3666 40.1164 17.1628C40.2344 16.959 40.3872 16.7955 40.5749 16.6721C40.7626 16.5488 40.9718 16.4603 41.2024 16.4066C41.4384 16.353 41.6878 16.3262 41.9506 16.3262C42.1651 16.3316 42.3582 16.3503 42.5298 16.3825C42.7068 16.4093 42.873 16.4603 43.0286 16.5354C43.2699 16.6426 43.471 16.8035 43.6319 17.018C43.7928 17.2326 43.8813 17.5088 43.8974 17.8466H43.2136C43.1921 17.6804 43.1412 17.5409 43.0607 17.4283C42.9856 17.3157 42.8918 17.2245 42.7792 17.1548C42.6665 17.0851 42.5378 17.0368 42.393 17.01C42.2536 16.9778 42.1061 16.9617 41.9506 16.9617ZM45.0666 22.0781V16.3905H45.7504V18.4902C45.8201 18.3829 45.9086 18.2837 46.0159 18.1926C46.1231 18.1014 46.2358 18.0263 46.3538 17.9673C46.4718 17.9083 46.6005 17.8654 46.7399 17.8386C46.8847 17.8064 47.0242 17.7903 47.1582 17.7903C47.4639 17.7903 47.7187 17.8413 47.9225 17.9432C48.1316 18.0397 48.2979 18.1765 48.4212 18.3534C48.55 18.5251 48.6384 18.7315 48.6867 18.9729C48.7403 19.2089 48.7672 19.4663 48.7672 19.7452V22.0781H48.0834V19.9543C48.0834 19.7613 48.0726 19.5736 48.0512 19.3912C48.0297 19.2035 47.9815 19.0372 47.9064 18.8924C47.8313 18.7476 47.724 18.6296 47.5846 18.5385C47.4452 18.4419 47.2548 18.3937 47.0134 18.3937C46.815 18.3937 46.63 18.4446 46.4583 18.5465C46.2921 18.6431 46.158 18.7664 46.0561 18.9166C45.9328 19.0828 45.8496 19.2679 45.8067 19.4717C45.7692 19.6755 45.7504 19.8846 45.7504 20.0991V22.0781H45.0666ZM51.6859 17.7903C52.0238 17.7903 52.3161 17.8439 52.5628 17.9512C52.8095 18.0585 53.016 18.2086 53.1822 18.4017C53.3539 18.5948 53.4799 18.8254 53.5603 19.0936C53.6461 19.3563 53.6891 19.646 53.6891 19.9624C53.6891 20.2788 53.6461 20.5711 53.5603 20.8392C53.4799 21.102 53.3539 21.33 53.1822 21.523C53.016 21.7108 52.8068 21.8582 52.5548 21.9655C52.3027 22.0728 52.0077 22.1264 51.6698 22.1264C51.332 22.1264 51.037 22.0728 50.7849 21.9655C50.5382 21.8582 50.3291 21.7108 50.1574 21.523C49.9912 21.33 49.8652 21.102 49.7793 20.8392C49.6989 20.5711 49.6587 20.2788 49.6587 19.9624C49.6587 19.646 49.6989 19.3563 49.7793 19.0936C49.8652 18.8254 49.9912 18.5948 50.1574 18.4017C50.3291 18.2086 50.5436 18.0585 50.801 17.9512C51.0584 17.8439 51.3534 17.7903 51.6859 17.7903ZM51.6698 21.523C51.9005 21.523 52.0989 21.4828 52.2651 21.4024C52.4368 21.3219 52.5762 21.212 52.6835 21.0725C52.7961 20.9277 52.8765 20.7615 52.9248 20.5738C52.9784 20.3861 53.0053 20.1823 53.0053 19.9624C53.0053 19.7479 52.9784 19.5467 52.9248 19.359C52.8765 19.166 52.7961 18.9997 52.6835 18.8603C52.5762 18.7155 52.4368 18.6028 52.2651 18.5224C52.0989 18.4419 51.9005 18.4017 51.6698 18.4017C51.4392 18.4017 51.2408 18.4419 51.0745 18.5224C50.9083 18.6028 50.7688 18.7155 50.6562 18.8603C50.549 18.9997 50.4685 19.166 50.4149 19.359C50.3666 19.5467 50.3425 19.7479 50.3425 19.9624C50.3425 20.1823 50.3666 20.3861 50.4149 20.5738C50.4685 20.7615 50.549 20.9277 50.6562 21.0725C50.7688 21.212 50.9083 21.3219 51.0745 21.4024C51.2408 21.4828 51.4392 21.523 51.6698 21.523ZM54.1615 17.8386H54.9338L55.9474 21.4185L56.9932 17.8386H57.9183L58.9722 21.4185L59.9697 17.8386H60.7501L59.4307 22.0781H58.4976L57.4518 18.6431L56.406 22.0781H55.4808L54.1615 17.8386ZM62.4537 17.8386H63.757V18.4419H62.4537V20.6462C62.4537 20.7695 62.4591 20.8848 62.4698 20.9921C62.4859 21.094 62.5127 21.1852 62.5503 21.2656C62.5932 21.3407 62.6522 21.4024 62.7272 21.4506C62.8077 21.4935 62.9149 21.5177 63.049 21.523C63.1724 21.523 63.2796 21.5016 63.3708 21.4587C63.4673 21.4158 63.5478 21.3648 63.6121 21.3058L63.9098 21.8046C63.7704 21.9226 63.6256 22.0057 63.4754 22.054C63.3252 22.1023 63.159 22.1264 62.9766 22.1264C62.746 22.1264 62.5529 22.0942 62.3974 22.0299C62.2419 21.9601 62.1105 21.8609 62.0032 21.7322C61.912 21.6089 61.8504 21.464 61.8182 21.2978C61.786 21.1315 61.7699 20.9438 61.7699 20.7347V18.4419H61.0781V17.8386H61.7699V16.5675H62.4537V17.8386ZM65.1043 20.2118C65.1204 20.3995 65.1579 20.5738 65.2169 20.7347C65.2813 20.8902 65.3671 21.027 65.4744 21.1449C65.5816 21.2629 65.713 21.3568 65.8686 21.4265C66.0294 21.4909 66.2145 21.523 66.4236 21.523C66.5255 21.523 66.6301 21.515 66.7374 21.4989C66.85 21.4775 66.9546 21.4453 67.0511 21.4024C67.1477 21.3541 67.2335 21.2924 67.3085 21.2173C67.3836 21.1423 67.4399 21.0511 67.4775 20.9438H68.1774C68.1291 21.1476 68.046 21.3246 67.928 21.4748C67.8154 21.6249 67.6786 21.7483 67.5177 21.8448C67.3622 21.9414 67.1879 22.0138 66.9948 22.062C66.8017 22.1049 66.606 22.1264 66.4075 22.1264C66.0697 22.1264 65.7747 22.0728 65.5226 21.9655C65.2759 21.8582 65.0694 21.7108 64.9032 21.523C64.7369 21.33 64.6136 21.102 64.5331 20.8392C64.4527 20.5711 64.4125 20.2788 64.4125 19.9624C64.4125 19.646 64.4554 19.3563 64.5412 19.0936C64.6324 18.8254 64.7611 18.5948 64.9273 18.4017C65.0936 18.2086 65.2974 18.0585 65.5387 17.9512C65.7801 17.8439 66.067 17.7903 66.3995 17.7903C66.7374 17.7903 67.0297 17.8574 67.2764 17.9914C67.5231 18.1255 67.7215 18.3025 67.8717 18.5224C68.0218 18.7369 68.1264 18.9702 68.1854 19.2223C68.2498 19.4743 68.2766 19.7076 68.2659 19.9222C68.2659 19.9704 68.2632 20.0187 68.2578 20.067C68.2578 20.1152 68.2551 20.1635 68.2498 20.2118H65.1043ZM67.574 19.6165C67.5633 19.2571 67.4507 18.9648 67.2361 18.7396C67.0216 18.5143 66.7347 18.4017 66.3754 18.4017C66.1769 18.4017 66.0026 18.4339 65.8525 18.4982C65.7023 18.5626 65.5763 18.6511 65.4744 18.7637C65.3725 18.8763 65.292 19.0077 65.233 19.1579C65.174 19.3027 65.1365 19.4556 65.1204 19.6165H67.574ZM70.6107 20.4611L69.4523 22.0781H68.68L70.1924 19.9141L68.7524 17.8386H69.5729L70.6509 19.4475L71.6967 17.8386H72.4931L71.0612 19.9382L72.5977 22.0781H71.7852L70.6107 20.4611ZM79.4291 22.0781L78.9786 20.8553H76.163L75.7125 22.0781H74.9563L77.072 16.3905H78.0776L80.1853 22.0781H79.4291ZM77.5708 17.0019L76.3963 20.2198H78.7453L77.5708 17.0019ZM80.2045 17.8386H80.9768L81.9904 21.4185L83.0362 17.8386H83.9614L85.0152 21.4185L86.0128 17.8386H86.7931L85.4738 22.0781H84.5406L83.4948 18.6431L82.449 22.0781H81.5238L80.2045 17.8386ZM90.2183 21.5391C90.1271 21.6625 90.0226 21.7617 89.9046 21.8368C89.7866 21.9119 89.6632 21.9709 89.5345 22.0138C89.4112 22.0567 89.2851 22.0862 89.1564 22.1023C89.0331 22.1183 88.9097 22.1264 88.7864 22.1264C88.5879 22.1264 88.4002 22.1023 88.2232 22.054C88.0462 22.0057 87.8854 21.928 87.7406 21.8207C87.6011 21.7134 87.4885 21.5794 87.4027 21.4185C87.3222 21.2576 87.282 21.0752 87.282 20.8714C87.282 20.6301 87.3249 20.429 87.4107 20.2681C87.5019 20.1018 87.6226 19.9677 87.7727 19.8658C87.9229 19.7639 88.0945 19.6942 88.2876 19.6567C88.486 19.6138 88.6952 19.5923 88.9151 19.5923H90.162C90.162 19.233 90.0842 18.9488 89.9287 18.7396C89.7732 18.5251 89.5104 18.4124 89.1403 18.4017C88.9151 18.4017 88.7166 18.4393 88.545 18.5143C88.3734 18.5894 88.2554 18.7128 88.1911 18.8844H87.459C87.4965 18.6913 87.5716 18.5277 87.6842 18.3937C87.7969 18.2542 87.9309 18.1416 88.0865 18.0558C88.242 17.9646 88.4109 17.8976 88.5933 17.8547C88.7756 17.8118 88.958 17.7903 89.1403 17.7903C89.4567 17.7903 89.7222 17.8439 89.9367 17.9512C90.1566 18.0531 90.3336 18.1899 90.4677 18.3615C90.6018 18.5277 90.6956 18.7315 90.7493 18.9729C90.8029 19.2142 90.8297 19.4851 90.8297 19.7854V22.0781H90.2585L90.2183 21.5391ZM89.4138 20.1635C89.2851 20.1635 89.135 20.1662 88.9633 20.1715C88.7971 20.1715 88.6362 20.1876 88.4807 20.2198C88.3251 20.252 88.1991 20.319 88.1026 20.4209C88.0114 20.5228 87.9658 20.6569 87.9658 20.8232C87.9658 20.9465 87.9899 21.0511 88.0382 21.1369C88.0865 21.2227 88.1508 21.2951 88.2313 21.3541C88.3171 21.4131 88.4136 21.456 88.5209 21.4828C88.6281 21.5096 88.7381 21.523 88.8507 21.523C89.2529 21.523 89.5694 21.4265 89.8 21.2334C90.036 21.035 90.1566 20.7481 90.162 20.3727V20.1635H89.4138ZM91.8891 22.0781V17.8386H92.5487L92.5809 18.4982C92.7365 18.2515 92.9349 18.0719 93.1762 17.9593C93.4176 17.8466 93.6911 17.7903 93.9968 17.7903H94.214V18.4339H93.9646C93.7125 18.4339 93.498 18.4768 93.321 18.5626C93.1441 18.6431 92.9992 18.7557 92.8866 18.9005C92.7794 19.0399 92.6989 19.2062 92.6453 19.3993C92.597 19.5923 92.5729 19.7961 92.5729 20.0106V22.0781H91.8891ZM98.5926 22.0781H97.9409L97.9088 21.4426C97.764 21.6839 97.5628 21.8582 97.3054 21.9655C97.0533 22.0728 96.7879 22.1264 96.509 22.1264C96.1872 22.121 95.9083 22.0647 95.6723 21.9575C95.4364 21.8448 95.2433 21.692 95.0931 21.4989C94.943 21.3058 94.8303 21.0806 94.7552 20.8232C94.6855 20.5604 94.6507 20.2761 94.6507 19.9704C94.6507 19.6647 94.6882 19.3805 94.7633 19.1177C94.8384 18.8495 94.9537 18.6189 95.1092 18.4258C95.2647 18.2274 95.4605 18.0719 95.6965 17.9593C95.9325 17.8466 96.214 17.7903 96.5412 17.7903C96.7879 17.7903 97.0373 17.8359 97.2893 17.9271C97.5414 18.0183 97.7479 18.1657 97.9088 18.3695V16.3905H98.5926V22.0781ZM96.5975 18.4017C96.3669 18.4017 96.1711 18.4446 96.0102 18.5304C95.8493 18.6109 95.7179 18.7208 95.616 18.8603C95.5195 18.9997 95.4471 19.166 95.3988 19.359C95.3559 19.5467 95.3345 19.7532 95.3345 19.9785C95.3345 20.2037 95.3559 20.4075 95.3988 20.5899C95.4417 20.7668 95.5141 20.9251 95.616 21.0645C95.7179 21.2039 95.8493 21.3166 96.0102 21.4024C96.1711 21.4828 96.3695 21.523 96.6055 21.523C96.879 21.523 97.1043 21.4587 97.2813 21.33C97.4583 21.2013 97.6004 21.0404 97.7076 20.8473C97.7827 20.7132 97.8364 20.5684 97.8685 20.4129C97.9007 20.252 97.9168 20.0938 97.9168 19.9382C97.9168 19.7452 97.898 19.5682 97.8605 19.4073C97.8283 19.2464 97.7666 19.0962 97.6755 18.9568C97.5682 18.8013 97.4261 18.6699 97.2491 18.5626C97.0721 18.4553 96.8549 18.4017 96.5975 18.4017ZM101.179 18.4017C101.083 18.4017 100.983 18.4098 100.881 18.4258C100.785 18.4366 100.688 18.4634 100.592 18.5063C100.501 18.5438 100.42 18.6028 100.35 18.6833C100.286 18.7584 100.251 18.8603 100.246 18.989C100.246 19.1713 100.313 19.3081 100.447 19.3993C100.586 19.4904 100.766 19.5575 100.986 19.6004C101.077 19.6218 101.176 19.6433 101.284 19.6647C101.391 19.6808 101.495 19.6996 101.597 19.721C101.705 19.7371 101.804 19.7559 101.895 19.7774C101.992 19.7988 102.072 19.8203 102.136 19.8417C102.651 20.0026 102.909 20.3485 102.909 20.8795C102.903 21.1369 102.847 21.3461 102.74 21.507C102.638 21.6625 102.506 21.7858 102.346 21.877C102.19 21.9682 102.01 22.0325 101.807 22.0701C101.608 22.1076 101.41 22.1264 101.211 22.1264C101.018 22.1264 100.822 22.1076 100.624 22.0701C100.426 22.0325 100.243 21.9682 100.077 21.877C99.916 21.7805 99.7766 21.6571 99.6586 21.507C99.546 21.3514 99.4736 21.1584 99.4414 20.9277H100.133C100.176 21.0565 100.243 21.1584 100.334 21.2334C100.426 21.3085 100.522 21.3675 100.624 21.4104C100.731 21.4533 100.83 21.4828 100.922 21.4989C101.018 21.515 101.125 21.523 101.243 21.523C101.329 21.523 101.428 21.5177 101.541 21.507C101.654 21.4962 101.761 21.4721 101.863 21.4346C101.965 21.3916 102.051 21.33 102.12 21.2495C102.19 21.1691 102.225 21.0565 102.225 20.9116C102.225 20.7508 102.171 20.6301 102.064 20.5496C101.962 20.4692 101.82 20.4102 101.638 20.3727C101.509 20.3458 101.375 20.3217 101.235 20.3003C101.101 20.2734 100.965 20.2466 100.825 20.2198C100.691 20.1876 100.56 20.1528 100.431 20.1152C100.302 20.0723 100.182 20.016 100.069 19.9463C99.9187 19.8551 99.798 19.7318 99.7069 19.5762C99.6157 19.4207 99.5701 19.2303 99.5701 19.0051C99.5808 18.7691 99.6345 18.576 99.731 18.4258C99.8275 18.2703 99.9509 18.1443 100.101 18.0477C100.262 17.9512 100.434 17.8842 100.616 17.8466C100.798 17.8091 100.991 17.7903 101.195 17.7903C101.63 17.7903 101.975 17.8842 102.233 18.0719C102.388 18.1791 102.509 18.3079 102.595 18.458C102.681 18.6082 102.734 18.7664 102.756 18.9327H102.12C102.083 18.7771 101.981 18.6511 101.815 18.5546C101.648 18.458 101.436 18.4071 101.179 18.4017ZM105.095 18.5546H105.827L106.736 19.9543L105.827 21.3541H105.095L106.044 19.9543L105.095 18.5546ZM103.695 18.5546H104.419L105.328 19.9543L104.419 21.3541H103.695L104.62 19.9543L103.695 18.5546ZM62.9661 30.0911C63.1109 29.9677 63.2691 29.8337 63.4407 29.6889C63.6177 29.5387 63.7813 29.3778 63.9315 29.2062C64.087 29.0346 64.2184 28.8549 64.3256 28.6672C64.4329 28.4741 64.4892 28.265 64.4946 28.0397C64.5053 27.6965 64.4061 27.4337 64.1969 27.2513C63.9878 27.0636 63.7116 26.9698 63.3683 26.9698C63.0948 26.9698 62.8561 27.0261 62.6523 27.1387C62.4486 27.2513 62.3145 27.4149 62.2501 27.6294H61.502C61.5395 27.4095 61.6173 27.2191 61.7353 27.0583C61.8586 26.892 62.0061 26.7552 62.1777 26.648C62.3547 26.5407 62.5478 26.4603 62.7569 26.4066C62.9661 26.353 63.1806 26.3262 63.4005 26.3262C63.6633 26.3262 63.9046 26.3637 64.1245 26.4388C64.3444 26.5085 64.5348 26.6131 64.6957 26.7526C64.8566 26.892 64.9799 27.0663 65.0657 27.2755C65.1569 27.4793 65.2025 27.7126 65.2025 27.9753C65.2025 28.2381 65.1623 28.4741 65.0818 28.6833C65.0068 28.8924 64.9022 29.0855 64.7681 29.2625C64.6394 29.4395 64.4919 29.6057 64.3256 29.7613C64.1594 29.9168 63.9878 30.0723 63.8108 30.2279L62.3708 31.4426H65.2669V32.0781H61.3572V31.4989L62.9661 30.0911ZM70.5716 29.2384C70.5716 29.603 70.534 29.9597 70.4589 30.3083C70.3892 30.6569 70.2686 30.968 70.0969 31.2415C69.9253 31.5096 69.6974 31.7268 69.4131 31.8931C69.1289 32.0594 68.7749 32.1425 68.3512 32.1425C67.9222 32.1425 67.5655 32.0594 67.2813 31.8931C66.9971 31.7268 66.7691 31.5096 66.5975 31.2415C66.4259 30.968 66.3052 30.6623 66.2355 30.3244C66.1658 29.9865 66.1309 29.6245 66.1309 29.2384C66.1309 28.8522 66.1658 28.4902 66.2355 28.1523C66.3052 27.8091 66.4259 27.5034 66.5975 27.2352C66.7691 26.9671 66.9971 26.7499 67.2813 26.5836C67.5655 26.412 67.9222 26.3262 68.3512 26.3262C68.7749 26.3262 69.1289 26.4093 69.4131 26.5756C69.6974 26.7418 69.9253 26.9617 70.0969 27.2352C70.2686 27.5088 70.3892 27.8198 70.4589 28.1684C70.534 28.517 70.5716 28.8737 70.5716 29.2384ZM66.8469 29.2384C66.8469 29.4958 66.8657 29.7586 66.9032 30.0267C66.9407 30.2949 67.0131 30.5389 67.1204 30.7588C67.2277 30.9787 67.3778 31.1584 67.5709 31.2978C67.7693 31.4372 68.0295 31.507 68.3512 31.507C68.6677 31.507 68.9224 31.4372 69.1155 31.2978C69.3139 31.1584 69.4668 30.9787 69.574 30.7588C69.6813 30.5389 69.7537 30.2949 69.7912 30.0267C69.8288 29.7586 69.8475 29.4958 69.8475 29.2384C69.8475 28.9863 69.8288 28.7262 69.7912 28.458C69.7537 28.1899 69.6813 27.9458 69.574 27.726C69.4668 27.5007 69.3139 27.3184 69.1155 27.1789C68.9224 27.0341 68.6677 26.9617 68.3512 26.9617C68.0295 26.9617 67.7693 27.0341 67.5709 27.1789C67.3778 27.3184 67.2277 27.5007 67.1204 27.726C67.0131 27.9458 66.9407 28.1899 66.9032 28.458C66.8657 28.7262 66.8469 28.9863 66.8469 29.2384ZM75.9216 29.2384C75.9216 29.603 75.884 29.9597 75.809 30.3083C75.7392 30.6569 75.6186 30.968 75.447 31.2415C75.2753 31.5096 75.0474 31.7268 74.7632 31.8931C74.4789 32.0594 74.1249 32.1425 73.7013 32.1425C73.2722 32.1425 72.9156 32.0594 72.6313 31.8931C72.3471 31.7268 72.1191 31.5096 71.9475 31.2415C71.7759 30.968 71.6552 30.6623 71.5855 30.3244C71.5158 29.9865 71.4809 29.6245 71.4809 29.2384C71.4809 28.8522 71.5158 28.4902 71.5855 28.1523C71.6552 27.8091 71.7759 27.5034 71.9475 27.2352C72.1191 26.9671 72.3471 26.7499 72.6313 26.5836C72.9156 26.412 73.2722 26.3262 73.7013 26.3262C74.1249 26.3262 74.4789 26.4093 74.7632 26.5756C75.0474 26.7418 75.2753 26.9617 75.447 27.2352C75.6186 27.5088 75.7392 27.8198 75.809 28.1684C75.884 28.517 75.9216 28.8737 75.9216 29.2384ZM72.1969 29.2384C72.1969 29.4958 72.2157 29.7586 72.2532 30.0267C72.2908 30.2949 72.3632 30.5389 72.4704 30.7588C72.5777 30.9787 72.7279 31.1584 72.9209 31.2978C73.1194 31.4372 73.3795 31.507 73.7013 31.507C74.0177 31.507 74.2724 31.4372 74.4655 31.2978C74.6639 31.1584 74.8168 30.9787 74.924 30.7588C75.0313 30.5389 75.1037 30.2949 75.1413 30.0267C75.1788 29.7586 75.1976 29.4958 75.1976 29.2384C75.1976 28.9863 75.1788 28.7262 75.1413 28.458C75.1037 28.1899 75.0313 27.9458 74.924 27.726C74.8168 27.5007 74.6639 27.3184 74.4655 27.1789C74.2724 27.0341 74.0177 26.9617 73.7013 26.9617C73.3795 26.9617 73.1194 27.0341 72.9209 27.1789C72.7279 27.3184 72.5777 27.5007 72.4704 27.726C72.3632 27.9458 72.2908 28.1899 72.2532 28.458C72.2157 28.7262 72.1969 28.9863 72.1969 29.2384ZM77.5147 29.2544C77.6971 28.9756 77.9277 28.7718 78.2066 28.6431C78.4855 28.5143 78.7804 28.45 79.0915 28.45C79.3811 28.45 79.6359 28.4956 79.8557 28.5867C80.081 28.6779 80.2741 28.8013 80.435 28.9568C80.5958 29.1123 80.7219 29.3 80.8131 29.5199C80.9042 29.7398 80.9498 29.9838 80.9498 30.252C80.9498 30.5362 80.9015 30.7937 80.805 31.0243C80.7085 31.2549 80.5744 31.4533 80.4028 31.6196C80.2312 31.7858 80.0247 31.9146 79.7833 32.0057C79.5474 32.0969 79.2899 32.1425 79.011 32.1425C78.6142 32.1425 78.279 32.0728 78.0055 31.9333C77.7319 31.7885 77.5094 31.5981 77.3378 31.3621C77.1661 31.1208 77.0401 30.8419 76.9597 30.5255C76.8846 30.2091 76.8444 29.8766 76.839 29.528C76.839 29.0936 76.8712 28.6994 76.9355 28.3454C76.9999 27.9861 77.1152 27.6589 77.2814 27.364C77.4531 27.0636 77.6864 26.8169 77.9813 26.6238C78.2763 26.4254 78.6517 26.3262 79.1076 26.3262C79.3114 26.3262 79.5071 26.353 79.6948 26.4066C79.8826 26.4603 80.0542 26.5407 80.2097 26.648C80.3652 26.7499 80.502 26.8786 80.62 27.0341C80.738 27.1896 80.8291 27.3666 80.8935 27.5651H80.1614C80.0649 27.3666 79.9174 27.2165 79.719 27.1146C79.5205 27.0127 79.3141 26.9617 79.0995 26.9617C78.7938 26.9617 78.5391 27.0341 78.3353 27.1789C78.1315 27.3237 77.9679 27.5088 77.8446 27.734C77.7266 27.9593 77.6408 28.2086 77.5871 28.4822C77.5389 28.7503 77.5147 29.0077 77.5147 29.2544ZM80.2338 30.3244C80.2338 30.1474 80.2043 29.9865 80.1453 29.8417C80.0864 29.6915 80.0032 29.5628 79.896 29.4556C79.7941 29.3429 79.668 29.2571 79.5179 29.1981C79.3677 29.1338 79.2041 29.1016 79.0271 29.1016C78.8555 29.1016 78.6919 29.1311 78.5364 29.1901C78.3862 29.2437 78.2522 29.3242 78.1342 29.4314C78.0162 29.5333 77.9197 29.6594 77.8446 29.8095C77.7749 29.9597 77.74 30.126 77.74 30.3083C77.74 30.4799 77.7722 30.6381 77.8365 30.7829C77.9009 30.9277 77.9894 31.0538 78.102 31.161C78.2146 31.2683 78.346 31.3541 78.4962 31.4185C78.6517 31.4775 78.818 31.507 78.995 31.507C79.1719 31.507 79.3355 31.4775 79.4857 31.4185C79.6412 31.3541 79.7726 31.271 79.8799 31.1691C79.9925 31.0618 80.0783 30.9358 80.1373 30.791C80.2017 30.6462 80.2338 30.4906 80.2338 30.3244Z" fill="white"/>
</svg>
