<svg width="282" height="105" viewBox="0 0 282 105" fill="none" xmlns="http://www.w3.org/2000/svg">
<path d="M40.9549 45.2075L41.178 45.2845C41.2219 45.4673 41.2609 45.73 40.9898 45.7089L40.9114 45.6186C40.8622 45.4635 40.9067 45.3585 40.9549 45.2075Z" fill="#9C9C9C"/>
<path d="M49.7901 31.4878C50.9103 31.5505 54.2074 33.3922 53.7799 34.0123C53.5208 34.3881 51.2021 34.8552 50.6934 34.9079C49.1039 35.0411 46.0793 32.736 46.8327 32.1109C47.3347 31.6943 49.1429 31.455 49.7901 31.4878Z" fill="#9C9C9C"/>
<path d="M59.5519 73.2013C60.3704 73.2277 63.8791 74.7295 63.2106 75.41C62.5642 76.0672 60.551 76.4939 59.6294 76.4969C58.2338 76.3929 56.5921 75.46 55.7924 74.3625C56.8578 73.4997 58.1959 73.2103 59.5519 73.2013Z" fill="#9C9C9C"/>
<path d="M54.836 63.1647C55.9031 64.8805 55.8014 68.0515 54.1832 69.4833C53.7755 69.8443 53.1948 70.3066 52.619 70.279C50.4581 68.4365 52.7951 63.9845 54.836 63.1647Z" fill="#9C9C9C"/>
<path d="M45.7576 68.3075C46.6723 68.3311 47.8916 68.9219 48.9451 69.0914C47.9257 70.9308 45.9772 71.6434 43.902 71.3781C42.7063 71.2152 41.3496 70.7129 40.7785 69.603C42.049 68.5606 44.123 68.1964 45.7576 68.3075Z" fill="#9C9C9C"/>
<path d="M46.9825 46.1102C47.4893 46.2021 48.0664 51.8766 43.5908 53.534C43.3939 53.6071 43.2758 53.6348 43.0781 53.547C41.5838 50.4246 43.9476 47.2389 46.9825 46.1102Z" fill="#9C9C9C"/>
<path d="M40.9557 45.2074C41.0507 40.2721 43.8232 37.9092 48.9324 38.7431C48.0518 42.7829 41.508 43.7445 41.1785 45.2844L40.9557 45.2074Z" fill="#9C9C9C"/>
<path d="M36.483 32.0272C39.4492 33.4723 41.0186 36.756 40.4368 39.9164C40.3743 40.2558 40.2821 40.4943 39.9821 40.7001C38.8793 41.2294 37.3161 39.1889 36.8658 38.4389C35.6324 36.3846 35.8953 34.2191 36.483 32.0272Z" fill="#9C9C9C"/>
<path d="M55.0911 19.3157C55.4878 19.3191 55.2917 20.1978 55.2651 20.4625C54.936 23.7315 52.2138 26.659 49.076 27.7297C48.485 27.6403 49.222 25.0101 49.351 24.5886C50.145 21.994 52.5725 20.217 55.0911 19.3157Z" fill="#9C9C9C"/>
<path d="M51.4054 74.1665C52.4002 74.2097 56.7211 76.0186 55.1292 77.2279C53.7969 78.24 51.8178 78.6997 50.1556 78.497C49.6063 78.4272 48.9424 78.3709 48.4458 78.1278C47.9604 77.8901 45.4154 76.5585 46.1201 75.9027C47.4921 74.6261 49.5381 74.0831 51.4054 74.1665Z" fill="#9C9C9C"/>
<path d="M43.757 21.8471C46.4614 24.1264 47.5495 29.5605 44.5539 31.9725C42.9733 32.8029 41.9371 28.4481 41.941 27.5416C41.9468 26.1784 42.8824 22.686 43.757 21.8471Z" fill="#9C9C9C"/>
<path d="M38.0192 57.0634C42.0177 57.3917 44.3723 60.728 45.1455 64.273C44.3219 64.2576 43.4791 64.0881 42.6653 63.9685C38.9336 63.4566 36.7418 61.3184 35.6253 57.8198C35.2604 56.677 37.1304 57.0138 38.0192 57.0634Z" fill="#9C9C9C"/>
<path d="M48.6234 55.9695C49.3533 56.0111 50.4925 58.0625 50.8285 58.6652C51.5666 59.9875 52.3446 63.8479 50.6601 64.6948C50.0928 64.676 49.5398 64.5629 48.9843 64.4596C47.8978 64.2212 47.2571 63.7522 46.0494 63.7132C44.0927 61.3083 46.1437 57.4126 48.6234 55.9695Z" fill="#9C9C9C"/>
<path d="M33.4125 45.7018C34.0019 45.8817 34.6402 45.9737 35.2418 46.1194C39.0857 47.0499 40.261 49.5225 41.391 52.8421C41.5579 53.3326 42.6588 55.9344 42.6166 56.095C42.4067 55.9472 42.3004 55.7608 42.169 55.5511C40.7898 53.3458 36.9881 54.9307 34.4202 50.3304C33.7802 49.1836 33.0446 46.896 33.4125 45.7018Z" fill="#9C9C9C"/>
<path d="M241.166 45.2075L240.943 45.2845C240.899 45.4673 240.86 45.73 241.131 45.7089L241.21 45.6186C241.259 45.4635 241.214 45.3585 241.166 45.2075Z" fill="#9C9C9C"/>
<path d="M232.331 31.4878C231.211 31.5505 227.914 33.3922 228.341 34.0123C228.6 34.3881 230.919 34.8552 231.428 34.9079C233.017 35.0411 236.042 32.736 235.288 32.1109C234.786 31.6943 232.978 31.455 232.331 31.4878Z" fill="#9C9C9C"/>
<path d="M222.569 73.2013C221.751 73.2277 218.242 74.7295 218.911 75.41C219.557 76.0672 221.57 76.4939 222.492 76.4969C223.887 76.3929 225.529 75.46 226.329 74.3625C225.263 73.4997 223.925 73.2103 222.569 73.2013Z" fill="#9C9C9C"/>
<path d="M227.285 63.1647C226.218 64.8805 226.32 68.0515 227.938 69.4833C228.346 69.8443 228.926 70.3066 229.502 70.279C231.663 68.4365 229.326 63.9845 227.285 63.1647Z" fill="#9C9C9C"/>
<path d="M236.364 68.3075C235.449 68.3311 234.229 68.9219 233.176 69.0914C234.195 70.9308 236.144 71.6434 238.219 71.3781C239.415 71.2152 240.772 70.7129 241.343 69.603C240.072 68.5606 237.998 68.1964 236.364 68.3075Z" fill="#9C9C9C"/>
<path d="M235.139 46.1102C234.632 46.2021 234.055 51.8766 238.53 53.534C238.727 53.6071 238.845 53.6348 239.043 53.547C240.537 50.4246 238.173 47.2389 235.139 46.1102Z" fill="#9C9C9C"/>
<path d="M241.165 45.2074C241.07 40.2721 238.298 37.9092 233.189 38.7431C234.069 42.7829 240.613 43.7445 240.943 45.2844L241.165 45.2074Z" fill="#9C9C9C"/>
<path d="M245.638 32.0272C242.672 33.4723 241.102 36.756 241.684 39.9164C241.747 40.2558 241.839 40.4943 242.139 40.7001C243.242 41.2294 244.805 39.1889 245.255 38.4389C246.489 36.3846 246.226 34.2191 245.638 32.0272Z" fill="#9C9C9C"/>
<path d="M227.03 19.3157C226.633 19.3191 226.829 20.1978 226.856 20.4625C227.185 23.7315 229.907 26.659 233.045 27.7297C233.636 27.6403 232.899 25.0101 232.77 24.5886C231.976 21.994 229.549 20.217 227.03 19.3157Z" fill="#9C9C9C"/>
<path d="M230.716 74.1665C229.721 74.2097 225.4 76.0186 226.992 77.2279C228.324 78.24 230.303 78.6997 231.965 78.497C232.515 78.4272 233.179 78.3709 233.675 78.1278C234.161 77.8901 236.706 76.5585 236.001 75.9027C234.629 74.6261 232.583 74.0831 230.716 74.1665Z" fill="#9C9C9C"/>
<path d="M238.364 21.8471C235.66 24.1264 234.572 29.5605 237.567 31.9725C239.148 32.8029 240.184 28.4481 240.18 27.5416C240.174 26.1784 239.239 22.686 238.364 21.8471Z" fill="#9C9C9C"/>
<path d="M244.102 57.0634C240.103 57.3917 237.749 60.728 236.976 64.273C237.799 64.2576 238.642 64.0881 239.456 63.9685C243.188 63.4566 245.379 61.3184 246.496 57.8198C246.861 56.677 244.991 57.0138 244.102 57.0634Z" fill="#9C9C9C"/>
<path d="M233.498 55.9695C232.768 56.0111 231.629 58.0625 231.293 58.6652C230.555 59.9875 229.776 63.8479 231.461 64.6948C232.028 64.676 232.581 64.5629 233.137 64.4596C234.223 64.2212 234.864 63.7522 236.072 63.7132C238.028 61.3083 235.977 57.4126 233.498 55.9695Z" fill="#9C9C9C"/>
<path d="M248.709 45.7018C248.119 45.8817 247.481 45.9737 246.879 46.1194C243.035 47.0499 241.86 49.5225 240.73 52.8421C240.563 53.3326 239.462 55.9344 239.505 56.095C239.714 55.9472 239.821 55.7608 239.952 55.5511C241.331 53.3458 245.133 54.9307 247.701 50.3304C248.341 49.1836 249.076 46.896 248.709 45.7018Z" fill="#9C9C9C"/>
<path d="M73.5427 42.56H72.0867L70.2787 39.776L72.0867 36.992H73.5427L71.6547 39.776L73.5427 42.56ZM76.3267 42.56H74.8867L73.0787 39.776L74.8867 36.992H76.3267L74.4867 39.776L76.3267 42.56ZM82.5761 33.824C82.2774 33.824 81.9734 33.8507 81.6641 33.904C81.3654 33.9573 81.0934 34.0533 80.8481 34.192C80.6028 34.32 80.4001 34.5013 80.2401 34.736C80.0908 34.96 80.0161 35.248 80.0161 35.6C80.0161 36.0267 80.1281 36.3733 80.3521 36.64C80.5761 36.896 80.8481 37.0933 81.1681 37.232C81.4241 37.3387 81.6961 37.4293 81.9841 37.504C82.2721 37.5787 82.5654 37.648 82.8641 37.712C83.1734 37.776 83.4721 37.84 83.7601 37.904C84.0588 37.968 84.3468 38.048 84.6241 38.144C85.2748 38.368 85.7921 38.688 86.1761 39.104C86.5708 39.52 86.7681 40.0693 86.7681 40.752C86.7681 41.392 86.6561 41.92 86.4321 42.336C86.2188 42.752 85.9254 43.0933 85.5521 43.36C85.1894 43.6267 84.7628 43.824 84.2721 43.952C83.7921 44.0693 83.2801 44.128 82.7361 44.128C82.1921 44.128 81.6694 44.0747 81.1681 43.968C80.6774 43.8613 80.2294 43.6853 79.8241 43.44C79.4188 43.1947 79.0721 42.8747 78.7841 42.48C78.4961 42.0853 78.2934 41.6053 78.1761 41.04H79.6321C79.7388 41.4027 79.9041 41.7013 80.1281 41.936C80.3521 42.1707 80.6081 42.3573 80.8961 42.496C81.1841 42.6347 81.4934 42.7307 81.8241 42.784C82.1654 42.8373 82.5014 42.864 82.8321 42.864C83.1521 42.864 83.4614 42.832 83.7601 42.768C84.0694 42.6933 84.3414 42.5813 84.5761 42.432C84.8108 42.2827 84.9974 42.0907 85.1361 41.856C85.2748 41.6213 85.3441 41.3387 85.3441 41.008C85.3441 40.5067 85.2108 40.1333 84.9441 39.888C84.6774 39.6427 84.3201 39.456 83.8721 39.328C83.5734 39.232 83.2588 39.152 82.9281 39.088C82.5974 39.024 82.2668 38.9547 81.9361 38.88C81.6054 38.8053 81.2801 38.72 80.9601 38.624C80.6401 38.5173 80.3468 38.3947 80.0801 38.256C79.6534 38.0533 79.2961 37.744 79.0081 37.328C78.7201 36.9013 78.5761 36.368 78.5761 35.728C78.5761 35.1307 78.6934 34.6293 78.9281 34.224C79.1628 33.8187 79.4668 33.4933 79.8401 33.248C80.2134 33.0027 80.6294 32.8267 81.0881 32.72C81.5574 32.6133 82.0534 32.56 82.5761 32.56C83.0028 32.5707 83.3868 32.608 83.7281 32.672C84.0801 32.7253 84.4108 32.8267 84.7201 32.976C85.2001 33.1893 85.6001 33.5093 85.9201 33.936C86.2401 34.3627 86.4161 34.912 86.4481 35.584H85.0881C85.0454 35.2533 84.9441 34.976 84.7841 34.752C84.6348 34.528 84.4481 34.3467 84.2241 34.208C84.0001 34.0693 83.7441 33.9733 83.4561 33.92C83.1788 33.856 82.8854 33.824 82.5761 33.824ZM88.7736 44V32.688H90.1336V36.864C90.2723 36.6507 90.4483 36.4533 90.6616 36.272C90.8749 36.0907 91.0989 35.9413 91.3336 35.824C91.5683 35.7067 91.8243 35.6213 92.1016 35.568C92.3896 35.504 92.6669 35.472 92.9336 35.472C93.5416 35.472 94.0483 35.5733 94.4536 35.776C94.8696 35.968 95.2003 36.24 95.4456 36.592C95.7016 36.9333 95.8776 37.344 95.9736 37.824C96.0803 38.2933 96.1336 38.8053 96.1336 39.36V44H94.7736V39.776C94.7736 39.392 94.7523 39.0187 94.7096 38.656C94.6669 38.2827 94.5709 37.952 94.4216 37.664C94.2723 37.376 94.0589 37.1413 93.7816 36.96C93.5043 36.768 93.1256 36.672 92.6456 36.672C92.2509 36.672 91.8829 36.7733 91.5416 36.976C91.2109 37.168 90.9443 37.4133 90.7416 37.712C90.4963 38.0427 90.3309 38.4107 90.2456 38.816C90.1709 39.2213 90.1336 39.6373 90.1336 40.064V44H88.7736ZM101.939 35.472C102.611 35.472 103.192 35.5787 103.683 35.792C104.173 36.0053 104.584 36.304 104.915 36.688C105.256 37.072 105.507 37.5307 105.667 38.064C105.837 38.5867 105.923 39.1627 105.923 39.792C105.923 40.4213 105.837 41.0027 105.667 41.536C105.507 42.0587 105.256 42.512 104.915 42.896C104.584 43.2693 104.168 43.5627 103.667 43.776C103.165 43.9893 102.579 44.096 101.907 44.096C101.235 44.096 100.648 43.9893 100.147 43.776C99.656 43.5627 99.24 43.2693 98.8987 42.896C98.568 42.512 98.3174 42.0587 98.1467 41.536C97.9867 41.0027 97.9067 40.4213 97.9067 39.792C97.9067 39.1627 97.9867 38.5867 98.1467 38.064C98.3174 37.5307 98.568 37.072 98.8987 36.688C99.24 36.304 99.6667 36.0053 100.179 35.792C100.691 35.5787 101.277 35.472 101.939 35.472ZM101.907 42.896C102.365 42.896 102.76 42.816 103.091 42.656C103.432 42.496 103.709 42.2773 103.923 42C104.147 41.712 104.307 41.3813 104.403 41.008C104.509 40.6347 104.563 40.2293 104.563 39.792C104.563 39.3653 104.509 38.9653 104.403 38.592C104.307 38.208 104.147 37.8773 103.923 37.6C103.709 37.312 103.432 37.088 103.091 36.928C102.76 36.768 102.365 36.688 101.907 36.688C101.448 36.688 101.053 36.768 100.723 36.928C100.392 37.088 100.115 37.312 99.8907 37.6C99.6774 37.8773 99.5174 38.208 99.4107 38.592C99.3147 38.9653 99.2667 39.3653 99.2667 39.792C99.2667 40.2293 99.3147 40.6347 99.4107 41.008C99.5174 41.3813 99.6774 41.712 99.8907 42C100.115 42.2773 100.392 42.496 100.723 42.656C101.053 42.816 101.448 42.896 101.907 42.896ZM106.862 35.568H108.398L110.414 42.688L112.494 35.568H114.334L116.43 42.688L118.414 35.568H119.966L117.342 44H115.486L113.406 37.168L111.326 44H109.486L106.862 35.568ZM123.355 35.568H125.947V36.768H123.355V41.152C123.355 41.3973 123.365 41.6267 123.387 41.84C123.419 42.0427 123.472 42.224 123.547 42.384C123.632 42.5333 123.749 42.656 123.899 42.752C124.059 42.8373 124.272 42.8853 124.539 42.896C124.784 42.896 124.997 42.8533 125.179 42.768C125.371 42.6827 125.531 42.5813 125.659 42.464L126.251 43.456C125.973 43.6907 125.685 43.856 125.387 43.952C125.088 44.048 124.757 44.096 124.395 44.096C123.936 44.096 123.552 44.032 123.243 43.904C122.933 43.7653 122.672 43.568 122.459 43.312C122.277 43.0667 122.155 42.7787 122.091 42.448C122.027 42.1173 121.995 41.744 121.995 41.328V36.768H120.619V35.568H121.995V33.04H123.355V35.568ZM128.626 40.288C128.658 40.6613 128.733 41.008 128.85 41.328C128.978 41.6373 129.149 41.9093 129.362 42.144C129.576 42.3787 129.837 42.5653 130.146 42.704C130.466 42.832 130.834 42.896 131.25 42.896C131.453 42.896 131.661 42.88 131.874 42.848C132.098 42.8053 132.306 42.7413 132.498 42.656C132.69 42.56 132.861 42.4373 133.01 42.288C133.16 42.1387 133.272 41.9573 133.346 41.744H134.738C134.642 42.1493 134.477 42.5013 134.242 42.8C134.018 43.0987 133.746 43.344 133.426 43.536C133.117 43.728 132.77 43.872 132.386 43.968C132.002 44.0533 131.613 44.096 131.218 44.096C130.546 44.096 129.96 43.9893 129.458 43.776C128.968 43.5627 128.557 43.2693 128.226 42.896C127.896 42.512 127.65 42.0587 127.49 41.536C127.33 41.0027 127.25 40.4213 127.25 39.792C127.25 39.1627 127.336 38.5867 127.506 38.064C127.688 37.5307 127.944 37.072 128.274 36.688C128.605 36.304 129.01 36.0053 129.49 35.792C129.97 35.5787 130.541 35.472 131.202 35.472C131.874 35.472 132.456 35.6053 132.946 35.872C133.437 36.1387 133.832 36.4907 134.13 36.928C134.429 37.3547 134.637 37.8187 134.754 38.32C134.882 38.8213 134.936 39.2853 134.914 39.712C134.914 39.808 134.909 39.904 134.898 40C134.898 40.096 134.893 40.192 134.882 40.288H128.626ZM133.538 39.104C133.517 38.3893 133.293 37.808 132.866 37.36C132.44 36.912 131.869 36.688 131.154 36.688C130.76 36.688 130.413 36.752 130.114 36.88C129.816 37.008 129.565 37.184 129.362 37.408C129.16 37.632 129 37.8933 128.882 38.192C128.765 38.48 128.69 38.784 128.658 39.104H133.538ZM139.578 40.784L137.274 44H135.738L138.746 39.696L135.882 35.568H137.514L139.658 38.768L141.738 35.568H143.322L140.474 39.744L143.53 44H141.914L139.578 40.784ZM157.117 44L156.221 41.568H150.621L149.725 44H148.221L152.429 32.688H154.429L158.621 44H157.117ZM153.421 33.904L151.085 40.304H155.757L153.421 33.904ZM158.659 35.568H160.195L162.211 42.688L164.291 35.568H166.131L168.227 42.688L170.211 35.568H171.763L169.139 44H167.283L165.203 37.168L163.123 44H161.283L158.659 35.568ZM178.576 42.928C178.394 43.1733 178.186 43.3707 177.952 43.52C177.717 43.6693 177.472 43.7867 177.216 43.872C176.97 43.9573 176.72 44.016 176.464 44.048C176.218 44.08 175.973 44.096 175.728 44.096C175.333 44.096 174.96 44.048 174.608 43.952C174.256 43.856 173.936 43.7013 173.648 43.488C173.37 43.2747 173.146 43.008 172.976 42.688C172.816 42.368 172.736 42.0053 172.736 41.6C172.736 41.12 172.821 40.72 172.992 40.4C173.173 40.0693 173.413 39.8027 173.712 39.6C174.01 39.3973 174.352 39.2587 174.736 39.184C175.13 39.0987 175.546 39.056 175.984 39.056H178.464C178.464 38.3413 178.309 37.776 178 37.36C177.69 36.9333 177.168 36.7093 176.432 36.688C175.984 36.688 175.589 36.7627 175.248 36.912C174.906 37.0613 174.672 37.3067 174.544 37.648H173.088C173.162 37.264 173.312 36.9387 173.536 36.672C173.76 36.3947 174.026 36.1707 174.336 36C174.645 35.8187 174.981 35.6853 175.344 35.6C175.706 35.5147 176.069 35.472 176.432 35.472C177.061 35.472 177.589 35.5787 178.016 35.792C178.453 35.9947 178.805 36.2667 179.072 36.608C179.338 36.9387 179.525 37.344 179.632 37.824C179.738 38.304 179.792 38.8427 179.792 39.44V44H178.656L178.576 42.928ZM176.976 40.192C176.72 40.192 176.421 40.1973 176.08 40.208C175.749 40.208 175.429 40.24 175.12 40.304C174.81 40.368 174.56 40.5013 174.368 40.704C174.186 40.9067 174.096 41.1733 174.096 41.504C174.096 41.7493 174.144 41.9573 174.24 42.128C174.336 42.2987 174.464 42.4427 174.624 42.56C174.794 42.6773 174.986 42.7627 175.2 42.816C175.413 42.8693 175.632 42.896 175.856 42.896C176.656 42.896 177.285 42.704 177.744 42.32C178.213 41.9253 178.453 41.3547 178.464 40.608V40.192H176.976ZM181.899 44V35.568H183.211L183.275 36.88C183.584 36.3893 183.979 36.032 184.459 35.808C184.939 35.584 185.483 35.472 186.091 35.472H186.523V36.752H186.027C185.525 36.752 185.099 36.8373 184.747 37.008C184.395 37.168 184.107 37.392 183.883 37.68C183.669 37.9573 183.509 38.288 183.403 38.672C183.307 39.056 183.259 39.4613 183.259 39.888V44H181.899ZM195.231 44H193.935L193.871 42.736C193.583 43.216 193.183 43.5627 192.671 43.776C192.17 43.9893 191.642 44.096 191.087 44.096C190.447 44.0853 189.892 43.9733 189.423 43.76C188.954 43.536 188.57 43.232 188.271 42.848C187.972 42.464 187.748 42.016 187.599 41.504C187.46 40.9813 187.391 40.416 187.391 39.808C187.391 39.2 187.466 38.6347 187.615 38.112C187.764 37.5787 187.994 37.12 188.303 36.736C188.612 36.3413 189.002 36.032 189.471 35.808C189.94 35.584 190.5 35.472 191.151 35.472C191.642 35.472 192.138 35.5627 192.639 35.744C193.14 35.9253 193.551 36.2187 193.871 36.624V32.688H195.231V44ZM191.263 36.688C190.804 36.688 190.415 36.7733 190.095 36.944C189.775 37.104 189.514 37.3227 189.311 37.6C189.119 37.8773 188.975 38.208 188.879 38.592C188.794 38.9653 188.751 39.376 188.751 39.824C188.751 40.272 188.794 40.6773 188.879 41.04C188.964 41.392 189.108 41.7067 189.311 41.984C189.514 42.2613 189.775 42.4853 190.095 42.656C190.415 42.816 190.81 42.896 191.279 42.896C191.823 42.896 192.271 42.768 192.623 42.512C192.975 42.256 193.258 41.936 193.471 41.552C193.62 41.2853 193.727 40.9973 193.791 40.688C193.855 40.368 193.887 40.0533 193.887 39.744C193.887 39.36 193.85 39.008 193.775 38.688C193.711 38.368 193.588 38.0693 193.407 37.792C193.194 37.4827 192.911 37.2213 192.559 37.008C192.207 36.7947 191.775 36.688 191.263 36.688ZM200.375 36.688C200.183 36.688 199.986 36.704 199.783 36.736C199.591 36.7573 199.399 36.8107 199.207 36.896C199.026 36.9707 198.866 37.088 198.727 37.248C198.599 37.3973 198.53 37.6 198.519 37.856C198.519 38.2187 198.653 38.4907 198.919 38.672C199.197 38.8533 199.554 38.9867 199.991 39.072C200.173 39.1147 200.37 39.1573 200.583 39.2C200.797 39.232 201.005 39.2693 201.207 39.312C201.421 39.344 201.618 39.3813 201.799 39.424C201.991 39.4667 202.151 39.5093 202.279 39.552C203.303 39.872 203.815 40.56 203.815 41.616C203.805 42.128 203.693 42.544 203.479 42.864C203.277 43.1733 203.015 43.4187 202.695 43.6C202.386 43.7813 202.029 43.9093 201.623 43.984C201.229 44.0587 200.834 44.096 200.439 44.096C200.055 44.096 199.666 44.0587 199.271 43.984C198.877 43.9093 198.514 43.7813 198.183 43.6C197.863 43.408 197.586 43.1627 197.351 42.864C197.127 42.5547 196.983 42.1707 196.919 41.712H198.295C198.381 41.968 198.514 42.1707 198.695 42.32C198.877 42.4693 199.069 42.5867 199.271 42.672C199.485 42.7573 199.682 42.816 199.863 42.848C200.055 42.88 200.269 42.896 200.503 42.896C200.674 42.896 200.871 42.8853 201.095 42.864C201.319 42.8427 201.533 42.7947 201.735 42.72C201.938 42.6347 202.109 42.512 202.247 42.352C202.386 42.192 202.455 41.968 202.455 41.68C202.455 41.36 202.349 41.12 202.135 40.96C201.933 40.8 201.65 40.6827 201.287 40.608C201.031 40.5547 200.765 40.5067 200.487 40.464C200.221 40.4107 199.949 40.3573 199.671 40.304C199.405 40.24 199.143 40.1707 198.887 40.096C198.631 40.0107 198.391 39.8987 198.167 39.76C197.869 39.5787 197.629 39.3333 197.447 39.024C197.266 38.7147 197.175 38.336 197.175 37.888C197.197 37.4187 197.303 37.0347 197.495 36.736C197.687 36.4267 197.933 36.176 198.231 35.984C198.551 35.792 198.893 35.6587 199.255 35.584C199.618 35.5093 200.002 35.472 200.407 35.472C201.271 35.472 201.959 35.6587 202.471 36.032C202.781 36.2453 203.021 36.5013 203.191 36.8C203.362 37.0987 203.469 37.4133 203.511 37.744H202.247C202.173 37.4347 201.97 37.184 201.639 36.992C201.309 36.8 200.887 36.6987 200.375 36.688ZM208.164 36.992H209.62L211.428 39.776L209.62 42.56H208.164L210.052 39.776L208.164 36.992ZM205.38 36.992H206.82L208.628 39.776L206.82 42.56H205.38L207.22 39.776L205.38 36.992ZM124.374 61.048C124.662 60.8027 124.976 60.536 125.318 60.248C125.67 59.9493 125.995 59.6293 126.294 59.288C126.603 58.9467 126.864 58.5893 127.078 58.216C127.291 57.832 127.403 57.416 127.414 56.968C127.435 56.2853 127.238 55.7627 126.822 55.4C126.406 55.0267 125.856 54.84 125.174 54.84C124.63 54.84 124.155 54.952 123.75 55.176C123.344 55.4 123.078 55.7253 122.95 56.152H121.462C121.536 55.7147 121.691 55.336 121.926 55.016C122.171 54.6853 122.464 54.4133 122.806 54.2C123.158 53.9867 123.542 53.8267 123.958 53.72C124.374 53.6133 124.8 53.56 125.238 53.56C125.76 53.56 126.24 53.6347 126.678 53.784C127.115 53.9227 127.494 54.1307 127.814 54.408C128.134 54.6853 128.379 55.032 128.55 55.448C128.731 55.8533 128.822 56.3173 128.822 56.84C128.822 57.3627 128.742 57.832 128.582 58.248C128.432 58.664 128.224 59.048 127.958 59.4C127.702 59.752 127.408 60.0827 127.078 60.392C126.747 60.7013 126.406 61.0107 126.054 61.32L123.19 63.736H128.95V65H121.174V63.848L124.374 61.048ZM139.5 59.352C139.5 60.0773 139.426 60.7867 139.276 61.48C139.138 62.1733 138.898 62.792 138.556 63.336C138.215 63.8693 137.762 64.3013 137.196 64.632C136.631 64.9627 135.927 65.128 135.084 65.128C134.231 65.128 133.522 64.9627 132.956 64.632C132.391 64.3013 131.938 63.8693 131.596 63.336C131.255 62.792 131.015 62.184 130.876 61.512C130.738 60.84 130.668 60.12 130.668 59.352C130.668 58.584 130.738 57.864 130.876 57.192C131.015 56.5093 131.255 55.9013 131.596 55.368C131.938 54.8347 132.391 54.4027 132.956 54.072C133.522 53.7307 134.231 53.56 135.084 53.56C135.927 53.56 136.631 53.7253 137.196 54.056C137.762 54.3867 138.215 54.824 138.556 55.368C138.898 55.912 139.138 56.5307 139.276 57.224C139.426 57.9173 139.5 58.6267 139.5 59.352ZM132.092 59.352C132.092 59.864 132.13 60.3867 132.204 60.92C132.279 61.4533 132.423 61.9387 132.636 62.376C132.85 62.8133 133.148 63.1707 133.532 63.448C133.927 63.7253 134.444 63.864 135.084 63.864C135.714 63.864 136.22 63.7253 136.604 63.448C136.999 63.1707 137.303 62.8133 137.516 62.376C137.73 61.9387 137.874 61.4533 137.948 60.92C138.023 60.3867 138.06 59.864 138.06 59.352C138.06 58.8507 138.023 58.3333 137.948 57.8C137.874 57.2667 137.73 56.7813 137.516 56.344C137.303 55.896 136.999 55.5333 136.604 55.256C136.22 54.968 135.714 54.824 135.084 54.824C134.444 54.824 133.927 54.968 133.532 55.256C133.148 55.5333 132.85 55.896 132.636 56.344C132.423 56.7813 132.279 57.2667 132.204 57.8C132.13 58.3333 132.092 58.8507 132.092 59.352ZM150.141 59.352C150.141 60.0773 150.066 60.7867 149.917 61.48C149.778 62.1733 149.538 62.792 149.197 63.336C148.856 63.8693 148.402 64.3013 147.837 64.632C147.272 64.9627 146.568 65.128 145.725 65.128C144.872 65.128 144.162 64.9627 143.597 64.632C143.032 64.3013 142.578 63.8693 142.237 63.336C141.896 62.792 141.656 62.184 141.517 61.512C141.378 60.84 141.309 60.12 141.309 59.352C141.309 58.584 141.378 57.864 141.517 57.192C141.656 56.5093 141.896 55.9013 142.237 55.368C142.578 54.8347 143.032 54.4027 143.597 54.072C144.162 53.7307 144.872 53.56 145.725 53.56C146.568 53.56 147.272 53.7253 147.837 54.056C148.402 54.3867 148.856 54.824 149.197 55.368C149.538 55.912 149.778 56.5307 149.917 57.224C150.066 57.9173 150.141 58.6267 150.141 59.352ZM142.733 59.352C142.733 59.864 142.77 60.3867 142.845 60.92C142.92 61.4533 143.064 61.9387 143.277 62.376C143.49 62.8133 143.789 63.1707 144.173 63.448C144.568 63.7253 145.085 63.864 145.725 63.864C146.354 63.864 146.861 63.7253 147.245 63.448C147.64 63.1707 147.944 62.8133 148.157 62.376C148.37 61.9387 148.514 61.4533 148.589 60.92C148.664 60.3867 148.701 59.864 148.701 59.352C148.701 58.8507 148.664 58.3333 148.589 57.8C148.514 57.2667 148.37 56.7813 148.157 56.344C147.944 55.896 147.64 55.5333 147.245 55.256C146.861 54.968 146.354 54.824 145.725 54.824C145.085 54.824 144.568 54.968 144.173 55.256C143.789 55.5333 143.49 55.896 143.277 56.344C143.064 56.7813 142.92 57.2667 142.845 57.8C142.77 58.3333 142.733 58.8507 142.733 59.352ZM153.31 59.384C153.672 58.8293 154.131 58.424 154.686 58.168C155.24 57.912 155.827 57.784 156.446 57.784C157.022 57.784 157.528 57.8747 157.966 58.056C158.414 58.2373 158.798 58.4827 159.118 58.792C159.438 59.1013 159.688 59.4747 159.87 59.912C160.051 60.3493 160.142 60.8347 160.142 61.368C160.142 61.9333 160.046 62.4453 159.854 62.904C159.662 63.3627 159.395 63.7573 159.054 64.088C158.712 64.4187 158.302 64.6747 157.822 64.856C157.352 65.0373 156.84 65.128 156.286 65.128C155.496 65.128 154.83 64.9893 154.286 64.712C153.742 64.424 153.299 64.0453 152.958 63.576C152.616 63.096 152.366 62.5413 152.206 61.912C152.056 61.2827 151.976 60.6213 151.966 59.928C151.966 59.064 152.03 58.28 152.158 57.576C152.286 56.8613 152.515 56.2107 152.846 55.624C153.187 55.0267 153.651 54.536 154.238 54.152C154.824 53.7573 155.571 53.56 156.478 53.56C156.883 53.56 157.272 53.6133 157.646 53.72C158.019 53.8267 158.36 53.9867 158.67 54.2C158.979 54.4027 159.251 54.6587 159.486 54.968C159.72 55.2773 159.902 55.6293 160.03 56.024H158.574C158.382 55.6293 158.088 55.3307 157.694 55.128C157.299 54.9253 156.888 54.824 156.462 54.824C155.854 54.824 155.347 54.968 154.942 55.256C154.536 55.544 154.211 55.912 153.966 56.36C153.731 56.808 153.56 57.304 153.454 57.848C153.358 58.3813 153.31 58.8933 153.31 59.384ZM158.718 61.512C158.718 61.16 158.659 60.84 158.542 60.552C158.424 60.2533 158.259 59.9973 158.046 59.784C157.843 59.56 157.592 59.3893 157.294 59.272C156.995 59.144 156.67 59.08 156.318 59.08C155.976 59.08 155.651 59.1387 155.342 59.256C155.043 59.3627 154.776 59.5227 154.542 59.736C154.307 59.9387 154.115 60.1893 153.966 60.488C153.827 60.7867 153.758 61.1173 153.758 61.48C153.758 61.8213 153.822 62.136 153.95 62.424C154.078 62.712 154.254 62.9627 154.478 63.176C154.702 63.3893 154.963 63.56 155.262 63.688C155.571 63.8053 155.902 63.864 156.254 63.864C156.606 63.864 156.931 63.8053 157.23 63.688C157.539 63.56 157.8 63.3947 158.014 63.192C158.238 62.9787 158.408 62.728 158.526 62.44C158.654 62.152 158.718 61.8427 158.718 61.512Z" fill="white"/>
</svg>
