<svg width="125" height="53" viewBox="0 0 125 53" fill="none" xmlns="http://www.w3.org/2000/svg">
<path d="M21.4302 22.7299L21.5423 22.7687C21.5644 22.8606 21.584 22.9927 21.4477 22.9821L21.4083 22.9366C21.3835 22.8587 21.4059 22.8059 21.4302 22.7299Z" fill="#9C9C9C"/>
<path d="M25.8762 15.8317C26.4395 15.8633 28.0972 16.7893 27.8823 17.101C27.752 17.29 26.5862 17.5248 26.3304 17.5513C25.5312 17.6183 24.0105 16.4593 24.3893 16.145C24.6417 15.9356 25.5508 15.8153 25.8762 15.8317Z" fill="#9C9C9C"/>
<path d="M30.7843 36.8048C31.1958 36.8181 32.9599 37.5732 32.6238 37.9153C32.2988 38.2457 31.2866 38.4602 30.8232 38.4618C30.1215 38.4095 29.2961 37.9404 28.894 37.3886C29.4297 36.9548 30.1025 36.8093 30.7843 36.8048Z" fill="#9C9C9C"/>
<path d="M28.4097 31.7587C28.9463 32.6214 28.8951 34.2157 28.0816 34.9356C27.8766 35.1171 27.5846 35.3496 27.2951 35.3357C26.2086 34.4093 27.3836 32.1709 28.4097 31.7587Z" fill="#9C9C9C"/>
<path d="M23.8435 34.3441C24.3034 34.356 24.9165 34.653 25.4462 34.7382C24.9336 35.663 23.9539 36.0213 22.9105 35.888C22.3093 35.806 21.6272 35.5535 21.3401 34.9955C21.9788 34.4713 23.0216 34.2882 23.8435 34.3441Z" fill="#9C9C9C"/>
<path d="M24.461 23.1836C24.7158 23.2299 25.0059 26.0829 22.7557 26.9162C22.6566 26.953 22.5973 26.9669 22.4979 26.9228C21.7466 25.3529 22.9351 23.7511 24.461 23.1836Z" fill="#9C9C9C"/>
<path d="M21.4315 22.7295C21.4793 20.248 22.8732 19.06 25.4421 19.4793C24.9993 21.5105 21.7092 21.9939 21.5435 22.7682L21.4315 22.7295Z" fill="#9C9C9C"/>
<path d="M19.1852 16.103C20.6766 16.8296 21.4656 18.4806 21.1731 20.0696C21.1417 20.2403 21.0953 20.3602 20.9445 20.4637C20.39 20.7298 19.604 19.7038 19.3776 19.3267C18.7575 18.2938 18.8897 17.2051 19.1852 16.103Z" fill="#9C9C9C"/>
<path d="M28.5394 9.71159C28.7388 9.71331 28.6403 10.1551 28.6268 10.2882C28.4614 11.9318 27.0927 13.4037 25.515 13.9421C25.2179 13.8971 25.5885 12.5747 25.6533 12.3628C26.0525 11.0582 27.273 10.1648 28.5394 9.71159Z" fill="#9C9C9C"/>
<path d="M26.6854 37.2901C27.1856 37.3119 29.3581 38.2214 28.5577 38.8294C27.8878 39.3383 26.8927 39.5694 26.057 39.4675C25.7808 39.4324 25.447 39.4041 25.1973 39.2819C24.9533 39.1623 23.6737 38.4928 24.028 38.1631C24.7178 37.5212 25.7465 37.2482 26.6854 37.2901Z" fill="#9C9C9C"/>
<path d="M22.8446 10.9846C24.2043 12.1307 24.7514 14.8629 23.2452 16.0756C22.4506 16.4931 21.9295 14.3036 21.9315 13.8478C21.9344 13.1624 22.4048 11.4064 22.8446 10.9846Z" fill="#9C9C9C"/>
<path d="M19.9531 28.6911C21.9635 28.8561 23.1474 30.5335 23.5361 32.3159C23.122 32.3082 22.6983 32.223 22.2891 32.1629C20.4128 31.9055 19.3108 30.8304 18.7494 29.0713C18.566 28.4968 19.5062 28.6661 19.9531 28.6911Z" fill="#9C9C9C"/>
<path d="M25.2874 28.1408C25.6544 28.1617 26.2272 29.1931 26.3961 29.4962C26.7672 30.161 27.1584 32.102 26.3115 32.5278C26.0263 32.5183 25.7482 32.4615 25.4689 32.4095C24.9226 32.2896 24.6005 32.0538 23.9933 32.0342C23.0095 30.8251 24.0407 28.8664 25.2874 28.1408Z" fill="#9C9C9C"/>
<path d="M17.6419 22.9778C17.9382 23.0683 18.2591 23.1145 18.5616 23.1878C20.4943 23.6556 21.0852 24.8988 21.6534 26.5679C21.7373 26.8145 22.2908 28.1227 22.2696 28.2034C22.1641 28.1291 22.1106 28.0354 22.0445 27.9299C21.3511 26.8211 19.4396 27.618 18.1485 25.305C17.8267 24.7284 17.4569 23.5782 17.6419 22.9778Z" fill="#9C9C9C"/>
<path d="M104.453 22.7299L104.34 22.7687C104.318 22.8606 104.299 22.9927 104.435 22.9821L104.475 22.9366C104.499 22.8587 104.477 22.8059 104.453 22.7299Z" fill="#9C9C9C"/>
<path d="M100.012 15.8317C99.4492 15.8633 97.7914 16.7893 98.0064 17.101C98.1367 17.29 99.3025 17.5248 99.5583 17.5513C100.357 17.6183 101.878 16.4593 101.499 16.145C101.247 15.9356 100.338 15.8153 100.012 15.8317Z" fill="#9C9C9C"/>
<path d="M95.1024 36.8048C94.6909 36.8181 92.9268 37.5732 93.2629 37.9153C93.5879 38.2457 94.6001 38.4602 95.0635 38.4618C95.7652 38.4095 96.5906 37.9404 96.9927 37.3886C96.457 36.9548 95.7843 36.8093 95.1024 36.8048Z" fill="#9C9C9C"/>
<path d="M97.4731 31.7587C96.9365 32.6214 96.9877 34.2157 97.8013 34.9356C98.0062 35.1171 98.2982 35.3496 98.5877 35.3357C99.6742 34.4093 98.4992 32.1709 97.4731 31.7587Z" fill="#9C9C9C"/>
<path d="M102.037 34.3441C101.577 34.356 100.964 34.653 100.435 34.7382C100.947 35.663 101.927 36.0213 102.97 35.888C103.572 35.806 104.254 35.5535 104.541 34.9955C103.902 34.4713 102.859 34.2882 102.037 34.3441Z" fill="#9C9C9C"/>
<path d="M101.422 23.1836C101.167 23.2299 100.877 26.0829 103.127 26.9162C103.226 26.953 103.286 26.9669 103.385 26.9228C104.136 25.3529 102.948 23.7511 101.422 23.1836Z" fill="#9C9C9C"/>
<path d="M104.455 22.7295C104.407 20.248 103.013 19.06 100.445 19.4793C100.887 21.5105 104.178 21.9939 104.343 22.7682L104.455 22.7295Z" fill="#9C9C9C"/>
<path d="M106.7 16.103C105.208 16.8296 104.419 18.4806 104.712 20.0696C104.743 20.2403 104.789 20.3602 104.94 20.4637C105.495 20.7298 106.281 19.7038 106.507 19.3267C107.127 18.2938 106.995 17.2051 106.7 16.103Z" fill="#9C9C9C"/>
<path d="M97.3454 9.71159C97.1459 9.71331 97.2445 10.1551 97.2579 10.2882C97.4234 11.9318 98.7921 13.4037 100.37 13.9421C100.667 13.8971 100.296 12.5747 100.231 12.3628C99.8323 11.0582 98.6117 10.1648 97.3454 9.71159Z" fill="#9C9C9C"/>
<path d="M99.2013 37.2901C98.7011 37.3119 96.5286 38.2214 97.3291 38.8294C97.9989 39.3383 98.994 39.5694 99.8297 39.4675C100.106 39.4324 100.44 39.4041 100.689 39.2819C100.933 39.1623 102.213 38.4928 101.859 38.1631C101.169 37.5212 100.14 37.2482 99.2013 37.2901Z" fill="#9C9C9C"/>
<path d="M103.042 10.9846C101.682 12.1307 101.135 14.8629 102.641 16.0756C103.436 16.4931 103.957 14.3036 103.955 13.8478C103.952 13.1624 103.482 11.4064 103.042 10.9846Z" fill="#9C9C9C"/>
<path d="M105.932 28.6911C103.921 28.8561 102.737 30.5335 102.349 32.3159C102.763 32.3082 103.187 32.223 103.596 32.1629C105.472 31.9055 106.574 30.8304 107.135 29.0713C107.319 28.4968 106.379 28.6661 105.932 28.6911Z" fill="#9C9C9C"/>
<path d="M100.601 28.1407C100.234 28.1616 99.6615 29.193 99.4925 29.496C99.1214 30.1609 98.7302 32.1018 99.5772 32.5277C99.8624 32.5182 100.14 32.4614 100.42 32.4094C100.966 32.2895 101.288 32.0537 101.895 32.0341C102.879 30.825 101.848 28.8663 100.601 28.1407Z" fill="#9C9C9C"/>
<path d="M108.247 22.9778C107.95 23.0683 107.63 23.1145 107.327 23.1878C105.394 23.6556 104.803 24.8988 104.235 26.5679C104.151 26.8145 103.598 28.1227 103.619 28.2034C103.725 28.1291 103.778 28.0354 103.844 27.9299C104.538 26.8211 106.449 27.618 107.74 25.305C108.062 24.7284 108.432 23.5782 108.247 22.9778Z" fill="#9C9C9C"/>
<path d="M38.684 21.3541H37.9519L37.0429 19.9543L37.9519 18.5546H38.684L37.7347 19.9543L38.684 21.3541ZM40.0837 21.3541H39.3597L38.4507 19.9543L39.3597 18.5546H40.0837L39.1586 19.9543L40.0837 21.3541ZM43.5235 16.9617C43.191 16.9617 42.9068 17.0207 42.6708 17.1387C42.4348 17.2567 42.2418 17.4203 42.0916 17.6294C41.9414 17.8332 41.8315 18.0746 41.7618 18.3534C41.692 18.627 41.6572 18.9219 41.6572 19.2384C41.6572 19.5548 41.6947 19.8498 41.7698 20.1233C41.8449 20.3968 41.9575 20.6381 42.1077 20.8473C42.2632 21.0511 42.459 21.212 42.6949 21.33C42.9363 21.448 43.2232 21.507 43.5557 21.507C44.1242 21.507 44.5506 21.3568 44.8348 21.0565C45.0011 20.8848 45.1191 20.6998 45.1888 20.5014C45.2585 20.3029 45.2934 20.083 45.2934 19.8417H43.427V19.2062H45.9611V19.6808C45.9611 19.8363 45.9477 19.9972 45.9208 20.1635C45.894 20.3298 45.8538 20.4933 45.8002 20.6542C45.7465 20.8097 45.6768 20.9599 45.591 21.1047C45.5106 21.2442 45.414 21.3702 45.3014 21.4828C45.0869 21.6866 44.8321 21.8475 44.5372 21.9655C44.2476 22.0835 43.9177 22.1425 43.5477 22.1425C43.1025 22.1425 42.7164 22.0701 42.3892 21.9253C42.0675 21.7805 41.7966 21.582 41.5767 21.33C41.3622 21.0725 41.2013 20.7668 41.094 20.4129C40.9921 20.0589 40.9412 19.6728 40.9412 19.2544C40.9412 18.8361 40.9921 18.45 41.094 18.096C41.2013 17.7367 41.3595 17.4283 41.5687 17.1709C41.7832 16.9081 42.0514 16.7016 42.3731 16.5514C42.7003 16.4013 43.0864 16.3262 43.5316 16.3262C44.1591 16.3262 44.6659 16.4683 45.052 16.7526C45.4382 17.0314 45.6929 17.4069 45.8163 17.8788H45.052C44.9716 17.5999 44.7973 17.3774 44.5291 17.2111C44.261 17.0448 43.9258 16.9617 43.5235 16.9617ZM46.884 22.0781V16.3905H47.5678V22.0781H46.884ZM50.5101 17.7903C50.848 17.7903 51.1403 17.8439 51.387 17.9512C51.6337 18.0585 51.8402 18.2086 52.0064 18.4017C52.1781 18.5948 52.3041 18.8254 52.3845 19.0936C52.4704 19.3563 52.5133 19.646 52.5133 19.9624C52.5133 20.2788 52.4704 20.5711 52.3845 20.8392C52.3041 21.102 52.1781 21.33 52.0064 21.523C51.8402 21.7108 51.631 21.8582 51.379 21.9655C51.1269 22.0728 50.8319 22.1264 50.494 22.1264C50.1562 22.1264 49.8612 22.0728 49.6091 21.9655C49.3624 21.8582 49.1533 21.7108 48.9817 21.523C48.8154 21.33 48.6894 21.102 48.6036 20.8392C48.5231 20.5711 48.4829 20.2788 48.4829 19.9624C48.4829 19.646 48.5231 19.3563 48.6036 19.0936C48.6894 18.8254 48.8154 18.5948 48.9817 18.4017C49.1533 18.2086 49.3678 18.0585 49.6252 17.9512C49.8827 17.8439 50.1776 17.7903 50.5101 17.7903ZM50.494 21.523C50.7247 21.523 50.9231 21.4828 51.0894 21.4024C51.261 21.3219 51.4004 21.212 51.5077 21.0725C51.6203 20.9277 51.7007 20.7615 51.749 20.5738C51.8026 20.3861 51.8295 20.1823 51.8295 19.9624C51.8295 19.7479 51.8026 19.5467 51.749 19.359C51.7007 19.166 51.6203 18.9997 51.5077 18.8603C51.4004 18.7155 51.261 18.6028 51.0894 18.5224C50.9231 18.4419 50.7247 18.4017 50.494 18.4017C50.2634 18.4017 50.065 18.4419 49.8987 18.5224C49.7325 18.6028 49.593 18.7155 49.4804 18.8603C49.3732 18.9997 49.2927 19.166 49.2391 19.359C49.1908 19.5467 49.1667 19.7479 49.1667 19.9624C49.1667 20.1823 49.1908 20.3861 49.2391 20.5738C49.2927 20.7615 49.3732 20.9277 49.4804 21.0725C49.593 21.212 49.7325 21.3219 49.8987 21.4024C50.065 21.4828 50.2634 21.523 50.494 21.523ZM53.4282 22.0781V16.3905H54.1119V18.4661C54.2514 18.2515 54.4498 18.0853 54.7073 17.9673C54.97 17.8439 55.2382 17.785 55.5117 17.7903C55.8335 17.7903 56.1097 17.8466 56.3403 17.9593C56.5763 18.0719 56.7694 18.2247 56.9195 18.4178C57.0751 18.6109 57.1877 18.8415 57.2574 19.1096C57.3325 19.3724 57.37 19.6567 57.37 19.9624C57.37 20.2681 57.3325 20.5523 57.2574 20.8151C57.1877 21.0725 57.0751 21.2978 56.9195 21.4909C56.764 21.6839 56.5656 21.8368 56.3242 21.9494C56.0883 22.062 55.8067 22.121 55.4795 22.1264H55.3911C55.1014 22.1264 54.8494 22.0754 54.6349 21.9735C54.4257 21.8716 54.2514 21.7349 54.1119 21.5633L54.0798 22.0781H53.4282ZM55.4232 21.523C55.6538 21.523 55.8469 21.4828 56.0024 21.4024C56.1633 21.3166 56.2921 21.2039 56.3886 21.0645C56.4905 20.9197 56.5629 20.7534 56.6058 20.5657C56.6541 20.378 56.6809 20.1769 56.6862 19.9624C56.6862 19.7479 56.6621 19.5467 56.6138 19.359C56.5709 19.166 56.4985 18.9997 56.3966 18.8603C56.2947 18.7208 56.1607 18.6109 55.9944 18.5304C55.8335 18.4446 55.6378 18.4017 55.4071 18.4017C55.2784 18.4017 55.1524 18.4232 55.029 18.4661C54.9057 18.509 54.7957 18.568 54.6992 18.6431C54.6027 18.7128 54.5169 18.7932 54.4418 18.8844C54.3721 18.9756 54.3131 19.0721 54.2648 19.174C54.2058 19.2974 54.1629 19.4287 54.1361 19.5682C54.1093 19.7076 54.0959 19.8417 54.0959 19.9704C54.0959 20.1099 54.1039 20.2547 54.12 20.4048C54.1414 20.5496 54.1844 20.6837 54.2487 20.8071C54.3452 21.0109 54.4927 21.1825 54.6912 21.3219C54.8896 21.456 55.1336 21.523 55.4232 21.523ZM61.0747 21.5391C60.9836 21.6625 60.879 21.7617 60.761 21.8368C60.643 21.9119 60.5197 21.9709 60.3909 22.0138C60.2676 22.0567 60.1416 22.0862 60.0128 22.1023C59.8895 22.1183 59.7661 22.1264 59.6428 22.1264C59.4443 22.1264 59.2566 22.1023 59.0797 22.054C58.9027 22.0057 58.7418 21.928 58.597 21.8207C58.4575 21.7134 58.3449 21.5794 58.2591 21.4185C58.1787 21.2576 58.1384 21.0752 58.1384 20.8714C58.1384 20.6301 58.1813 20.429 58.2671 20.2681C58.3583 20.1018 58.479 19.9677 58.6292 19.8658C58.7793 19.7639 58.9509 19.6942 59.144 19.6567C59.3424 19.6138 59.5516 19.5923 59.7715 19.5923H61.0184C61.0184 19.233 60.9407 18.9488 60.7851 18.7396C60.6296 18.5251 60.3668 18.4124 59.9967 18.4017C59.7715 18.4017 59.5731 18.4393 59.4014 18.5143C59.2298 18.5894 59.1118 18.7128 59.0475 18.8844H58.3154C58.353 18.6913 58.428 18.5277 58.5407 18.3937C58.6533 18.2542 58.7874 18.1416 58.9429 18.0558C59.0984 17.9646 59.2674 17.8976 59.4497 17.8547C59.6321 17.8118 59.8144 17.7903 59.9967 17.7903C60.3132 17.7903 60.5786 17.8439 60.7932 17.9512C61.0131 18.0531 61.19 18.1899 61.3241 18.3615C61.4582 18.5277 61.5521 18.7315 61.6057 18.9729C61.6593 19.2142 61.6861 19.4851 61.6861 19.7854V22.0781H61.115L61.0747 21.5391ZM60.2703 20.1635C60.1416 20.1635 59.9914 20.1662 59.8198 20.1715C59.6535 20.1715 59.4926 20.1876 59.3371 20.2198C59.1816 20.252 59.0555 20.319 58.959 20.4209C58.8678 20.5228 58.8222 20.6569 58.8222 20.8232C58.8222 20.9465 58.8464 21.0511 58.8946 21.1369C58.9429 21.2227 59.0073 21.2951 59.0877 21.3541C59.1735 21.4131 59.27 21.456 59.3773 21.4828C59.4846 21.5096 59.5945 21.523 59.7071 21.523C60.1094 21.523 60.4258 21.4265 60.6564 21.2334C60.8924 21.035 61.0131 20.7481 61.0184 20.3727V20.1635H60.2703ZM62.7455 22.0781V16.3905H63.4293V22.0781H62.7455ZM66.8345 16.3905H70.6557V17.0261H67.5343V18.9407H70.3419V19.5843H67.5343V21.4426H70.6557V22.0781H66.8345V16.3905ZM71.101 17.8386H71.8732L73.2087 21.4185L74.5199 17.8386H75.3003L73.6672 22.0781H72.734L71.101 17.8386ZM76.4276 20.2118C76.4437 20.3995 76.4812 20.5738 76.5402 20.7347C76.6046 20.8902 76.6904 21.027 76.7977 21.1449C76.9049 21.2629 77.0363 21.3568 77.1918 21.4265C77.3527 21.4909 77.5378 21.523 77.7469 21.523C77.8488 21.523 77.9534 21.515 78.0607 21.4989C78.1733 21.4775 78.2779 21.4453 78.3744 21.4024C78.4709 21.3541 78.5568 21.2924 78.6318 21.2173C78.7069 21.1423 78.7632 21.0511 78.8008 20.9438H79.5007C79.4524 21.1476 79.3693 21.3246 79.2513 21.4748C79.1387 21.6249 79.0019 21.7483 78.841 21.8448C78.6855 21.9414 78.5112 22.0138 78.3181 22.062C78.125 22.1049 77.9293 22.1264 77.7308 22.1264C77.393 22.1264 77.098 22.0728 76.8459 21.9655C76.5992 21.8582 76.3927 21.7108 76.2265 21.523C76.0602 21.33 75.9369 21.102 75.8564 20.8392C75.776 20.5711 75.7358 20.2788 75.7358 19.9624C75.7358 19.646 75.7787 19.3563 75.8645 19.0936C75.9556 18.8254 76.0844 18.5948 76.2506 18.4017C76.4169 18.2086 76.6207 18.0585 76.862 17.9512C77.1034 17.8439 77.3903 17.7903 77.7228 17.7903C78.0607 17.7903 78.353 17.8574 78.5997 17.9914C78.8464 18.1255 79.0448 18.3025 79.195 18.5224C79.3451 18.7369 79.4497 18.9702 79.5087 19.2223C79.5731 19.4743 79.5999 19.7076 79.5892 19.9222C79.5892 19.9704 79.5865 20.0187 79.5811 20.067C79.5811 20.1152 79.5784 20.1635 79.5731 20.2118H76.4276ZM78.8973 19.6165C78.8866 19.2571 78.774 18.9648 78.5594 18.7396C78.3449 18.5143 78.058 18.4017 77.6987 18.4017C77.5002 18.4017 77.3259 18.4339 77.1758 18.4982C77.0256 18.5626 76.8996 18.6511 76.7977 18.7637C76.6958 18.8763 76.6153 19.0077 76.5563 19.1579C76.4973 19.3027 76.4598 19.4556 76.4437 19.6165H78.8973ZM80.5082 22.0781V17.8386H81.1679L81.2 18.4822C81.2698 18.3642 81.3556 18.2623 81.4575 18.1765C81.5647 18.0907 81.68 18.0183 81.8034 17.9593C81.9267 17.9003 82.0555 17.8574 82.1895 17.8305C82.329 17.8037 82.463 17.7903 82.5918 17.7903C82.8975 17.7903 83.1549 17.8413 83.364 17.9432C83.5732 18.0397 83.7395 18.1765 83.8628 18.3534C83.9862 18.5251 84.0747 18.7315 84.1283 18.9729C84.1819 19.2089 84.2087 19.4636 84.2087 19.7371V22.0781H83.5249V19.9222C83.5249 19.7237 83.5115 19.5333 83.4847 19.351C83.4633 19.1686 83.415 19.0077 83.3399 18.8683C83.2702 18.7235 83.1683 18.6082 83.0342 18.5224C82.9001 18.4366 82.7205 18.3937 82.4952 18.3937C82.2753 18.399 82.0796 18.4527 81.908 18.5546C81.7417 18.6565 81.6076 18.7771 81.5057 18.9166C81.3824 19.0936 81.2993 19.2893 81.2563 19.5038C81.2134 19.713 81.192 19.9248 81.192 20.1394V22.0781H80.5082ZM86.3311 17.8386H87.6343V18.4419H86.3311V20.6462C86.3311 20.7695 86.3364 20.8848 86.3472 20.9921C86.3633 21.094 86.3901 21.1852 86.4276 21.2656C86.4705 21.3407 86.5295 21.4024 86.6046 21.4506C86.6851 21.4935 86.7923 21.5177 86.9264 21.523C87.0497 21.523 87.157 21.5016 87.2482 21.4587C87.3447 21.4158 87.4252 21.3648 87.4895 21.3058L87.7872 21.8046C87.6477 21.9226 87.5029 22.0057 87.3528 22.054C87.2026 22.1023 87.0363 22.1264 86.854 22.1264C86.6234 22.1264 86.4303 22.0942 86.2748 22.0299C86.1192 21.9601 85.9878 21.8609 85.8806 21.7322C85.7894 21.6089 85.7277 21.464 85.6956 21.2978C85.6634 21.1315 85.6473 20.9438 85.6473 20.7347V18.4419H84.9554V17.8386H85.6473V16.5675H86.3311V17.8386ZM40.8817 32.0781L40.4312 30.8553H37.6156L37.1651 32.0781H36.4089L38.5247 26.3905H39.5302L41.6379 32.0781H40.8817ZM39.0234 27.0019L37.8489 30.2198H40.1979L39.0234 27.0019ZM41.6572 27.8386H42.4295L43.4431 31.4185L44.4889 27.8386H45.414L46.4679 31.4185L47.4654 27.8386H48.2458L46.9264 32.0781H45.9932L44.9474 28.6431L43.9016 32.0781H42.9765L41.6572 27.8386ZM51.671 31.5391C51.5798 31.6625 51.4752 31.7617 51.3572 31.8368C51.2392 31.9119 51.1159 31.9709 50.9872 32.0138C50.8638 32.0567 50.7378 32.0862 50.6091 32.1023C50.4857 32.1183 50.3624 32.1264 50.239 32.1264C50.0406 32.1264 49.8529 32.1023 49.6759 32.054C49.4989 32.0057 49.338 31.928 49.1932 31.8207C49.0538 31.7134 48.9411 31.5794 48.8553 31.4185C48.7749 31.2576 48.7347 31.0752 48.7347 30.8714C48.7347 30.6301 48.7776 30.429 48.8634 30.2681C48.9545 30.1018 49.0752 29.9677 49.2254 29.8658C49.3755 29.7639 49.5472 29.6942 49.7402 29.6567C49.9387 29.6138 50.1478 29.5923 50.3677 29.5923H51.6146C51.6146 29.233 51.5369 28.9488 51.3814 28.7396C51.2258 28.5251 50.963 28.4124 50.593 28.4017C50.3677 28.4017 50.1693 28.4393 49.9977 28.5143C49.826 28.5894 49.7081 28.7128 49.6437 28.8844H48.9116C48.9492 28.6913 49.0243 28.5277 49.1369 28.3937C49.2495 28.2542 49.3836 28.1416 49.5391 28.0558C49.6947 27.9646 49.8636 27.8976 50.0459 27.8547C50.2283 27.8118 50.4106 27.7903 50.593 27.7903C50.9094 27.7903 51.1749 27.8439 51.3894 27.9512C51.6093 28.0531 51.7863 28.1899 51.9203 28.3615C52.0544 28.5277 52.1483 28.7315 52.2019 28.9729C52.2555 29.2142 52.2824 29.4851 52.2824 29.7854V32.0781H51.7112L51.671 31.5391ZM50.8665 30.1635C50.7378 30.1635 50.5876 30.1662 50.416 30.1715C50.2497 30.1715 50.0888 30.1876 49.9333 30.2198C49.7778 30.252 49.6517 30.319 49.5552 30.4209C49.464 30.5228 49.4185 30.6569 49.4185 30.8232C49.4185 30.9465 49.4426 31.0511 49.4909 31.1369C49.5391 31.2227 49.6035 31.2951 49.6839 31.3541C49.7697 31.4131 49.8663 31.456 49.9735 31.4828C50.0808 31.5096 50.1907 31.523 50.3034 31.523C50.7056 31.523 51.022 31.4265 51.2526 31.2334C51.4886 31.035 51.6093 30.7481 51.6146 30.3727V30.1635H50.8665ZM53.3417 32.0781V27.8386H54.0014L54.0336 28.4982C54.1891 28.2515 54.3875 28.0719 54.6289 27.9593C54.8702 27.8466 55.1437 27.7903 55.4494 27.7903H55.6666V28.4339H55.4173C55.1652 28.4339 54.9507 28.4768 54.7737 28.5626C54.5967 28.6431 54.4519 28.7557 54.3393 28.9005C54.232 29.0399 54.1516 29.2062 54.0979 29.3993C54.0497 29.5923 54.0255 29.7961 54.0255 30.0106V32.0781H53.3417ZM60.0452 32.0781H59.3936L59.3614 31.4426C59.2166 31.6839 59.0155 31.8582 58.7581 31.9655C58.506 32.0728 58.2405 32.1264 57.9616 32.1264C57.6399 32.121 57.361 32.0647 57.125 31.9575C56.889 31.8448 56.6959 31.692 56.5458 31.4989C56.3956 31.3058 56.283 31.0806 56.2079 30.8232C56.1382 30.5604 56.1033 30.2761 56.1033 29.9704C56.1033 29.6647 56.1409 29.3805 56.2159 29.1177C56.291 28.8495 56.4063 28.6189 56.5619 28.4258C56.7174 28.2274 56.9131 28.0719 57.1491 27.9593C57.3851 27.8466 57.6667 27.7903 57.9938 27.7903C58.2405 27.7903 58.4899 27.8359 58.742 27.9271C58.994 28.0183 59.2005 28.1657 59.3614 28.3695V26.3905H60.0452V32.0781ZM58.0501 28.4017C57.8195 28.4017 57.6238 28.4446 57.4629 28.5304C57.302 28.6109 57.1706 28.7208 57.0687 28.8603C56.9721 28.9997 56.8997 29.166 56.8515 29.359C56.8086 29.5467 56.7871 29.7532 56.7871 29.9785C56.7871 30.2037 56.8086 30.4075 56.8515 30.5899C56.8944 30.7668 56.9668 30.9251 57.0687 31.0645C57.1706 31.2039 57.302 31.3166 57.4629 31.4024C57.6238 31.4828 57.8222 31.523 58.0582 31.523C58.3317 31.523 58.5569 31.4587 58.7339 31.33C58.9109 31.2013 59.053 31.0404 59.1603 30.8473C59.2354 30.7132 59.289 30.5684 59.3212 30.4129C59.3534 30.252 59.3695 30.0938 59.3695 29.9382C59.3695 29.7452 59.3507 29.5682 59.3131 29.4073C59.281 29.2464 59.2193 29.0962 59.1281 28.9568C59.0209 28.8013 58.8787 28.6699 58.7017 28.5626C58.5248 28.4553 58.3076 28.4017 58.0501 28.4017ZM62.6317 28.4017C62.5352 28.4017 62.4359 28.4098 62.334 28.4258C62.2375 28.4366 62.141 28.4634 62.0444 28.5063C61.9533 28.5438 61.8728 28.6028 61.8031 28.6833C61.7387 28.7584 61.7039 28.8603 61.6985 28.989C61.6985 29.1713 61.7655 29.3081 61.8996 29.3993C62.0391 29.4904 62.2187 29.5575 62.4386 29.6004C62.5298 29.6218 62.629 29.6433 62.7363 29.6647C62.8435 29.6808 62.9481 29.6996 63.05 29.721C63.1573 29.7371 63.2565 29.7559 63.3477 29.7774C63.4442 29.7988 63.5246 29.8203 63.589 29.8417C64.1039 30.0026 64.3613 30.3485 64.3613 30.8795C64.3559 31.1369 64.2996 31.3461 64.1924 31.507C64.0905 31.6625 63.9591 31.7858 63.7982 31.877C63.6426 31.9682 63.463 32.0325 63.2592 32.0701C63.0607 32.1076 62.8623 32.1264 62.6639 32.1264C62.4708 32.1264 62.275 32.1076 62.0766 32.0701C61.8782 32.0325 61.6958 31.9682 61.5296 31.877C61.3687 31.7805 61.2292 31.6571 61.1112 31.507C60.9986 31.3514 60.9262 31.1584 60.894 30.9277H61.5859C61.6288 31.0565 61.6958 31.1584 61.787 31.2334C61.8782 31.3085 61.9747 31.3675 62.0766 31.4104C62.1839 31.4533 62.2831 31.4828 62.3743 31.4989C62.4708 31.515 62.5781 31.523 62.696 31.523C62.7819 31.523 62.8811 31.5177 62.9937 31.507C63.1063 31.4962 63.2136 31.4721 63.3155 31.4346C63.4174 31.3916 63.5032 31.33 63.5729 31.2495C63.6426 31.1691 63.6775 31.0565 63.6775 30.9116C63.6775 30.7508 63.6239 30.6301 63.5166 30.5496C63.4147 30.4692 63.2726 30.4102 63.0902 30.3727C62.9615 30.3458 62.8274 30.3217 62.688 30.3003C62.5539 30.2734 62.4172 30.2466 62.2777 30.2198C62.1436 30.1876 62.0122 30.1528 61.8835 30.1152C61.7548 30.0723 61.6342 30.016 61.5215 29.9463C61.3714 29.8551 61.2507 29.7318 61.1595 29.5762C61.0683 29.4207 61.0228 29.2303 61.0228 29.0051C61.0335 28.7691 61.0871 28.576 61.1836 28.4258C61.2802 28.2703 61.4035 28.1443 61.5537 28.0477C61.7146 27.9512 61.8862 27.8842 62.0686 27.8466C62.2509 27.8091 62.444 27.7903 62.6478 27.7903C63.0822 27.7903 63.4281 27.8842 63.6855 28.0719C63.8411 28.1791 63.9617 28.3079 64.0476 28.458C64.1334 28.6082 64.187 28.7664 64.2084 28.9327H63.5729C63.5354 28.7771 63.4335 28.6511 63.2672 28.5546C63.101 28.458 62.8891 28.4071 62.6317 28.4017ZM66.5477 28.5546H67.2798L68.1889 29.9543L67.2798 31.3541H66.5477L67.497 29.9543L66.5477 28.5546ZM65.148 28.5546H65.872L66.781 29.9543L65.872 31.3541H65.148L66.0731 29.9543L65.148 28.5546ZM72.5178 30.0911C72.6626 29.9677 72.8208 29.8337 72.9925 29.6889C73.1694 29.5387 73.333 29.3778 73.4832 29.2062C73.6387 29.0346 73.7701 28.8549 73.8774 28.6672C73.9846 28.4741 74.041 28.265 74.0463 28.0397C74.057 27.6965 73.9578 27.4337 73.7487 27.2513C73.5395 27.0636 73.2633 26.9698 72.9201 26.9698C72.6465 26.9698 72.4079 27.0261 72.2041 27.1387C72.0003 27.2513 71.8662 27.4149 71.8019 27.6294H71.0537C71.0912 27.4095 71.169 27.2191 71.287 27.0583C71.4103 26.892 71.5578 26.7552 71.7295 26.648C71.9064 26.5407 72.0995 26.4603 72.3087 26.4066C72.5178 26.353 72.7324 26.3262 72.9522 26.3262C73.215 26.3262 73.4564 26.3637 73.6763 26.4388C73.8961 26.5085 74.0865 26.6131 74.2474 26.7526C74.4083 26.892 74.5317 27.0663 74.6175 27.2755C74.7087 27.4793 74.7542 27.7126 74.7542 27.9753C74.7542 28.2381 74.714 28.4741 74.6336 28.6833C74.5585 28.8924 74.4539 29.0855 74.3198 29.2625C74.1911 29.4395 74.0436 29.6057 73.8774 29.7613C73.7111 29.9168 73.5395 30.0723 73.3625 30.2279L71.9225 31.4426H74.8186V32.0781H70.9089V31.4989L72.5178 30.0911ZM80.1233 29.2384C80.1233 29.603 80.0858 29.9597 80.0107 30.3083C79.941 30.6569 79.8203 30.968 79.6487 31.2415C79.4771 31.5096 79.2491 31.7268 78.9649 31.8931C78.6806 32.0594 78.3267 32.1425 77.903 32.1425C77.4739 32.1425 77.1173 32.0594 76.833 31.8931C76.5488 31.7268 76.3209 31.5096 76.1492 31.2415C75.9776 30.968 75.857 30.6623 75.7872 30.3244C75.7175 29.9865 75.6827 29.6245 75.6827 29.2384C75.6827 28.8522 75.7175 28.4902 75.7872 28.1523C75.857 27.8091 75.9776 27.5034 76.1492 27.2352C76.3209 26.9671 76.5488 26.7499 76.833 26.5836C77.1173 26.412 77.4739 26.3262 77.903 26.3262C78.3267 26.3262 78.6806 26.4093 78.9649 26.5756C79.2491 26.7418 79.4771 26.9617 79.6487 27.2352C79.8203 27.5088 79.941 27.8198 80.0107 28.1684C80.0858 28.517 80.1233 28.8737 80.1233 29.2384ZM76.3986 29.2384C76.3986 29.4958 76.4174 29.7586 76.4549 30.0267C76.4925 30.2949 76.5649 30.5389 76.6721 30.7588C76.7794 30.9787 76.9296 31.1584 77.1226 31.2978C77.3211 31.4372 77.5812 31.507 77.903 31.507C78.2194 31.507 78.4742 31.4372 78.6672 31.2978C78.8657 31.1584 79.0185 30.9787 79.1258 30.7588C79.233 30.5389 79.3054 30.2949 79.343 30.0267C79.3805 29.7586 79.3993 29.4958 79.3993 29.2384C79.3993 28.9863 79.3805 28.7262 79.343 28.458C79.3054 28.1899 79.233 27.9458 79.1258 27.726C79.0185 27.5007 78.8657 27.3184 78.6672 27.1789C78.4742 27.0341 78.2194 26.9617 77.903 26.9617C77.5812 26.9617 77.3211 27.0341 77.1226 27.1789C76.9296 27.3184 76.7794 27.5007 76.6721 27.726C76.5649 27.9458 76.4925 28.1899 76.4549 28.458C76.4174 28.7262 76.3986 28.9863 76.3986 29.2384ZM82.6336 32.0781H81.9337V27.5168H80.7752V27.0422C80.9361 27.0314 81.0836 27.018 81.2177 27.0019C81.3518 26.9805 81.4751 26.9456 81.5877 26.8974C81.7004 26.8491 81.8023 26.7847 81.8934 26.7043C81.9846 26.6238 82.0677 26.5193 82.1428 26.3905H82.6336V32.0781ZM85.8376 32.1425C85.6123 32.1425 85.3844 32.121 85.1538 32.0781C84.9285 32.0352 84.7167 31.9628 84.5183 31.8609C84.3252 31.7537 84.1589 31.6142 84.0195 31.4426C83.8854 31.271 83.7996 31.0591 83.7621 30.8071H84.4861C84.5344 30.9465 84.6068 31.0618 84.7033 31.153C84.8052 31.2388 84.9178 31.3085 85.0412 31.3621C85.1699 31.4158 85.304 31.4533 85.4434 31.4748C85.5828 31.4962 85.7169 31.507 85.8456 31.507C85.9636 31.507 86.0977 31.4962 86.2479 31.4748C86.398 31.4533 86.5375 31.4077 86.6662 31.338C86.8003 31.2683 86.9102 31.1664 86.996 31.0323C87.0872 30.8929 87.1328 30.7105 87.1328 30.4853C87.1328 30.2708 87.0899 30.0991 87.0041 29.9704C86.9236 29.8417 86.8164 29.7425 86.6823 29.6728C86.5536 29.603 86.4061 29.5575 86.2398 29.536C86.0789 29.5146 85.9154 29.5038 85.7491 29.5038H85.2021V28.8763H85.5319C85.6767 28.8763 85.8108 28.8737 85.9341 28.8683C86.0575 28.8576 86.1942 28.82 86.3444 28.7557C86.516 28.6752 86.6528 28.5626 86.7547 28.4178C86.8566 28.2676 86.9102 28.096 86.9156 27.9029C86.9156 27.7099 86.8834 27.5517 86.819 27.4283C86.7547 27.305 86.6689 27.2084 86.5616 27.1387C86.4544 27.069 86.3337 27.0234 86.1996 27.0019C86.0655 26.9751 85.9288 26.9617 85.7893 26.9617C85.6767 26.9617 85.5587 26.9751 85.4354 27.0019C85.3174 27.0234 85.2047 27.0609 85.0975 27.1146C84.9956 27.1682 84.9044 27.2406 84.824 27.3318C84.7435 27.4176 84.6872 27.5222 84.655 27.6455H83.9551C83.9873 27.4095 84.0624 27.2084 84.1804 27.0422C84.2984 26.8759 84.4432 26.7391 84.6148 26.6319C84.7918 26.5246 84.9849 26.4469 85.194 26.3986C85.4085 26.3503 85.6258 26.3262 85.8456 26.3262C86.087 26.3262 86.3122 26.353 86.5214 26.4066C86.7359 26.4549 86.9236 26.538 87.0845 26.656C87.2454 26.7686 87.3714 26.9188 87.4626 27.1065C87.5592 27.2942 87.6074 27.5222 87.6074 27.7903C87.6074 27.8922 87.5967 28.0022 87.5752 28.1201C87.5538 28.2328 87.5136 28.3454 87.4546 28.458C87.3956 28.5707 87.3098 28.6833 87.1971 28.7959C87.0845 28.9085 86.937 29.0024 86.7547 29.0775C87.114 29.1472 87.3875 29.3054 87.5752 29.5521C87.763 29.7934 87.8568 30.0857 87.8568 30.429V30.4611C87.8568 30.7561 87.8032 31.0109 87.6959 31.2254C87.594 31.4346 87.4519 31.6089 87.2695 31.7483C87.0872 31.8824 86.8727 31.9816 86.626 32.0459C86.3793 32.1103 86.1165 32.1425 85.8376 32.1425Z" fill="white"/>
</svg>
