<svg width="248" height="105" viewBox="0 0 248 105" fill="none" xmlns="http://www.w3.org/2000/svg">
<path d="M41.7713 45.2075L41.9944 45.2845C42.0383 45.4673 42.0773 45.73 41.8062 45.7089L41.7278 45.6186C41.6786 45.4635 41.7231 45.3585 41.7713 45.2075Z" fill="#9C9C9C"/>
<path d="M50.6065 31.4878C51.7267 31.5505 55.0238 33.3922 54.5964 34.0123C54.3372 34.3881 52.0186 34.8552 51.5098 34.9079C49.9203 35.0411 46.8958 32.736 47.6491 32.1109C48.1511 31.6943 49.9593 31.455 50.6065 31.4878Z" fill="#9C9C9C"/>
<path d="M60.3683 73.2013C61.1868 73.2277 64.6955 74.7295 64.027 75.41C63.3806 76.0672 61.3674 76.4939 60.4458 76.4969C59.0502 76.3929 57.4085 75.46 56.6088 74.3625C57.6742 73.4997 59.0123 73.2103 60.3683 73.2013Z" fill="#9C9C9C"/>
<path d="M55.6524 63.1647C56.7195 64.8805 56.6178 68.0515 54.9997 69.4833C54.592 69.8443 54.0112 70.3066 53.4354 70.279C51.2745 68.4365 53.6115 63.9845 55.6524 63.1647Z" fill="#9C9C9C"/>
<path d="M46.574 68.3075C47.4887 68.3311 48.708 68.9219 49.7615 69.0914C48.7421 70.9308 46.7936 71.6434 44.7184 71.3781C43.5227 71.2152 42.166 70.7129 41.5949 69.603C42.8654 68.5606 44.9394 68.1964 46.574 68.3075Z" fill="#9C9C9C"/>
<path d="M47.7989 46.1102C48.3057 46.2021 48.8828 51.8766 44.4072 53.534C44.2103 53.6071 44.0922 53.6348 43.8945 53.547C42.4002 50.4246 44.764 47.2389 47.7989 46.1102Z" fill="#9C9C9C"/>
<path d="M41.7721 45.2074C41.8671 40.2721 44.6397 37.9092 49.7488 38.7431C48.8682 42.7829 42.3244 43.7445 41.9949 45.2844L41.7721 45.2074Z" fill="#9C9C9C"/>
<path d="M37.2994 32.0272C40.2656 33.4723 41.8351 36.756 41.2532 39.9164C41.1907 40.2558 41.0985 40.4943 40.7986 40.7001C39.6957 41.2294 38.1325 39.1889 37.6822 38.4389C36.4488 36.3846 36.7117 34.2191 37.2994 32.0272Z" fill="#9C9C9C"/>
<path d="M55.9075 19.3157C56.3042 19.3191 56.1082 20.1978 56.0815 20.4625C55.7524 23.7315 53.0303 26.659 49.8924 27.7297C49.3014 27.6403 50.0384 25.0101 50.1674 24.5886C50.9614 21.994 53.3889 20.217 55.9075 19.3157Z" fill="#9C9C9C"/>
<path d="M52.2218 74.1665C53.2166 74.2097 57.5375 76.0186 55.9456 77.2279C54.6133 78.24 52.6342 78.6997 50.972 78.497C50.4227 78.4272 49.7588 78.3709 49.2622 78.1278C48.7768 77.8901 46.2318 76.5585 46.9365 75.9027C48.3085 74.6261 50.3545 74.0831 52.2218 74.1665Z" fill="#9C9C9C"/>
<path d="M44.5734 21.8471C47.2779 24.1264 48.3659 29.5605 45.3703 31.9725C43.7898 32.8029 42.7535 28.4481 42.7574 27.5416C42.7632 26.1784 43.6988 22.686 44.5734 21.8471Z" fill="#9C9C9C"/>
<path d="M38.8356 57.0634C42.8341 57.3917 45.1887 60.728 45.9619 64.273C45.1383 64.2576 44.2955 64.0881 43.4817 63.9685C39.75 63.4566 37.5582 61.3184 36.4417 57.8198C36.0768 56.677 37.9468 57.0138 38.8356 57.0634Z" fill="#9C9C9C"/>
<path d="M49.4398 55.9695C50.1697 56.0111 51.3089 58.0625 51.6449 58.6652C52.383 59.9875 53.161 63.8479 51.4765 64.6948C50.9092 64.676 50.3562 64.5629 49.8007 64.4596C48.7142 64.2212 48.0735 63.7522 46.8658 63.7132C44.9091 61.3083 46.9601 57.4126 49.4398 55.9695Z" fill="#9C9C9C"/>
<path d="M34.2289 45.7018C34.8183 45.8817 35.4566 45.9737 36.0582 46.1194C39.9022 47.0499 41.0775 49.5225 42.2074 52.8421C42.3743 53.3326 43.4752 55.9344 43.433 56.095C43.2231 55.9472 43.1168 55.7608 42.9854 55.5511C41.6062 53.3458 37.8045 54.9307 35.2366 50.3304C34.5966 49.1836 33.861 46.896 34.2289 45.7018Z" fill="#9C9C9C"/>
<path d="M206.905 45.2075L206.682 45.2845C206.638 45.4673 206.599 45.73 206.871 45.7089L206.949 45.6186C206.998 45.4635 206.954 45.3585 206.905 45.2075Z" fill="#9C9C9C"/>
<path d="M198.07 31.4878C196.95 31.5505 193.653 33.3922 194.08 34.0123C194.34 34.3881 196.658 34.8552 197.167 34.9079C198.756 35.0411 201.781 32.736 201.028 32.1109C200.526 31.6943 198.717 31.455 198.07 31.4878Z" fill="#9C9C9C"/>
<path d="M188.308 73.2013C187.49 73.2277 183.981 74.7295 184.65 75.41C185.296 76.0672 187.309 76.4939 188.231 76.4969C189.627 76.3929 191.268 75.46 192.068 74.3625C191.003 73.4997 189.664 73.2103 188.308 73.2013Z" fill="#9C9C9C"/>
<path d="M193.024 63.1647C191.957 64.8805 192.059 68.0515 193.677 69.4833C194.085 69.8443 194.666 70.3066 195.241 70.279C197.402 68.4365 195.065 63.9845 193.024 63.1647Z" fill="#9C9C9C"/>
<path d="M202.103 68.3075C201.188 68.3311 199.969 68.9219 198.915 69.0914C199.935 70.9308 201.883 71.6434 203.958 71.3781C205.154 71.2152 206.511 70.7129 207.082 69.603C205.811 68.5606 203.737 68.1964 202.103 68.3075Z" fill="#9C9C9C"/>
<path d="M200.878 46.1102C200.371 46.2021 199.794 51.8766 204.27 53.534C204.466 53.6071 204.585 53.6348 204.782 53.547C206.277 50.4246 203.913 47.2389 200.878 46.1102Z" fill="#9C9C9C"/>
<path d="M206.905 45.2074C206.81 40.2721 204.037 37.9092 198.928 38.7431C199.809 42.7829 206.352 43.7445 206.682 45.2844L206.905 45.2074Z" fill="#9C9C9C"/>
<path d="M211.377 32.0272C208.411 33.4723 206.842 36.756 207.424 39.9164C207.486 40.2558 207.578 40.4943 207.878 40.7001C208.981 41.2294 210.544 39.1889 210.995 38.4389C212.228 36.3846 211.965 34.2191 211.377 32.0272Z" fill="#9C9C9C"/>
<path d="M192.769 19.3157C192.373 19.3191 192.569 20.1978 192.595 20.4625C192.924 23.7315 195.647 26.659 198.784 27.7297C199.375 27.6403 198.638 25.0101 198.509 24.5886C197.715 21.994 195.288 20.217 192.769 19.3157Z" fill="#9C9C9C"/>
<path d="M196.455 74.1665C195.46 74.2097 191.139 76.0186 192.731 77.2279C194.063 78.24 196.043 78.6997 197.705 78.497C198.254 78.4272 198.918 78.3709 199.415 78.1278C199.9 77.8901 202.445 76.5585 201.74 75.9027C200.368 74.6261 198.322 74.0831 196.455 74.1665Z" fill="#9C9C9C"/>
<path d="M204.103 21.8471C201.399 24.1264 200.311 29.5605 203.306 31.9725C204.887 32.8029 205.923 28.4481 205.919 27.5416C205.914 26.1784 204.978 22.686 204.103 21.8471Z" fill="#9C9C9C"/>
<path d="M209.841 57.0634C205.843 57.3917 203.488 60.728 202.715 64.273C203.538 64.2576 204.381 64.0881 205.195 63.9685C208.927 63.4566 211.119 61.3184 212.235 57.8198C212.6 56.677 210.73 57.0138 209.841 57.0634Z" fill="#9C9C9C"/>
<path d="M199.237 55.9695C198.507 56.0111 197.368 58.0625 197.032 58.6652C196.294 59.9875 195.516 63.8479 197.2 64.6948C197.768 64.676 198.321 64.5629 198.876 64.4596C199.963 64.2212 200.603 63.7522 201.811 63.7132C203.768 61.3083 201.717 57.4126 199.237 55.9695Z" fill="#9C9C9C"/>
<path d="M214.448 45.7018C213.858 45.8817 213.22 45.9737 212.619 46.1194C208.775 47.0499 207.599 49.5225 206.469 52.8421C206.302 53.3326 205.202 55.9344 205.244 56.095C205.454 55.9472 205.56 55.7608 205.691 55.5511C207.071 53.3458 210.872 54.9307 213.44 50.3304C214.08 49.1836 214.816 46.896 214.448 45.7018Z" fill="#9C9C9C"/>
<path d="M76.0863 42.56H74.6302L72.8222 39.776L74.6302 36.992H76.0863L74.1982 39.776L76.0863 42.56ZM78.8703 42.56H77.4303L75.6223 39.776L77.4303 36.992H78.8703L77.0303 39.776L78.8703 42.56ZM85.7116 33.824C85.0503 33.824 84.485 33.9413 84.0156 34.176C83.5463 34.4107 83.1623 34.736 82.8636 35.152C82.565 35.5573 82.3463 36.0373 82.2076 36.592C82.069 37.136 81.9996 37.7227 81.9996 38.352C81.9996 38.9813 82.0743 39.568 82.2236 40.112C82.373 40.656 82.597 41.136 82.8956 41.552C83.205 41.9573 83.5943 42.2773 84.0636 42.512C84.5436 42.7467 85.1143 42.864 85.7756 42.864C86.9063 42.864 87.7543 42.5653 88.3196 41.968C88.6503 41.6267 88.885 41.2587 89.0236 40.864C89.1623 40.4693 89.2316 40.032 89.2316 39.552H85.5196V38.288H90.5596V39.232C90.5596 39.5413 90.533 39.8613 90.4796 40.192C90.4263 40.5227 90.3463 40.848 90.2396 41.168C90.133 41.4773 89.9943 41.776 89.8236 42.064C89.6636 42.3413 89.4716 42.592 89.2476 42.816C88.821 43.2213 88.3143 43.5413 87.7276 43.776C87.1516 44.0107 86.4956 44.128 85.7596 44.128C84.8743 44.128 84.1063 43.984 83.4556 43.696C82.8156 43.408 82.277 43.0133 81.8396 42.512C81.413 42 81.093 41.392 80.8796 40.688C80.677 39.984 80.5756 39.216 80.5756 38.384C80.5756 37.552 80.677 36.784 80.8796 36.08C81.093 35.3653 81.4076 34.752 81.8236 34.24C82.2503 33.7173 82.7836 33.3067 83.4236 33.008C84.0743 32.7093 84.8423 32.56 85.7276 32.56C86.9756 32.56 87.9836 32.8427 88.7516 33.408C89.5196 33.9627 90.0263 34.7093 90.2716 35.648H88.7516C88.5916 35.0933 88.245 34.6507 87.7116 34.32C87.1783 33.9893 86.5116 33.824 85.7116 33.824ZM92.3952 44V32.688H93.7552V44H92.3952ZM99.6073 35.472C100.279 35.472 100.861 35.5787 101.351 35.792C101.842 36.0053 102.253 36.304 102.583 36.688C102.925 37.072 103.175 37.5307 103.335 38.064C103.506 38.5867 103.591 39.1627 103.591 39.792C103.591 40.4213 103.506 41.0027 103.335 41.536C103.175 42.0587 102.925 42.512 102.583 42.896C102.253 43.2693 101.837 43.5627 101.335 43.776C100.834 43.9893 100.247 44.096 99.5753 44.096C98.9033 44.096 98.3166 43.9893 97.8152 43.776C97.3246 43.5627 96.9086 43.2693 96.5672 42.896C96.2366 42.512 95.9859 42.0587 95.8152 41.536C95.6552 41.0027 95.5752 40.4213 95.5752 39.792C95.5752 39.1627 95.6552 38.5867 95.8152 38.064C95.9859 37.5307 96.2366 37.072 96.5672 36.688C96.9086 36.304 97.3352 36.0053 97.8472 35.792C98.3593 35.5787 98.9459 35.472 99.6073 35.472ZM99.5753 42.896C100.034 42.896 100.429 42.816 100.759 42.656C101.101 42.496 101.378 42.2773 101.591 42C101.815 41.712 101.975 41.3813 102.071 41.008C102.178 40.6347 102.231 40.2293 102.231 39.792C102.231 39.3653 102.178 38.9653 102.071 38.592C101.975 38.208 101.815 37.8773 101.591 37.6C101.378 37.312 101.101 37.088 100.759 36.928C100.429 36.768 100.034 36.688 99.5753 36.688C99.1166 36.688 98.7219 36.768 98.3912 36.928C98.0606 37.088 97.7832 37.312 97.5592 37.6C97.3459 37.8773 97.1859 38.208 97.0792 38.592C96.9832 38.9653 96.9352 39.3653 96.9352 39.792C96.9352 40.2293 96.9832 40.6347 97.0792 41.008C97.1859 41.3813 97.3459 41.712 97.5592 42C97.7832 42.2773 98.0606 42.496 98.3912 42.656C98.7219 42.816 99.1166 42.896 99.5753 42.896ZM105.411 44V32.688H106.771V36.816C107.048 36.3893 107.443 36.0587 107.955 35.824C108.478 35.5787 109.011 35.4613 109.555 35.472C110.195 35.472 110.744 35.584 111.203 35.808C111.672 36.032 112.056 36.336 112.355 36.72C112.664 37.104 112.888 37.5627 113.027 38.096C113.176 38.6187 113.251 39.184 113.251 39.792C113.251 40.4 113.176 40.9653 113.027 41.488C112.888 42 112.664 42.448 112.355 42.832C112.046 43.216 111.651 43.52 111.171 43.744C110.702 43.968 110.142 44.0853 109.491 44.096H109.315C108.739 44.096 108.238 43.9947 107.811 43.792C107.395 43.5893 107.048 43.3173 106.771 42.976L106.707 44H105.411ZM109.379 42.896C109.838 42.896 110.222 42.816 110.531 42.656C110.851 42.4853 111.107 42.2613 111.299 41.984C111.502 41.696 111.646 41.3653 111.731 40.992C111.827 40.6187 111.88 40.2187 111.891 39.792C111.891 39.3653 111.843 38.9653 111.747 38.592C111.662 38.208 111.518 37.8773 111.315 37.6C111.112 37.3227 110.846 37.104 110.515 36.944C110.195 36.7733 109.806 36.688 109.347 36.688C109.091 36.688 108.84 36.7307 108.595 36.816C108.35 36.9013 108.131 37.0187 107.939 37.168C107.747 37.3067 107.576 37.4667 107.427 37.648C107.288 37.8293 107.171 38.0213 107.075 38.224C106.958 38.4693 106.872 38.7307 106.819 39.008C106.766 39.2853 106.739 39.552 106.739 39.808C106.739 40.0853 106.755 40.3733 106.787 40.672C106.83 40.96 106.915 41.2267 107.043 41.472C107.235 41.8773 107.528 42.2187 107.923 42.496C108.318 42.7627 108.803 42.896 109.379 42.896ZM120.619 42.928C120.438 43.1733 120.23 43.3707 119.995 43.52C119.76 43.6693 119.515 43.7867 119.259 43.872C119.014 43.9573 118.763 44.016 118.507 44.048C118.262 44.08 118.016 44.096 117.771 44.096C117.376 44.096 117.003 44.048 116.651 43.952C116.299 43.856 115.979 43.7013 115.691 43.488C115.414 43.2747 115.19 43.008 115.019 42.688C114.859 42.368 114.779 42.0053 114.779 41.6C114.779 41.12 114.864 40.72 115.035 40.4C115.216 40.0693 115.456 39.8027 115.755 39.6C116.054 39.3973 116.395 39.2587 116.779 39.184C117.174 39.0987 117.59 39.056 118.027 39.056H120.507C120.507 38.3413 120.352 37.776 120.043 37.36C119.734 36.9333 119.211 36.7093 118.475 36.688C118.027 36.688 117.632 36.7627 117.291 36.912C116.95 37.0613 116.715 37.3067 116.587 37.648H115.131C115.206 37.264 115.355 36.9387 115.579 36.672C115.803 36.3947 116.07 36.1707 116.379 36C116.688 35.8187 117.024 35.6853 117.387 35.6C117.75 35.5147 118.112 35.472 118.475 35.472C119.104 35.472 119.632 35.5787 120.059 35.792C120.496 35.9947 120.848 36.2667 121.115 36.608C121.382 36.9387 121.568 37.344 121.675 37.824C121.782 38.304 121.835 38.8427 121.835 39.44V44H120.699L120.619 42.928ZM119.019 40.192C118.763 40.192 118.464 40.1973 118.123 40.208C117.792 40.208 117.472 40.24 117.163 40.304C116.854 40.368 116.603 40.5013 116.411 40.704C116.23 40.9067 116.139 41.1733 116.139 41.504C116.139 41.7493 116.187 41.9573 116.283 42.128C116.379 42.2987 116.507 42.4427 116.667 42.56C116.838 42.6773 117.03 42.7627 117.243 42.816C117.456 42.8693 117.675 42.896 117.899 42.896C118.699 42.896 119.328 42.704 119.787 42.32C120.256 41.9253 120.496 41.3547 120.507 40.608V40.192H119.019ZM123.942 44V32.688H125.302V44H123.942ZM132.075 32.688H139.675V33.952H133.467V37.76H139.051V39.04H133.467V42.736H139.675V44H132.075V32.688ZM140.56 35.568H142.096L144.752 42.688L147.36 35.568H148.912L145.664 44H143.808L140.56 35.568ZM151.154 40.288C151.186 40.6613 151.261 41.008 151.378 41.328C151.506 41.6373 151.677 41.9093 151.89 42.144C152.104 42.3787 152.365 42.5653 152.674 42.704C152.994 42.832 153.362 42.896 153.778 42.896C153.981 42.896 154.189 42.88 154.402 42.848C154.626 42.8053 154.834 42.7413 155.026 42.656C155.218 42.56 155.389 42.4373 155.538 42.288C155.688 42.1387 155.8 41.9573 155.874 41.744H157.266C157.17 42.1493 157.005 42.5013 156.77 42.8C156.546 43.0987 156.274 43.344 155.954 43.536C155.645 43.728 155.298 43.872 154.914 43.968C154.53 44.0533 154.141 44.096 153.746 44.096C153.074 44.096 152.488 43.9893 151.986 43.776C151.496 43.5627 151.085 43.2693 150.754 42.896C150.424 42.512 150.178 42.0587 150.018 41.536C149.858 41.0027 149.778 40.4213 149.778 39.792C149.778 39.1627 149.864 38.5867 150.034 38.064C150.216 37.5307 150.472 37.072 150.802 36.688C151.133 36.304 151.538 36.0053 152.018 35.792C152.498 35.5787 153.069 35.472 153.73 35.472C154.402 35.472 154.984 35.6053 155.474 35.872C155.965 36.1387 156.36 36.4907 156.658 36.928C156.957 37.3547 157.165 37.8187 157.282 38.32C157.41 38.8213 157.464 39.2853 157.442 39.712C157.442 39.808 157.437 39.904 157.426 40C157.426 40.096 157.421 40.192 157.41 40.288H151.154ZM156.066 39.104C156.045 38.3893 155.821 37.808 155.394 37.36C154.968 36.912 154.397 36.688 153.682 36.688C153.288 36.688 152.941 36.752 152.642 36.88C152.344 37.008 152.093 37.184 151.89 37.408C151.688 37.632 151.528 37.8933 151.41 38.192C151.293 38.48 151.218 38.784 151.186 39.104H156.066ZM159.27 44V35.568H160.582L160.646 36.848C160.785 36.6133 160.956 36.4107 161.158 36.24C161.372 36.0693 161.601 35.9253 161.846 35.808C162.092 35.6907 162.348 35.6053 162.614 35.552C162.892 35.4987 163.158 35.472 163.414 35.472C164.022 35.472 164.534 35.5733 164.95 35.776C165.366 35.968 165.697 36.24 165.942 36.592C166.188 36.9333 166.364 37.344 166.47 37.824C166.577 38.2933 166.63 38.8 166.63 39.344V44H165.27V39.712C165.27 39.3173 165.244 38.9387 165.19 38.576C165.148 38.2133 165.052 37.8933 164.902 37.616C164.764 37.328 164.561 37.0987 164.294 36.928C164.028 36.7573 163.67 36.672 163.222 36.672C162.785 36.6827 162.396 36.7893 162.054 36.992C161.724 37.1947 161.457 37.4347 161.254 37.712C161.009 38.064 160.844 38.4533 160.758 38.88C160.673 39.296 160.63 39.7173 160.63 40.144V44H159.27ZM170.851 35.568H173.443V36.768H170.851V41.152C170.851 41.3973 170.862 41.6267 170.883 41.84C170.915 42.0427 170.969 42.224 171.043 42.384C171.129 42.5333 171.246 42.656 171.395 42.752C171.555 42.8373 171.769 42.8853 172.035 42.896C172.281 42.896 172.494 42.8533 172.675 42.768C172.867 42.6827 173.027 42.5813 173.155 42.464L173.747 43.456C173.47 43.6907 173.182 43.856 172.883 43.952C172.585 44.048 172.254 44.096 171.891 44.096C171.433 44.096 171.049 44.032 170.739 43.904C170.43 43.7653 170.169 43.568 169.955 43.312C169.774 43.0667 169.651 42.7787 169.587 42.448C169.523 42.1173 169.491 41.744 169.491 41.328V36.768H168.115V35.568H169.491V33.04H170.851V35.568ZM80.4574 65L79.5614 62.568H73.9614L73.0654 65H71.5614L75.7694 53.688H77.7694L81.9614 65H80.4574ZM76.7614 54.904L74.4254 61.304H79.0974L76.7614 54.904ZM81.9996 56.568H83.5356L85.5516 63.688L87.6316 56.568H89.4716L91.5676 63.688L93.5516 56.568H95.1036L92.4796 65H90.6236L88.5436 58.168L86.4636 65H84.6236L81.9996 56.568ZM101.916 63.928C101.735 64.1733 101.527 64.3707 101.292 64.52C101.057 64.6693 100.812 64.7867 100.556 64.872C100.311 64.9573 100.06 65.016 99.804 65.048C99.5587 65.08 99.3133 65.096 99.068 65.096C98.6733 65.096 98.3 65.048 97.948 64.952C97.596 64.856 97.276 64.7013 96.988 64.488C96.7107 64.2747 96.4867 64.008 96.316 63.688C96.156 63.368 96.076 63.0053 96.076 62.6C96.076 62.12 96.1613 61.72 96.332 61.4C96.5133 61.0693 96.7533 60.8027 97.052 60.6C97.3507 60.3973 97.692 60.2587 98.076 60.184C98.4707 60.0987 98.8867 60.056 99.324 60.056H101.804C101.804 59.3413 101.649 58.776 101.34 58.36C101.031 57.9333 100.508 57.7093 99.772 57.688C99.324 57.688 98.9293 57.7627 98.588 57.912C98.2467 58.0613 98.012 58.3067 97.884 58.648H96.428C96.5027 58.264 96.652 57.9387 96.876 57.672C97.1 57.3947 97.3667 57.1707 97.676 57C97.9853 56.8187 98.3213 56.6853 98.684 56.6C99.0467 56.5147 99.4093 56.472 99.772 56.472C100.401 56.472 100.929 56.5787 101.356 56.792C101.793 56.9947 102.145 57.2667 102.412 57.608C102.679 57.9387 102.865 58.344 102.972 58.824C103.079 59.304 103.132 59.8427 103.132 60.44V65H101.996L101.916 63.928ZM100.316 61.192C100.06 61.192 99.7613 61.1973 99.42 61.208C99.0893 61.208 98.7693 61.24 98.46 61.304C98.1507 61.368 97.9 61.5013 97.708 61.704C97.5267 61.9067 97.436 62.1733 97.436 62.504C97.436 62.7493 97.484 62.9573 97.58 63.128C97.676 63.2987 97.804 63.4427 97.964 63.56C98.1347 63.6773 98.3267 63.7627 98.54 63.816C98.7533 63.8693 98.972 63.896 99.196 63.896C99.996 63.896 100.625 63.704 101.084 63.32C101.553 62.9253 101.793 62.3547 101.804 61.608V61.192H100.316ZM105.239 65V56.568H106.551L106.615 57.88C106.924 57.3893 107.319 57.032 107.799 56.808C108.279 56.584 108.823 56.472 109.431 56.472H109.863V57.752H109.367C108.866 57.752 108.439 57.8373 108.087 58.008C107.735 58.168 107.447 58.392 107.223 58.68C107.01 58.9573 106.85 59.288 106.743 59.672C106.647 60.056 106.599 60.4613 106.599 60.888V65H105.239ZM118.571 65H117.276L117.212 63.736C116.924 64.216 116.523 64.5627 116.011 64.776C115.51 64.9893 114.982 65.096 114.428 65.096C113.788 65.0853 113.233 64.9733 112.763 64.76C112.294 64.536 111.91 64.232 111.611 63.848C111.313 63.464 111.089 63.016 110.939 62.504C110.801 61.9813 110.731 61.416 110.731 60.808C110.731 60.2 110.806 59.6347 110.955 59.112C111.105 58.5787 111.334 58.12 111.643 57.736C111.953 57.3413 112.342 57.032 112.811 56.808C113.281 56.584 113.841 56.472 114.491 56.472C114.982 56.472 115.478 56.5627 115.98 56.744C116.481 56.9253 116.892 57.2187 117.212 57.624V53.688H118.571V65ZM114.603 57.688C114.145 57.688 113.755 57.7733 113.435 57.944C113.115 58.104 112.854 58.3227 112.651 58.6C112.459 58.8773 112.315 59.208 112.219 59.592C112.134 59.9653 112.091 60.376 112.091 60.824C112.091 61.272 112.134 61.6773 112.219 62.04C112.305 62.392 112.449 62.7067 112.651 62.984C112.854 63.2613 113.115 63.4853 113.435 63.656C113.755 63.816 114.15 63.896 114.62 63.896C115.164 63.896 115.612 63.768 115.964 63.512C116.315 63.256 116.598 62.936 116.812 62.552C116.961 62.2853 117.068 61.9973 117.132 61.688C117.196 61.368 117.227 61.0533 117.227 60.744C117.227 60.36 117.19 60.008 117.115 59.688C117.052 59.368 116.929 59.0693 116.747 58.792C116.534 58.4827 116.252 58.2213 115.899 58.008C115.547 57.7947 115.115 57.688 114.603 57.688ZM123.716 57.688C123.524 57.688 123.326 57.704 123.124 57.736C122.932 57.7573 122.74 57.8107 122.548 57.896C122.366 57.9707 122.206 58.088 122.068 58.248C121.94 58.3973 121.87 58.6 121.86 58.856C121.86 59.2187 121.993 59.4907 122.26 59.672C122.537 59.8533 122.894 59.9867 123.332 60.072C123.513 60.1147 123.71 60.1573 123.924 60.2C124.137 60.232 124.345 60.2693 124.548 60.312C124.761 60.344 124.958 60.3813 125.14 60.424C125.332 60.4667 125.492 60.5093 125.62 60.552C126.644 60.872 127.156 61.56 127.156 62.616C127.145 63.128 127.033 63.544 126.82 63.864C126.617 64.1733 126.356 64.4187 126.036 64.6C125.726 64.7813 125.369 64.9093 124.964 64.984C124.569 65.0587 124.174 65.096 123.78 65.096C123.396 65.096 123.006 65.0587 122.612 64.984C122.217 64.9093 121.854 64.7813 121.524 64.6C121.204 64.408 120.926 64.1627 120.692 63.864C120.468 63.5547 120.324 63.1707 120.26 62.712H121.636C121.721 62.968 121.854 63.1707 122.036 63.32C122.217 63.4693 122.409 63.5867 122.612 63.672C122.825 63.7573 123.022 63.816 123.204 63.848C123.396 63.88 123.609 63.896 123.844 63.896C124.014 63.896 124.212 63.8853 124.436 63.864C124.66 63.8427 124.873 63.7947 125.076 63.72C125.278 63.6347 125.449 63.512 125.588 63.352C125.726 63.192 125.796 62.968 125.796 62.68C125.796 62.36 125.689 62.12 125.476 61.96C125.273 61.8 124.99 61.6827 124.628 61.608C124.372 61.5547 124.105 61.5067 123.828 61.464C123.561 61.4107 123.289 61.3573 123.012 61.304C122.745 61.24 122.484 61.1707 122.228 61.096C121.972 61.0107 121.732 60.8987 121.508 60.76C121.209 60.5787 120.969 60.3333 120.788 60.024C120.606 59.7147 120.516 59.336 120.516 58.888C120.537 58.4187 120.644 58.0347 120.836 57.736C121.028 57.4267 121.273 57.176 121.572 56.984C121.892 56.792 122.233 56.6587 122.596 56.584C122.958 56.5093 123.342 56.472 123.748 56.472C124.612 56.472 125.3 56.6587 125.812 57.032C126.121 57.2453 126.361 57.5013 126.532 57.8C126.702 58.0987 126.809 58.4133 126.852 58.744H125.588C125.513 58.4347 125.31 58.184 124.98 57.992C124.649 57.8 124.228 57.6987 123.716 57.688ZM131.504 57.992H132.96L134.768 60.776L132.96 63.56H131.504L133.392 60.776L131.504 57.992ZM128.72 57.992H130.16L131.968 60.776L130.16 63.56H128.72L130.56 60.776L128.72 57.992ZM143.378 61.048C143.666 60.8027 143.981 60.536 144.322 60.248C144.674 59.9493 145 59.6293 145.298 59.288C145.608 58.9467 145.869 58.5893 146.082 58.216C146.296 57.832 146.408 57.416 146.418 56.968C146.44 56.2853 146.242 55.7627 145.826 55.4C145.41 55.0267 144.861 54.84 144.178 54.84C143.634 54.84 143.16 54.952 142.754 55.176C142.349 55.4 142.082 55.7253 141.954 56.152H140.466C140.541 55.7147 140.696 55.336 140.93 55.016C141.176 54.6853 141.469 54.4133 141.81 54.2C142.162 53.9867 142.546 53.8267 142.962 53.72C143.378 53.6133 143.805 53.56 144.242 53.56C144.765 53.56 145.245 53.6347 145.682 53.784C146.12 53.9227 146.498 54.1307 146.818 54.408C147.138 54.6853 147.384 55.032 147.554 55.448C147.736 55.8533 147.826 56.3173 147.826 56.84C147.826 57.3627 147.746 57.832 147.586 58.248C147.437 58.664 147.229 59.048 146.962 59.4C146.706 59.752 146.413 60.0827 146.082 60.392C145.752 60.7013 145.41 61.0107 145.058 61.32L142.194 63.736H147.954V65H140.178V63.848L143.378 61.048ZM158.505 59.352C158.505 60.0773 158.43 60.7867 158.281 61.48C158.142 62.1733 157.902 62.792 157.561 63.336C157.219 63.8693 156.766 64.3013 156.201 64.632C155.635 64.9627 154.931 65.128 154.089 65.128C153.235 65.128 152.526 64.9627 151.961 64.632C151.395 64.3013 150.942 63.8693 150.601 63.336C150.259 62.792 150.019 62.184 149.881 61.512C149.742 60.84 149.673 60.12 149.673 59.352C149.673 58.584 149.742 57.864 149.881 57.192C150.019 56.5093 150.259 55.9013 150.601 55.368C150.942 54.8347 151.395 54.4027 151.961 54.072C152.526 53.7307 153.235 53.56 154.089 53.56C154.931 53.56 155.635 53.7253 156.201 54.056C156.766 54.3867 157.219 54.824 157.561 55.368C157.902 55.912 158.142 56.5307 158.281 57.224C158.43 57.9173 158.505 58.6267 158.505 59.352ZM151.097 59.352C151.097 59.864 151.134 60.3867 151.209 60.92C151.283 61.4533 151.427 61.9387 151.641 62.376C151.854 62.8133 152.153 63.1707 152.537 63.448C152.931 63.7253 153.449 63.864 154.089 63.864C154.718 63.864 155.225 63.7253 155.609 63.448C156.003 63.1707 156.307 62.8133 156.521 62.376C156.734 61.9387 156.878 61.4533 156.953 60.92C157.027 60.3867 157.065 59.864 157.065 59.352C157.065 58.8507 157.027 58.3333 156.953 57.8C156.878 57.2667 156.734 56.7813 156.521 56.344C156.307 55.896 156.003 55.5333 155.609 55.256C155.225 54.968 154.718 54.824 154.089 54.824C153.449 54.824 152.931 54.968 152.537 55.256C152.153 55.5333 151.854 55.896 151.641 56.344C151.427 56.7813 151.283 57.2667 151.209 57.8C151.134 58.3333 151.097 58.8507 151.097 59.352ZM163.497 65H162.105V55.928H159.801V54.984C160.121 54.9627 160.415 54.936 160.681 54.904C160.948 54.8613 161.193 54.792 161.417 54.696C161.641 54.6 161.844 54.472 162.025 54.312C162.207 54.152 162.372 53.944 162.521 53.688H163.497V65ZM169.87 65.128C169.422 65.128 168.969 65.0853 168.51 65C168.062 64.9147 167.641 64.7707 167.246 64.568C166.862 64.3547 166.531 64.0773 166.254 63.736C165.987 63.3947 165.817 62.9733 165.742 62.472H167.182C167.278 62.7493 167.422 62.9787 167.614 63.16C167.817 63.3307 168.041 63.4693 168.286 63.576C168.542 63.6827 168.809 63.7573 169.086 63.8C169.363 63.8427 169.63 63.864 169.886 63.864C170.121 63.864 170.387 63.8427 170.686 63.8C170.985 63.7573 171.262 63.6667 171.518 63.528C171.785 63.3893 172.003 63.1867 172.174 62.92C172.355 62.6427 172.446 62.28 172.446 61.832C172.446 61.4053 172.361 61.064 172.19 60.808C172.03 60.552 171.817 60.3547 171.55 60.216C171.294 60.0773 171.001 59.9867 170.67 59.944C170.35 59.9013 170.025 59.88 169.694 59.88H168.606V58.632H169.262C169.55 58.632 169.817 58.6267 170.062 58.616C170.307 58.5947 170.579 58.52 170.878 58.392C171.219 58.232 171.491 58.008 171.694 57.72C171.897 57.4213 172.003 57.08 172.014 56.696C172.014 56.312 171.95 55.9973 171.822 55.752C171.694 55.5067 171.523 55.3147 171.31 55.176C171.097 55.0373 170.857 54.9467 170.59 54.904C170.323 54.8507 170.051 54.824 169.774 54.824C169.55 54.824 169.315 54.8507 169.07 54.904C168.835 54.9467 168.611 55.0213 168.398 55.128C168.195 55.2347 168.014 55.3787 167.854 55.56C167.694 55.7307 167.582 55.9387 167.518 56.184H166.126C166.19 55.7147 166.339 55.3147 166.574 54.984C166.809 54.6533 167.097 54.3813 167.438 54.168C167.79 53.9547 168.174 53.8 168.59 53.704C169.017 53.608 169.449 53.56 169.886 53.56C170.366 53.56 170.814 53.6133 171.23 53.72C171.657 53.816 172.03 53.9813 172.35 54.216C172.67 54.44 172.921 54.7387 173.102 55.112C173.294 55.4853 173.39 55.9387 173.39 56.472C173.39 56.6747 173.369 56.8933 173.326 57.128C173.283 57.352 173.203 57.576 173.086 57.8C172.969 58.024 172.798 58.248 172.574 58.472C172.35 58.696 172.057 58.8827 171.694 59.032C172.409 59.1707 172.953 59.4853 173.326 59.976C173.699 60.456 173.886 61.0373 173.886 61.72V61.784C173.886 62.3707 173.779 62.8773 173.566 63.304C173.363 63.72 173.081 64.0667 172.718 64.344C172.355 64.6107 171.929 64.808 171.438 64.936C170.947 65.064 170.425 65.128 169.87 65.128Z" fill="white"/>
</svg>
