<svg width="161" height="53" viewBox="0 0 161 53" fill="none" xmlns="http://www.w3.org/2000/svg">
<path d="M21.1938 22.7299L21.306 22.7687C21.3281 22.8606 21.3477 22.9927 21.2114 22.9821L21.1719 22.9366C21.1472 22.8587 21.1696 22.8059 21.1938 22.7299Z" fill="#9C9C9C"/>
<path d="M25.6379 15.8317C26.2012 15.8633 27.8589 16.7893 27.644 17.101C27.5137 17.29 26.3479 17.5248 26.0921 17.5513C25.2929 17.6183 23.7722 16.4593 24.151 16.145C24.4034 15.9356 25.3125 15.8153 25.6379 15.8317Z" fill="#9C9C9C"/>
<path d="M30.5479 36.8048C30.9595 36.8181 32.7236 37.5732 32.3875 37.9153C32.0625 38.2457 31.0502 38.4602 30.5869 38.4618C29.8852 38.4095 29.0598 37.9404 28.6577 37.3886C29.1934 36.9548 29.8661 36.8093 30.5479 36.8048Z" fill="#9C9C9C"/>
<path d="M28.1754 31.7587C28.7119 32.6214 28.6608 34.2157 27.8472 34.9356C27.6422 35.1171 27.3502 35.3496 27.0607 35.3357C25.9742 34.4093 27.1493 32.1709 28.1754 31.7587Z" fill="#9C9C9C"/>
<path d="M23.6111 34.3441C24.071 34.356 24.684 34.653 25.2137 34.7382C24.7012 35.663 23.7215 36.0213 22.6781 35.888C22.0769 35.806 21.3948 35.5535 21.1076 34.9955C21.7464 34.4713 22.7892 34.2882 23.6111 34.3441Z" fill="#9C9C9C"/>
<path d="M24.2266 23.1836C24.4814 23.2299 24.7715 26.0829 22.5213 26.9162C22.4223 26.953 22.3629 26.9669 22.2635 26.9228C21.5122 25.3529 22.7007 23.7511 24.2266 23.1836Z" fill="#9C9C9C"/>
<path d="M21.1952 22.7295C21.2429 20.248 22.6369 19.06 25.2057 19.4793C24.763 21.5105 21.4728 21.9939 21.3072 22.7682L21.1952 22.7295Z" fill="#9C9C9C"/>
<path d="M18.9488 16.103C20.4402 16.8296 21.2293 18.4806 20.9368 20.0696C20.9053 20.2403 20.859 20.3602 20.7082 20.4637C20.1537 20.7298 19.3677 19.7038 19.1413 19.3267C18.5212 18.2938 18.6533 17.2051 18.9488 16.103Z" fill="#9C9C9C"/>
<path d="M28.3011 9.71159C28.5006 9.71331 28.402 10.1551 28.3886 10.2882C28.2231 11.9318 26.8544 13.4037 25.2767 13.9421C24.9796 13.8971 25.3502 12.5747 25.415 12.3628C25.8142 11.0582 27.0348 10.1648 28.3011 9.71159Z" fill="#9C9C9C"/>
<path d="M26.451 37.2901C26.9512 37.3119 29.1237 38.2214 28.3233 38.8294C27.6534 39.3383 26.6584 39.5694 25.8226 39.4675C25.5464 39.4324 25.2126 39.4041 24.9629 39.2819C24.7189 39.1623 23.4393 38.4928 23.7936 38.1631C24.4834 37.5212 25.5121 37.2482 26.451 37.2901Z" fill="#9C9C9C"/>
<path d="M22.6063 10.9845C23.9661 12.1305 24.5131 14.8627 23.007 16.0755C22.2123 16.493 21.6912 14.3034 21.6932 13.8477C21.6962 13.1622 22.1665 11.4063 22.6063 10.9845Z" fill="#9C9C9C"/>
<path d="M19.7207 28.6911C21.7311 28.8561 22.9149 30.5335 23.3037 32.3159C22.8896 32.3082 22.4658 32.223 22.0567 32.1629C20.1804 31.9055 19.0784 30.8304 18.517 29.0713C18.3336 28.4968 19.2738 28.6661 19.7207 28.6911Z" fill="#9C9C9C"/>
<path d="M25.0511 28.1407C25.4181 28.1616 25.9909 29.193 26.1598 29.496C26.5309 30.1609 26.9221 32.1018 26.0751 32.5277C25.7899 32.5182 25.5119 32.4614 25.2326 32.4094C24.6863 32.2895 24.3641 32.0537 23.7569 32.0341C22.7731 30.825 23.8043 28.8663 25.0511 28.1407Z" fill="#9C9C9C"/>
<path d="M17.4055 22.9778C17.7018 23.0683 18.0228 23.1145 18.3253 23.1878C20.258 23.6556 20.8489 24.8988 21.417 26.5679C21.501 26.8145 22.0545 28.1227 22.0332 28.2034C21.9277 28.1291 21.8743 28.0354 21.8082 27.9299C21.1148 26.8211 19.2033 27.618 17.9122 25.305C17.5904 24.7284 17.2206 23.5782 17.4055 22.9778Z" fill="#9C9C9C"/>
<path d="M139.496 22.7299L139.383 22.7687C139.361 22.8606 139.342 22.9927 139.478 22.9821L139.518 22.9366C139.542 22.8587 139.52 22.8059 139.496 22.7299Z" fill="#9C9C9C"/>
<path d="M135.052 15.8317C134.488 15.8633 132.831 16.7893 133.045 17.101C133.176 17.29 134.342 17.5248 134.597 17.5513C135.397 17.6183 136.917 16.4593 136.538 16.145C136.286 15.9356 135.377 15.8153 135.052 15.8317Z" fill="#9C9C9C"/>
<path d="M130.147 36.8048C129.736 36.8181 127.972 37.5732 128.308 37.9153C128.633 38.2457 129.645 38.4602 130.108 38.4618C130.81 38.4095 131.636 37.9404 132.038 37.3886C131.502 36.9548 130.829 36.8093 130.147 36.8048Z" fill="#9C9C9C"/>
<path d="M132.514 31.7587C131.978 32.6214 132.029 34.2157 132.842 34.9356C133.047 35.1171 133.339 35.3496 133.629 35.3357C134.715 34.4093 133.54 32.1709 132.514 31.7587Z" fill="#9C9C9C"/>
<path d="M137.08 34.3441C136.62 34.356 136.007 34.653 135.478 34.7382C135.99 35.663 136.97 36.0213 138.013 35.888C138.614 35.806 139.297 35.5535 139.584 34.9955C138.945 34.4713 137.902 34.2882 137.08 34.3441Z" fill="#9C9C9C"/>
<path d="M136.463 23.1836C136.208 23.2299 135.918 26.0829 138.168 26.9162C138.267 26.953 138.327 26.9669 138.426 26.9228C139.177 25.3529 137.989 23.7511 136.463 23.1836Z" fill="#9C9C9C"/>
<path d="M139.494 22.7295C139.447 20.248 138.053 19.06 135.484 19.4793C135.926 21.5105 139.217 21.9939 139.382 22.7682L139.494 22.7295Z" fill="#9C9C9C"/>
<path d="M141.745 16.103C140.253 16.8296 139.464 18.4806 139.757 20.0696C139.788 20.2403 139.834 20.3602 139.985 20.4637C140.54 20.7298 141.326 19.7038 141.552 19.3267C142.172 18.2938 142.04 17.2051 141.745 16.103Z" fill="#9C9C9C"/>
<path d="M132.388 9.71159C132.189 9.71331 132.287 10.1551 132.301 10.2882C132.466 11.9318 133.835 13.4037 135.413 13.9421C135.71 13.8971 135.339 12.5747 135.274 12.3628C134.875 11.0582 133.655 10.1648 132.388 9.71159Z" fill="#9C9C9C"/>
<path d="M134.242 37.2901C133.742 37.3119 131.57 38.2214 132.37 38.8294C133.04 39.3383 134.035 39.5694 134.871 39.4675C135.147 39.4324 135.481 39.4041 135.73 39.2819C135.974 39.1623 137.254 38.4928 136.9 38.1631C136.21 37.5212 135.181 37.2482 134.242 37.2901Z" fill="#9C9C9C"/>
<path d="M138.087 10.9845C136.727 12.1305 136.18 14.8627 137.686 16.0755C138.481 16.493 139.002 14.3034 139 13.8477C138.997 13.1622 138.527 11.4063 138.087 10.9845Z" fill="#9C9C9C"/>
<path d="M140.975 28.6911C138.964 28.8561 137.78 30.5335 137.392 32.3159C137.806 32.3082 138.229 32.223 138.639 32.1629C140.515 31.9055 141.617 30.8304 142.178 29.0713C142.362 28.4968 141.422 28.6661 140.975 28.6911Z" fill="#9C9C9C"/>
<path d="M135.642 28.1407C135.275 28.1616 134.702 29.193 134.534 29.496C134.162 30.1609 133.771 32.1018 134.618 32.5277C134.903 32.5182 135.182 32.4614 135.461 32.4094C136.007 32.2895 136.329 32.0537 136.936 32.0341C137.92 30.825 136.889 28.8663 135.642 28.1407Z" fill="#9C9C9C"/>
<path d="M143.29 22.9778C142.993 23.0683 142.673 23.1145 142.37 23.1878C140.437 23.6556 139.846 24.8988 139.278 26.5679C139.194 26.8145 138.641 28.1227 138.662 28.2034C138.768 28.1291 138.821 28.0354 138.887 27.9299C139.581 26.8211 141.492 27.618 142.783 25.305C143.105 24.7284 143.475 23.5782 143.29 22.9778Z" fill="#9C9C9C"/>
<path d="M37.5536 15.8236H36.8215L35.9125 14.4238L36.8215 13.024H37.5536L36.6043 14.4238L37.5536 15.8236ZM38.9534 15.8236H38.2293L37.3203 14.4238L38.2293 13.024H38.9534L38.0282 14.4238L38.9534 15.8236ZM40.2935 16.1454C40.1326 16.0113 40.0066 15.8558 39.9154 15.6788C39.8296 15.4964 39.784 15.298 39.7786 15.0835H40.4785C40.4892 15.2497 40.559 15.4106 40.6877 15.5662C40.7681 15.6573 40.862 15.7297 40.9692 15.7834C41.0765 15.837 41.1864 15.8799 41.2991 15.9121C41.417 15.9389 41.5324 15.9577 41.645 15.9684C41.7576 15.9738 41.8568 15.9764 41.9426 15.9764C42.0767 15.9764 42.2242 15.9657 42.3851 15.9443C42.5513 15.9228 42.7042 15.8772 42.8436 15.8075C42.9884 15.7378 43.1091 15.6359 43.2056 15.5018C43.3022 15.3624 43.3505 15.18 43.3505 14.9548C43.3505 14.7295 43.3022 14.5498 43.2056 14.4158C43.1145 14.2763 43.0018 14.1744 42.8678 14.1101C42.7283 14.0404 42.5701 14.0001 42.3931 13.9894C42.2162 13.9787 42.0579 13.9733 41.9185 13.9733H41.2267V13.3458H41.6369C41.7925 13.3458 41.9534 13.3378 42.1196 13.3217C42.2912 13.3002 42.4494 13.252 42.5943 13.1769C42.7444 13.1018 42.8705 12.9972 42.9724 12.8632C43.0743 12.7291 43.1279 12.5655 43.1332 12.3724C43.1332 12.1794 43.0957 12.0211 43.0206 11.8978C42.9509 11.7744 42.8544 11.6779 42.731 11.6082C42.6077 11.5385 42.4736 11.4929 42.3288 11.4714C42.1893 11.4446 42.0499 11.4312 41.9105 11.4312C41.7281 11.4312 41.5511 11.4527 41.3795 11.4956C41.2079 11.5385 41.0604 11.6082 40.9371 11.7047C40.8459 11.7798 40.7708 11.8656 40.7118 11.9621C40.6582 12.0587 40.6314 12.1686 40.6314 12.292H39.9315V12.2276C39.9315 12.1096 39.9583 11.9809 40.0119 11.8415C40.0655 11.702 40.1326 11.576 40.213 11.4634C40.4115 11.222 40.6635 11.0504 40.9692 10.9485C41.2749 10.8466 41.6048 10.7957 41.9587 10.7957C42.2001 10.7957 42.4307 10.8225 42.6506 10.8761C42.8758 10.9244 43.0743 11.0075 43.2459 11.1255C43.4175 11.2381 43.5542 11.3883 43.6561 11.576C43.7634 11.7637 43.817 11.9916 43.817 12.2598C43.817 12.3617 43.8063 12.469 43.7849 12.5816C43.7688 12.6942 43.7312 12.8068 43.6722 12.9195C43.6132 13.0321 43.5274 13.142 43.4148 13.2493C43.3075 13.3566 43.1627 13.4531 42.9804 13.5389C43.1467 13.5711 43.2968 13.6301 43.4309 13.7159C43.5703 13.8017 43.6856 13.9063 43.7768 14.0296C43.868 14.153 43.9377 14.2897 43.986 14.4399C44.0396 14.5901 44.0664 14.7483 44.0664 14.9145V14.9628C44.0611 15.2631 43.9967 15.5179 43.8734 15.7271C43.75 15.9362 43.5891 16.1078 43.3907 16.2419C43.1976 16.3706 42.975 16.4645 42.723 16.5235C42.4709 16.5825 42.2108 16.612 41.9426 16.612C41.6262 16.612 41.3232 16.5771 41.0336 16.5074C40.7493 16.4377 40.5026 16.317 40.2935 16.1454ZM46.8658 12.2598C47.2037 12.2598 47.4959 12.3134 47.7426 12.4207C47.9894 12.528 48.1958 12.6781 48.3621 12.8712C48.5337 13.0643 48.6597 13.2949 48.7402 13.563C48.826 13.8258 48.8689 14.1154 48.8689 14.4319C48.8689 14.7483 48.826 15.0406 48.7402 15.3087C48.6597 15.5715 48.5337 15.7995 48.3621 15.9925C48.1958 16.1802 47.9867 16.3277 47.7346 16.435C47.4825 16.5422 47.1876 16.5959 46.8497 16.5959C46.5118 16.5959 46.2168 16.5422 45.9648 16.435C45.7181 16.3277 45.5089 16.1802 45.3373 15.9925C45.171 15.7995 45.045 15.5715 44.9592 15.3087C44.8787 15.0406 44.8385 14.7483 44.8385 14.4319C44.8385 14.1154 44.8787 13.8258 44.9592 13.563C45.045 13.2949 45.171 13.0643 45.3373 12.8712C45.5089 12.6781 45.7208 12.528 45.9728 12.4207C46.2249 12.3134 46.5225 12.2598 46.8658 12.2598ZM46.8497 15.9925C47.0803 15.9925 47.2787 15.9523 47.445 15.8719C47.6166 15.7914 47.7561 15.6815 47.8633 15.542C47.9759 15.3972 48.0564 15.231 48.1047 15.0433C48.1583 14.8555 48.1851 14.6517 48.1851 14.4319C48.1851 14.2173 48.1583 14.0162 48.1047 13.8285C48.0564 13.6354 47.9759 13.4692 47.8633 13.3297C47.7561 13.1849 47.6166 13.0723 47.445 12.9919C47.2787 12.9114 47.0803 12.8712 46.8497 12.8712C46.6191 12.8712 46.4206 12.9114 46.2544 12.9919C46.0881 13.0723 45.9487 13.1849 45.8361 13.3297C45.7288 13.4692 45.6484 13.6354 45.5947 13.8285C45.5465 14.0162 45.5223 14.2173 45.5223 14.4319C45.5223 14.6517 45.5465 14.8555 45.5947 15.0433C45.6484 15.231 45.7288 15.3972 45.8361 15.542C45.9487 15.6815 46.0881 15.7914 46.2544 15.8719C46.4206 15.9523 46.6191 15.9925 46.8497 15.9925ZM50.1387 14.5606C50.1655 14.1744 50.1843 13.799 50.195 13.4343C50.2111 13.0696 50.2218 12.6942 50.2272 12.3081H53.1715V16.5476H52.4877V12.9114H50.8949L50.8225 14.5767C50.8118 14.7912 50.7876 15.0325 50.7501 15.3007C50.7126 15.5688 50.6348 15.8129 50.5168 16.0327C50.4256 16.1883 50.3023 16.3143 50.1467 16.4108C49.9912 16.5074 49.8116 16.5557 49.6078 16.5557H49.3584V15.9523C49.5729 15.9523 49.7445 15.8611 49.8732 15.6788C49.9483 15.5715 50.0073 15.416 50.0502 15.2122C50.0931 15.0084 50.1226 14.7912 50.1387 14.5606ZM56.1124 12.2598C56.4503 12.2598 56.7426 12.3134 56.9893 12.4207C57.236 12.528 57.4425 12.6781 57.6087 12.8712C57.7804 13.0643 57.9064 13.2949 57.9868 13.563C58.0726 13.8258 58.1156 14.1154 58.1156 14.4319C58.1156 14.7483 58.0726 15.0406 57.9868 15.3087C57.9064 15.5715 57.7804 15.7995 57.6087 15.9925C57.4425 16.1802 57.2333 16.3277 56.9813 16.435C56.7292 16.5422 56.4342 16.5959 56.0963 16.5959C55.7585 16.5959 55.4635 16.5422 55.2114 16.435C54.9647 16.3277 54.7556 16.1802 54.5839 15.9925C54.4177 15.7995 54.2917 15.5715 54.2058 15.3087C54.1254 15.0406 54.0852 14.7483 54.0852 14.4319C54.0852 14.1154 54.1254 13.8258 54.2058 13.563C54.2917 13.2949 54.4177 13.0643 54.5839 12.8712C54.7556 12.6781 54.9674 12.528 55.2195 12.4207C55.4715 12.3134 55.7692 12.2598 56.1124 12.2598ZM56.0963 15.9925C56.327 15.9925 56.5254 15.9523 56.6916 15.8719C56.8633 15.7914 57.0027 15.6815 57.11 15.542C57.2226 15.3972 57.303 15.231 57.3513 15.0433C57.4049 14.8555 57.4318 14.6517 57.4318 14.4319C57.4318 14.2173 57.4049 14.0162 57.3513 13.8285C57.303 13.6354 57.2226 13.4692 57.11 13.3297C57.0027 13.1849 56.8633 13.0723 56.6916 12.9919C56.5254 12.9114 56.327 12.8712 56.0963 12.8712C55.8657 12.8712 55.6673 12.9114 55.501 12.9919C55.3348 13.0723 55.1953 13.1849 55.0827 13.3297C54.9755 13.4692 54.895 13.6354 54.8414 13.8285C54.7931 14.0162 54.769 14.2173 54.769 14.4319C54.769 14.6517 54.7931 14.8555 54.8414 15.0433C54.895 15.231 54.9755 15.3972 55.0827 15.542C55.1953 15.6815 55.3348 15.7914 55.501 15.8719C55.6673 15.9523 55.8657 15.9925 56.0963 15.9925ZM62.1598 12.3081V12.9114H60.7037V16.5476H60.0199V12.9114H58.5639V12.3081H62.1598ZM64.6363 12.2598C64.9742 12.2598 65.2665 12.3134 65.5132 12.4207C65.7599 12.528 65.9664 12.6781 66.1326 12.8712C66.3042 13.0643 66.4303 13.2949 66.5107 13.563C66.5965 13.8258 66.6394 14.1154 66.6394 14.4319C66.6394 14.7483 66.5965 15.0406 66.5107 15.3087C66.4303 15.5715 66.3042 15.7995 66.1326 15.9925C65.9664 16.1802 65.7572 16.3277 65.5051 16.435C65.2531 16.5422 64.9581 16.5959 64.6202 16.5959C64.2824 16.5959 63.9874 16.5422 63.7353 16.435C63.4886 16.3277 63.2795 16.1802 63.1078 15.9925C62.9416 15.7995 62.8155 15.5715 62.7297 15.3087C62.6493 15.0406 62.6091 14.7483 62.6091 14.4319C62.6091 14.1154 62.6493 13.8258 62.7297 13.563C62.8155 13.2949 62.9416 13.0643 63.1078 12.8712C63.2795 12.6781 63.4913 12.528 63.7434 12.4207C63.9954 12.3134 64.2931 12.2598 64.6363 12.2598ZM64.6202 15.9925C64.8508 15.9925 65.0493 15.9523 65.2155 15.8719C65.3872 15.7914 65.5266 15.6815 65.6339 15.542C65.7465 15.3972 65.8269 15.231 65.8752 15.0433C65.9288 14.8555 65.9556 14.6517 65.9556 14.4319C65.9556 14.2173 65.9288 14.0162 65.8752 13.8285C65.8269 13.6354 65.7465 13.4692 65.6339 13.3297C65.5266 13.1849 65.3872 13.0723 65.2155 12.9919C65.0493 12.9114 64.8508 12.8712 64.6202 12.8712C64.3896 12.8712 64.1912 12.9114 64.0249 12.9919C63.8587 13.0723 63.7192 13.1849 63.6066 13.3297C63.4993 13.4692 63.4189 13.6354 63.3653 13.8285C63.317 14.0162 63.2929 14.2173 63.2929 14.4319C63.2929 14.6517 63.317 14.8555 63.3653 15.0433C63.4189 15.231 63.4993 15.3972 63.6066 15.542C63.7192 15.6815 63.8587 15.7914 64.0249 15.8719C64.1912 15.9523 64.3896 15.9925 64.6202 15.9925ZM69.477 11.222C69.7023 11.222 69.8819 11.1791 70.016 11.0933C70.1554 11.0075 70.2252 10.8573 70.2252 10.6428H70.8526C70.8419 11.029 70.7132 11.3105 70.4665 11.4875C70.2252 11.6645 69.8927 11.753 69.469 11.753C69.0453 11.753 68.7128 11.6645 68.4714 11.4875C68.2355 11.3105 68.1121 11.029 68.1014 10.6428H68.7289C68.7342 10.8573 68.8039 11.0075 68.938 11.0933C69.0721 11.1791 69.2518 11.222 69.477 11.222ZM68.222 16.5476H67.5543V12.3081H68.2381V15.5581C68.2757 15.483 68.3266 15.4026 68.391 15.3168C68.4553 15.2256 68.5063 15.1559 68.5438 15.1076L70.5952 12.3081H71.271V16.5476H70.5872V13.2976C70.5443 13.378 70.496 13.4558 70.4424 13.5309C70.3941 13.6006 70.3485 13.6623 70.3056 13.7159L68.222 16.5476ZM74.5149 16.5476V12.3081H78.0304V16.5476H77.3466V12.9114H75.1987V16.5476H74.5149ZM81.9022 16.0086C81.811 16.132 81.7064 16.2312 81.5884 16.3063C81.4705 16.3814 81.3471 16.4403 81.2184 16.4833C81.095 16.5262 80.969 16.5557 80.8403 16.5717C80.7169 16.5878 80.5936 16.5959 80.4702 16.5959C80.2718 16.5959 80.0841 16.5717 79.9071 16.5235C79.7301 16.4752 79.5692 16.3974 79.4244 16.2902C79.285 16.1829 79.1724 16.0488 79.0866 15.8879C79.0061 15.7271 78.9659 15.5447 78.9659 15.3409C78.9659 15.0996 79.0088 14.8985 79.0946 14.7376C79.1858 14.5713 79.3064 14.4372 79.4566 14.3353C79.6068 14.2334 79.7784 14.1637 79.9715 14.1262C80.1699 14.0833 80.3791 14.0618 80.5989 14.0618H81.8459C81.8459 13.7025 81.7681 13.4182 81.6126 13.2091C81.457 12.9945 81.1943 12.8819 80.8242 12.8712C80.5989 12.8712 80.4005 12.9087 80.2289 12.9838C80.0573 13.0589 79.9393 13.1823 79.8749 13.3539H79.1429C79.1804 13.1608 79.2555 12.9972 79.3681 12.8632C79.4807 12.7237 79.6148 12.6111 79.7703 12.5253C79.9259 12.4341 80.0948 12.3671 80.2772 12.3242C80.4595 12.2813 80.6419 12.2598 80.8242 12.2598C81.1406 12.2598 81.4061 12.3134 81.6206 12.4207C81.8405 12.5226 82.0175 12.6594 82.1516 12.831C82.2856 12.9972 82.3795 13.201 82.4331 13.4424C82.4868 13.6837 82.5136 13.9545 82.5136 14.2549V16.5476H81.9424L81.9022 16.0086ZM81.0977 14.633C80.969 14.633 80.8188 14.6357 80.6472 14.641C80.481 14.641 80.3201 14.6571 80.1645 14.6893C80.009 14.7215 79.883 14.7885 79.7864 14.8904C79.6953 14.9923 79.6497 15.1264 79.6497 15.2926C79.6497 15.416 79.6738 15.5206 79.7221 15.6064C79.7703 15.6922 79.8347 15.7646 79.9152 15.8236C80.001 15.8826 80.0975 15.9255 80.2048 15.9523C80.312 15.9791 80.422 15.9925 80.5346 15.9925C80.9368 15.9925 81.2532 15.896 81.4839 15.7029C81.7198 15.5045 81.8405 15.2176 81.8459 14.8421V14.633H81.0977ZM86.0909 14.271C86.3645 14.3568 86.5549 14.4909 86.6621 14.6732C86.7694 14.8555 86.823 15.0728 86.823 15.3248C86.8176 15.5501 86.764 15.7431 86.6621 15.904C86.5656 16.0649 86.4369 16.1963 86.276 16.2982C86.1151 16.4001 85.9327 16.4752 85.7289 16.5235C85.5251 16.5717 85.316 16.5959 85.1014 16.5959C84.8977 16.5959 84.6912 16.5771 84.482 16.5396C84.2782 16.502 84.0932 16.4377 83.9269 16.3465C83.7607 16.2553 83.6212 16.1346 83.5086 15.9845C83.4013 15.8343 83.3423 15.6439 83.3316 15.4133H83.9993C84.0208 15.5259 84.0717 15.6198 84.1522 15.6949C84.2326 15.7646 84.3265 15.8236 84.4337 15.8719C84.5464 15.9148 84.6617 15.9469 84.7797 15.9684C84.903 15.9845 85.013 15.9925 85.1095 15.9925C85.2221 15.9925 85.3374 15.9845 85.4554 15.9684C85.5788 15.9523 85.6914 15.9201 85.7933 15.8719C85.8952 15.8236 85.9783 15.7565 86.0427 15.6707C86.107 15.5796 86.1392 15.4643 86.1392 15.3248C86.1392 15.2122 86.1151 15.1103 86.0668 15.0191C86.0185 14.9226 85.9435 14.8502 85.8416 14.8019C85.7504 14.759 85.6458 14.7349 85.5278 14.7295C85.4098 14.7188 85.2999 14.7134 85.198 14.7134H84.4418V14.1101H85.0612C85.1631 14.1101 85.2677 14.102 85.375 14.0859C85.4822 14.0645 85.5788 14.0296 85.6646 13.9814C85.7557 13.9331 85.8282 13.8714 85.8818 13.7963C85.9408 13.7159 85.973 13.6033 85.9783 13.4585C85.9783 13.3458 85.9515 13.252 85.8979 13.1769C85.8496 13.1018 85.7826 13.0428 85.6968 12.9999C85.6163 12.9516 85.5225 12.9195 85.4152 12.9034C85.3133 12.8819 85.2114 12.8712 85.1095 12.8712C85.013 12.8712 84.9111 12.8792 84.8038 12.8953C84.6965 12.9061 84.5973 12.9329 84.5061 12.9758C84.415 13.0133 84.3372 13.0669 84.2728 13.1367C84.2085 13.2064 84.1683 13.2976 84.1522 13.4102H83.4764C83.4818 13.1957 83.5327 13.016 83.6293 12.8712C83.7312 12.721 83.8599 12.603 84.0154 12.5172C84.1709 12.4261 84.3426 12.3617 84.5303 12.3242C84.7233 12.2813 84.9137 12.2598 85.1014 12.2598C85.2892 12.2598 85.4742 12.2786 85.6565 12.3161C85.8442 12.3537 86.0105 12.418 86.1553 12.5092C86.3001 12.595 86.4181 12.7103 86.5093 12.8551C86.6004 12.9999 86.646 13.1796 86.646 13.3941C86.646 13.5872 86.6004 13.7588 86.5093 13.909C86.4181 14.0591 86.2787 14.1798 86.0909 14.271ZM88.0602 14.5606C88.087 14.1744 88.1058 13.799 88.1165 13.4343C88.1326 13.0696 88.1433 12.6942 88.1487 12.3081H91.093V16.5476H90.4092V12.9114H88.8164L88.744 14.5767C88.7333 14.7912 88.7091 15.0325 88.6716 15.3007C88.634 15.5688 88.5563 15.8129 88.4383 16.0327C88.3471 16.1883 88.2238 16.3143 88.0682 16.4108C87.9127 16.5074 87.733 16.5557 87.5292 16.5557H87.2799V15.9523C87.4944 15.9523 87.666 15.8611 87.7947 15.6788C87.8698 15.5715 87.9288 15.416 87.9717 15.2122C88.0146 15.0084 88.0441 14.7912 88.0602 14.5606ZM94.3922 13.9653H99.3074V14.5928H94.3922V13.9653ZM102.769 10.86H106.59V11.4956H103.469V13.4102H106.277V14.0538H103.469V15.9121H106.59V16.5476H102.769V10.86ZM107.036 12.3081H107.808L109.143 15.8879L110.455 12.3081H111.235L109.602 16.5476H108.669L107.036 12.3081ZM112.362 14.6812C112.378 14.869 112.416 15.0433 112.475 15.2041C112.539 15.3597 112.625 15.4964 112.732 15.6144C112.84 15.7324 112.971 15.8263 113.127 15.896C113.288 15.9603 113.473 15.9925 113.682 15.9925C113.784 15.9925 113.888 15.9845 113.995 15.9684C114.108 15.9469 114.213 15.9148 114.309 15.8719C114.406 15.8236 114.492 15.7619 114.567 15.6868C114.642 15.6117 114.698 15.5206 114.736 15.4133H115.435C115.387 15.6171 115.304 15.7941 115.186 15.9443C115.073 16.0944 114.937 16.2178 114.776 16.3143C114.62 16.4108 114.446 16.4833 114.253 16.5315C114.06 16.5744 113.864 16.5959 113.666 16.5959C113.328 16.5959 113.033 16.5422 112.781 16.435C112.534 16.3277 112.328 16.1802 112.161 15.9925C111.995 15.7995 111.872 15.5715 111.791 15.3087C111.711 15.0406 111.671 14.7483 111.671 14.4319C111.671 14.1154 111.713 13.8258 111.799 13.563C111.89 13.2949 112.019 13.0643 112.185 12.8712C112.352 12.6781 112.555 12.528 112.797 12.4207C113.038 12.3134 113.325 12.2598 113.658 12.2598C113.995 12.2598 114.288 12.3268 114.534 12.4609C114.781 12.595 114.98 12.772 115.13 12.9919C115.28 13.2064 115.384 13.4397 115.443 13.6918C115.508 13.9438 115.535 14.1771 115.524 14.3916C115.524 14.4399 115.521 14.4882 115.516 14.5364C115.516 14.5847 115.513 14.633 115.508 14.6812H112.362ZM114.832 14.0859C114.821 13.7266 114.709 13.4343 114.494 13.2091C114.28 12.9838 113.993 12.8712 113.633 12.8712C113.435 12.8712 113.261 12.9034 113.111 12.9677C112.96 13.0321 112.834 13.1206 112.732 13.2332C112.631 13.3458 112.55 13.4772 112.491 13.6274C112.432 13.7722 112.395 13.925 112.378 14.0859H114.832ZM116.443 16.5476V12.3081H117.103L117.135 12.9516C117.205 12.8337 117.29 12.7318 117.392 12.6459C117.499 12.5601 117.615 12.4877 117.738 12.4287C117.862 12.3697 117.99 12.3268 118.124 12.3C118.264 12.2732 118.398 12.2598 118.527 12.2598C118.832 12.2598 119.09 12.3108 119.299 12.4126C119.508 12.5092 119.674 12.6459 119.798 12.8229C119.921 12.9945 120.009 13.201 120.063 13.4424C120.117 13.6783 120.144 13.9331 120.144 14.2066V16.5476H119.46V14.3916C119.46 14.1932 119.446 14.0028 119.419 13.8205C119.398 13.6381 119.35 13.4772 119.275 13.3378C119.205 13.193 119.103 13.0777 118.969 12.9919C118.835 12.9061 118.655 12.8632 118.43 12.8632C118.21 12.8685 118.014 12.9221 117.843 13.024C117.676 13.1259 117.542 13.2466 117.441 13.3861C117.317 13.563 117.234 13.7588 117.191 13.9733C117.148 14.1825 117.127 14.3943 117.127 14.6088V16.5476H116.443ZM122.266 12.3081H123.569V12.9114H122.266V15.1157C122.266 15.239 122.271 15.3543 122.282 15.4616C122.298 15.5635 122.325 15.6546 122.362 15.7351C122.405 15.8102 122.464 15.8719 122.539 15.9201C122.62 15.963 122.727 15.9872 122.861 15.9925C122.985 15.9925 123.092 15.9711 123.183 15.9282C123.279 15.8853 123.36 15.8343 123.424 15.7753L123.722 16.2741C123.582 16.3921 123.438 16.4752 123.288 16.5235C123.137 16.5717 122.971 16.5959 122.789 16.5959C122.558 16.5959 122.365 16.5637 122.21 16.4993C122.054 16.4296 121.923 16.3304 121.815 16.2017C121.724 16.0783 121.663 15.9335 121.63 15.7673C121.598 15.601 121.582 15.4133 121.582 15.2041V12.9114H120.89V12.3081H121.582V11.037H122.266V12.3081ZM42.589 26.5476V21.4956H40.7628V20.86H45.115V21.4956H43.2889V26.5476H42.589ZM45.8996 24.6812C45.9157 24.869 45.9532 25.0433 46.0122 25.2041C46.0766 25.3597 46.1624 25.4964 46.2697 25.6144C46.3769 25.7324 46.5083 25.8263 46.6638 25.896C46.8247 25.9603 47.0098 25.9925 47.2189 25.9925C47.3208 25.9925 47.4254 25.9845 47.5327 25.9684C47.6453 25.9469 47.7499 25.9148 47.8464 25.8719C47.9429 25.8236 48.0288 25.7619 48.1038 25.6868C48.1789 25.6117 48.2352 25.5206 48.2728 25.4133H48.9727C48.9244 25.6171 48.8413 25.7941 48.7233 25.9443C48.6107 26.0944 48.4739 26.2178 48.313 26.3143C48.1575 26.4108 47.9832 26.4833 47.7901 26.5315C47.597 26.5744 47.4013 26.5959 47.2028 26.5959C46.865 26.5959 46.57 26.5422 46.3179 26.435C46.0712 26.3277 45.8647 26.1802 45.6985 25.9925C45.5322 25.7995 45.4089 25.5715 45.3284 25.3087C45.248 25.0406 45.2078 24.7483 45.2078 24.4319C45.2078 24.1154 45.2507 23.8258 45.3365 23.563C45.4276 23.2949 45.5564 23.0643 45.7226 22.8712C45.8889 22.6781 46.0927 22.528 46.334 22.4207C46.5754 22.3134 46.8623 22.2598 47.1948 22.2598C47.5327 22.2598 47.825 22.3268 48.0717 22.4609C48.3184 22.595 48.5168 22.772 48.667 22.9919C48.8171 23.2064 48.9217 23.4397 48.9807 23.6918C49.0451 23.9438 49.0719 24.1771 49.0612 24.3916C49.0612 24.4399 49.0585 24.4882 49.0531 24.5364C49.0531 24.5847 49.0504 24.633 49.0451 24.6812H45.8996ZM48.3693 24.0859C48.3586 23.7266 48.246 23.4343 48.0314 23.2091C47.8169 22.9838 47.53 22.8712 47.1707 22.8712C46.9722 22.8712 46.7979 22.9034 46.6478 22.9677C46.4976 23.0321 46.3716 23.1206 46.2697 23.2332C46.1678 23.3458 46.0873 23.4772 46.0283 23.6274C45.9693 23.7722 45.9318 23.925 45.9157 24.0859H48.3693ZM51.8688 26.5959C51.5309 26.5959 51.2386 26.5422 50.9919 26.435C50.7452 26.3277 50.5414 26.1776 50.3805 25.9845C50.2197 25.7914 50.099 25.5635 50.0185 25.3007C49.9381 25.0379 49.8979 24.751 49.8979 24.4399C49.8979 24.1396 49.9408 23.858 50.0266 23.5952C50.1124 23.3271 50.2384 23.0964 50.4047 22.9034C50.5709 22.7049 50.7801 22.5494 51.0322 22.4368C51.2842 22.3188 51.5899 22.2598 51.9493 22.2598C52.1638 22.2598 52.3542 22.2839 52.5204 22.3322C52.6867 22.3751 52.8422 22.4475 52.987 22.5494C53.1372 22.6459 53.2659 22.7747 53.3732 22.9356C53.4804 23.0964 53.5582 23.2922 53.6065 23.5228H52.9066C52.8261 23.2868 52.6974 23.1179 52.5204 23.016C52.3488 22.9141 52.145 22.8658 51.909 22.8712C51.6784 22.8712 51.4746 22.9168 51.2976 23.008C51.126 23.0938 50.9866 23.2091 50.8793 23.3539C50.7774 23.4987 50.7023 23.6676 50.6541 23.8607C50.6058 24.0484 50.5817 24.2415 50.5817 24.4399C50.5817 24.6491 50.6058 24.8475 50.6541 25.0352C50.7077 25.2229 50.7855 25.3892 50.8874 25.534C50.9946 25.6734 51.1314 25.786 51.2976 25.8719C51.4639 25.9523 51.6623 25.9925 51.8929 25.9925C52.0056 25.9925 52.1155 25.9818 52.2228 25.9603C52.3354 25.9389 52.4373 25.904 52.5285 25.8558C52.625 25.8021 52.7081 25.7324 52.7779 25.6466C52.8476 25.5608 52.8985 25.4562 52.9307 25.3329H53.6386C53.5957 25.5528 53.518 25.7431 53.4053 25.904C53.2981 26.0596 53.164 26.191 53.0031 26.2982C52.8422 26.4001 52.6652 26.4752 52.4722 26.5235C52.2791 26.5717 52.078 26.5959 51.8688 26.5959ZM54.5053 26.5476V20.86H55.1891V22.9597C55.2588 22.8524 55.3473 22.7532 55.4546 22.662C55.5619 22.5709 55.6745 22.4958 55.7925 22.4368C55.9105 22.3778 56.0392 22.3349 56.1786 22.3081C56.3234 22.2759 56.4629 22.2598 56.5969 22.2598C56.9026 22.2598 57.1574 22.3108 57.3612 22.4126C57.5703 22.5092 57.7366 22.6459 57.8599 22.8229C57.9887 22.9945 58.0772 23.201 58.1254 23.4424C58.1791 23.6783 58.2059 23.9358 58.2059 24.2147V26.5476H57.5221V24.4238C57.5221 24.2307 57.5113 24.043 57.4899 23.8607C57.4684 23.673 57.4202 23.5067 57.3451 23.3619C57.27 23.2171 57.1627 23.0991 57.0233 23.008C56.8839 22.9114 56.6935 22.8632 56.4521 22.8632C56.2537 22.8632 56.0687 22.9141 55.897 23.016C55.7308 23.1125 55.5967 23.2359 55.4948 23.3861C55.3715 23.5523 55.2883 23.7373 55.2454 23.9411C55.2079 24.1449 55.1891 24.3541 55.1891 24.5686V26.5476H54.5053ZM59.2583 26.5476V22.3081H59.9179L59.9501 22.9516C60.0198 22.8337 60.1056 22.7318 60.2075 22.6459C60.3148 22.5601 60.4301 22.4877 60.5535 22.4287C60.6768 22.3697 60.8055 22.3268 60.9396 22.3C61.079 22.2732 61.2131 22.2598 61.3418 22.2598C61.6475 22.2598 61.905 22.3108 62.1141 22.4126C62.3233 22.5092 62.4895 22.6459 62.6129 22.8229C62.7363 22.9945 62.8247 23.201 62.8784 23.4424C62.932 23.6783 62.9588 23.9331 62.9588 24.2066V26.5476H62.275V24.3916C62.275 24.1932 62.2616 24.0028 62.2348 23.8205C62.2133 23.6381 62.1651 23.4772 62.09 23.3378C62.0203 23.193 61.9184 23.0777 61.7843 22.9919C61.6502 22.9061 61.4706 22.8632 61.2453 22.8632C61.0254 22.8685 60.8297 22.9221 60.658 23.024C60.4918 23.1259 60.3577 23.2466 60.2558 23.3861C60.1325 23.563 60.0493 23.7588 60.0064 23.9733C59.9635 24.1825 59.9421 24.3943 59.9421 24.6088V26.5476H59.2583ZM65.8776 22.2598C66.2155 22.2598 66.5078 22.3134 66.7545 22.4207C67.0012 22.528 67.2076 22.6781 67.3739 22.8712C67.5455 23.0643 67.6715 23.2949 67.752 23.563C67.8378 23.8258 67.8807 24.1154 67.8807 24.4319C67.8807 24.7483 67.8378 25.0406 67.752 25.3087C67.6715 25.5715 67.5455 25.7995 67.3739 25.9925C67.2076 26.1802 66.9985 26.3277 66.7464 26.435C66.4943 26.5422 66.1994 26.5959 65.8615 26.5959C65.5236 26.5959 65.2286 26.5422 64.9766 26.435C64.7299 26.3277 64.5207 26.1802 64.3491 25.9925C64.1828 25.7995 64.0568 25.5715 63.971 25.3087C63.8906 25.0406 63.8503 24.7483 63.8503 24.4319C63.8503 24.1154 63.8906 23.8258 63.971 23.563C64.0568 23.2949 64.1828 23.0643 64.3491 22.8712C64.5207 22.6781 64.7352 22.528 64.9927 22.4207C65.2501 22.3134 65.5451 22.2598 65.8776 22.2598ZM65.8615 25.9925C66.0921 25.9925 66.2905 25.9523 66.4568 25.8719C66.6284 25.7914 66.7679 25.6815 66.8751 25.542C66.9877 25.3972 67.0682 25.231 67.1165 25.0433C67.1701 24.8555 67.1969 24.6517 67.1969 24.4319C67.1969 24.2173 67.1701 24.0162 67.1165 23.8285C67.0682 23.6354 66.9877 23.4692 66.8751 23.3297C66.7679 23.1849 66.6284 23.0723 66.4568 22.9919C66.2905 22.9114 66.0921 22.8712 65.8615 22.8712C65.6309 22.8712 65.4324 22.9114 65.2662 22.9919C65.0999 23.0723 64.9605 23.1849 64.8479 23.3297C64.7406 23.4692 64.6602 23.6354 64.6065 23.8285C64.5583 24.0162 64.5341 24.2173 64.5341 24.4319C64.5341 24.6517 64.5583 24.8555 64.6065 25.0433C64.6602 25.231 64.7406 25.3972 64.8479 25.542C64.9605 25.6815 65.0999 25.7914 65.2662 25.8719C65.4324 25.9523 65.6309 25.9925 65.8615 25.9925ZM68.7956 26.5476V20.86H69.4794V26.5476H68.7956ZM72.4217 22.2598C72.7596 22.2598 73.0519 22.3134 73.2986 22.4207C73.5453 22.528 73.7518 22.6781 73.918 22.8712C74.0897 23.0643 74.2157 23.2949 74.2961 23.563C74.382 23.8258 74.4249 24.1154 74.4249 24.4319C74.4249 24.7483 74.382 25.0406 74.2961 25.3087C74.2157 25.5715 74.0897 25.7995 73.918 25.9925C73.7518 26.1802 73.5426 26.3277 73.2906 26.435C73.0385 26.5422 72.7435 26.5959 72.4056 26.5959C72.0678 26.5959 71.7728 26.5422 71.5207 26.435C71.274 26.3277 71.0649 26.1802 70.8932 25.9925C70.727 25.7995 70.601 25.5715 70.5151 25.3087C70.4347 25.0406 70.3945 24.7483 70.3945 24.4319C70.3945 24.1154 70.4347 23.8258 70.5151 23.563C70.601 23.2949 70.727 23.0643 70.8932 22.8712C71.0649 22.6781 71.2794 22.528 71.5368 22.4207C71.7943 22.3134 72.0892 22.2598 72.4217 22.2598ZM72.4056 25.9925C72.6363 25.9925 72.8347 25.9523 73.001 25.8719C73.1726 25.7914 73.312 25.6815 73.4193 25.542C73.5319 25.3972 73.6123 25.231 73.6606 25.0433C73.7142 24.8555 73.7411 24.6517 73.7411 24.4319C73.7411 24.2173 73.7142 24.0162 73.6606 23.8285C73.6123 23.6354 73.5319 23.4692 73.4193 23.3297C73.312 23.1849 73.1726 23.0723 73.001 22.9919C72.8347 22.9114 72.6363 22.8712 72.4056 22.8712C72.175 22.8712 71.9766 22.9114 71.8103 22.9919C71.6441 23.0723 71.5046 23.1849 71.392 23.3297C71.2848 23.4692 71.2043 23.6354 71.1507 23.8285C71.1024 24.0162 71.0783 24.2173 71.0783 24.4319C71.0783 24.6517 71.1024 24.8555 71.1507 25.0433C71.2043 25.231 71.2848 25.3972 71.392 25.542C71.5046 25.6815 71.6441 25.7914 71.8103 25.8719C71.9766 25.9523 72.175 25.9925 72.4056 25.9925ZM79.1207 26.5154C79.1207 27.1161 78.9598 27.5881 78.6381 27.9313C78.3163 28.2745 77.8309 28.4461 77.182 28.4461C76.9675 28.4461 76.761 28.422 76.5625 28.3737C76.3695 28.3255 76.1925 28.2477 76.0316 28.1405C75.8761 28.0386 75.742 27.9072 75.6294 27.7463C75.5221 27.5907 75.447 27.403 75.4041 27.1831H76.112C76.1442 27.3065 76.1978 27.4084 76.2729 27.4888C76.3534 27.5746 76.4445 27.6417 76.5464 27.6899C76.6483 27.7436 76.7583 27.7811 76.8763 27.8026C76.9943 27.824 77.1096 27.8348 77.2222 27.8348C77.4367 27.8348 77.6218 27.7999 77.7773 27.7302C77.9328 27.6658 78.0588 27.5746 78.1554 27.4567C78.2519 27.3387 78.3216 27.1965 78.3645 27.0303C78.4128 26.8694 78.4369 26.6924 78.4369 26.4993V25.9121C78.2975 26.1588 78.0991 26.3358 77.8416 26.443C77.5842 26.5449 77.3161 26.5959 77.0372 26.5959C76.7154 26.5905 76.4365 26.5342 76.2005 26.4269C75.9645 26.3143 75.7715 26.1615 75.6213 25.9684C75.4711 25.7753 75.3585 25.5501 75.2834 25.2926C75.2137 25.0298 75.1789 24.7456 75.1789 24.4399C75.1789 24.1342 75.2164 23.85 75.2915 23.5872C75.3666 23.319 75.4819 23.0884 75.6374 22.8953C75.7929 22.6969 75.9887 22.5414 76.2247 22.4287C76.4606 22.3161 76.7422 22.2598 77.0694 22.2598C77.3161 22.2598 77.5654 22.3054 77.8175 22.3966C78.0696 22.4877 78.2761 22.6352 78.4369 22.839L78.4691 22.3081H79.1207V26.5154ZM77.1257 22.8712C76.895 22.8712 76.6993 22.9141 76.5384 22.9999C76.3775 23.0804 76.2461 23.1903 76.1442 23.3297C76.0477 23.4692 75.9753 23.6354 75.927 23.8285C75.8841 24.0162 75.8627 24.2173 75.8627 24.4319C75.8627 24.6678 75.8841 24.877 75.927 25.0593C75.9699 25.2363 76.0423 25.3945 76.1442 25.534C76.2461 25.6734 76.3775 25.786 76.5384 25.8719C76.6993 25.9523 76.8977 25.9925 77.1337 25.9925C77.4072 25.9925 77.6325 25.9282 77.8095 25.7995C77.9864 25.6707 78.1286 25.5098 78.2358 25.3168C78.3109 25.1827 78.3645 25.0379 78.3967 24.8824C78.4289 24.7215 78.445 24.5633 78.445 24.4077C78.445 24.2147 78.4262 24.0377 78.3887 23.8768C78.3565 23.7159 78.2948 23.5657 78.2036 23.4263C78.0964 23.2707 77.9543 23.1394 77.7773 23.0321C77.6003 22.9248 77.3831 22.8712 77.1257 22.8712ZM83.9195 22.3081V26.5476C83.9195 27.1644 83.7586 27.6336 83.4368 27.9554C83.115 28.2826 82.6565 28.4461 82.0612 28.4461C81.7019 28.4408 81.3774 28.3925 81.0878 28.3013C80.8035 28.2155 80.5407 28.06 80.2994 27.8348L80.5971 27.2958C80.8062 27.462 81.0288 27.5934 81.2648 27.6899C81.5061 27.7865 81.7582 27.8348 82.021 27.8348C82.2409 27.8348 82.4286 27.7999 82.5841 27.7302C82.7396 27.6658 82.8657 27.572 82.9622 27.4486C83.0641 27.3306 83.1365 27.1885 83.1794 27.0222C83.2277 26.856 83.2518 26.6763 83.2518 26.4833V25.9764C83.1821 26.0837 83.0936 26.1802 82.9863 26.266C82.8844 26.3465 82.7718 26.4135 82.6484 26.4672C82.5305 26.5154 82.4017 26.5503 82.2623 26.5717C82.1282 26.5986 81.9915 26.612 81.852 26.612C81.5302 26.6066 81.2621 26.5557 81.0476 26.4591C80.8384 26.3626 80.6695 26.2285 80.5407 26.0569C80.4174 25.8853 80.3289 25.6815 80.2753 25.4455C80.2216 25.2041 80.1948 24.9387 80.1948 24.6491V22.3081H80.8786V24.456C80.8786 24.6491 80.8893 24.8395 80.9108 25.0272C80.9376 25.2149 80.9886 25.3811 81.0637 25.5259C81.1387 25.6707 81.2487 25.7887 81.3935 25.8799C81.5383 25.9657 81.7314 26.0086 81.9727 26.0086C82.214 26.0086 82.4178 25.9577 82.5841 25.8558C82.7557 25.7539 82.8871 25.6252 82.9783 25.4696C83.0802 25.3087 83.1472 25.1317 83.1794 24.9387C83.2169 24.7456 83.2357 24.5472 83.2357 24.3434V22.3081H83.9195ZM91.1775 26.5476L90.727 25.3248H87.9114L87.4609 26.5476H86.7047L88.8204 20.86H89.826L91.9337 26.5476H91.1775ZM89.3192 21.4714L88.1447 24.6893H90.4937L89.3192 21.4714ZM91.9529 22.3081H92.7252L93.7388 25.8879L94.7846 22.3081H95.7098L96.7636 25.8879L97.7612 22.3081H98.5415L97.2222 26.5476H96.289L95.2432 23.1125L94.1974 26.5476H93.2722L91.9529 22.3081ZM101.967 26.0086C101.876 26.132 101.771 26.2312 101.653 26.3063C101.535 26.3814 101.412 26.4403 101.283 26.4833C101.16 26.5262 101.034 26.5557 100.905 26.5717C100.781 26.5878 100.658 26.5959 100.535 26.5959C100.336 26.5959 100.149 26.5717 99.9716 26.5235C99.7946 26.4752 99.6338 26.3974 99.4889 26.2902C99.3495 26.1829 99.2369 26.0488 99.1511 25.8879C99.0706 25.7271 99.0304 25.5447 99.0304 25.3409C99.0304 25.0996 99.0733 24.8985 99.1591 24.7376C99.2503 24.5713 99.371 24.4372 99.5211 24.3353C99.6713 24.2334 99.8429 24.1637 100.036 24.1262C100.234 24.0833 100.444 24.0618 100.663 24.0618H101.91C101.91 23.7025 101.833 23.4182 101.677 23.2091C101.522 22.9945 101.259 22.8819 100.889 22.8712C100.663 22.8712 100.465 22.9087 100.293 22.9838C100.122 23.0589 100.004 23.1823 99.9395 23.3539H99.2074C99.2449 23.1608 99.32 22.9972 99.4326 22.8632C99.5453 22.7237 99.6793 22.6111 99.8349 22.5253C99.9904 22.4341 100.159 22.3671 100.342 22.3242C100.524 22.2813 100.706 22.2598 100.889 22.2598C101.205 22.2598 101.471 22.3134 101.685 22.4207C101.905 22.5226 102.082 22.6594 102.216 22.831C102.35 22.9972 102.444 23.201 102.498 23.4424C102.551 23.6837 102.578 23.9545 102.578 24.2549V26.5476H102.007L101.967 26.0086ZM101.162 24.633C101.034 24.633 100.883 24.6357 100.712 24.641C100.545 24.641 100.385 24.6571 100.229 24.6893C100.074 24.7215 99.9475 24.7885 99.851 24.8904C99.7598 24.9923 99.7142 25.1264 99.7142 25.2926C99.7142 25.416 99.7383 25.5206 99.7866 25.6064C99.8349 25.6922 99.8992 25.7646 99.9797 25.8236C100.065 25.8826 100.162 25.9255 100.269 25.9523C100.377 25.9791 100.486 25.9925 100.599 25.9925C101.001 25.9925 101.318 25.896 101.548 25.7029C101.784 25.5045 101.905 25.2176 101.91 24.8421V24.633H101.162ZM103.637 26.5476V22.3081H104.297L104.329 22.9677C104.485 22.721 104.683 22.5414 104.925 22.4287C105.166 22.3161 105.439 22.2598 105.745 22.2598H105.962V22.9034H105.713C105.461 22.9034 105.246 22.9463 105.069 23.0321C104.892 23.1125 104.748 23.2252 104.635 23.37C104.528 23.5094 104.447 23.6757 104.394 23.8687C104.345 24.0618 104.321 24.2656 104.321 24.4801V26.5476H103.637ZM110.341 26.5476H109.689L109.657 25.9121C109.512 26.1534 109.311 26.3277 109.054 26.435C108.802 26.5422 108.536 26.5959 108.257 26.5959C107.936 26.5905 107.657 26.5342 107.421 26.4269C107.185 26.3143 106.992 26.1615 106.842 25.9684C106.691 25.7753 106.579 25.5501 106.504 25.2926C106.434 25.0298 106.399 24.7456 106.399 24.4399C106.399 24.1342 106.437 23.85 106.512 23.5872C106.587 23.319 106.702 23.0884 106.858 22.8953C107.013 22.6969 107.209 22.5414 107.445 22.4287C107.681 22.3161 107.962 22.2598 108.29 22.2598C108.536 22.2598 108.786 22.3054 109.038 22.3966C109.29 22.4877 109.496 22.6352 109.657 22.839V20.86H110.341V26.5476ZM108.346 22.8712C108.115 22.8712 107.92 22.9141 107.759 22.9999C107.598 23.0804 107.466 23.1903 107.364 23.3297C107.268 23.4692 107.195 23.6354 107.147 23.8285C107.104 24.0162 107.083 24.2227 107.083 24.4479C107.083 24.6732 107.104 24.877 107.147 25.0593C107.19 25.2363 107.263 25.3945 107.364 25.534C107.466 25.6734 107.598 25.786 107.759 25.8719C107.92 25.9523 108.118 25.9925 108.354 25.9925C108.627 25.9925 108.853 25.9282 109.03 25.7995C109.207 25.6707 109.349 25.5098 109.456 25.3168C109.531 25.1827 109.585 25.0379 109.617 24.8824C109.649 24.7215 109.665 24.5633 109.665 24.4077C109.665 24.2147 109.646 24.0377 109.609 23.8768C109.577 23.7159 109.515 23.5657 109.424 23.4263C109.317 23.2707 109.174 23.1394 108.997 23.0321C108.821 22.9248 108.603 22.8712 108.346 22.8712ZM112.927 22.8712C112.831 22.8712 112.732 22.8792 112.63 22.8953C112.533 22.9061 112.437 22.9329 112.34 22.9758C112.249 23.0133 112.169 23.0723 112.099 23.1528C112.034 23.2278 112 23.3297 111.994 23.4585C111.994 23.6408 112.061 23.7776 112.195 23.8687C112.335 23.9599 112.514 24.0269 112.734 24.0699C112.826 24.0913 112.925 24.1128 113.032 24.1342C113.139 24.1503 113.244 24.1691 113.346 24.1905C113.453 24.2066 113.552 24.2254 113.643 24.2468C113.74 24.2683 113.82 24.2897 113.885 24.3112C114.4 24.4721 114.657 24.818 114.657 25.349C114.652 25.6064 114.595 25.8155 114.488 25.9764C114.386 26.132 114.255 26.2553 114.094 26.3465C113.938 26.4377 113.759 26.502 113.555 26.5396C113.356 26.5771 113.158 26.5959 112.96 26.5959C112.767 26.5959 112.571 26.5771 112.372 26.5396C112.174 26.502 111.992 26.4377 111.825 26.3465C111.664 26.25 111.525 26.1266 111.407 25.9764C111.294 25.8209 111.222 25.6278 111.19 25.3972H111.882C111.925 25.5259 111.992 25.6278 112.083 25.7029C112.174 25.778 112.27 25.837 112.372 25.8799C112.48 25.9228 112.579 25.9523 112.67 25.9684C112.767 25.9845 112.874 25.9925 112.992 25.9925C113.078 25.9925 113.177 25.9872 113.289 25.9764C113.402 25.9657 113.509 25.9416 113.611 25.904C113.713 25.8611 113.799 25.7995 113.869 25.719C113.938 25.6386 113.973 25.5259 113.973 25.3811C113.973 25.2202 113.92 25.0996 113.812 25.0191C113.71 24.9387 113.568 24.8797 113.386 24.8421C113.257 24.8153 113.123 24.7912 112.984 24.7697C112.85 24.7429 112.713 24.7161 112.573 24.6893C112.439 24.6571 112.308 24.6223 112.179 24.5847C112.051 24.5418 111.93 24.4855 111.817 24.4158C111.667 24.3246 111.546 24.2012 111.455 24.0457C111.364 23.8902 111.319 23.6998 111.319 23.4745C111.329 23.2386 111.383 23.0455 111.479 22.8953C111.576 22.7398 111.699 22.6138 111.849 22.5172C112.01 22.4207 112.182 22.3537 112.364 22.3161C112.547 22.2786 112.74 22.2598 112.944 22.2598C113.378 22.2598 113.724 22.3537 113.981 22.5414C114.137 22.6486 114.257 22.7773 114.343 22.9275C114.429 23.0777 114.483 23.2359 114.504 23.4021H113.869C113.831 23.2466 113.729 23.1206 113.563 23.024C113.397 22.9275 113.185 22.8766 112.927 22.8712ZM116.843 23.024H117.576L118.485 24.4238L117.576 25.8236H116.843L117.793 24.4238L116.843 23.024ZM115.444 23.024H116.168L117.077 24.4238L116.168 25.8236H115.444L116.369 24.4238L115.444 23.024ZM50.8751 34.5606C51.0199 34.4372 51.1781 34.3031 51.3497 34.1583C51.5267 34.0082 51.6903 33.8473 51.8405 33.6757C51.996 33.504 52.1274 33.3244 52.2347 33.1367C52.3419 32.9436 52.3982 32.7344 52.4036 32.5092C52.4143 32.1659 52.3151 31.9032 52.1059 31.7208C51.8968 31.5331 51.6206 31.4392 51.2773 31.4392C51.0038 31.4392 50.7652 31.4956 50.5614 31.6082C50.3576 31.7208 50.2235 31.8844 50.1591 32.0989H49.411C49.4485 31.879 49.5263 31.6886 49.6443 31.5277C49.7676 31.3615 49.9151 31.2247 50.0867 31.1175C50.2637 31.0102 50.4568 30.9297 50.6659 30.8761C50.8751 30.8225 51.0896 30.7957 51.3095 30.7957C51.5723 30.7957 51.8136 30.8332 52.0335 30.9083C52.2534 30.978 52.4438 31.0826 52.6047 31.222C52.7656 31.3615 52.889 31.5358 52.9748 31.7449C53.0659 31.9487 53.1115 32.182 53.1115 32.4448C53.1115 32.7076 53.0713 32.9436 52.9909 33.1528C52.9158 33.3619 52.8112 33.555 52.6771 33.732C52.5484 33.909 52.4009 34.0752 52.2347 34.2307C52.0684 34.3863 51.8968 34.5418 51.7198 34.6973L50.2798 35.9121H53.1759V36.5476H49.2662V35.9684L50.8751 34.5606ZM58.4806 33.7078C58.4806 34.0725 58.443 34.4292 58.368 34.7778C58.2982 35.1264 58.1776 35.4374 58.0059 35.711C57.8343 35.9791 57.6064 36.1963 57.3222 36.3626C57.0379 36.5288 56.6839 36.612 56.2603 36.612C55.8312 36.612 55.4746 36.5288 55.1903 36.3626C54.9061 36.1963 54.6781 35.9791 54.5065 35.711C54.3349 35.4374 54.2142 35.1317 54.1445 34.7939C54.0748 34.456 54.0399 34.094 54.0399 33.7078C54.0399 33.3217 54.0748 32.9597 54.1445 32.6218C54.2142 32.2786 54.3349 31.9729 54.5065 31.7047C54.6781 31.4366 54.9061 31.2194 55.1903 31.0531C55.4746 30.8815 55.8312 30.7957 56.2603 30.7957C56.6839 30.7957 57.0379 30.8788 57.3222 31.0451C57.6064 31.2113 57.8343 31.4312 58.0059 31.7047C58.1776 31.9782 58.2982 32.2893 58.368 32.6379C58.443 32.9865 58.4806 33.3431 58.4806 33.7078ZM54.7559 33.7078C54.7559 33.9653 54.7747 34.2281 54.8122 34.4962C54.8498 34.7644 54.9222 35.0084 55.0294 35.2283C55.1367 35.4482 55.2868 35.6278 55.4799 35.7673C55.6784 35.9067 55.9385 35.9764 56.2603 35.9764C56.5767 35.9764 56.8314 35.9067 57.0245 35.7673C57.2229 35.6278 57.3758 35.4482 57.483 35.2283C57.5903 35.0084 57.6627 34.7644 57.7002 34.4962C57.7378 34.2281 57.7566 33.9653 57.7566 33.7078C57.7566 33.4558 57.7378 33.1957 57.7002 32.9275C57.6627 32.6594 57.5903 32.4153 57.483 32.1954C57.3758 31.9702 57.2229 31.7878 57.0245 31.6484C56.8314 31.5036 56.5767 31.4312 56.2603 31.4312C55.9385 31.4312 55.6784 31.5036 55.4799 31.6484C55.2868 31.7878 55.1367 31.9702 55.0294 32.1954C54.9222 32.4153 54.8498 32.6594 54.8122 32.9275C54.7747 33.1957 54.7559 33.4558 54.7559 33.7078ZM60.9908 36.5476H60.2909V31.9863H59.1325V31.5116C59.2934 31.5009 59.4409 31.4875 59.575 31.4714C59.709 31.45 59.8324 31.4151 59.945 31.3668C60.0576 31.3186 60.1595 31.2542 60.2507 31.1738C60.3419 31.0933 60.425 30.9887 60.5001 30.86H60.9908V36.5476ZM64.1949 36.612C63.9696 36.612 63.7417 36.5905 63.5111 36.5476C63.2858 36.5047 63.074 36.4323 62.8755 36.3304C62.6825 36.2231 62.5162 36.0837 62.3768 35.9121C62.2427 35.7405 62.1569 35.5286 62.1193 35.2766H62.8434C62.8916 35.416 62.964 35.5313 63.0606 35.6225C63.1625 35.7083 63.2751 35.778 63.3984 35.8316C63.5272 35.8853 63.6612 35.9228 63.8007 35.9443C63.9401 35.9657 64.0742 35.9764 64.2029 35.9764C64.3209 35.9764 64.455 35.9657 64.6051 35.9443C64.7553 35.9228 64.8948 35.8772 65.0235 35.8075C65.1576 35.7378 65.2675 35.6359 65.3533 35.5018C65.4445 35.3624 65.4901 35.18 65.4901 34.9548C65.4901 34.7402 65.4472 34.5686 65.3613 34.4399C65.2809 34.3112 65.1736 34.212 65.0396 34.1423C64.9108 34.0725 64.7634 34.0269 64.5971 34.0055C64.4362 33.984 64.2726 33.9733 64.1064 33.9733H63.5593V33.3458H63.8892C64.034 33.3458 64.1681 33.3431 64.2914 33.3378C64.4148 33.3271 64.5515 33.2895 64.7017 33.2252C64.8733 33.1447 65.0101 33.0321 65.112 32.8873C65.2139 32.7371 65.2675 32.5655 65.2729 32.3724C65.2729 32.1794 65.2407 32.0211 65.1763 31.8978C65.112 31.7744 65.0262 31.6779 64.9189 31.6082C64.8116 31.5385 64.691 31.4929 64.5569 31.4714C64.4228 31.4446 64.286 31.4312 64.1466 31.4312C64.034 31.4312 63.916 31.4446 63.7926 31.4714C63.6747 31.4929 63.562 31.5304 63.4548 31.584C63.3529 31.6377 63.2617 31.7101 63.1812 31.8013C63.1008 31.8871 63.0445 31.9916 63.0123 32.115H62.3124C62.3446 31.879 62.4197 31.6779 62.5377 31.5116C62.6557 31.3454 62.8005 31.2086 62.9721 31.1014C63.1491 30.9941 63.3421 30.9163 63.5513 30.8681C63.7658 30.8198 63.983 30.7957 64.2029 30.7957C64.4443 30.7957 64.6695 30.8225 64.8787 30.8761C65.0932 30.9244 65.2809 31.0075 65.4418 31.1255C65.6027 31.2381 65.7287 31.3883 65.8199 31.576C65.9164 31.7637 65.9647 31.9916 65.9647 32.2598C65.9647 32.3617 65.954 32.4716 65.9325 32.5896C65.9111 32.7023 65.8708 32.8149 65.8118 32.9275C65.7529 33.0401 65.667 33.1528 65.5544 33.2654C65.4418 33.378 65.2943 33.4719 65.112 33.5469C65.4713 33.6167 65.7448 33.7749 65.9325 34.0216C66.1202 34.2629 66.2141 34.5552 66.2141 34.8985V34.9306C66.2141 35.2256 66.1605 35.4803 66.0532 35.6949C65.9513 35.904 65.8092 36.0783 65.6268 36.2178C65.4445 36.3519 65.23 36.4511 64.9832 36.5154C64.7365 36.5798 64.4738 36.612 64.1949 36.612ZM67.6994 36.5637C67.56 36.553 67.4473 36.5074 67.3615 36.4269C67.2757 36.3465 67.2328 36.2392 67.2328 36.1052C67.2382 35.9657 67.2864 35.8558 67.3776 35.7753C67.4741 35.6895 67.5841 35.6466 67.7074 35.6466C67.863 35.6466 67.9863 35.7029 68.0775 35.8155C68.174 35.9282 68.2223 36.0864 68.2223 36.2902C68.2223 36.4028 68.1982 36.5262 68.1499 36.6602C68.107 36.7997 68.048 36.9257 67.9729 37.0383C67.8978 37.151 67.8093 37.2502 67.7074 37.336C67.6109 37.4218 67.509 37.4835 67.4017 37.521L67.2087 37.2555C67.3159 37.1805 67.4151 37.0786 67.5063 36.9498C67.6029 36.8211 67.6672 36.6924 67.6994 36.5637ZM72.5423 34.5606C72.6871 34.4372 72.8453 34.3031 73.0169 34.1583C73.1939 34.0082 73.3575 33.8473 73.5076 33.6757C73.6632 33.504 73.7946 33.3244 73.9018 33.1367C74.0091 32.9436 74.0654 32.7344 74.0708 32.5092C74.0815 32.1659 73.9823 31.9032 73.7731 31.7208C73.564 31.5331 73.2878 31.4392 72.9445 31.4392C72.671 31.4392 72.4323 31.4956 72.2285 31.6082C72.0247 31.7208 71.8907 31.8844 71.8263 32.0989H71.0782C71.1157 31.879 71.1935 31.6886 71.3114 31.5277C71.4348 31.3615 71.5823 31.2247 71.7539 31.1175C71.9309 31.0102 72.124 30.9297 72.3331 30.8761C72.5423 30.8225 72.7568 30.7957 72.9767 30.7957C73.2395 30.7957 73.4808 30.8332 73.7007 30.9083C73.9206 30.978 74.111 31.0826 74.2719 31.222C74.4328 31.3615 74.5561 31.5358 74.6419 31.7449C74.7331 31.9487 74.7787 32.182 74.7787 32.4448C74.7787 32.7076 74.7385 32.9436 74.658 33.1528C74.5829 33.3619 74.4784 33.555 74.3443 33.732C74.2156 33.909 74.0681 34.0752 73.9018 34.2307C73.7356 34.3863 73.564 34.5418 73.387 34.6973L71.947 35.9121H74.8431V36.5476H70.9333V35.9684L72.5423 34.5606ZM80.1478 33.7078C80.1478 34.0725 80.1102 34.4292 80.0351 34.7778C79.9654 35.1264 79.8447 35.4374 79.6731 35.711C79.5015 35.9791 79.2736 36.1963 78.9893 36.3626C78.7051 36.5288 78.3511 36.612 77.9274 36.612C77.4984 36.612 77.1417 36.5288 76.8575 36.3626C76.5732 36.1963 76.3453 35.9791 76.1737 35.711C76.0021 35.4374 75.8814 35.1317 75.8117 34.7939C75.742 34.456 75.7071 34.094 75.7071 33.7078C75.7071 33.3217 75.742 32.9597 75.8117 32.6218C75.8814 32.2786 76.0021 31.9729 76.1737 31.7047C76.3453 31.4366 76.5732 31.2194 76.8575 31.0531C77.1417 30.8815 77.4984 30.7957 77.9274 30.7957C78.3511 30.7957 78.7051 30.8788 78.9893 31.0451C79.2736 31.2113 79.5015 31.4312 79.6731 31.7047C79.8447 31.9782 79.9654 32.2893 80.0351 32.6379C80.1102 32.9865 80.1478 33.3431 80.1478 33.7078ZM76.4231 33.7078C76.4231 33.9653 76.4418 34.2281 76.4794 34.4962C76.5169 34.7644 76.5893 35.0084 76.6966 35.2283C76.8039 35.4482 76.954 35.6278 77.1471 35.7673C77.3455 35.9067 77.6056 35.9764 77.9274 35.9764C78.2439 35.9764 78.4986 35.9067 78.6917 35.7673C78.8901 35.6278 79.043 35.4482 79.1502 35.2283C79.2575 35.0084 79.3299 34.7644 79.3674 34.4962C79.405 34.2281 79.4237 33.9653 79.4237 33.7078C79.4237 33.4558 79.405 33.1957 79.3674 32.9275C79.3299 32.6594 79.2575 32.4153 79.1502 32.1954C79.043 31.9702 78.8901 31.7878 78.6917 31.6484C78.4986 31.5036 78.2439 31.4312 77.9274 31.4312C77.6056 31.4312 77.3455 31.5036 77.1471 31.6484C76.954 31.7878 76.8039 31.9702 76.6966 32.1954C76.5893 32.4153 76.5169 32.6594 76.4794 32.9275C76.4418 33.1957 76.4231 33.4558 76.4231 33.7078ZM82.658 36.5476H81.9581V31.9863H80.7997V31.5116C80.9606 31.5009 81.1081 31.4875 81.2421 31.4714C81.3762 31.45 81.4996 31.4151 81.6122 31.3668C81.7248 31.3186 81.8267 31.2542 81.9179 31.1738C82.0091 31.0933 82.0922 30.9887 82.1673 30.86H82.658V36.5476ZM87.648 30.86V34.7778H88.3157V35.4133H87.648V36.5476H86.9481V35.4133H83.8589V34.8904L86.6424 30.86H87.648ZM84.7036 34.7778H86.9481V31.4956L84.7036 34.7778ZM89.6415 36.5637C89.5021 36.553 89.3895 36.5074 89.3037 36.4269C89.2178 36.3465 89.1749 36.2392 89.1749 36.1052C89.1803 35.9657 89.2286 35.8558 89.3197 35.7753C89.4163 35.6895 89.5262 35.6466 89.6496 35.6466C89.8051 35.6466 89.9285 35.7029 90.0196 35.8155C90.1162 35.9282 90.1644 36.0864 90.1644 36.2902C90.1644 36.4028 90.1403 36.5262 90.092 36.6602C90.0491 36.7997 89.9901 36.9257 89.9151 37.0383C89.84 37.151 89.7515 37.2502 89.6496 37.336C89.553 37.4218 89.4511 37.4835 89.3439 37.521L89.1508 37.2555C89.2581 37.1805 89.3573 37.0786 89.4485 36.9498C89.545 36.8211 89.6094 36.6924 89.6415 36.5637ZM94.4844 34.5606C94.6292 34.4372 94.7874 34.3031 94.9591 34.1583C95.136 34.0082 95.2996 33.8473 95.4498 33.6757C95.6053 33.504 95.7367 33.3244 95.844 33.1367C95.9512 32.9436 96.0075 32.7344 96.0129 32.5092C96.0236 32.1659 95.9244 31.9032 95.7153 31.7208C95.5061 31.5331 95.2299 31.4392 94.8867 31.4392C94.6131 31.4392 94.3745 31.4956 94.1707 31.6082C93.9669 31.7208 93.8328 31.8844 93.7684 32.0989H93.0203C93.0578 31.879 93.1356 31.6886 93.2536 31.5277C93.3769 31.3615 93.5244 31.2247 93.696 31.1175C93.873 31.0102 94.0661 30.9297 94.2753 30.8761C94.4844 30.8225 94.6989 30.7957 94.9188 30.7957C95.1816 30.7957 95.423 30.8332 95.6429 30.9083C95.8627 30.978 96.0531 31.0826 96.214 31.222C96.3749 31.3615 96.4983 31.5358 96.5841 31.7449C96.6753 31.9487 96.7208 32.182 96.7208 32.4448C96.7208 32.7076 96.6806 32.9436 96.6002 33.1528C96.5251 33.3619 96.4205 33.555 96.2864 33.732C96.1577 33.909 96.0102 34.0752 95.844 34.2307C95.6777 34.3863 95.5061 34.5418 95.3291 34.6973L93.8891 35.9121H96.7852V36.5476H92.8755V35.9684L94.4844 34.5606ZM102.09 33.7078C102.09 34.0725 102.052 34.4292 101.977 34.7778C101.908 35.1264 101.787 35.4374 101.615 35.711C101.444 35.9791 101.216 36.1963 100.931 36.3626C100.647 36.5288 100.293 36.612 99.8696 36.612C99.4405 36.612 99.0839 36.5288 98.7996 36.3626C98.5154 36.1963 98.2875 35.9791 98.1158 35.711C97.9442 35.4374 97.8235 35.1317 97.7538 34.7939C97.6841 34.456 97.6492 34.094 97.6492 33.7078C97.6492 33.3217 97.6841 32.9597 97.7538 32.6218C97.8235 32.2786 97.9442 31.9729 98.1158 31.7047C98.2875 31.4366 98.5154 31.2194 98.7996 31.0531C99.0839 30.8815 99.4405 30.7957 99.8696 30.7957C100.293 30.7957 100.647 30.8788 100.931 31.0451C101.216 31.2113 101.444 31.4312 101.615 31.7047C101.787 31.9782 101.908 32.2893 101.977 32.6379C102.052 32.9865 102.09 33.3431 102.09 33.7078ZM98.3652 33.7078C98.3652 33.9653 98.384 34.2281 98.4215 34.4962C98.4591 34.7644 98.5315 35.0084 98.6387 35.2283C98.746 35.4482 98.8962 35.6278 99.0892 35.7673C99.2877 35.9067 99.5478 35.9764 99.8696 35.9764C100.186 35.9764 100.441 35.9067 100.634 35.7673C100.832 35.6278 100.985 35.4482 101.092 35.2283C101.2 35.0084 101.272 34.7644 101.31 34.4962C101.347 34.2281 101.366 33.9653 101.366 33.7078C101.366 33.4558 101.347 33.1957 101.31 32.9275C101.272 32.6594 101.2 32.4153 101.092 32.1954C100.985 31.9702 100.832 31.7878 100.634 31.6484C100.441 31.5036 100.186 31.4312 99.8696 31.4312C99.5478 31.4312 99.2877 31.5036 99.0892 31.6484C98.8962 31.7878 98.746 31.9702 98.6387 32.1954C98.5315 32.4153 98.4591 32.6594 98.4215 32.9275C98.384 33.1957 98.3652 33.4558 98.3652 33.7078ZM104.6 36.5476H103.9V31.9863H102.742V31.5116C102.903 31.5009 103.05 31.4875 103.184 31.4714C103.318 31.45 103.442 31.4151 103.554 31.3668C103.667 31.3186 103.769 31.2542 103.86 31.1738C103.951 31.0933 104.034 30.9887 104.109 30.86H104.6V36.5476ZM106.123 33.9894L106.38 30.86H109.783V31.5036H107.008L106.847 33.2895C106.992 33.1715 107.169 33.0777 107.378 33.008C107.587 32.9329 107.844 32.8953 108.15 32.8953C108.424 32.8953 108.673 32.9382 108.898 33.024C109.124 33.1099 109.317 33.2332 109.477 33.3941C109.638 33.5496 109.762 33.74 109.848 33.9653C109.939 34.1905 109.984 34.4399 109.984 34.7134C109.984 35.0138 109.931 35.2819 109.823 35.5179C109.721 35.7485 109.579 35.9469 109.397 36.1132C109.215 36.2795 108.997 36.4055 108.745 36.4913C108.499 36.5771 108.231 36.62 107.941 36.62C107.705 36.62 107.477 36.5932 107.257 36.5396C107.043 36.4859 106.847 36.4055 106.67 36.2982C106.493 36.1856 106.343 36.0435 106.219 35.8719C106.096 35.7002 106.01 35.4964 105.962 35.2605H106.67C106.713 35.3731 106.777 35.475 106.863 35.5662C106.949 35.652 107.045 35.7271 107.153 35.7914C107.265 35.8504 107.383 35.896 107.507 35.9282C107.63 35.9603 107.753 35.9764 107.877 35.9764C108.07 35.9764 108.249 35.9523 108.416 35.904C108.587 35.8558 108.735 35.7834 108.858 35.6868C108.987 35.5849 109.086 35.4589 109.156 35.3087C109.225 35.1532 109.26 34.9682 109.26 34.7536C109.26 34.3621 109.142 34.0618 108.906 33.8526C108.67 33.6435 108.365 33.5389 107.989 33.5389C107.764 33.5389 107.555 33.5791 107.362 33.6596C107.174 33.74 107.002 33.85 106.847 33.9894H106.123Z" fill="white"/>
</svg>
