<svg width="318" height="105" viewBox="0 0 318 105" fill="none" xmlns="http://www.w3.org/2000/svg">
<path d="M41.5096 45.2075L41.7327 45.2845C41.7766 45.4673 41.8156 45.73 41.5445 45.7089L41.466 45.6186C41.4169 45.4635 41.4614 45.3585 41.5096 45.2075Z" fill="#9C9C9C"/>
<path d="M50.3448 31.4878C51.465 31.5505 54.7621 33.3922 54.3346 34.0123C54.0755 34.3881 51.7568 34.8552 51.2481 34.9079C49.6586 35.0411 46.634 32.736 47.3874 32.1109C47.8894 31.6943 49.6976 31.455 50.3448 31.4878Z" fill="#9C9C9C"/>
<path d="M60.1066 73.2013C60.9251 73.2277 64.4338 74.7295 63.7653 75.41C63.1189 76.0672 61.1056 76.4939 60.1841 76.4969C58.7884 76.3929 57.1468 75.46 56.3471 74.3625C57.4125 73.4997 58.7506 73.2103 60.1066 73.2013Z" fill="#9C9C9C"/>
<path d="M55.3907 63.1647C56.4578 64.8805 56.3561 68.0515 54.7379 69.4833C54.3302 69.8443 53.7495 70.3066 53.1737 70.279C51.0128 68.4365 53.3498 63.9845 55.3907 63.1647Z" fill="#9C9C9C"/>
<path d="M46.3123 68.3075C47.227 68.3311 48.4463 68.9219 49.4998 69.0914C48.4804 70.9308 46.5319 71.6434 44.4566 71.3781C43.261 71.2152 41.9043 70.7129 41.3332 69.603C42.6037 68.5606 44.6776 68.1964 46.3123 68.3075Z" fill="#9C9C9C"/>
<path d="M47.5372 46.1102C48.044 46.2021 48.6211 51.8766 44.1455 53.534C43.9486 53.6071 43.8305 53.6348 43.6328 53.547C42.1385 50.4246 44.5023 47.2389 47.5372 46.1102Z" fill="#9C9C9C"/>
<path d="M41.5104 45.2074C41.6054 40.2721 44.3779 37.9092 49.487 38.7431C48.6065 42.7829 42.0627 43.7445 41.7332 45.2844L41.5104 45.2074Z" fill="#9C9C9C"/>
<path d="M37.0377 32.0272C40.0039 33.4723 41.5733 36.756 40.9915 39.9164C40.929 40.2558 40.8368 40.4943 40.5368 40.7001C39.434 41.2294 37.8708 39.1889 37.4205 38.4389C36.1871 36.3846 36.45 34.2191 37.0377 32.0272Z" fill="#9C9C9C"/>
<path d="M55.6458 19.3157C56.0425 19.3191 55.8464 20.1978 55.8197 20.4625C55.4907 23.7315 52.7685 26.659 49.6306 27.7297C49.0397 27.6403 49.7767 25.0101 49.9057 24.5886C50.6997 21.994 53.1272 20.217 55.6458 19.3157Z" fill="#9C9C9C"/>
<path d="M51.9601 74.1665C52.9549 74.2097 57.2758 76.0186 55.6839 77.2279C54.3516 78.24 52.3725 78.6997 50.7103 78.497C50.1609 78.4272 49.4971 78.3709 49.0005 78.1278C48.5151 77.8901 45.9701 76.5585 46.6748 75.9027C48.0468 74.6261 50.0927 74.0831 51.9601 74.1665Z" fill="#9C9C9C"/>
<path d="M44.3117 21.8471C47.0161 24.1264 48.1042 29.5605 45.1086 31.9725C43.528 32.8029 42.4917 28.4481 42.4956 27.5416C42.5015 26.1784 43.437 22.686 44.3117 21.8471Z" fill="#9C9C9C"/>
<path d="M38.5739 57.0634C42.5724 57.3917 44.927 60.728 45.7001 64.273C44.8766 64.2576 44.0337 64.0881 43.22 63.9685C39.4883 63.4566 37.2965 61.3184 36.1799 57.8198C35.8151 56.677 37.6851 57.0138 38.5739 57.0634Z" fill="#9C9C9C"/>
<path d="M49.178 55.9695C49.908 56.0111 51.0472 58.0625 51.3832 58.6652C52.1213 59.9875 52.8993 63.8479 51.2147 64.6948C50.6475 64.676 50.0944 64.5629 49.539 64.4596C48.4525 64.2212 47.8117 63.7522 46.6041 63.7132C44.6474 61.3083 46.6984 57.4126 49.178 55.9695Z" fill="#9C9C9C"/>
<path d="M33.9672 45.7018C34.5565 45.8817 35.1949 45.9737 35.7965 46.1194C39.6404 47.0499 40.8157 49.5225 41.9457 52.8421C42.1126 53.3326 43.2135 55.9344 43.1712 56.095C42.9614 55.9472 42.8551 55.7608 42.7237 55.5511C41.3445 53.3458 37.5428 54.9307 34.9749 50.3304C34.3349 49.1836 33.5993 46.896 33.9672 45.7018Z" fill="#9C9C9C"/>
<path d="M276.799 45.2075L276.576 45.2845C276.532 45.4673 276.493 45.73 276.764 45.7089L276.843 45.6186C276.892 45.4635 276.847 45.3585 276.799 45.2075Z" fill="#9C9C9C"/>
<path d="M267.964 31.4878C266.844 31.5505 263.546 33.3922 263.974 34.0123C264.233 34.3881 266.552 34.8552 267.06 34.9079C268.65 35.0411 271.675 32.736 270.921 32.1109C270.419 31.6943 268.611 31.455 267.964 31.4878Z" fill="#9C9C9C"/>
<path d="M258.202 73.2013C257.384 73.2277 253.875 74.7295 254.543 75.41C255.19 76.0672 257.203 76.4939 258.125 76.4969C259.52 76.3929 261.162 75.46 261.962 74.3625C260.896 73.4997 259.558 73.2103 258.202 73.2013Z" fill="#9C9C9C"/>
<path d="M262.918 63.1647C261.851 64.8805 261.953 68.0515 263.571 69.4833C263.978 69.8443 264.559 70.3066 265.135 70.279C267.296 68.4365 264.959 63.9845 262.918 63.1647Z" fill="#9C9C9C"/>
<path d="M271.996 68.3075C271.082 68.3311 269.862 68.9219 268.809 69.0914C269.828 70.9308 271.777 71.6434 273.852 71.3781C275.048 71.2152 276.404 70.7129 276.975 69.603C275.705 68.5606 273.631 68.1964 271.996 68.3075Z" fill="#9C9C9C"/>
<path d="M270.771 46.1102C270.265 46.2021 269.688 51.8766 274.163 53.534C274.36 53.6071 274.478 53.6348 274.676 53.547C276.17 50.4246 273.806 47.2389 270.771 46.1102Z" fill="#9C9C9C"/>
<path d="M276.798 45.2074C276.703 40.2721 273.931 37.9092 268.822 38.7431C269.702 42.7829 276.246 43.7445 276.575 45.2844L276.798 45.2074Z" fill="#9C9C9C"/>
<path d="M281.271 32.0272C278.305 33.4723 276.735 36.756 277.317 39.9164C277.38 40.2558 277.472 40.4943 277.772 40.7001C278.875 41.2294 280.438 39.1889 280.888 38.4389C282.121 36.3846 281.859 34.2191 281.271 32.0272Z" fill="#9C9C9C"/>
<path d="M262.663 19.3157C262.266 19.3191 262.462 20.1978 262.489 20.4625C262.818 23.7315 265.54 26.659 268.678 27.7297C269.269 27.6403 268.532 25.0101 268.403 24.5886C267.609 21.994 265.181 20.217 262.663 19.3157Z" fill="#9C9C9C"/>
<path d="M266.348 74.1665C265.354 74.2097 261.033 76.0186 262.625 77.2279C263.957 78.24 265.936 78.6997 267.598 78.497C268.148 78.4272 268.812 78.3709 269.308 78.1278C269.794 77.8901 272.339 76.5585 271.634 75.9027C270.262 74.6261 268.216 74.0831 266.348 74.1665Z" fill="#9C9C9C"/>
<path d="M273.997 21.8471C271.292 24.1264 270.204 29.5605 273.2 31.9725C274.781 32.8029 275.817 28.4481 275.813 27.5416C275.807 26.1784 274.872 22.686 273.997 21.8471Z" fill="#9C9C9C"/>
<path d="M279.735 57.0634C275.736 57.3917 273.382 60.728 272.608 64.273C273.432 64.2576 274.275 64.0881 275.089 63.9685C278.82 63.4566 281.012 61.3184 282.129 57.8198C282.493 56.677 280.623 57.0138 279.735 57.0634Z" fill="#9C9C9C"/>
<path d="M269.131 55.9695C268.401 56.0111 267.261 58.0625 266.925 58.6652C266.187 59.9875 265.409 63.8479 267.094 64.6948C267.661 64.676 268.214 64.5629 268.77 64.4596C269.856 64.2212 270.497 63.7522 271.704 63.7132C273.661 61.3083 271.61 57.4126 269.131 55.9695Z" fill="#9C9C9C"/>
<path d="M284.341 45.7018C283.752 45.8817 283.114 45.9737 282.512 46.1194C278.668 47.0499 277.493 49.5225 276.363 52.8421C276.196 53.3326 275.095 55.9344 275.137 56.095C275.347 55.9472 275.454 55.7608 275.585 55.5511C276.964 53.3458 280.766 54.9307 283.334 50.3304C283.974 49.1836 284.709 46.896 284.341 45.7018Z" fill="#9C9C9C"/>
<path d="M74.0422 31.56H72.5862L70.7782 28.776L72.5862 25.992H74.0422L72.1542 28.776L74.0422 31.56ZM76.8262 31.56H75.3862L73.5782 28.776L75.3862 25.992H76.8262L74.9862 28.776L76.8262 31.56ZM79.4916 32.2C79.1716 31.9333 78.9209 31.624 78.7396 31.272C78.5689 30.9093 78.4783 30.5147 78.4676 30.088H79.8596C79.8809 30.4187 80.0196 30.7387 80.2756 31.048C80.4356 31.2293 80.6223 31.3733 80.8356 31.48C81.0489 31.5867 81.2676 31.672 81.4916 31.736C81.7263 31.7893 81.9556 31.8267 82.1796 31.848C82.4036 31.8587 82.6009 31.864 82.7716 31.864C83.0383 31.864 83.3316 31.8427 83.6516 31.8C83.9823 31.7573 84.2863 31.6667 84.5636 31.528C84.8516 31.3893 85.0916 31.1867 85.2836 30.92C85.4756 30.6427 85.5716 30.28 85.5716 29.832C85.5716 29.384 85.4756 29.0267 85.2836 28.76C85.1023 28.4827 84.8783 28.28 84.6116 28.152C84.3343 28.0133 84.0196 27.9333 83.6676 27.912C83.3156 27.8907 83.0009 27.88 82.7236 27.88H81.3476V26.632H82.1636C82.4729 26.632 82.7929 26.616 83.1236 26.584C83.4649 26.5413 83.7796 26.4453 84.0676 26.296C84.3663 26.1467 84.6169 25.9387 84.8196 25.672C85.0223 25.4053 85.1289 25.08 85.1396 24.696C85.1396 24.312 85.0649 23.9973 84.9156 23.752C84.7769 23.5067 84.5849 23.3147 84.3396 23.176C84.0943 23.0373 83.8276 22.9467 83.5396 22.904C83.2623 22.8507 82.9849 22.824 82.7076 22.824C82.3449 22.824 81.9929 22.8667 81.6516 22.952C81.3103 23.0373 81.0169 23.176 80.7716 23.368C80.5903 23.5173 80.4409 23.688 80.3236 23.88C80.2169 24.072 80.1636 24.2907 80.1636 24.536H78.7716V24.408C78.7716 24.1733 78.8249 23.9173 78.9316 23.64C79.0383 23.3627 79.1716 23.112 79.3316 22.888C79.7263 22.408 80.2276 22.0667 80.8356 21.864C81.4436 21.6613 82.0996 21.56 82.8036 21.56C83.2836 21.56 83.7423 21.6133 84.1796 21.72C84.6276 21.816 85.0223 21.9813 85.3636 22.216C85.7049 22.44 85.9769 22.7387 86.1796 23.112C86.3929 23.4853 86.4996 23.9387 86.4996 24.472C86.4996 24.6747 86.4783 24.888 86.4356 25.112C86.4036 25.336 86.3289 25.56 86.2116 25.784C86.0943 26.008 85.9236 26.2267 85.6996 26.44C85.4863 26.6533 85.1983 26.8453 84.8356 27.016C85.1663 27.08 85.4649 27.1973 85.7316 27.368C86.0089 27.5387 86.2383 27.7467 86.4196 27.992C86.6009 28.2373 86.7396 28.5093 86.8356 28.808C86.9423 29.1067 86.9956 29.4213 86.9956 29.752V29.848C86.9849 30.4453 86.8569 30.952 86.6116 31.368C86.3663 31.784 86.0463 32.1253 85.6516 32.392C85.2676 32.648 84.8249 32.8347 84.3236 32.952C83.8223 33.0693 83.3049 33.128 82.7716 33.128C82.1423 33.128 81.5396 33.0587 80.9636 32.92C80.3983 32.7813 79.9076 32.5413 79.4916 32.2ZM92.5632 24.472C93.2352 24.472 93.8166 24.5787 94.3072 24.792C94.7979 25.0053 95.2086 25.304 95.5392 25.688C95.8806 26.072 96.1312 26.5307 96.2912 27.064C96.4619 27.5867 96.5472 28.1627 96.5472 28.792C96.5472 29.4213 96.4619 30.0027 96.2912 30.536C96.1312 31.0587 95.8806 31.512 95.5392 31.896C95.2086 32.2693 94.7926 32.5627 94.2912 32.776C93.7899 32.9893 93.2032 33.096 92.5312 33.096C91.8592 33.096 91.2726 32.9893 90.7712 32.776C90.2806 32.5627 89.8646 32.2693 89.5232 31.896C89.1926 31.512 88.9419 31.0587 88.7712 30.536C88.6112 30.0027 88.5312 29.4213 88.5312 28.792C88.5312 28.1627 88.6112 27.5867 88.7712 27.064C88.9419 26.5307 89.1926 26.072 89.5232 25.688C89.8646 25.304 90.2859 25.0053 90.7872 24.792C91.2886 24.5787 91.8806 24.472 92.5632 24.472ZM92.5312 31.896C92.9899 31.896 93.3846 31.816 93.7152 31.656C94.0566 31.496 94.3339 31.2773 94.5472 31C94.7712 30.712 94.9312 30.3813 95.0272 30.008C95.1339 29.6347 95.1872 29.2293 95.1872 28.792C95.1872 28.3653 95.1339 27.9653 95.0272 27.592C94.9312 27.208 94.7712 26.8773 94.5472 26.6C94.3339 26.312 94.0566 26.088 93.7152 25.928C93.3846 25.768 92.9899 25.688 92.5312 25.688C92.0726 25.688 91.6779 25.768 91.3472 25.928C91.0166 26.088 90.7392 26.312 90.5152 26.6C90.3019 26.8773 90.1419 27.208 90.0352 27.592C89.9392 27.9653 89.8912 28.3653 89.8912 28.792C89.8912 29.2293 89.9392 29.6347 90.0352 30.008C90.1419 30.3813 90.3019 30.712 90.5152 31C90.7392 31.2773 91.0166 31.496 91.3472 31.656C91.6779 31.816 92.0726 31.896 92.5312 31.896ZM99.0727 29.048C99.1261 28.28 99.1634 27.5333 99.1847 26.808C99.2167 26.0827 99.2381 25.336 99.2487 24.568H105.105V33H103.745V25.768H100.577L100.433 29.08C100.411 29.5067 100.363 29.9867 100.289 30.52C100.214 31.0533 100.059 31.5387 99.8247 31.976C99.6434 32.2853 99.3981 32.536 99.0887 32.728C98.7794 32.92 98.4221 33.016 98.0167 33.016H97.5207V31.816C97.9474 31.816 98.2887 31.6347 98.5447 31.272C98.6941 31.0587 98.8114 30.7493 98.8967 30.344C98.9821 29.9387 99.0407 29.5067 99.0727 29.048ZM110.954 24.472C111.626 24.472 112.207 24.5787 112.698 24.792C113.189 25.0053 113.599 25.304 113.93 25.688C114.271 26.072 114.522 26.5307 114.682 27.064C114.853 27.5867 114.938 28.1627 114.938 28.792C114.938 29.4213 114.853 30.0027 114.682 30.536C114.522 31.0587 114.271 31.512 113.93 31.896C113.599 32.2693 113.183 32.5627 112.682 32.776C112.181 32.9893 111.594 33.096 110.922 33.096C110.25 33.096 109.663 32.9893 109.162 32.776C108.671 32.5627 108.255 32.2693 107.914 31.896C107.583 31.512 107.333 31.0587 107.162 30.536C107.002 30.0027 106.922 29.4213 106.922 28.792C106.922 28.1627 107.002 27.5867 107.162 27.064C107.333 26.5307 107.583 26.072 107.914 25.688C108.255 25.304 108.677 25.0053 109.178 24.792C109.679 24.5787 110.271 24.472 110.954 24.472ZM110.922 31.896C111.381 31.896 111.775 31.816 112.106 31.656C112.447 31.496 112.725 31.2773 112.938 31C113.162 30.712 113.322 30.3813 113.418 30.008C113.525 29.6347 113.578 29.2293 113.578 28.792C113.578 28.3653 113.525 27.9653 113.418 27.592C113.322 27.208 113.162 26.8773 112.938 26.6C112.725 26.312 112.447 26.088 112.106 25.928C111.775 25.768 111.381 25.688 110.922 25.688C110.463 25.688 110.069 25.768 109.738 25.928C109.407 26.088 109.13 26.312 108.906 26.6C108.693 26.8773 108.533 27.208 108.426 27.592C108.33 27.9653 108.282 28.3653 108.282 28.792C108.282 29.2293 108.33 29.6347 108.426 30.008C108.533 30.3813 108.693 30.712 108.906 31C109.13 31.2773 109.407 31.496 109.738 31.656C110.069 31.816 110.463 31.896 110.922 31.896ZM122.981 24.568V25.768H120.085V33H118.725V25.768H115.829V24.568H122.981ZM127.907 24.472C128.579 24.472 129.16 24.5787 129.651 24.792C130.142 25.0053 130.552 25.304 130.883 25.688C131.224 26.072 131.475 26.5307 131.635 27.064C131.806 27.5867 131.891 28.1627 131.891 28.792C131.891 29.4213 131.806 30.0027 131.635 30.536C131.475 31.0587 131.224 31.512 130.883 31.896C130.552 32.2693 130.136 32.5627 129.635 32.776C129.134 32.9893 128.547 33.096 127.875 33.096C127.203 33.096 126.616 32.9893 126.115 32.776C125.624 32.5627 125.208 32.2693 124.867 31.896C124.536 31.512 124.286 31.0587 124.115 30.536C123.955 30.0027 123.875 29.4213 123.875 28.792C123.875 28.1627 123.955 27.5867 124.115 27.064C124.286 26.5307 124.536 26.072 124.867 25.688C125.208 25.304 125.63 25.0053 126.131 24.792C126.632 24.5787 127.224 24.472 127.907 24.472ZM127.875 31.896C128.334 31.896 128.728 31.816 129.059 31.656C129.4 31.496 129.678 31.2773 129.891 31C130.115 30.712 130.275 30.3813 130.371 30.008C130.478 29.6347 130.531 29.2293 130.531 28.792C130.531 28.3653 130.478 27.9653 130.371 27.592C130.275 27.208 130.115 26.8773 129.891 26.6C129.678 26.312 129.4 26.088 129.059 25.928C128.728 25.768 128.334 25.688 127.875 25.688C127.416 25.688 127.022 25.768 126.691 25.928C126.36 26.088 126.083 26.312 125.859 26.6C125.646 26.8773 125.486 27.208 125.379 27.592C125.283 27.9653 125.235 28.3653 125.235 28.792C125.235 29.2293 125.283 29.6347 125.379 30.008C125.486 30.3813 125.646 30.712 125.859 31C126.083 31.2773 126.36 31.496 126.691 31.656C127.022 31.816 127.416 31.896 127.875 31.896ZM137.535 22.408C137.983 22.408 138.34 22.3227 138.607 22.152C138.884 21.9813 139.023 21.6827 139.023 21.256H140.271C140.249 22.024 139.993 22.584 139.503 22.936C139.023 23.288 138.361 23.464 137.519 23.464C136.676 23.464 136.015 23.288 135.535 22.936C135.065 22.584 134.82 22.024 134.799 21.256H136.047C136.057 21.6827 136.196 21.9813 136.463 22.152C136.729 22.3227 137.087 22.408 137.535 22.408ZM135.039 33H133.711V24.568H135.071V31.032C135.145 30.8827 135.247 30.7227 135.375 30.552C135.503 30.3707 135.604 30.232 135.679 30.136L139.759 24.568H141.103V33H139.743V26.536C139.657 26.696 139.561 26.8507 139.455 27C139.359 27.1387 139.268 27.2613 139.183 27.368L135.039 33ZM147.554 33V24.568H154.546V33H153.186V25.768H148.914V33H147.554ZM162.247 31.928C162.066 32.1733 161.858 32.3707 161.623 32.52C161.388 32.6693 161.143 32.7867 160.887 32.872C160.642 32.9573 160.391 33.016 160.135 33.048C159.89 33.08 159.644 33.096 159.399 33.096C159.004 33.096 158.631 33.048 158.279 32.952C157.927 32.856 157.607 32.7013 157.319 32.488C157.042 32.2747 156.818 32.008 156.647 31.688C156.487 31.368 156.407 31.0053 156.407 30.6C156.407 30.12 156.492 29.72 156.663 29.4C156.844 29.0693 157.084 28.8027 157.383 28.6C157.682 28.3973 158.023 28.2587 158.407 28.184C158.802 28.0987 159.218 28.056 159.655 28.056H162.135C162.135 27.3413 161.98 26.776 161.671 26.36C161.362 25.9333 160.839 25.7093 160.103 25.688C159.655 25.688 159.26 25.7627 158.919 25.912C158.578 26.0613 158.343 26.3067 158.215 26.648H156.759C156.834 26.264 156.983 25.9387 157.207 25.672C157.431 25.3947 157.698 25.1707 158.007 25C158.316 24.8187 158.652 24.6853 159.015 24.6C159.378 24.5147 159.74 24.472 160.103 24.472C160.732 24.472 161.26 24.5787 161.687 24.792C162.124 24.9947 162.476 25.2667 162.743 25.608C163.01 25.9387 163.196 26.344 163.303 26.824C163.41 27.304 163.463 27.8427 163.463 28.44V33H162.327L162.247 31.928ZM160.647 29.192C160.391 29.192 160.092 29.1973 159.751 29.208C159.42 29.208 159.1 29.24 158.791 29.304C158.482 29.368 158.231 29.5013 158.039 29.704C157.858 29.9067 157.767 30.1733 157.767 30.504C157.767 30.7493 157.815 30.9573 157.911 31.128C158.007 31.2987 158.135 31.4427 158.295 31.56C158.466 31.6773 158.658 31.7627 158.871 31.816C159.084 31.8693 159.303 31.896 159.527 31.896C160.327 31.896 160.956 31.704 161.415 31.32C161.884 30.9253 162.124 30.3547 162.135 29.608V29.192H160.647ZM170.578 28.472C171.122 28.6427 171.501 28.9093 171.714 29.272C171.927 29.6347 172.034 30.0667 172.034 30.568C172.023 31.016 171.917 31.4 171.714 31.72C171.522 32.04 171.266 32.3013 170.946 32.504C170.626 32.7067 170.263 32.856 169.858 32.952C169.453 33.048 169.037 33.096 168.61 33.096C168.205 33.096 167.794 33.0587 167.378 32.984C166.973 32.9093 166.605 32.7813 166.274 32.6C165.943 32.4187 165.666 32.1787 165.442 31.88C165.229 31.5813 165.111 31.2027 165.09 30.744H166.418C166.461 30.968 166.562 31.1547 166.722 31.304C166.882 31.4427 167.069 31.56 167.282 31.656C167.506 31.7413 167.735 31.8053 167.97 31.848C168.215 31.88 168.434 31.896 168.626 31.896C168.85 31.896 169.079 31.88 169.314 31.848C169.559 31.816 169.783 31.752 169.986 31.656C170.189 31.56 170.354 31.4267 170.482 31.256C170.61 31.0747 170.674 30.8453 170.674 30.568C170.674 30.344 170.626 30.1413 170.53 29.96C170.434 29.768 170.285 29.624 170.082 29.528C169.901 29.4427 169.693 29.3947 169.458 29.384C169.223 29.3627 169.005 29.352 168.802 29.352H167.298V28.152H168.53C168.733 28.152 168.941 28.136 169.154 28.104C169.367 28.0613 169.559 27.992 169.73 27.896C169.911 27.8 170.055 27.6773 170.162 27.528C170.279 27.368 170.343 27.144 170.354 26.856C170.354 26.632 170.301 26.4453 170.194 26.296C170.098 26.1467 169.965 26.0293 169.794 25.944C169.634 25.848 169.447 25.784 169.234 25.752C169.031 25.7093 168.829 25.688 168.626 25.688C168.434 25.688 168.231 25.704 168.018 25.736C167.805 25.7573 167.607 25.8107 167.426 25.896C167.245 25.9707 167.09 26.0773 166.962 26.216C166.834 26.3547 166.754 26.536 166.722 26.76H165.378C165.389 26.3333 165.49 25.976 165.682 25.688C165.885 25.3893 166.141 25.1547 166.45 24.984C166.759 24.8027 167.101 24.6747 167.474 24.6C167.858 24.5147 168.237 24.472 168.61 24.472C168.983 24.472 169.351 24.5093 169.714 24.584C170.087 24.6587 170.418 24.7867 170.706 24.968C170.994 25.1387 171.229 25.368 171.41 25.656C171.591 25.944 171.682 26.3013 171.682 26.728C171.682 27.112 171.591 27.4533 171.41 27.752C171.229 28.0507 170.951 28.2907 170.578 28.472ZM174.495 29.048C174.548 28.28 174.585 27.5333 174.607 26.808C174.639 26.0827 174.66 25.336 174.671 24.568H180.527V33H179.167V25.768H175.999L175.855 29.08C175.833 29.5067 175.785 29.9867 175.711 30.52C175.636 31.0533 175.481 31.5387 175.247 31.976C175.065 32.2853 174.82 32.536 174.511 32.728C174.201 32.92 173.844 33.016 173.439 33.016H172.943V31.816C173.369 31.816 173.711 31.6347 173.967 31.272C174.116 31.0587 174.233 30.7493 174.319 30.344C174.404 29.9387 174.463 29.5067 174.495 29.048ZM187.088 27.864H196.864V29.112H187.088V27.864ZM203.749 21.688H211.349V22.952H205.141V26.76H210.725V28.04H205.141V31.736H211.349V33H203.749V21.688ZM212.235 24.568H213.771L216.427 31.688L219.035 24.568H220.587L217.339 33H215.483L212.235 24.568ZM222.829 29.288C222.861 29.6613 222.936 30.008 223.053 30.328C223.181 30.6373 223.352 30.9093 223.565 31.144C223.778 31.3787 224.04 31.5653 224.349 31.704C224.669 31.832 225.037 31.896 225.453 31.896C225.656 31.896 225.864 31.88 226.077 31.848C226.301 31.8053 226.509 31.7413 226.701 31.656C226.893 31.56 227.064 31.4373 227.213 31.288C227.362 31.1387 227.474 30.9573 227.549 30.744H228.941C228.845 31.1493 228.68 31.5013 228.445 31.8C228.221 32.0987 227.949 32.344 227.629 32.536C227.32 32.728 226.973 32.872 226.589 32.968C226.205 33.0533 225.816 33.096 225.421 33.096C224.749 33.096 224.162 32.9893 223.661 32.776C223.17 32.5627 222.76 32.2693 222.429 31.896C222.098 31.512 221.853 31.0587 221.693 30.536C221.533 30.0027 221.453 29.4213 221.453 28.792C221.453 28.1627 221.538 27.5867 221.709 27.064C221.89 26.5307 222.146 26.072 222.477 25.688C222.808 25.304 223.213 25.0053 223.693 24.792C224.173 24.5787 224.744 24.472 225.405 24.472C226.077 24.472 226.658 24.6053 227.149 24.872C227.64 25.1387 228.034 25.4907 228.333 25.928C228.632 26.3547 228.84 26.8187 228.957 27.32C229.085 27.8213 229.138 28.2853 229.117 28.712C229.117 28.808 229.112 28.904 229.101 29C229.101 29.096 229.096 29.192 229.085 29.288H222.829ZM227.741 28.104C227.72 27.3893 227.496 26.808 227.069 26.36C226.642 25.912 226.072 25.688 225.357 25.688C224.962 25.688 224.616 25.752 224.317 25.88C224.018 26.008 223.768 26.184 223.565 26.408C223.362 26.632 223.202 26.8933 223.085 27.192C222.968 27.48 222.893 27.784 222.861 28.104H227.741ZM230.945 33V24.568H232.257L232.321 25.848C232.46 25.6133 232.63 25.4107 232.833 25.24C233.046 25.0693 233.276 24.9253 233.521 24.808C233.766 24.6907 234.022 24.6053 234.289 24.552C234.566 24.4987 234.833 24.472 235.089 24.472C235.697 24.472 236.209 24.5733 236.625 24.776C237.041 24.968 237.372 25.24 237.617 25.592C237.862 25.9333 238.038 26.344 238.145 26.824C238.252 27.2933 238.305 27.8 238.305 28.344V33H236.945V28.712C236.945 28.3173 236.918 27.9387 236.865 27.576C236.822 27.2133 236.726 26.8933 236.577 26.616C236.438 26.328 236.236 26.0987 235.969 25.928C235.702 25.7573 235.345 25.672 234.897 25.672C234.46 25.6827 234.07 25.7893 233.729 25.992C233.398 26.1947 233.132 26.4347 232.929 26.712C232.684 27.064 232.518 27.4533 232.433 27.88C232.348 28.296 232.305 28.7173 232.305 29.144V33H230.945ZM242.526 24.568H245.118V25.768H242.526V30.152C242.526 30.3973 242.537 30.6267 242.558 30.84C242.59 31.0427 242.643 31.224 242.718 31.384C242.803 31.5333 242.921 31.656 243.07 31.752C243.23 31.8373 243.443 31.8853 243.71 31.896C243.955 31.896 244.169 31.8533 244.35 31.768C244.542 31.6827 244.702 31.5813 244.83 31.464L245.422 32.456C245.145 32.6907 244.857 32.856 244.558 32.952C244.259 33.048 243.929 33.096 243.566 33.096C243.107 33.096 242.723 33.032 242.414 32.904C242.105 32.7653 241.843 32.568 241.63 32.312C241.449 32.0667 241.326 31.7787 241.262 31.448C241.198 31.1173 241.166 30.744 241.166 30.328V25.768H239.79V24.568H241.166V22.04H242.526V24.568ZM84.0571 54V43.952H80.4251V42.688H89.0811V43.952H85.4491V54H84.0571ZM90.6416 50.288C90.6736 50.6613 90.7483 51.008 90.8656 51.328C90.9936 51.6373 91.1643 51.9093 91.3776 52.144C91.5909 52.3787 91.8523 52.5653 92.1616 52.704C92.4816 52.832 92.8496 52.896 93.2656 52.896C93.4683 52.896 93.6763 52.88 93.8896 52.848C94.1136 52.8053 94.3216 52.7413 94.5136 52.656C94.7056 52.56 94.8763 52.4373 95.0256 52.288C95.1749 52.1387 95.2869 51.9573 95.3616 51.744H96.7536C96.6576 52.1493 96.4923 52.5013 96.2576 52.8C96.0336 53.0987 95.7616 53.344 95.4416 53.536C95.1323 53.728 94.7856 53.872 94.4016 53.968C94.0176 54.0533 93.6283 54.096 93.2336 54.096C92.5616 54.096 91.9749 53.9893 91.4736 53.776C90.9829 53.5627 90.5723 53.2693 90.2416 52.896C89.9109 52.512 89.6656 52.0587 89.5056 51.536C89.3456 51.0027 89.2656 50.4213 89.2656 49.792C89.2656 49.1627 89.3509 48.5867 89.5216 48.064C89.7029 47.5307 89.9589 47.072 90.2896 46.688C90.6203 46.304 91.0256 46.0053 91.5056 45.792C91.9856 45.5787 92.5563 45.472 93.2176 45.472C93.8896 45.472 94.4709 45.6053 94.9616 45.872C95.4523 46.1387 95.8469 46.4907 96.1456 46.928C96.4443 47.3547 96.6523 47.8187 96.7696 48.32C96.8976 48.8213 96.9509 49.2853 96.9296 49.712C96.9296 49.808 96.9243 49.904 96.9136 50C96.9136 50.096 96.9083 50.192 96.8976 50.288H90.6416ZM95.5536 49.104C95.5323 48.3893 95.3083 47.808 94.8816 47.36C94.4549 46.912 93.8843 46.688 93.1696 46.688C92.7749 46.688 92.4283 46.752 92.1296 46.88C91.8309 47.008 91.5803 47.184 91.3776 47.408C91.1749 47.632 91.0149 47.8933 90.8976 48.192C90.7803 48.48 90.7056 48.784 90.6736 49.104H95.5536ZM102.514 54.096C101.842 54.096 101.26 53.9893 100.77 53.776C100.279 53.5627 99.8737 53.264 99.5537 52.88C99.2337 52.496 98.9937 52.0427 98.8337 51.52C98.6737 50.9973 98.5937 50.4267 98.5937 49.808C98.5937 49.2107 98.6791 48.6507 98.8497 48.128C99.0204 47.5947 99.2711 47.136 99.6017 46.752C99.9324 46.3573 100.348 46.048 100.85 45.824C101.351 45.5893 101.959 45.472 102.674 45.472C103.1 45.472 103.479 45.52 103.81 45.616C104.14 45.7013 104.45 45.8453 104.738 46.048C105.036 46.24 105.292 46.496 105.506 46.816C105.719 47.136 105.874 47.5253 105.97 47.984H104.578C104.418 47.5147 104.162 47.1787 103.81 46.976C103.468 46.7733 103.063 46.6773 102.594 46.688C102.135 46.688 101.73 46.7787 101.378 46.96C101.036 47.1307 100.759 47.36 100.546 47.648C100.343 47.936 100.194 48.272 100.098 48.656C100.002 49.0293 99.9537 49.4133 99.9537 49.808C99.9537 50.224 100.002 50.6187 100.098 50.992C100.204 51.3653 100.359 51.696 100.562 51.984C100.775 52.2613 101.047 52.4853 101.378 52.656C101.708 52.816 102.103 52.896 102.562 52.896C102.786 52.896 103.004 52.8747 103.218 52.832C103.442 52.7893 103.644 52.72 103.826 52.624C104.018 52.5173 104.183 52.3787 104.322 52.208C104.46 52.0373 104.562 51.8293 104.626 51.584H106.034C105.948 52.0213 105.794 52.4 105.57 52.72C105.356 53.0293 105.09 53.2907 104.77 53.504C104.45 53.7067 104.098 53.856 103.714 53.952C103.33 54.048 102.93 54.096 102.514 54.096ZM107.757 54V42.688H109.117V46.864C109.256 46.6507 109.432 46.4533 109.645 46.272C109.859 46.0907 110.083 45.9413 110.317 45.824C110.552 45.7067 110.808 45.6213 111.085 45.568C111.373 45.504 111.651 45.472 111.917 45.472C112.525 45.472 113.032 45.5733 113.437 45.776C113.853 45.968 114.184 46.24 114.429 46.592C114.685 46.9333 114.861 47.344 114.957 47.824C115.064 48.2933 115.117 48.8053 115.117 49.36V54H113.757V49.776C113.757 49.392 113.736 49.0187 113.693 48.656C113.651 48.2827 113.555 47.952 113.405 47.664C113.256 47.376 113.043 47.1413 112.765 46.96C112.488 46.768 112.109 46.672 111.629 46.672C111.235 46.672 110.867 46.7733 110.525 46.976C110.195 47.168 109.928 47.4133 109.725 47.712C109.48 48.0427 109.315 48.4107 109.229 48.816C109.155 49.2213 109.117 49.6373 109.117 50.064V54H107.757ZM117.211 54V45.568H118.523L118.587 46.848C118.725 46.6133 118.896 46.4107 119.099 46.24C119.312 46.0693 119.541 45.9253 119.787 45.808C120.032 45.6907 120.288 45.6053 120.555 45.552C120.832 45.4987 121.099 45.472 121.355 45.472C121.963 45.472 122.475 45.5733 122.891 45.776C123.307 45.968 123.637 46.24 123.883 46.592C124.128 46.9333 124.304 47.344 124.411 47.824C124.517 48.2933 124.571 48.8 124.571 49.344V54H123.211V49.712C123.211 49.3173 123.184 48.9387 123.131 48.576C123.088 48.2133 122.992 47.8933 122.843 47.616C122.704 47.328 122.501 47.0987 122.235 46.928C121.968 46.7573 121.611 46.672 121.163 46.672C120.725 46.6827 120.336 46.7893 119.995 46.992C119.664 47.1947 119.397 47.4347 119.195 47.712C118.949 48.064 118.784 48.4533 118.699 48.88C118.613 49.296 118.571 49.7173 118.571 50.144V54H117.211ZM130.376 45.472C131.048 45.472 131.629 45.5787 132.12 45.792C132.61 46.0053 133.021 46.304 133.352 46.688C133.693 47.072 133.944 47.5307 134.104 48.064C134.274 48.5867 134.36 49.1627 134.36 49.792C134.36 50.4213 134.274 51.0027 134.104 51.536C133.944 52.0587 133.693 52.512 133.352 52.896C133.021 53.2693 132.605 53.5627 132.104 53.776C131.602 53.9893 131.016 54.096 130.344 54.096C129.672 54.096 129.085 53.9893 128.584 53.776C128.093 53.5627 127.677 53.2693 127.336 52.896C127.005 52.512 126.754 52.0587 126.584 51.536C126.424 51.0027 126.344 50.4213 126.344 49.792C126.344 49.1627 126.424 48.5867 126.584 48.064C126.754 47.5307 127.005 47.072 127.336 46.688C127.677 46.304 128.104 46.0053 128.616 45.792C129.128 45.5787 129.714 45.472 130.376 45.472ZM130.344 52.896C130.802 52.896 131.197 52.816 131.528 52.656C131.869 52.496 132.146 52.2773 132.36 52C132.584 51.712 132.744 51.3813 132.84 51.008C132.946 50.6347 133 50.2293 133 49.792C133 49.3653 132.946 48.9653 132.84 48.592C132.744 48.208 132.584 47.8773 132.36 47.6C132.146 47.312 131.869 47.088 131.528 46.928C131.197 46.768 130.802 46.688 130.344 46.688C129.885 46.688 129.49 46.768 129.16 46.928C128.829 47.088 128.552 47.312 128.328 47.6C128.114 47.8773 127.954 48.208 127.848 48.592C127.752 48.9653 127.704 49.3653 127.704 49.792C127.704 50.2293 127.752 50.6347 127.848 51.008C127.954 51.3813 128.114 51.712 128.328 52C128.552 52.2773 128.829 52.496 129.16 52.656C129.49 52.816 129.885 52.896 130.344 52.896ZM136.179 54V42.688H137.539V54H136.179ZM143.391 45.472C144.063 45.472 144.645 45.5787 145.135 45.792C145.626 46.0053 146.037 46.304 146.367 46.688C146.709 47.072 146.959 47.5307 147.119 48.064C147.29 48.5867 147.375 49.1627 147.375 49.792C147.375 50.4213 147.29 51.0027 147.119 51.536C146.959 52.0587 146.709 52.512 146.367 52.896C146.037 53.2693 145.621 53.5627 145.119 53.776C144.618 53.9893 144.031 54.096 143.359 54.096C142.687 54.096 142.101 53.9893 141.599 53.776C141.109 53.5627 140.693 53.2693 140.351 52.896C140.021 52.512 139.77 52.0587 139.599 51.536C139.439 51.0027 139.359 50.4213 139.359 49.792C139.359 49.1627 139.439 48.5867 139.599 48.064C139.77 47.5307 140.021 47.072 140.351 46.688C140.693 46.304 141.119 46.0053 141.631 45.792C142.143 45.5787 142.73 45.472 143.391 45.472ZM143.359 52.896C143.818 52.896 144.213 52.816 144.543 52.656C144.885 52.496 145.162 52.2773 145.375 52C145.599 51.712 145.759 51.3813 145.855 51.008C145.962 50.6347 146.015 50.2293 146.015 49.792C146.015 49.3653 145.962 48.9653 145.855 48.592C145.759 48.208 145.599 47.8773 145.375 47.6C145.162 47.312 144.885 47.088 144.543 46.928C144.213 46.768 143.818 46.688 143.359 46.688C142.901 46.688 142.506 46.768 142.175 46.928C141.845 47.088 141.567 47.312 141.343 47.6C141.13 47.8773 140.97 48.208 140.863 48.592C140.767 48.9653 140.719 49.3653 140.719 49.792C140.719 50.2293 140.767 50.6347 140.863 51.008C140.97 51.3813 141.13 51.712 141.343 52C141.567 52.2773 141.845 52.496 142.175 52.656C142.506 52.816 142.901 52.896 143.359 52.896ZM156.715 53.936C156.715 55.1307 156.395 56.0693 155.755 56.752C155.115 57.4347 154.15 57.776 152.859 57.776C152.432 57.776 152.022 57.728 151.627 57.632C151.243 57.536 150.891 57.3813 150.571 57.168C150.262 56.9653 149.995 56.704 149.771 56.384C149.558 56.0747 149.408 55.7013 149.323 55.264H150.731C150.795 55.5093 150.902 55.712 151.051 55.872C151.211 56.0427 151.392 56.176 151.595 56.272C151.798 56.3787 152.016 56.4533 152.251 56.496C152.486 56.5387 152.715 56.56 152.939 56.56C153.366 56.56 153.734 56.4907 154.043 56.352C154.352 56.224 154.603 56.0427 154.795 55.808C154.987 55.5733 155.126 55.2907 155.211 54.96C155.307 54.64 155.355 54.288 155.355 53.904V52.736C155.078 53.2267 154.683 53.5787 154.171 53.792C153.659 53.9947 153.126 54.096 152.571 54.096C151.931 54.0853 151.376 53.9733 150.907 53.76C150.438 53.536 150.054 53.232 149.755 52.848C149.456 52.464 149.232 52.016 149.083 51.504C148.944 50.9813 148.875 50.416 148.875 49.808C148.875 49.2 148.95 48.6347 149.099 48.112C149.248 47.5787 149.478 47.12 149.787 46.736C150.096 46.3413 150.486 46.032 150.955 45.808C151.424 45.584 151.984 45.472 152.635 45.472C153.126 45.472 153.622 45.5627 154.123 45.744C154.624 45.9253 155.035 46.2187 155.355 46.624L155.419 45.568H156.715V53.936ZM152.747 46.688C152.288 46.688 151.899 46.7733 151.579 46.944C151.259 47.104 150.998 47.3227 150.795 47.6C150.603 47.8773 150.459 48.208 150.363 48.592C150.278 48.9653 150.235 49.3653 150.235 49.792C150.235 50.2613 150.278 50.6773 150.363 51.04C150.448 51.392 150.592 51.7067 150.795 51.984C150.998 52.2613 151.259 52.4853 151.579 52.656C151.899 52.816 152.294 52.896 152.763 52.896C153.307 52.896 153.755 52.768 154.107 52.512C154.459 52.256 154.742 51.936 154.955 51.552C155.104 51.2853 155.211 50.9973 155.275 50.688C155.339 50.368 155.371 50.0533 155.371 49.744C155.371 49.36 155.334 49.008 155.259 48.688C155.195 48.368 155.072 48.0693 154.891 47.792C154.678 47.4827 154.395 47.2213 154.043 47.008C153.691 46.7947 153.259 46.688 152.747 46.688ZM166.259 45.568V54C166.259 55.2267 165.939 56.16 165.299 56.8C164.659 57.4507 163.747 57.776 162.563 57.776C161.849 57.7653 161.203 57.6693 160.627 57.488C160.062 57.3173 159.539 57.008 159.059 56.56L159.651 55.488C160.067 55.8187 160.51 56.08 160.979 56.272C161.459 56.464 161.961 56.56 162.483 56.56C162.921 56.56 163.294 56.4907 163.603 56.352C163.913 56.224 164.163 56.0373 164.355 55.792C164.558 55.5573 164.702 55.2747 164.787 54.944C164.883 54.6133 164.931 54.256 164.931 53.872V52.864C164.793 53.0773 164.617 53.2693 164.403 53.44C164.201 53.6 163.977 53.7333 163.731 53.84C163.497 53.936 163.241 54.0053 162.963 54.048C162.697 54.1013 162.425 54.128 162.147 54.128C161.507 54.1173 160.974 54.016 160.547 53.824C160.131 53.632 159.795 53.3653 159.539 53.024C159.294 52.6827 159.118 52.2773 159.011 51.808C158.905 51.328 158.851 50.8 158.851 50.224V45.568H160.211V49.84C160.211 50.224 160.233 50.6027 160.275 50.976C160.329 51.3493 160.43 51.68 160.579 51.968C160.729 52.256 160.947 52.4907 161.235 52.672C161.523 52.8427 161.907 52.928 162.387 52.928C162.867 52.928 163.273 52.8267 163.603 52.624C163.945 52.4213 164.206 52.1653 164.387 51.856C164.59 51.536 164.723 51.184 164.787 50.8C164.862 50.416 164.899 50.0213 164.899 49.616V45.568H166.259ZM180.695 54L179.799 51.568H174.199L173.303 54H171.799L176.007 42.688H178.007L182.199 54H180.695ZM176.999 43.904L174.663 50.304H179.335L176.999 43.904ZM182.237 45.568H183.773L185.789 52.688L187.869 45.568H189.709L191.805 52.688L193.789 45.568H195.341L192.717 54H190.861L188.781 47.168L186.701 54H184.861L182.237 45.568ZM202.153 52.928C201.972 53.1733 201.764 53.3707 201.529 53.52C201.295 53.6693 201.049 53.7867 200.793 53.872C200.548 53.9573 200.297 54.016 200.041 54.048C199.796 54.08 199.551 54.096 199.305 54.096C198.911 54.096 198.537 54.048 198.185 53.952C197.833 53.856 197.513 53.7013 197.225 53.488C196.948 53.2747 196.724 53.008 196.553 52.688C196.393 52.368 196.313 52.0053 196.313 51.6C196.313 51.12 196.399 50.72 196.569 50.4C196.751 50.0693 196.991 49.8027 197.289 49.6C197.588 49.3973 197.929 49.2587 198.313 49.184C198.708 49.0987 199.124 49.056 199.561 49.056H202.041C202.041 48.3413 201.887 47.776 201.577 47.36C201.268 46.9333 200.745 46.7093 200.009 46.688C199.561 46.688 199.167 46.7627 198.825 46.912C198.484 47.0613 198.249 47.3067 198.121 47.648H196.665C196.74 47.264 196.889 46.9387 197.113 46.672C197.337 46.3947 197.604 46.1707 197.913 46C198.223 45.8187 198.559 45.6853 198.921 45.6C199.284 45.5147 199.647 45.472 200.009 45.472C200.639 45.472 201.167 45.5787 201.593 45.792C202.031 45.9947 202.383 46.2667 202.649 46.608C202.916 46.9387 203.103 47.344 203.209 47.824C203.316 48.304 203.369 48.8427 203.369 49.44V54H202.233L202.153 52.928ZM200.553 50.192C200.297 50.192 199.999 50.1973 199.657 50.208C199.327 50.208 199.007 50.24 198.697 50.304C198.388 50.368 198.137 50.5013 197.945 50.704C197.764 50.9067 197.673 51.1733 197.673 51.504C197.673 51.7493 197.721 51.9573 197.817 52.128C197.913 52.2987 198.041 52.4427 198.201 52.56C198.372 52.6773 198.564 52.7627 198.777 52.816C198.991 52.8693 199.209 52.896 199.433 52.896C200.233 52.896 200.863 52.704 201.321 52.32C201.791 51.9253 202.031 51.3547 202.041 50.608V50.192H200.553ZM205.476 54V45.568H206.788L206.852 46.88C207.162 46.3893 207.556 46.032 208.036 45.808C208.516 45.584 209.06 45.472 209.668 45.472H210.1V46.752H209.604C209.103 46.752 208.676 46.8373 208.324 47.008C207.972 47.168 207.684 47.392 207.46 47.68C207.247 47.9573 207.087 48.288 206.98 48.672C206.884 49.056 206.836 49.4613 206.836 49.888V54H205.476ZM218.809 54H217.513L217.449 52.736C217.161 53.216 216.761 53.5627 216.249 53.776C215.747 53.9893 215.219 54.096 214.665 54.096C214.025 54.0853 213.47 53.9733 213.001 53.76C212.531 53.536 212.147 53.232 211.849 52.848C211.55 52.464 211.326 52.016 211.177 51.504C211.038 50.9813 210.969 50.416 210.969 49.808C210.969 49.2 211.043 48.6347 211.193 48.112C211.342 47.5787 211.571 47.12 211.881 46.736C212.19 46.3413 212.579 46.032 213.049 45.808C213.518 45.584 214.078 45.472 214.729 45.472C215.219 45.472 215.715 45.5627 216.217 45.744C216.718 45.9253 217.129 46.2187 217.449 46.624V42.688H218.809V54ZM214.841 46.688C214.382 46.688 213.993 46.7733 213.673 46.944C213.353 47.104 213.091 47.3227 212.889 47.6C212.697 47.8773 212.553 48.208 212.457 48.592C212.371 48.9653 212.329 49.376 212.329 49.824C212.329 50.272 212.371 50.6773 212.457 51.04C212.542 51.392 212.686 51.7067 212.889 51.984C213.091 52.2613 213.353 52.4853 213.673 52.656C213.993 52.816 214.387 52.896 214.857 52.896C215.401 52.896 215.849 52.768 216.201 52.512C216.553 52.256 216.835 51.936 217.049 51.552C217.198 51.2853 217.305 50.9973 217.369 50.688C217.433 50.368 217.465 50.0533 217.465 49.744C217.465 49.36 217.427 49.008 217.353 48.688C217.289 48.368 217.166 48.0693 216.985 47.792C216.771 47.4827 216.489 47.2213 216.137 47.008C215.785 46.7947 215.353 46.688 214.841 46.688ZM223.953 46.688C223.761 46.688 223.564 46.704 223.361 46.736C223.169 46.7573 222.977 46.8107 222.785 46.896C222.604 46.9707 222.444 47.088 222.305 47.248C222.177 47.3973 222.108 47.6 222.097 47.856C222.097 48.2187 222.23 48.4907 222.497 48.672C222.774 48.8533 223.132 48.9867 223.569 49.072C223.75 49.1147 223.948 49.1573 224.161 49.2C224.374 49.232 224.582 49.2693 224.785 49.312C224.998 49.344 225.196 49.3813 225.377 49.424C225.569 49.4667 225.729 49.5093 225.857 49.552C226.881 49.872 227.393 50.56 227.393 51.616C227.382 52.128 227.27 52.544 227.057 52.864C226.854 53.1733 226.593 53.4187 226.273 53.6C225.964 53.7813 225.606 53.9093 225.201 53.984C224.806 54.0587 224.412 54.096 224.017 54.096C223.633 54.096 223.244 54.0587 222.849 53.984C222.454 53.9093 222.092 53.7813 221.761 53.6C221.441 53.408 221.164 53.1627 220.929 52.864C220.705 52.5547 220.561 52.1707 220.497 51.712H221.873C221.958 51.968 222.092 52.1707 222.273 52.32C222.454 52.4693 222.646 52.5867 222.849 52.672C223.062 52.7573 223.26 52.816 223.441 52.848C223.633 52.88 223.846 52.896 224.081 52.896C224.252 52.896 224.449 52.8853 224.673 52.864C224.897 52.8427 225.11 52.7947 225.313 52.72C225.516 52.6347 225.686 52.512 225.825 52.352C225.964 52.192 226.033 51.968 226.033 51.68C226.033 51.36 225.926 51.12 225.713 50.96C225.51 50.8 225.228 50.6827 224.865 50.608C224.609 50.5547 224.342 50.5067 224.065 50.464C223.798 50.4107 223.526 50.3573 223.249 50.304C222.982 50.24 222.721 50.1707 222.465 50.096C222.209 50.0107 221.969 49.8987 221.745 49.76C221.446 49.5787 221.206 49.3333 221.025 49.024C220.844 48.7147 220.753 48.336 220.753 47.888C220.774 47.4187 220.881 47.0347 221.073 46.736C221.265 46.4267 221.51 46.176 221.809 45.984C222.129 45.792 222.47 45.6587 222.833 45.584C223.196 45.5093 223.58 45.472 223.985 45.472C224.849 45.472 225.537 45.6587 226.049 46.032C226.358 46.2453 226.598 46.5013 226.769 46.8C226.94 47.0987 227.046 47.4133 227.089 47.744H225.825C225.75 47.4347 225.548 47.184 225.217 46.992C224.886 46.8 224.465 46.6987 223.953 46.688ZM231.742 46.992H233.198L235.006 49.776L233.198 52.56H231.742L233.63 49.776L231.742 46.992ZM228.958 46.992H230.398L232.206 49.776L230.398 52.56H228.958L230.798 49.776L228.958 46.992ZM100.537 71.048C100.825 70.8027 101.14 70.536 101.481 70.248C101.833 69.9493 102.159 69.6293 102.457 69.288C102.767 68.9467 103.028 68.5893 103.241 68.216C103.455 67.832 103.567 67.416 103.577 66.968C103.599 66.2853 103.401 65.7627 102.985 65.4C102.569 65.0267 102.02 64.84 101.337 64.84C100.793 64.84 100.319 64.952 99.9134 65.176C99.508 65.4 99.2414 65.7253 99.1134 66.152H97.6254C97.7 65.7147 97.8547 65.336 98.0894 65.016C98.3347 64.6853 98.628 64.4133 98.9694 64.2C99.3214 63.9867 99.7054 63.8267 100.121 63.72C100.537 63.6133 100.964 63.56 101.401 63.56C101.924 63.56 102.404 63.6347 102.841 63.784C103.279 63.9227 103.657 64.1307 103.977 64.408C104.297 64.6853 104.543 65.032 104.713 65.448C104.895 65.8533 104.985 66.3173 104.985 66.84C104.985 67.3627 104.905 67.832 104.745 68.248C104.596 68.664 104.388 69.048 104.121 69.4C103.865 69.752 103.572 70.0827 103.241 70.392C102.911 70.7013 102.569 71.0107 102.217 71.32L99.3534 73.736H105.113V75H97.3374V73.848L100.537 71.048ZM115.664 69.352C115.664 70.0773 115.589 70.7867 115.44 71.48C115.301 72.1733 115.061 72.792 114.72 73.336C114.379 73.8693 113.925 74.3013 113.36 74.632C112.795 74.9627 112.091 75.128 111.248 75.128C110.395 75.128 109.685 74.9627 109.12 74.632C108.555 74.3013 108.101 73.8693 107.76 73.336C107.419 72.792 107.179 72.184 107.04 71.512C106.901 70.84 106.832 70.12 106.832 69.352C106.832 68.584 106.901 67.864 107.04 67.192C107.179 66.5093 107.419 65.9013 107.76 65.368C108.101 64.8347 108.555 64.4027 109.12 64.072C109.685 63.7307 110.395 63.56 111.248 63.56C112.091 63.56 112.795 63.7253 113.36 64.056C113.925 64.3867 114.379 64.824 114.72 65.368C115.061 65.912 115.301 66.5307 115.44 67.224C115.589 67.9173 115.664 68.6267 115.664 69.352ZM108.256 69.352C108.256 69.864 108.293 70.3867 108.368 70.92C108.443 71.4533 108.587 71.9387 108.8 72.376C109.013 72.8133 109.312 73.1707 109.696 73.448C110.091 73.7253 110.608 73.864 111.248 73.864C111.877 73.864 112.384 73.7253 112.768 73.448C113.163 73.1707 113.467 72.8133 113.68 72.376C113.893 71.9387 114.037 71.4533 114.112 70.92C114.187 70.3867 114.224 69.864 114.224 69.352C114.224 68.8507 114.187 68.3333 114.112 67.8C114.037 67.2667 113.893 66.7813 113.68 66.344C113.467 65.896 113.163 65.5333 112.768 65.256C112.384 64.968 111.877 64.824 111.248 64.824C110.608 64.824 110.091 64.968 109.696 65.256C109.312 65.5333 109.013 65.896 108.8 66.344C108.587 66.7813 108.443 67.2667 108.368 67.8C108.293 68.3333 108.256 68.8507 108.256 69.352ZM120.656 75H119.264V65.928H116.96V64.984C117.28 64.9627 117.574 64.936 117.84 64.904C118.107 64.8613 118.352 64.792 118.576 64.696C118.8 64.6 119.003 64.472 119.184 64.312C119.366 64.152 119.531 63.944 119.68 63.688H120.656V75ZM127.029 75.128C126.581 75.128 126.128 75.0853 125.669 75C125.221 74.9147 124.8 74.7707 124.405 74.568C124.021 74.3547 123.69 74.0773 123.413 73.736C123.146 73.3947 122.976 72.9733 122.901 72.472H124.341C124.437 72.7493 124.581 72.9787 124.773 73.16C124.976 73.3307 125.2 73.4693 125.445 73.576C125.701 73.6827 125.968 73.7573 126.245 73.8C126.522 73.8427 126.789 73.864 127.045 73.864C127.28 73.864 127.546 73.8427 127.845 73.8C128.144 73.7573 128.421 73.6667 128.677 73.528C128.944 73.3893 129.162 73.1867 129.333 72.92C129.514 72.6427 129.605 72.28 129.605 71.832C129.605 71.4053 129.52 71.064 129.349 70.808C129.189 70.552 128.976 70.3547 128.709 70.216C128.453 70.0773 128.16 69.9867 127.829 69.944C127.509 69.9013 127.184 69.88 126.853 69.88H125.765V68.632H126.421C126.709 68.632 126.976 68.6267 127.221 68.616C127.466 68.5947 127.738 68.52 128.037 68.392C128.378 68.232 128.65 68.008 128.853 67.72C129.056 67.4213 129.162 67.08 129.173 66.696C129.173 66.312 129.109 65.9973 128.981 65.752C128.853 65.5067 128.682 65.3147 128.469 65.176C128.256 65.0373 128.016 64.9467 127.749 64.904C127.482 64.8507 127.21 64.824 126.933 64.824C126.709 64.824 126.474 64.8507 126.229 64.904C125.994 64.9467 125.77 65.0213 125.557 65.128C125.354 65.2347 125.173 65.3787 125.013 65.56C124.853 65.7307 124.741 65.9387 124.677 66.184H123.285C123.349 65.7147 123.498 65.3147 123.733 64.984C123.968 64.6533 124.256 64.3813 124.597 64.168C124.949 63.9547 125.333 63.8 125.749 63.704C126.176 63.608 126.608 63.56 127.045 63.56C127.525 63.56 127.973 63.6133 128.389 63.72C128.816 63.816 129.189 63.9813 129.509 64.216C129.829 64.44 130.08 64.7387 130.261 65.112C130.453 65.4853 130.549 65.9387 130.549 66.472C130.549 66.6747 130.528 66.8933 130.485 67.128C130.442 67.352 130.362 67.576 130.245 67.8C130.128 68.024 129.957 68.248 129.733 68.472C129.509 68.696 129.216 68.8827 128.853 69.032C129.568 69.1707 130.112 69.4853 130.485 69.976C130.858 70.456 131.045 71.0373 131.045 71.72V71.784C131.045 72.3707 130.938 72.8773 130.725 73.304C130.522 73.72 130.24 74.0667 129.877 74.344C129.514 74.6107 129.088 74.808 128.597 74.936C128.106 75.064 127.584 75.128 127.029 75.128ZM133.999 75.032C133.722 75.0107 133.498 74.92 133.327 74.76C133.156 74.6 133.071 74.3867 133.071 74.12C133.082 73.8427 133.178 73.624 133.359 73.464C133.551 73.2933 133.77 73.208 134.015 73.208C134.324 73.208 134.57 73.32 134.751 73.544C134.943 73.768 135.039 74.0827 135.039 74.488C135.039 74.712 134.991 74.9573 134.895 75.224C134.81 75.5013 134.692 75.752 134.543 75.976C134.394 76.2 134.218 76.3973 134.015 76.568C133.823 76.7387 133.62 76.8613 133.407 76.936L133.023 76.408C133.236 76.2587 133.434 76.056 133.615 75.8C133.807 75.544 133.935 75.288 133.999 75.032ZM143.631 71.048C143.919 70.8027 144.234 70.536 144.575 70.248C144.927 69.9493 145.252 69.6293 145.551 69.288C145.86 68.9467 146.122 68.5893 146.335 68.216C146.548 67.832 146.66 67.416 146.671 66.968C146.692 66.2853 146.495 65.7627 146.079 65.4C145.663 65.0267 145.114 64.84 144.431 64.84C143.887 64.84 143.412 64.952 143.007 65.176C142.602 65.4 142.335 65.7253 142.207 66.152H140.719C140.794 65.7147 140.948 65.336 141.183 65.016C141.428 64.6853 141.722 64.4133 142.063 64.2C142.415 63.9867 142.799 63.8267 143.215 63.72C143.631 63.6133 144.058 63.56 144.495 63.56C145.018 63.56 145.498 63.6347 145.935 63.784C146.372 63.9227 146.751 64.1307 147.071 64.408C147.391 64.6853 147.636 65.032 147.807 65.448C147.988 65.8533 148.079 66.3173 148.079 66.84C148.079 67.3627 147.999 67.832 147.839 68.248C147.69 68.664 147.482 69.048 147.215 69.4C146.959 69.752 146.666 70.0827 146.335 70.392C146.004 70.7013 145.663 71.0107 145.311 71.32L142.447 73.736H148.207V75H140.431V73.848L143.631 71.048ZM158.758 69.352C158.758 70.0773 158.683 70.7867 158.534 71.48C158.395 72.1733 158.155 72.792 157.814 73.336C157.472 73.8693 157.019 74.3013 156.454 74.632C155.888 74.9627 155.184 75.128 154.342 75.128C153.488 75.128 152.779 74.9627 152.214 74.632C151.648 74.3013 151.195 73.8693 150.854 73.336C150.512 72.792 150.272 72.184 150.134 71.512C149.995 70.84 149.926 70.12 149.926 69.352C149.926 68.584 149.995 67.864 150.134 67.192C150.272 66.5093 150.512 65.9013 150.854 65.368C151.195 64.8347 151.648 64.4027 152.214 64.072C152.779 63.7307 153.488 63.56 154.342 63.56C155.184 63.56 155.888 63.7253 156.454 64.056C157.019 64.3867 157.472 64.824 157.814 65.368C158.155 65.912 158.395 66.5307 158.534 67.224C158.683 67.9173 158.758 68.6267 158.758 69.352ZM151.35 69.352C151.35 69.864 151.387 70.3867 151.462 70.92C151.536 71.4533 151.68 71.9387 151.894 72.376C152.107 72.8133 152.406 73.1707 152.79 73.448C153.184 73.7253 153.702 73.864 154.342 73.864C154.971 73.864 155.478 73.7253 155.862 73.448C156.256 73.1707 156.56 72.8133 156.774 72.376C156.987 71.9387 157.131 71.4533 157.206 70.92C157.28 70.3867 157.318 69.864 157.318 69.352C157.318 68.8507 157.28 68.3333 157.206 67.8C157.131 67.2667 156.987 66.7813 156.774 66.344C156.56 65.896 156.256 65.5333 155.862 65.256C155.478 64.968 154.971 64.824 154.342 64.824C153.702 64.824 153.184 64.968 152.79 65.256C152.406 65.5333 152.107 65.896 151.894 66.344C151.68 66.7813 151.536 67.2667 151.462 67.8C151.387 68.3333 151.35 68.8507 151.35 69.352ZM163.75 75H162.358V65.928H160.054V64.984C160.374 64.9627 160.668 64.936 160.934 64.904C161.201 64.8613 161.446 64.792 161.67 64.696C161.894 64.6 162.097 64.472 162.278 64.312C162.46 64.152 162.625 63.944 162.774 63.688H163.75V75ZM173.675 63.688V71.48H175.003V72.744H173.675V75H172.283V72.744H166.139V71.704L171.675 63.688H173.675ZM167.819 71.48H172.283V64.952L167.819 71.48ZM177.64 75.032C177.362 75.0107 177.138 74.92 176.968 74.76C176.797 74.6 176.712 74.3867 176.712 74.12C176.722 73.8427 176.818 73.624 177 73.464C177.192 73.2933 177.41 73.208 177.656 73.208C177.965 73.208 178.21 73.32 178.392 73.544C178.584 73.768 178.68 74.0827 178.68 74.488C178.68 74.712 178.632 74.9573 178.536 75.224C178.45 75.5013 178.333 75.752 178.184 75.976C178.034 76.2 177.858 76.3973 177.656 76.568C177.464 76.7387 177.261 76.8613 177.048 76.936L176.664 76.408C176.877 76.2587 177.074 76.056 177.256 75.8C177.448 75.544 177.576 75.288 177.64 75.032ZM187.272 71.048C187.56 70.8027 187.874 70.536 188.216 70.248C188.568 69.9493 188.893 69.6293 189.192 69.288C189.501 68.9467 189.762 68.5893 189.976 68.216C190.189 67.832 190.301 67.416 190.312 66.968C190.333 66.2853 190.136 65.7627 189.72 65.4C189.304 65.0267 188.754 64.84 188.072 64.84C187.528 64.84 187.053 64.952 186.648 65.176C186.242 65.4 185.976 65.7253 185.848 66.152H184.36C184.434 65.7147 184.589 65.336 184.824 65.016C185.069 64.6853 185.362 64.4133 185.704 64.2C186.056 63.9867 186.44 63.8267 186.856 63.72C187.272 63.6133 187.698 63.56 188.136 63.56C188.658 63.56 189.138 63.6347 189.576 63.784C190.013 63.9227 190.392 64.1307 190.712 64.408C191.032 64.6853 191.277 65.032 191.448 65.448C191.629 65.8533 191.72 66.3173 191.72 66.84C191.72 67.3627 191.64 67.832 191.48 68.248C191.33 68.664 191.122 69.048 190.856 69.4C190.6 69.752 190.306 70.0827 189.976 70.392C189.645 70.7013 189.304 71.0107 188.952 71.32L186.088 73.736H191.848V75H184.072V73.848L187.272 71.048ZM202.398 69.352C202.398 70.0773 202.324 70.7867 202.174 71.48C202.036 72.1733 201.796 72.792 201.454 73.336C201.113 73.8693 200.66 74.3013 200.094 74.632C199.529 74.9627 198.825 75.128 197.982 75.128C197.129 75.128 196.42 74.9627 195.854 74.632C195.289 74.3013 194.836 73.8693 194.494 73.336C194.153 72.792 193.913 72.184 193.774 71.512C193.636 70.84 193.566 70.12 193.566 69.352C193.566 68.584 193.636 67.864 193.774 67.192C193.913 66.5093 194.153 65.9013 194.494 65.368C194.836 64.8347 195.289 64.4027 195.854 64.072C196.42 63.7307 197.129 63.56 197.982 63.56C198.825 63.56 199.529 63.7253 200.094 64.056C200.66 64.3867 201.113 64.824 201.454 65.368C201.796 65.912 202.036 66.5307 202.174 67.224C202.324 67.9173 202.398 68.6267 202.398 69.352ZM194.99 69.352C194.99 69.864 195.028 70.3867 195.102 70.92C195.177 71.4533 195.321 71.9387 195.534 72.376C195.748 72.8133 196.046 73.1707 196.43 73.448C196.825 73.7253 197.342 73.864 197.982 73.864C198.612 73.864 199.118 73.7253 199.502 73.448C199.897 73.1707 200.201 72.8133 200.414 72.376C200.628 71.9387 200.772 71.4533 200.846 70.92C200.921 70.3867 200.958 69.864 200.958 69.352C200.958 68.8507 200.921 68.3333 200.846 67.8C200.772 67.2667 200.628 66.7813 200.414 66.344C200.201 65.896 199.897 65.5333 199.502 65.256C199.118 64.968 198.612 64.824 197.982 64.824C197.342 64.824 196.825 64.968 196.43 65.256C196.046 65.5333 195.748 65.896 195.534 66.344C195.321 66.7813 195.177 67.2667 195.102 67.8C195.028 68.3333 194.99 68.8507 194.99 69.352ZM207.391 75H205.999V65.928H203.695V64.984C204.015 64.9627 204.308 64.936 204.575 64.904C204.842 64.8613 205.087 64.792 205.311 64.696C205.535 64.6 205.738 64.472 205.919 64.312C206.1 64.152 206.266 63.944 206.415 63.688H207.391V75ZM210.419 69.912L210.931 63.688H217.699V64.968H212.179L211.859 68.52C212.147 68.2853 212.499 68.0987 212.915 67.96C213.331 67.8107 213.843 67.736 214.451 67.736C214.995 67.736 215.491 67.8213 215.939 67.992C216.387 68.1627 216.771 68.408 217.091 68.728C217.411 69.0373 217.657 69.416 217.827 69.864C218.009 70.312 218.099 70.808 218.099 71.352C218.099 71.9493 217.993 72.4827 217.779 72.952C217.577 73.4107 217.294 73.8053 216.931 74.136C216.569 74.4667 216.137 74.7173 215.635 74.888C215.145 75.0587 214.611 75.144 214.035 75.144C213.566 75.144 213.113 75.0907 212.675 74.984C212.249 74.8773 211.859 74.7173 211.507 74.504C211.155 74.28 210.857 73.9973 210.611 73.656C210.366 73.3147 210.195 72.9093 210.099 72.44H211.507C211.593 72.664 211.721 72.8667 211.891 73.048C212.062 73.2187 212.254 73.368 212.467 73.496C212.691 73.6133 212.926 73.704 213.171 73.768C213.417 73.832 213.662 73.864 213.907 73.864C214.291 73.864 214.649 73.816 214.979 73.72C215.321 73.624 215.614 73.48 215.859 73.288C216.115 73.0853 216.313 72.8347 216.451 72.536C216.59 72.2267 216.659 71.8587 216.659 71.432C216.659 70.6533 216.425 70.056 215.955 69.64C215.486 69.224 214.878 69.016 214.131 69.016C213.683 69.016 213.267 69.096 212.883 69.256C212.51 69.416 212.169 69.6347 211.859 69.912H210.419Z" fill="white"/>
</svg>
