<svg width="152" height="53" viewBox="0 0 152 53" fill="none" xmlns="http://www.w3.org/2000/svg">
<path d="M21.2368 22.7299L21.349 22.7687C21.3711 22.8606 21.3906 22.9927 21.2544 22.9821L21.2149 22.9366C21.1902 22.8587 21.2126 22.8059 21.2368 22.7299Z" fill="#9C9C9C"/>
<path d="M25.6809 15.8319C26.2442 15.8634 27.9019 16.7894 27.687 17.1012C27.5567 17.2901 26.3909 17.525 26.1351 17.5515C25.3359 17.6185 23.8152 16.4595 24.1939 16.1451C24.4464 15.9357 25.3555 15.8154 25.6809 15.8319Z" fill="#9C9C9C"/>
<path d="M30.589 36.8048C31.0005 36.8181 32.7646 37.5732 32.4285 37.9153C32.1035 38.2457 31.0913 38.4602 30.6279 38.4618C29.9262 38.4095 29.1008 37.9404 28.6987 37.3886C29.2344 36.9548 29.9072 36.8093 30.589 36.8048Z" fill="#9C9C9C"/>
<path d="M28.2203 31.7587C28.7568 32.6214 28.7057 34.2157 27.8921 34.9356C27.6871 35.1171 27.3951 35.3496 27.1056 35.3357C26.0191 34.4093 27.1942 32.1709 28.2203 31.7587Z" fill="#9C9C9C"/>
<path d="M23.656 34.3442C24.1159 34.3561 24.729 34.6531 25.2587 34.7383C24.7461 35.6632 23.7664 36.0215 22.723 35.8881C22.1218 35.8062 21.4397 35.5536 21.1526 34.9956C21.7913 34.4714 22.8341 34.2883 23.656 34.3442Z" fill="#9C9C9C"/>
<path d="M24.2676 23.1836C24.5224 23.2299 24.8126 26.0829 22.5623 26.9162C22.4633 26.953 22.4039 26.9669 22.3045 26.9228C21.5532 25.3529 22.7417 23.7511 24.2676 23.1836Z" fill="#9C9C9C"/>
<path d="M21.2381 22.7295C21.2859 20.248 22.6799 19.06 25.2487 19.4793C24.806 21.5105 21.5158 21.9939 21.3501 22.7682L21.2381 22.7295Z" fill="#9C9C9C"/>
<path d="M18.9899 16.103C20.4812 16.8296 21.2703 18.4806 20.9778 20.0696C20.9464 20.2403 20.9 20.3602 20.7492 20.4637C20.1947 20.7298 19.4087 19.7038 19.1823 19.3267C18.5622 18.2938 18.6943 17.2051 18.9899 16.103Z" fill="#9C9C9C"/>
<path d="M28.3441 9.71159C28.5435 9.71331 28.4449 10.1551 28.4315 10.2882C28.2661 11.9318 26.8974 13.4037 25.3197 13.9421C25.0226 13.8971 25.3931 12.5747 25.458 12.3628C25.8572 11.0582 27.0777 10.1648 28.3441 9.71159Z" fill="#9C9C9C"/>
<path d="M26.494 37.2901C26.9942 37.3119 29.1667 38.2214 28.3663 38.8294C27.6964 39.3383 26.7013 39.5694 25.8656 39.4675C25.5894 39.4324 25.2556 39.4041 25.0059 39.2819C24.7619 39.1623 23.4822 38.4928 23.8366 38.1631C24.5264 37.5212 25.5551 37.2482 26.494 37.2901Z" fill="#9C9C9C"/>
<path d="M22.6512 10.9845C24.011 12.1305 24.558 14.8627 23.0519 16.0755C22.2572 16.493 21.7362 14.3034 21.7381 13.8477C21.7411 13.1622 22.2115 11.4063 22.6512 10.9845Z" fill="#9C9C9C"/>
<path d="M19.7597 28.6911C21.7701 28.8561 22.954 30.5335 23.3427 32.3159C22.9287 32.3082 22.5049 32.223 22.0957 32.1629C20.2195 31.9055 19.1174 30.8304 18.5561 29.0713C18.3726 28.4968 19.3129 28.6661 19.7597 28.6911Z" fill="#9C9C9C"/>
<path d="M25.0921 28.1407C25.4591 28.1616 26.0319 29.193 26.2008 29.496C26.5719 30.1609 26.9631 32.1018 26.1161 32.5277C25.8309 32.5182 25.5529 32.4614 25.2736 32.4094C24.7273 32.2895 24.4051 32.0537 23.798 32.0341C22.8141 30.825 23.8453 28.8663 25.0921 28.1407Z" fill="#9C9C9C"/>
<path d="M17.4465 22.9778C17.7429 23.0683 18.0638 23.1145 18.3663 23.1878C20.299 23.6556 20.8899 24.8988 21.458 26.5679C21.542 26.8145 22.0955 28.1227 22.0743 28.2034C21.9688 28.1291 21.9153 28.0354 21.8492 27.9299C21.1558 26.8211 19.2443 27.618 17.9532 25.305C17.6314 24.7284 17.2616 23.5782 17.4465 22.9778Z" fill="#9C9C9C"/>
<path d="M130.73 22.7299L130.618 22.7687C130.596 22.8606 130.576 22.9927 130.712 22.9821L130.752 22.9366C130.777 22.8587 130.754 22.8059 130.73 22.7299Z" fill="#9C9C9C"/>
<path d="M126.284 15.8317C125.721 15.8633 124.063 16.7893 124.278 17.101C124.408 17.29 125.574 17.5248 125.83 17.5513C126.629 17.6183 128.15 16.4593 127.771 16.145C127.518 15.9356 126.609 15.8153 126.284 15.8317Z" fill="#9C9C9C"/>
<path d="M121.378 36.8048C120.966 36.8181 119.202 37.5732 119.538 37.9153C119.863 38.2457 120.876 38.4602 121.339 38.4618C122.041 38.4095 122.866 37.9404 123.268 37.3886C122.732 36.9548 122.06 36.8093 121.378 36.8048Z" fill="#9C9C9C"/>
<path d="M123.748 31.7587C123.212 32.6214 123.263 34.2157 124.077 34.9356C124.282 35.1171 124.574 35.3496 124.863 35.3357C125.95 34.4093 124.775 32.1709 123.748 31.7587Z" fill="#9C9C9C"/>
<path d="M128.313 34.3442C127.853 34.3561 127.24 34.6531 126.71 34.7383C127.223 35.6632 128.202 36.0215 129.246 35.8881C129.847 35.8062 130.529 35.5536 130.816 34.9956C130.177 34.4714 129.135 34.2883 128.313 34.3442Z" fill="#9C9C9C"/>
<path d="M127.697 23.1836C127.442 23.2299 127.152 26.0829 129.403 26.9162C129.502 26.953 129.561 26.9669 129.66 26.9228C130.412 25.3529 129.223 23.7511 127.697 23.1836Z" fill="#9C9C9C"/>
<path d="M130.727 22.7295C130.679 20.248 129.285 19.06 126.716 19.4793C127.159 21.5105 130.449 21.9939 130.615 22.7682L130.727 22.7295Z" fill="#9C9C9C"/>
<path d="M132.979 16.103C131.488 16.8296 130.698 18.4806 130.991 20.0696C131.022 20.2403 131.069 20.3602 131.22 20.4637C131.774 20.7298 132.56 19.7038 132.786 19.3267C133.407 18.2938 133.274 17.2051 132.979 16.103Z" fill="#9C9C9C"/>
<path d="M123.623 9.71159C123.423 9.71331 123.522 10.1551 123.535 10.2882C123.701 11.9318 125.069 13.4037 126.647 13.9421C126.944 13.8971 126.574 12.5747 126.509 12.3628C126.11 11.0582 124.889 10.1648 123.623 9.71159Z" fill="#9C9C9C"/>
<path d="M125.473 37.2901C124.973 37.3119 122.8 38.2214 123.601 38.8294C124.27 39.3383 125.265 39.5694 126.101 39.4675C126.377 39.4324 126.711 39.4041 126.961 39.2819C127.205 39.1623 128.485 38.4928 128.13 38.1631C127.44 37.5212 126.412 37.2482 125.473 37.2901Z" fill="#9C9C9C"/>
<path d="M129.319 10.9845C127.96 12.1305 127.413 14.8627 128.919 16.0755C129.713 16.493 130.235 14.3034 130.233 13.8477C130.23 13.1622 129.759 11.4063 129.319 10.9845Z" fill="#9C9C9C"/>
<path d="M132.205 28.6911C130.195 28.8561 129.011 30.5335 128.622 32.3159C129.036 32.3082 129.46 32.223 129.869 32.1629C131.745 31.9055 132.847 30.8304 133.409 29.0713C133.592 28.4968 132.652 28.6661 132.205 28.6911Z" fill="#9C9C9C"/>
<path d="M126.871 28.1407C126.504 28.1616 125.931 29.193 125.762 29.496C125.391 30.1609 125 32.1018 125.847 32.5277C126.132 32.5182 126.41 32.4614 126.689 32.4094C127.236 32.2895 127.558 32.0537 128.165 32.0341C129.149 30.825 128.118 28.8663 126.871 28.1407Z" fill="#9C9C9C"/>
<path d="M134.52 22.9778C134.224 23.0683 133.903 23.1145 133.6 23.1878C131.668 23.6556 131.077 24.8988 130.509 26.5679C130.425 26.8145 129.871 28.1227 129.893 28.2034C129.998 28.1291 130.051 28.0354 130.118 27.9299C130.811 26.8211 132.722 27.618 134.014 25.305C134.335 24.7284 134.705 23.5782 134.52 22.9778Z" fill="#9C9C9C"/>
<path d="M37.9638 15.8236H37.2317L36.3227 14.4238L37.2317 13.024H37.9638L37.0145 14.4238L37.9638 15.8236ZM39.3635 15.8236H38.6395L37.7305 14.4238L38.6395 13.024H39.3635L38.4384 14.4238L39.3635 15.8236ZM40.5347 16.5476V10.86H44.1951V11.4956H41.2346V16.5476H40.5347ZM45.3314 18.0761H44.6476V12.3081H45.2992L45.3314 12.9597C45.4762 12.7291 45.6719 12.5575 45.9186 12.4448C46.1707 12.3268 46.4415 12.2652 46.7311 12.2598C47.0583 12.2598 47.3345 12.3161 47.5597 12.4287C47.7904 12.536 47.9807 12.6888 48.1309 12.8873C48.2864 13.0804 48.4017 13.311 48.4768 13.5791C48.5519 13.8419 48.5895 14.1262 48.5895 14.4319C48.5895 14.7429 48.5519 15.0298 48.4768 15.2926C48.4017 15.5554 48.2864 15.7834 48.1309 15.9764C47.9754 16.1695 47.7796 16.3224 47.5436 16.435C47.3077 16.5422 47.0261 16.5959 46.699 16.5959C46.3772 16.5959 46.1037 16.5449 45.8784 16.443C45.6532 16.3411 45.4708 16.207 45.3314 16.0408V18.0761ZM46.6426 15.9925C46.8733 15.9925 47.0663 15.9523 47.2219 15.8719C47.3828 15.786 47.5115 15.6734 47.608 15.534C47.7099 15.3892 47.7823 15.2229 47.8252 15.0352C47.8735 14.8475 47.9003 14.6464 47.9057 14.4319C47.9057 14.2173 47.8815 14.0162 47.8333 13.8285C47.7904 13.6354 47.718 13.4692 47.6161 13.3297C47.5142 13.1903 47.3801 13.0804 47.2138 12.9999C47.0529 12.9141 46.8572 12.8712 46.6266 12.8712C46.353 12.8712 46.1171 12.9463 45.9186 13.0964C45.7202 13.2412 45.57 13.4263 45.4681 13.6515C45.4091 13.7749 45.3689 13.9036 45.3475 14.0377C45.326 14.1664 45.3153 14.3005 45.3153 14.4399C45.3153 14.6008 45.326 14.751 45.3475 14.8904C45.3689 15.0245 45.4091 15.1532 45.4681 15.2766C45.57 15.4803 45.7175 15.652 45.9106 15.7914C46.109 15.9255 46.353 15.9925 46.6426 15.9925ZM52.2627 16.0086C52.1716 16.132 52.067 16.2312 51.949 16.3063C51.831 16.3814 51.7076 16.4403 51.5789 16.4833C51.4556 16.5262 51.3295 16.5557 51.2008 16.5717C51.0775 16.5878 50.9541 16.5959 50.8308 16.5959C50.6323 16.5959 50.4446 16.5717 50.2676 16.5235C50.0907 16.4752 49.9298 16.3974 49.785 16.2902C49.6455 16.1829 49.5329 16.0488 49.4471 15.8879C49.3666 15.7271 49.3264 15.5447 49.3264 15.3409C49.3264 15.0996 49.3693 14.8985 49.4551 14.7376C49.5463 14.5713 49.667 14.4372 49.8171 14.3353C49.9673 14.2334 50.1389 14.1637 50.332 14.1262C50.5304 14.0833 50.7396 14.0618 50.9595 14.0618H52.2064C52.2064 13.7025 52.1286 13.4182 51.9731 13.2091C51.8176 12.9945 51.5548 12.8819 51.1847 12.8712C50.9595 12.8712 50.7611 12.9087 50.5894 12.9838C50.4178 13.0589 50.2998 13.1823 50.2355 13.3539H49.5034C49.5409 13.1608 49.616 12.9972 49.7287 12.8632C49.8413 12.7237 49.9754 12.6111 50.1309 12.5253C50.2864 12.4341 50.4554 12.3671 50.6377 12.3242C50.82 12.2813 51.0024 12.2598 51.1847 12.2598C51.5012 12.2598 51.7666 12.3134 51.9812 12.4207C52.201 12.5226 52.378 12.6594 52.5121 12.831C52.6462 12.9972 52.74 13.201 52.7937 13.4424C52.8473 13.6837 52.8741 13.9545 52.8741 14.2549V16.5476H52.3029L52.2627 16.0086ZM51.4583 14.633C51.3295 14.633 51.1794 14.6357 51.0078 14.641C50.8415 14.641 50.6806 14.6571 50.5251 14.6893C50.3695 14.7215 50.2435 14.7885 50.147 14.8904C50.0558 14.9923 50.0102 15.1264 50.0102 15.2926C50.0102 15.416 50.0344 15.5206 50.0826 15.6064C50.1309 15.6922 50.1952 15.7646 50.2757 15.8236C50.3615 15.8826 50.458 15.9255 50.5653 15.9523C50.6726 15.9791 50.7825 15.9925 50.8951 15.9925C51.2974 15.9925 51.6138 15.896 51.8444 15.7029C52.0804 15.5045 52.201 15.2176 52.2064 14.8421V14.633H51.4583ZM53.9335 16.5476V12.3081H54.6173V14.1664H56.7411V12.3081H57.4249V16.5476H56.7411V14.7697H54.6173V16.5476H53.9335ZM59.1735 16.5476H58.5058V12.3081H59.1896V15.5581C59.2271 15.483 59.2781 15.4026 59.3424 15.3168C59.4068 15.2256 59.4577 15.1559 59.4953 15.1076L61.5466 12.3081H62.2224V16.5476H61.5386V13.2976C61.4957 13.378 61.4474 13.4558 61.3938 13.5309C61.3455 13.6006 61.2999 13.6623 61.257 13.7159L59.1735 16.5476ZM67.5659 16.5476H66.8661V11.4956H65.0399V10.86H69.3921V11.4956H67.5659V16.5476ZM70.1767 14.6812C70.1928 14.869 70.2303 15.0433 70.2893 15.2041C70.3537 15.3597 70.4395 15.4964 70.5467 15.6144C70.654 15.7324 70.7854 15.8263 70.9409 15.896C71.1018 15.9603 71.2869 15.9925 71.496 15.9925C71.5979 15.9925 71.7025 15.9845 71.8098 15.9684C71.9224 15.9469 72.027 15.9148 72.1235 15.8719C72.22 15.8236 72.3058 15.7619 72.3809 15.6868C72.456 15.6117 72.5123 15.5206 72.5499 15.4133H73.2497C73.2015 15.6171 73.1184 15.7941 73.0004 15.9443C72.8877 16.0944 72.751 16.2178 72.5901 16.3143C72.4346 16.4108 72.2603 16.4833 72.0672 16.5315C71.8741 16.5744 71.6784 16.5959 71.4799 16.5959C71.142 16.5959 70.8471 16.5422 70.595 16.435C70.3483 16.3277 70.1418 16.1802 69.9756 15.9925C69.8093 15.7995 69.686 15.5715 69.6055 15.3087C69.5251 15.0406 69.4848 14.7483 69.4848 14.4319C69.4848 14.1154 69.5278 13.8258 69.6136 13.563C69.7047 13.2949 69.8334 13.0643 69.9997 12.8712C70.166 12.6781 70.3698 12.528 70.6111 12.4207C70.8524 12.3134 71.1394 12.2598 71.4719 12.2598C71.8098 12.2598 72.102 12.3268 72.3487 12.4609C72.5955 12.595 72.7939 12.772 72.9441 12.9919C73.0942 13.2064 73.1988 13.4397 73.2578 13.6918C73.3222 13.9438 73.349 14.1771 73.3382 14.3916C73.3382 14.4399 73.3356 14.4882 73.3302 14.5364C73.3302 14.5847 73.3275 14.633 73.3222 14.6812H70.1767ZM72.6464 14.0859C72.6357 13.7266 72.523 13.4343 72.3085 13.2091C72.094 12.9838 71.8071 12.8712 71.4477 12.8712C71.2493 12.8712 71.075 12.9034 70.9248 12.9677C70.7747 13.0321 70.6486 13.1206 70.5467 13.2332C70.4448 13.3458 70.3644 13.4772 70.3054 13.6274C70.2464 13.7722 70.2089 13.925 70.1928 14.0859H72.6464ZM77.0488 16.0086C76.9576 16.132 76.853 16.2312 76.735 16.3063C76.617 16.3814 76.4937 16.4403 76.365 16.4833C76.2416 16.5262 76.1156 16.5557 75.9869 16.5717C75.8635 16.5878 75.7402 16.5959 75.6168 16.5959C75.4184 16.5959 75.2307 16.5717 75.0537 16.5235C74.8767 16.4752 74.7158 16.3974 74.571 16.2902C74.4316 16.1829 74.319 16.0488 74.2331 15.8879C74.1527 15.7271 74.1125 15.5447 74.1125 15.3409C74.1125 15.0996 74.1554 14.8985 74.2412 14.7376C74.3324 14.5713 74.453 14.4372 74.6032 14.3353C74.7534 14.2334 74.925 14.1637 75.1181 14.1262C75.3165 14.0833 75.5257 14.0618 75.7455 14.0618H76.9925C76.9925 13.7025 76.9147 13.4182 76.7592 13.2091C76.6036 12.9945 76.3408 12.8819 75.9708 12.8712C75.7455 12.8712 75.5471 12.9087 75.3755 12.9838C75.2039 13.0589 75.0859 13.1823 75.0215 13.3539H74.2895C74.327 13.1608 74.4021 12.9972 74.5147 12.8632C74.6273 12.7237 74.7614 12.6111 74.9169 12.5253C75.0725 12.4341 75.2414 12.3671 75.4238 12.3242C75.6061 12.2813 75.7884 12.2598 75.9708 12.2598C76.2872 12.2598 76.5527 12.3134 76.7672 12.4207C76.9871 12.5226 77.1641 12.6594 77.2982 12.831C77.4322 12.9972 77.5261 13.201 77.5797 13.4424C77.6334 13.6837 77.6602 13.9545 77.6602 14.2549V16.5476H77.089L77.0488 16.0086ZM76.2443 14.633C76.1156 14.633 75.9654 14.6357 75.7938 14.641C75.6276 14.641 75.4667 14.6571 75.3111 14.6893C75.1556 14.7215 75.0296 14.7885 74.933 14.8904C74.8419 14.9923 74.7963 15.1264 74.7963 15.2926C74.7963 15.416 74.8204 15.5206 74.8687 15.6064C74.9169 15.6922 74.9813 15.7646 75.0617 15.8236C75.1476 15.8826 75.2441 15.9255 75.3514 15.9523C75.4586 15.9791 75.5686 15.9925 75.6812 15.9925C76.0834 15.9925 76.3998 15.896 76.6305 15.7029C76.8664 15.5045 76.9871 15.2176 76.9925 14.8421V14.633H76.2443ZM81.8489 12.3081V12.9114H80.3928V16.5476H79.7091V12.9114H78.253V12.3081H81.8489ZM83.1429 18.0761H82.4591V12.3081H83.1107L83.1429 12.9597C83.2877 12.7291 83.4834 12.5575 83.7301 12.4448C83.9822 12.3268 84.253 12.2652 84.5426 12.2598C84.8698 12.2598 85.146 12.3161 85.3712 12.4287C85.6018 12.536 85.7922 12.6888 85.9424 12.8873C86.0979 13.0804 86.2132 13.311 86.2883 13.5791C86.3634 13.8419 86.401 14.1262 86.401 14.4319C86.401 14.7429 86.3634 15.0298 86.2883 15.2926C86.2132 15.5554 86.0979 15.7834 85.9424 15.9764C85.7869 16.1695 85.5911 16.3224 85.3551 16.435C85.1192 16.5422 84.8376 16.5959 84.5105 16.5959C84.1887 16.5959 83.9152 16.5449 83.6899 16.443C83.4647 16.3411 83.2823 16.207 83.1429 16.0408V18.0761ZM84.4541 15.9925C84.6848 15.9925 84.8778 15.9523 85.0334 15.8719C85.1943 15.786 85.323 15.6734 85.4195 15.534C85.5214 15.3892 85.5938 15.2229 85.6367 15.0352C85.685 14.8475 85.7118 14.6464 85.7172 14.4319C85.7172 14.2173 85.693 14.0162 85.6448 13.8285C85.6018 13.6354 85.5294 13.4692 85.4275 13.3297C85.3256 13.1903 85.1916 13.0804 85.0253 12.9999C84.8644 12.9141 84.6687 12.8712 84.4381 12.8712C84.1645 12.8712 83.9286 12.9463 83.7301 13.0964C83.5317 13.2412 83.3815 13.4263 83.2796 13.6515C83.2206 13.7749 83.1804 13.9036 83.159 14.0377C83.1375 14.1664 83.1268 14.3005 83.1268 14.4399C83.1268 14.6008 83.1375 14.751 83.159 14.8904C83.1804 15.0245 83.2206 15.1532 83.2796 15.2766C83.3815 15.4803 83.529 15.652 83.7221 15.7914C83.9205 15.9255 84.1645 15.9925 84.4541 15.9925ZM90.0742 16.0086C89.9831 16.132 89.8785 16.2312 89.7605 16.3063C89.6425 16.3814 89.5191 16.4403 89.3904 16.4833C89.2671 16.5262 89.141 16.5557 89.0123 16.5717C88.889 16.5878 88.7656 16.5959 88.6423 16.5959C88.4438 16.5959 88.2561 16.5717 88.0791 16.5235C87.9022 16.4752 87.7413 16.3974 87.5965 16.2902C87.457 16.1829 87.3444 16.0488 87.2586 15.8879C87.1781 15.7271 87.1379 15.5447 87.1379 15.3409C87.1379 15.0996 87.1808 14.8985 87.2666 14.7376C87.3578 14.5713 87.4785 14.4372 87.6286 14.3353C87.7788 14.2334 87.9504 14.1637 88.1435 14.1262C88.3419 14.0833 88.5511 14.0618 88.771 14.0618H90.0179C90.0179 13.7025 89.9401 13.4182 89.7846 13.2091C89.6291 12.9945 89.3663 12.8819 88.9962 12.8712C88.771 12.8712 88.5726 12.9087 88.4009 12.9838C88.2293 13.0589 88.1113 13.1823 88.047 13.3539H87.3149C87.3524 13.1608 87.4275 12.9972 87.5402 12.8632C87.6528 12.7237 87.7869 12.6111 87.9424 12.5253C88.0979 12.4341 88.2669 12.3671 88.4492 12.3242C88.6315 12.2813 88.8139 12.2598 88.9962 12.2598C89.3127 12.2598 89.5781 12.3134 89.7927 12.4207C90.0125 12.5226 90.1895 12.6594 90.3236 12.831C90.4577 12.9972 90.5515 13.201 90.6052 13.4424C90.6588 13.6837 90.6856 13.9545 90.6856 14.2549V16.5476H90.1144L90.0742 16.0086ZM89.2698 14.633C89.141 14.633 88.9909 14.6357 88.8193 14.641C88.653 14.641 88.4921 14.6571 88.3366 14.6893C88.181 14.7215 88.055 14.7885 87.9585 14.8904C87.8673 14.9923 87.8217 15.1264 87.8217 15.2926C87.8217 15.416 87.8459 15.5206 87.8941 15.6064C87.9424 15.6922 88.0067 15.7646 88.0872 15.8236C88.173 15.8826 88.2695 15.9255 88.3768 15.9523C88.4841 15.9791 88.594 15.9925 88.7066 15.9925C89.1089 15.9925 89.4253 15.896 89.6559 15.7029C89.8919 15.5045 90.0125 15.2176 90.0179 14.8421V14.633H89.2698ZM93.9133 12.3081H94.8304L96.206 14.4319L97.5575 12.3081H98.4585V16.5476H97.7828V13.0643L96.2865 15.4616H96.0934L94.589 13.0643V16.5476H93.9133V12.3081ZM102.33 16.0086C102.239 16.132 102.134 16.2312 102.016 16.3063C101.898 16.3814 101.775 16.4403 101.646 16.4833C101.523 16.5262 101.397 16.5557 101.268 16.5717C101.145 16.5878 101.021 16.5959 100.898 16.5959C100.699 16.5959 100.512 16.5717 100.335 16.5235C100.158 16.4752 99.9968 16.3974 99.852 16.2902C99.7126 16.1829 99.5999 16.0488 99.5141 15.8879C99.4337 15.7271 99.3935 15.5447 99.3935 15.3409C99.3935 15.0996 99.4364 14.8985 99.5222 14.7376C99.6134 14.5713 99.734 14.4372 99.8842 14.3353C100.034 14.2334 100.206 14.1637 100.399 14.1262C100.597 14.0833 100.807 14.0618 101.027 14.0618H102.273C102.273 13.7025 102.196 13.4182 102.04 13.2091C101.885 12.9945 101.622 12.8819 101.252 12.8712C101.027 12.8712 100.828 12.9087 100.656 12.9838C100.485 13.0589 100.367 13.1823 100.303 13.3539H99.5704C99.608 13.1608 99.6831 12.9972 99.7957 12.8632C99.9083 12.7237 100.042 12.6111 100.198 12.5253C100.353 12.4341 100.522 12.3671 100.705 12.3242C100.887 12.2813 101.069 12.2598 101.252 12.2598C101.568 12.2598 101.834 12.3134 102.048 12.4207C102.268 12.5226 102.445 12.6594 102.579 12.831C102.713 12.9972 102.807 13.201 102.861 13.4424C102.914 13.6837 102.941 13.9545 102.941 14.2549V16.5476H102.37L102.33 16.0086ZM101.525 14.633C101.397 14.633 101.246 14.6357 101.075 14.641C100.909 14.641 100.748 14.6571 100.592 14.6893C100.437 14.7215 100.311 14.7885 100.214 14.8904C100.123 14.9923 100.077 15.1264 100.077 15.2926C100.077 15.416 100.101 15.5206 100.15 15.6064C100.198 15.6922 100.262 15.7646 100.343 15.8236C100.429 15.8826 100.525 15.9255 100.632 15.9523C100.74 15.9791 100.85 15.9925 100.962 15.9925C101.364 15.9925 101.681 15.896 101.911 15.7029C102.147 15.5045 102.268 15.2176 102.273 14.8421V14.633H101.525ZM105.811 16.5959C105.473 16.5959 105.18 16.5422 104.934 16.435C104.687 16.3277 104.483 16.1776 104.322 15.9845C104.161 15.7914 104.041 15.5635 103.96 15.3007C103.88 15.0379 103.84 14.751 103.84 14.4399C103.84 14.1396 103.883 13.858 103.968 13.5952C104.054 13.3271 104.18 13.0964 104.346 12.9034C104.513 12.7049 104.722 12.5494 104.974 12.4368C105.226 12.3188 105.532 12.2598 105.891 12.2598C106.106 12.2598 106.296 12.2839 106.462 12.3322C106.628 12.3751 106.784 12.4475 106.929 12.5494C107.079 12.6459 107.208 12.7747 107.315 12.9356C107.422 13.0964 107.5 13.2922 107.548 13.5228H106.848C106.768 13.2868 106.639 13.1179 106.462 13.016C106.291 12.9141 106.087 12.8658 105.851 12.8712C105.62 12.8712 105.416 12.9168 105.239 13.008C105.068 13.0938 104.928 13.2091 104.821 13.3539C104.719 13.4987 104.644 13.6676 104.596 13.8607C104.548 14.0484 104.523 14.2415 104.523 14.4399C104.523 14.6491 104.548 14.8475 104.596 15.0352C104.649 15.2229 104.727 15.3892 104.829 15.534C104.936 15.6734 105.073 15.786 105.239 15.8719C105.406 15.9523 105.604 15.9925 105.835 15.9925C105.947 15.9925 106.057 15.9818 106.165 15.9603C106.277 15.9389 106.379 15.904 106.47 15.8558C106.567 15.8021 106.65 15.7324 106.72 15.6466C106.789 15.5608 106.84 15.4562 106.872 15.3329H107.58C107.538 15.5528 107.46 15.7431 107.347 15.904C107.24 16.0596 107.106 16.191 106.945 16.2982C106.784 16.4001 106.607 16.4752 106.414 16.5235C106.221 16.5717 106.02 16.5959 105.811 16.5959ZM110.336 16.5959C109.998 16.5959 109.706 16.5422 109.459 16.435C109.212 16.3277 109.008 16.1776 108.847 15.9845C108.687 15.7914 108.566 15.5635 108.485 15.3007C108.405 15.0379 108.365 14.751 108.365 14.4399C108.365 14.1396 108.408 13.858 108.493 13.5952C108.579 13.3271 108.705 13.0964 108.872 12.9034C109.038 12.7049 109.247 12.5494 109.499 12.4368C109.751 12.3188 110.057 12.2598 110.416 12.2598C110.631 12.2598 110.821 12.2839 110.987 12.3322C111.154 12.3751 111.309 12.4475 111.454 12.5494C111.604 12.6459 111.733 12.7747 111.84 12.9356C111.947 13.0964 112.025 13.2922 112.073 13.5228H111.373C111.293 13.2868 111.164 13.1179 110.987 13.016C110.816 12.9141 110.612 12.8658 110.376 12.8712C110.145 12.8712 109.942 12.9168 109.765 13.008C109.593 13.0938 109.453 13.2091 109.346 13.3539C109.244 13.4987 109.169 13.6676 109.121 13.8607C109.073 14.0484 109.049 14.2415 109.049 14.4399C109.049 14.6491 109.073 14.8475 109.121 15.0352C109.175 15.2229 109.252 15.3892 109.354 15.534C109.462 15.6734 109.598 15.786 109.765 15.8719C109.931 15.9523 110.129 15.9925 110.36 15.9925C110.472 15.9925 110.582 15.9818 110.69 15.9603C110.802 15.9389 110.904 15.904 110.995 15.8558C111.092 15.8021 111.175 15.7324 111.245 15.6466C111.314 15.5608 111.365 15.4562 111.398 15.3329H112.106C112.063 15.5528 111.985 15.7431 111.872 15.904C111.765 16.0596 111.631 16.191 111.47 16.2982C111.309 16.4001 111.132 16.4752 110.939 16.5235C110.746 16.5717 110.545 16.5959 110.336 16.5959ZM114.308 13.024H115.04L115.949 14.4238L115.04 15.8236H114.308L115.257 14.4238L114.308 13.024ZM112.908 13.024H113.632L114.541 14.4238L113.632 15.8236H112.908L113.833 14.4238L112.908 13.024ZM35.2981 24.5606C35.4429 24.4372 35.6011 24.3031 35.7727 24.1583C35.9497 24.0082 36.1133 23.8473 36.2635 23.6757C36.419 23.504 36.5504 23.3244 36.6576 23.1367C36.7649 22.9436 36.8212 22.7344 36.8266 22.5092C36.8373 22.1659 36.7381 21.9032 36.5289 21.7208C36.3198 21.5331 36.0436 21.4392 35.7003 21.4392C35.4268 21.4392 35.1882 21.4956 34.9844 21.6082C34.7806 21.7208 34.6465 21.8844 34.5821 22.0989H33.834C33.8715 21.879 33.9493 21.6886 34.0673 21.5277C34.1906 21.3615 34.3381 21.2247 34.5097 21.1175C34.6867 21.0102 34.8798 20.9297 35.0889 20.8761C35.2981 20.8225 35.5126 20.7957 35.7325 20.7957C35.9953 20.7957 36.2366 20.8332 36.4565 20.9083C36.6764 20.978 36.8668 21.0826 37.0277 21.222C37.1886 21.3615 37.3119 21.5358 37.3978 21.7449C37.4889 21.9487 37.5345 22.182 37.5345 22.4448C37.5345 22.7076 37.4943 22.9436 37.4138 23.1528C37.3388 23.3619 37.2342 23.555 37.1001 23.732C36.9714 23.909 36.8239 24.0752 36.6576 24.2307C36.4914 24.3863 36.3198 24.5418 36.1428 24.6973L34.7028 25.9121H37.5989V26.5476H33.6892V25.9684L35.2981 24.5606ZM42.9036 23.7078C42.9036 24.0725 42.866 24.4292 42.791 24.7778C42.7212 25.1264 42.6006 25.4374 42.4289 25.711C42.2573 25.9791 42.0294 26.1963 41.7451 26.3626C41.4609 26.5288 41.1069 26.612 40.6832 26.612C40.2542 26.612 39.8976 26.5288 39.6133 26.3626C39.3291 26.1963 39.1011 25.9791 38.9295 25.711C38.7579 25.4374 38.6372 25.1317 38.5675 24.7939C38.4978 24.456 38.4629 24.094 38.4629 23.7078C38.4629 23.3217 38.4978 22.9597 38.5675 22.6218C38.6372 22.2786 38.7579 21.9729 38.9295 21.7047C39.1011 21.4366 39.3291 21.2194 39.6133 21.0531C39.8976 20.8815 40.2542 20.7957 40.6832 20.7957C41.1069 20.7957 41.4609 20.8788 41.7451 21.0451C42.0294 21.2113 42.2573 21.4312 42.4289 21.7047C42.6006 21.9782 42.7212 22.2893 42.791 22.6379C42.866 22.9865 42.9036 23.3431 42.9036 23.7078ZM39.1789 23.7078C39.1789 23.9653 39.1977 24.2281 39.2352 24.4962C39.2728 24.7644 39.3452 25.0084 39.4524 25.2283C39.5597 25.4482 39.7098 25.6278 39.9029 25.7673C40.1014 25.9067 40.3615 25.9764 40.6832 25.9764C40.9997 25.9764 41.2544 25.9067 41.4475 25.7673C41.6459 25.6278 41.7988 25.4482 41.906 25.2283C42.0133 25.0084 42.0857 24.7644 42.1232 24.4962C42.1608 24.2281 42.1796 23.9653 42.1796 23.7078C42.1796 23.4558 42.1608 23.1957 42.1232 22.9275C42.0857 22.6594 42.0133 22.4153 41.906 22.1954C41.7988 21.9702 41.6459 21.7878 41.4475 21.6484C41.2544 21.5036 40.9997 21.4312 40.6832 21.4312C40.3615 21.4312 40.1014 21.5036 39.9029 21.6484C39.7098 21.7878 39.5597 21.9702 39.4524 22.1954C39.3452 22.4153 39.2728 22.6594 39.2352 22.9275C39.1977 23.1957 39.1789 23.4558 39.1789 23.7078ZM45.4138 26.5476H44.7139V21.9863H43.5555V21.5116C43.7164 21.5009 43.8639 21.4875 43.998 21.4714C44.132 21.45 44.2554 21.4151 44.368 21.3668C44.4806 21.3186 44.5825 21.2542 44.6737 21.1738C44.7649 21.0933 44.848 20.9887 44.9231 20.86H45.4138V26.5476ZM51.1761 23.7078C51.1761 24.0725 51.1385 24.4292 51.0634 24.7778C50.9937 25.1264 50.8731 25.4374 50.7014 25.711C50.5298 25.9791 50.3019 26.1963 50.0176 26.3626C49.7334 26.5288 49.3794 26.612 48.9557 26.612C48.5267 26.612 48.17 26.5288 47.8858 26.3626C47.6016 26.1963 47.3736 25.9791 47.202 25.711C47.0304 25.4374 46.9097 25.1317 46.84 24.7939C46.7703 24.456 46.7354 24.094 46.7354 23.7078C46.7354 23.3217 46.7703 22.9597 46.84 22.6218C46.9097 22.2786 47.0304 21.9729 47.202 21.7047C47.3736 21.4366 47.6016 21.2194 47.8858 21.0531C48.17 20.8815 48.5267 20.7957 48.9557 20.7957C49.3794 20.7957 49.7334 20.8788 50.0176 21.0451C50.3019 21.2113 50.5298 21.4312 50.7014 21.7047C50.8731 21.9782 50.9937 22.2893 51.0634 22.6379C51.1385 22.9865 51.1761 23.3431 51.1761 23.7078ZM47.4514 23.7078C47.4514 23.9653 47.4702 24.2281 47.5077 24.4962C47.5452 24.7644 47.6176 25.0084 47.7249 25.2283C47.8322 25.4482 47.9823 25.6278 48.1754 25.7673C48.3738 25.9067 48.634 25.9764 48.9557 25.9764C49.2722 25.9764 49.5269 25.9067 49.72 25.7673C49.9184 25.6278 50.0713 25.4482 50.1785 25.2283C50.2858 25.0084 50.3582 24.7644 50.3957 24.4962C50.4333 24.2281 50.452 23.9653 50.452 23.7078C50.452 23.4558 50.4333 23.1957 50.3957 22.9275C50.3582 22.6594 50.2858 22.4153 50.1785 22.1954C50.0713 21.9702 49.9184 21.7878 49.72 21.6484C49.5269 21.5036 49.2722 21.4312 48.9557 21.4312C48.634 21.4312 48.3738 21.5036 48.1754 21.6484C47.9823 21.7878 47.8322 21.9702 47.7249 22.1954C47.6176 22.4153 47.5452 22.6594 47.5077 22.9275C47.4702 23.1957 47.4514 23.4558 47.4514 23.7078ZM52.6566 26.5637C52.5172 26.553 52.4045 26.5074 52.3187 26.4269C52.2329 26.3465 52.19 26.2392 52.19 26.1052C52.1954 25.9657 52.2436 25.8558 52.3348 25.7753C52.4314 25.6895 52.5413 25.6466 52.6646 25.6466C52.8202 25.6466 52.9435 25.7029 53.0347 25.8155C53.1312 25.9282 53.1795 26.0864 53.1795 26.2902C53.1795 26.4028 53.1554 26.5262 53.1071 26.6602C53.0642 26.7997 53.0052 26.9257 52.9301 27.0383C52.855 27.151 52.7665 27.2502 52.6646 27.336C52.5681 27.4218 52.4662 27.4835 52.3589 27.521L52.1659 27.2555C52.2731 27.1805 52.3724 27.0786 52.4635 26.9498C52.5601 26.8211 52.6244 26.6924 52.6566 26.5637ZM57.4995 24.5606C57.6443 24.4372 57.8025 24.3031 57.9741 24.1583C58.1511 24.0082 58.3147 23.8473 58.4649 23.6757C58.6204 23.504 58.7518 23.3244 58.859 23.1367C58.9663 22.9436 59.0226 22.7344 59.028 22.5092C59.0387 22.1659 58.9395 21.9032 58.7303 21.7208C58.5212 21.5331 58.245 21.4392 57.9017 21.4392C57.6282 21.4392 57.3895 21.4956 57.1857 21.6082C56.982 21.7208 56.8479 21.8844 56.7835 22.0989H56.0354C56.0729 21.879 56.1507 21.6886 56.2687 21.5277C56.392 21.3615 56.5395 21.2247 56.7111 21.1175C56.8881 21.0102 57.0812 20.9297 57.2903 20.8761C57.4995 20.8225 57.714 20.7957 57.9339 20.7957C58.1967 20.7957 58.438 20.8332 58.6579 20.9083C58.8778 20.978 59.0682 21.0826 59.2291 21.222C59.39 21.3615 59.5133 21.5358 59.5991 21.7449C59.6903 21.9487 59.7359 22.182 59.7359 22.4448C59.7359 22.7076 59.6957 22.9436 59.6152 23.1528C59.5402 23.3619 59.4356 23.555 59.3015 23.732C59.1728 23.909 59.0253 24.0752 58.859 24.2307C58.6928 24.3863 58.5212 24.5418 58.3442 24.6973L56.9042 25.9121H59.8003V26.5476H55.8906V25.9684L57.4995 24.5606ZM65.105 23.7078C65.105 24.0725 65.0674 24.4292 64.9923 24.7778C64.9226 25.1264 64.802 25.4374 64.6303 25.711C64.4587 25.9791 64.2308 26.1963 63.9465 26.3626C63.6623 26.5288 63.3083 26.612 62.8846 26.612C62.4556 26.612 62.0989 26.5288 61.8147 26.3626C61.5305 26.1963 61.3025 25.9791 61.1309 25.711C60.9593 25.4374 60.8386 25.1317 60.7689 24.7939C60.6992 24.456 60.6643 24.094 60.6643 23.7078C60.6643 23.3217 60.6992 22.9597 60.7689 22.6218C60.8386 22.2786 60.9593 21.9729 61.1309 21.7047C61.3025 21.4366 61.5305 21.2194 61.8147 21.0531C62.0989 20.8815 62.4556 20.7957 62.8846 20.7957C63.3083 20.7957 63.6623 20.8788 63.9465 21.0451C64.2308 21.2113 64.4587 21.4312 64.6303 21.7047C64.802 21.9782 64.9226 22.2893 64.9923 22.6379C65.0674 22.9865 65.105 23.3431 65.105 23.7078ZM61.3803 23.7078C61.3803 23.9653 61.3991 24.2281 61.4366 24.4962C61.4741 24.7644 61.5465 25.0084 61.6538 25.2283C61.7611 25.4482 61.9112 25.6278 62.1043 25.7673C62.3027 25.9067 62.5629 25.9764 62.8846 25.9764C63.2011 25.9764 63.4558 25.9067 63.6489 25.7673C63.8473 25.6278 64.0002 25.4482 64.1074 25.2283C64.2147 25.0084 64.2871 24.7644 64.3246 24.4962C64.3622 24.2281 64.3809 23.9653 64.3809 23.7078C64.3809 23.4558 64.3622 23.1957 64.3246 22.9275C64.2871 22.6594 64.2147 22.4153 64.1074 22.1954C64.0002 21.9702 63.8473 21.7878 63.6489 21.6484C63.4558 21.5036 63.2011 21.4312 62.8846 21.4312C62.5629 21.4312 62.3027 21.5036 62.1043 21.6484C61.9112 21.7878 61.7611 21.9702 61.6538 22.1954C61.5465 22.4153 61.4741 22.6594 61.4366 22.9275C61.3991 23.1957 61.3803 23.4558 61.3803 23.7078ZM67.6152 26.5476H66.9153V21.9863H65.7569V21.5116C65.9178 21.5009 66.0653 21.4875 66.1994 21.4714C66.3334 21.45 66.4568 21.4151 66.5694 21.3668C66.682 21.3186 66.7839 21.2542 66.8751 21.1738C66.9663 21.0933 67.0494 20.9887 67.1245 20.86H67.6152V26.5476ZM70.8193 26.612C70.594 26.612 70.3661 26.5905 70.1355 26.5476C69.9102 26.5047 69.6984 26.4323 69.4999 26.3304C69.3069 26.2231 69.1406 26.0837 69.0012 25.9121C68.8671 25.7405 68.7813 25.5286 68.7437 25.2766H69.4678C69.516 25.416 69.5884 25.5313 69.685 25.6225C69.7869 25.7083 69.8995 25.778 70.0228 25.8316C70.1516 25.8853 70.2856 25.9228 70.4251 25.9443C70.5645 25.9657 70.6986 25.9764 70.8273 25.9764C70.9453 25.9764 71.0794 25.9657 71.2295 25.9443C71.3797 25.9228 71.5191 25.8772 71.6479 25.8075C71.7819 25.7378 71.8919 25.6359 71.9777 25.5018C72.0689 25.3624 72.1144 25.18 72.1144 24.9548C72.1144 24.7402 72.0715 24.5686 71.9857 24.4399C71.9053 24.3112 71.798 24.212 71.6639 24.1423C71.5352 24.0725 71.3877 24.0269 71.2215 24.0055C71.0606 23.984 70.897 23.9733 70.7308 23.9733H70.1837V23.3458H70.5136C70.6584 23.3458 70.7924 23.3431 70.9158 23.3378C71.0391 23.3271 71.1759 23.2895 71.3261 23.2252C71.4977 23.1447 71.6345 23.0321 71.7363 22.8873C71.8382 22.7371 71.8919 22.5655 71.8972 22.3724C71.8972 22.1794 71.8651 22.0211 71.8007 21.8978C71.7363 21.7744 71.6505 21.6779 71.5433 21.6082C71.436 21.5385 71.3153 21.4929 71.1813 21.4714C71.0472 21.4446 70.9104 21.4312 70.771 21.4312C70.6584 21.4312 70.5404 21.4446 70.417 21.4714C70.299 21.4929 70.1864 21.5304 70.0791 21.584C69.9772 21.6377 69.8861 21.7101 69.8056 21.8013C69.7252 21.8871 69.6689 21.9916 69.6367 22.115H68.9368C68.969 21.879 69.0441 21.6779 69.1621 21.5116C69.28 21.3454 69.4248 21.2086 69.5965 21.1014C69.7735 20.9941 69.9665 20.9163 70.1757 20.8681C70.3902 20.8198 70.6074 20.7957 70.8273 20.7957C71.0686 20.7957 71.2939 20.8225 71.5031 20.8761C71.7176 20.9244 71.9053 21.0075 72.0662 21.1255C72.2271 21.2381 72.3531 21.3883 72.4443 21.576C72.5408 21.7637 72.5891 21.9916 72.5891 22.2598C72.5891 22.3617 72.5784 22.4716 72.5569 22.5896C72.5355 22.7023 72.4952 22.8149 72.4362 22.9275C72.3772 23.0401 72.2914 23.1528 72.1788 23.2654C72.0662 23.378 71.9187 23.4719 71.7363 23.5469C72.0957 23.6167 72.3692 23.7749 72.5569 24.0216C72.7446 24.2629 72.8385 24.5552 72.8385 24.8985V24.9306C72.8385 25.2256 72.7848 25.4803 72.6776 25.6949C72.5757 25.904 72.4336 26.0783 72.2512 26.2178C72.0689 26.3519 71.8543 26.4511 71.6076 26.5154C71.3609 26.5798 71.0981 26.612 70.8193 26.612ZM74.3238 26.5637C74.1843 26.553 74.0717 26.5074 73.9859 26.4269C73.9001 26.3465 73.8572 26.2392 73.8572 26.1052C73.8625 25.9657 73.9108 25.8558 74.002 25.7753C74.0985 25.6895 74.2085 25.6466 74.3318 25.6466C74.4874 25.6466 74.6107 25.7029 74.7019 25.8155C74.7984 25.9282 74.8467 26.0864 74.8467 26.2902C74.8467 26.4028 74.8225 26.5262 74.7743 26.6602C74.7314 26.7997 74.6724 26.9257 74.5973 27.0383C74.5222 27.151 74.4337 27.2502 74.3318 27.336C74.2353 27.4218 74.1334 27.4835 74.0261 27.521L73.8331 27.2555C73.9403 27.1805 74.0395 27.0786 74.1307 26.9498C74.2272 26.8211 74.2916 26.6924 74.3238 26.5637ZM79.1667 24.5606C79.3115 24.4372 79.4697 24.3031 79.6413 24.1583C79.8183 24.0082 79.9819 23.8473 80.132 23.6757C80.2876 23.504 80.419 23.3244 80.5262 23.1367C80.6335 22.9436 80.6898 22.7344 80.6952 22.5092C80.7059 22.1659 80.6067 21.9032 80.3975 21.7208C80.1883 21.5331 79.9121 21.4392 79.5689 21.4392C79.2954 21.4392 79.0567 21.4956 78.8529 21.6082C78.6491 21.7208 78.515 21.8844 78.4507 22.0989H77.7025C77.7401 21.879 77.8178 21.6886 77.9358 21.5277C78.0592 21.3615 78.2067 21.2247 78.3783 21.1175C78.5553 21.0102 78.7483 20.9297 78.9575 20.8761C79.1667 20.8225 79.3812 20.7957 79.6011 20.7957C79.8639 20.7957 80.1052 20.8332 80.3251 20.9083C80.545 20.978 80.7354 21.0826 80.8963 21.222C81.0572 21.3615 81.1805 21.5358 81.2663 21.7449C81.3575 21.9487 81.4031 22.182 81.4031 22.4448C81.4031 22.7076 81.3629 22.9436 81.2824 23.1528C81.2073 23.3619 81.1027 23.555 80.9687 23.732C80.84 23.909 80.6925 24.0752 80.5262 24.2307C80.36 24.3863 80.1883 24.5418 80.0114 24.6973L78.5714 25.9121H81.4674V26.5476H77.5577V25.9684L79.1667 24.5606ZM86.7721 23.7078C86.7721 24.0725 86.7346 24.4292 86.6595 24.7778C86.5898 25.1264 86.4691 25.4374 86.2975 25.711C86.1259 25.9791 85.898 26.1963 85.6137 26.3626C85.3295 26.5288 84.9755 26.612 84.5518 26.612C84.1228 26.612 83.7661 26.5288 83.4819 26.3626C83.1976 26.1963 82.9697 25.9791 82.7981 25.711C82.6265 25.4374 82.5058 25.1317 82.4361 24.7939C82.3663 24.456 82.3315 24.094 82.3315 23.7078C82.3315 23.3217 82.3663 22.9597 82.4361 22.6218C82.5058 22.2786 82.6265 21.9729 82.7981 21.7047C82.9697 21.4366 83.1976 21.2194 83.4819 21.0531C83.7661 20.8815 84.1228 20.7957 84.5518 20.7957C84.9755 20.7957 85.3295 20.8788 85.6137 21.0451C85.898 21.2113 86.1259 21.4312 86.2975 21.7047C86.4691 21.9782 86.5898 22.2893 86.6595 22.6379C86.7346 22.9865 86.7721 23.3431 86.7721 23.7078ZM83.0475 23.7078C83.0475 23.9653 83.0662 24.2281 83.1038 24.4962C83.1413 24.7644 83.2137 25.0084 83.321 25.2283C83.4282 25.4482 83.5784 25.6278 83.7715 25.7673C83.9699 25.9067 84.23 25.9764 84.5518 25.9764C84.8682 25.9764 85.123 25.9067 85.3161 25.7673C85.5145 25.6278 85.6673 25.4482 85.7746 25.2283C85.8819 25.0084 85.9543 24.7644 85.9918 24.4962C86.0294 24.2281 86.0481 23.9653 86.0481 23.7078C86.0481 23.4558 86.0294 23.1957 85.9918 22.9275C85.9543 22.6594 85.8819 22.4153 85.7746 22.1954C85.6673 21.9702 85.5145 21.7878 85.3161 21.6484C85.123 21.5036 84.8682 21.4312 84.5518 21.4312C84.23 21.4312 83.9699 21.5036 83.7715 21.6484C83.5784 21.7878 83.4282 21.9702 83.321 22.1954C83.2137 22.4153 83.1413 22.6594 83.1038 22.9275C83.0662 23.1957 83.0475 23.4558 83.0475 23.7078ZM89.2824 26.5476H88.5825V21.9863H87.4241V21.5116C87.585 21.5009 87.7325 21.4875 87.8665 21.4714C88.0006 21.45 88.124 21.4151 88.2366 21.3668C88.3492 21.3186 88.4511 21.2542 88.5423 21.1738C88.6335 21.0933 88.7166 20.9887 88.7917 20.86H89.2824V26.5476ZM90.8051 23.9894L91.0625 20.86H94.4654V21.5036H91.69L91.5291 23.2895C91.6739 23.1715 91.8509 23.0777 92.0601 23.008C92.2692 22.9329 92.5267 22.8953 92.8323 22.8953C93.1059 22.8953 93.3553 22.9382 93.5805 23.024C93.8058 23.1099 93.9988 23.2332 94.1597 23.3941C94.3206 23.5496 94.444 23.74 94.5298 23.9653C94.6209 24.1905 94.6665 24.4399 94.6665 24.7134C94.6665 25.0138 94.6129 25.2819 94.5056 25.5179C94.4037 25.7485 94.2616 25.9469 94.0793 26.1132C93.8969 26.2795 93.6797 26.4055 93.4277 26.4913C93.181 26.5771 92.9128 26.62 92.6232 26.62C92.3872 26.62 92.1593 26.5932 91.9394 26.5396C91.7249 26.4859 91.5291 26.4055 91.3521 26.2982C91.1751 26.1856 91.025 26.0435 90.9016 25.8719C90.7783 25.7002 90.6925 25.4964 90.6442 25.2605H91.3521C91.395 25.3731 91.4594 25.475 91.5452 25.5662C91.631 25.652 91.7275 25.7271 91.8348 25.7914C91.9474 25.8504 92.0654 25.896 92.1888 25.9282C92.3121 25.9603 92.4355 25.9764 92.5588 25.9764C92.7519 25.9764 92.9316 25.9523 93.0978 25.904C93.2694 25.8558 93.4169 25.7834 93.5403 25.6868C93.669 25.5849 93.7682 25.4589 93.8379 25.3087C93.9077 25.1532 93.9425 24.9682 93.9425 24.7536C93.9425 24.3621 93.8245 24.0618 93.5885 23.8526C93.3526 23.6435 93.0469 23.5389 92.6715 23.5389C92.4462 23.5389 92.237 23.5791 92.044 23.6596C91.8563 23.74 91.6846 23.85 91.5291 23.9894H90.8051ZM96.1324 26.5637C95.9929 26.553 95.8803 26.5074 95.7945 26.4269C95.7087 26.3465 95.6658 26.2392 95.6658 26.1052C95.6711 25.9657 95.7194 25.8558 95.8106 25.7753C95.9071 25.6895 96.0171 25.6466 96.1404 25.6466C96.2959 25.6466 96.4193 25.7029 96.5105 25.8155C96.607 25.9282 96.6553 26.0864 96.6553 26.2902C96.6553 26.4028 96.6311 26.5262 96.5829 26.6602C96.54 26.7997 96.481 26.9257 96.4059 27.0383C96.3308 27.151 96.2423 27.2502 96.1404 27.336C96.0439 27.4218 95.942 27.4835 95.8347 27.521L95.6416 27.2555C95.7489 27.1805 95.8481 27.0786 95.9393 26.9498C96.0358 26.8211 96.1002 26.6924 96.1324 26.5637ZM100.975 24.5606C101.12 24.4372 101.278 24.3031 101.45 24.1583C101.627 24.0082 101.79 23.8473 101.941 23.6757C102.096 23.504 102.228 23.3244 102.335 23.1367C102.442 22.9436 102.498 22.7344 102.504 22.5092C102.514 22.1659 102.415 21.9032 102.206 21.7208C101.997 21.5331 101.721 21.4392 101.377 21.4392C101.104 21.4392 100.865 21.4956 100.662 21.6082C100.458 21.7208 100.324 21.8844 100.259 22.0989H99.5111C99.5487 21.879 99.6264 21.6886 99.7444 21.5277C99.8678 21.3615 100.015 21.2247 100.187 21.1175C100.364 21.0102 100.557 20.9297 100.766 20.8761C100.975 20.8225 101.19 20.7957 101.41 20.7957C101.672 20.7957 101.914 20.8332 102.134 20.9083C102.354 20.978 102.544 21.0826 102.705 21.222C102.866 21.3615 102.989 21.5358 103.075 21.7449C103.166 21.9487 103.212 22.182 103.212 22.4448C103.212 22.7076 103.171 22.9436 103.091 23.1528C103.016 23.3619 102.911 23.555 102.777 23.732C102.649 23.909 102.501 24.0752 102.335 24.2307C102.169 24.3863 101.997 24.5418 101.82 24.6973L100.38 25.9121H103.276V26.5476H99.3663V25.9684L100.975 24.5606ZM108.581 23.7078C108.581 24.0725 108.543 24.4292 108.468 24.7778C108.398 25.1264 108.278 25.4374 108.106 25.711C107.934 25.9791 107.707 26.1963 107.422 26.3626C107.138 26.5288 106.784 26.612 106.36 26.612C105.931 26.612 105.575 26.5288 105.29 26.3626C105.006 26.1963 104.778 25.9791 104.607 25.711C104.435 25.4374 104.314 25.1317 104.245 24.7939C104.175 24.456 104.14 24.094 104.14 23.7078C104.14 23.3217 104.175 22.9597 104.245 22.6218C104.314 22.2786 104.435 21.9729 104.607 21.7047C104.778 21.4366 105.006 21.2194 105.29 21.0531C105.575 20.8815 105.931 20.7957 106.36 20.7957C106.784 20.7957 107.138 20.8788 107.422 21.0451C107.707 21.2113 107.934 21.4312 108.106 21.7047C108.278 21.9782 108.398 22.2893 108.468 22.6379C108.543 22.9865 108.581 23.3431 108.581 23.7078ZM104.856 23.7078C104.856 23.9653 104.875 24.2281 104.912 24.4962C104.95 24.7644 105.022 25.0084 105.13 25.2283C105.237 25.4482 105.387 25.6278 105.58 25.7673C105.778 25.9067 106.039 25.9764 106.36 25.9764C106.677 25.9764 106.932 25.9067 107.125 25.7673C107.323 25.6278 107.476 25.4482 107.583 25.2283C107.69 25.0084 107.763 24.7644 107.8 24.4962C107.838 24.2281 107.857 23.9653 107.857 23.7078C107.857 23.4558 107.838 23.1957 107.8 22.9275C107.763 22.6594 107.69 22.4153 107.583 22.1954C107.476 21.9702 107.323 21.7878 107.125 21.6484C106.932 21.5036 106.677 21.4312 106.36 21.4312C106.039 21.4312 105.778 21.5036 105.58 21.6484C105.387 21.7878 105.237 21.9702 105.13 22.1954C105.022 22.4153 104.95 22.6594 104.912 22.9275C104.875 23.1957 104.856 23.4558 104.856 23.7078ZM111.091 26.5476H110.391V21.9863H109.233V21.5116C109.394 21.5009 109.541 21.4875 109.675 21.4714C109.809 21.45 109.933 21.4151 110.045 21.3668C110.158 21.3186 110.26 21.2542 110.351 21.1738C110.442 21.0933 110.525 20.9887 110.6 20.86H111.091V26.5476ZM113.096 23.7239C113.279 23.445 113.509 23.2412 113.788 23.1125C114.067 22.9838 114.362 22.9195 114.673 22.9195C114.963 22.9195 115.217 22.965 115.437 23.0562C115.663 23.1474 115.856 23.2707 116.017 23.4263C116.177 23.5818 116.303 23.7695 116.395 23.9894C116.486 24.2093 116.531 24.4533 116.531 24.7215C116.531 25.0057 116.483 25.2631 116.387 25.4938C116.29 25.7244 116.156 25.9228 115.984 26.0891C115.813 26.2553 115.606 26.384 115.365 26.4752C115.129 26.5664 114.872 26.612 114.593 26.612C114.196 26.612 113.861 26.5422 113.587 26.4028C113.314 26.258 113.091 26.0676 112.919 25.8316C112.748 25.5903 112.622 25.3114 112.541 24.995C112.466 24.6786 112.426 24.3461 112.421 23.9974C112.421 23.563 112.453 23.1688 112.517 22.8149C112.581 22.4556 112.697 22.1284 112.863 21.8334C113.035 21.5331 113.268 21.2864 113.563 21.0933C113.858 20.8949 114.233 20.7957 114.689 20.7957C114.893 20.7957 115.089 20.8225 115.276 20.8761C115.464 20.9297 115.636 21.0102 115.791 21.1175C115.947 21.2194 116.084 21.3481 116.202 21.5036C116.32 21.6591 116.411 21.8361 116.475 22.0345H115.743C115.647 21.8361 115.499 21.6859 115.301 21.584C115.102 21.4821 114.896 21.4312 114.681 21.4312C114.375 21.4312 114.121 21.5036 113.917 21.6484C113.713 21.7932 113.55 21.9782 113.426 22.2035C113.308 22.4287 113.222 22.6781 113.169 22.9516C113.12 23.2198 113.096 23.4772 113.096 23.7239ZM115.815 24.7939C115.815 24.6169 115.786 24.456 115.727 24.3112C115.668 24.161 115.585 24.0323 115.478 23.925C115.376 23.8124 115.25 23.7266 115.099 23.6676C114.949 23.6033 114.786 23.5711 114.609 23.5711C114.437 23.5711 114.274 23.6006 114.118 23.6596C113.968 23.7132 113.834 23.7937 113.716 23.9009C113.598 24.0028 113.501 24.1288 113.426 24.279C113.356 24.4292 113.322 24.5954 113.322 24.7778C113.322 24.9494 113.354 25.1076 113.418 25.2524C113.482 25.3972 113.571 25.5233 113.684 25.6305C113.796 25.7378 113.928 25.8236 114.078 25.8879C114.233 25.9469 114.4 25.9764 114.577 25.9764C114.754 25.9764 114.917 25.9469 115.067 25.8879C115.223 25.8236 115.354 25.7405 115.461 25.6386C115.574 25.5313 115.66 25.4053 115.719 25.2605C115.783 25.1157 115.815 24.9601 115.815 24.7939ZM117.996 26.5637C117.856 26.553 117.744 26.5074 117.658 26.4269C117.572 26.3465 117.529 26.2392 117.529 26.1052C117.535 25.9657 117.583 25.8558 117.674 25.7753C117.771 25.6895 117.881 25.6466 118.004 25.6466C118.16 25.6466 118.283 25.7029 118.374 25.8155C118.471 25.9282 118.519 26.0864 118.519 26.2902C118.519 26.4028 118.495 26.5262 118.446 26.6602C118.404 26.7997 118.345 26.9257 118.269 27.0383C118.194 27.151 118.106 27.2502 118.004 27.336C117.907 27.4218 117.806 27.4835 117.698 27.521L117.505 27.2555C117.612 27.1805 117.712 27.0786 117.803 26.9498C117.899 26.8211 117.964 26.6924 117.996 26.5637ZM69.539 34.5606C69.6838 34.4372 69.842 34.3031 70.0136 34.1583C70.1906 34.0082 70.3542 33.8473 70.5043 33.6757C70.6599 33.504 70.7913 33.3244 70.8985 33.1367C71.0058 32.9436 71.0621 32.7344 71.0675 32.5092C71.0782 32.1659 70.979 31.9032 70.7698 31.7208C70.5607 31.5331 70.2845 31.4392 69.9412 31.4392C69.6677 31.4392 69.429 31.4956 69.2252 31.6082C69.0214 31.7208 68.8874 31.8844 68.823 32.0989H68.0749C68.1124 31.879 68.1902 31.6886 68.3082 31.5277C68.4315 31.3615 68.579 31.2247 68.7506 31.1175C68.9276 31.0102 69.1207 30.9297 69.3298 30.8761C69.539 30.8225 69.7535 30.7957 69.9734 30.7957C70.2362 30.7957 70.4775 30.8332 70.6974 30.9083C70.9173 30.978 71.1077 31.0826 71.2686 31.222C71.4295 31.3615 71.5528 31.5358 71.6386 31.7449C71.7298 31.9487 71.7754 32.182 71.7754 32.4448C71.7754 32.7076 71.7352 32.9436 71.6547 33.1528C71.5797 33.3619 71.4751 33.555 71.341 33.732C71.2123 33.909 71.0648 34.0752 70.8985 34.2307C70.7323 34.3863 70.5607 34.5418 70.3837 34.6973L68.9437 35.9121H71.8398V36.5476H67.9301V35.9684L69.539 34.5606ZM77.1445 33.7078C77.1445 34.0725 77.1069 34.4292 77.0318 34.7778C76.9621 35.1264 76.8415 35.4374 76.6698 35.711C76.4982 35.9791 76.2703 36.1963 75.986 36.3626C75.7018 36.5288 75.3478 36.612 74.9241 36.612C74.4951 36.612 74.1384 36.5288 73.8542 36.3626C73.57 36.1963 73.342 35.9791 73.1704 35.711C72.9988 35.4374 72.8781 35.1317 72.8084 34.7939C72.7387 34.456 72.7038 34.094 72.7038 33.7078C72.7038 33.3217 72.7387 32.9597 72.8084 32.6218C72.8781 32.2786 72.9988 31.9729 73.1704 31.7047C73.342 31.4366 73.57 31.2194 73.8542 31.0531C74.1384 30.8815 74.4951 30.7957 74.9241 30.7957C75.3478 30.7957 75.7018 30.8788 75.986 31.0451C76.2703 31.2113 76.4982 31.4312 76.6698 31.7047C76.8415 31.9782 76.9621 32.2893 77.0318 32.6379C77.1069 32.9865 77.1445 33.3431 77.1445 33.7078ZM73.4198 33.7078C73.4198 33.9653 73.4386 34.2281 73.4761 34.4962C73.5136 34.7644 73.586 35.0084 73.6933 35.2283C73.8006 35.4482 73.9507 35.6278 74.1438 35.7673C74.3422 35.9067 74.6024 35.9764 74.9241 35.9764C75.2406 35.9764 75.4953 35.9067 75.6884 35.7673C75.8868 35.6278 76.0397 35.4482 76.1469 35.2283C76.2542 35.0084 76.3266 34.7644 76.3641 34.4962C76.4017 34.2281 76.4204 33.9653 76.4204 33.7078C76.4204 33.4558 76.4017 33.1957 76.3641 32.9275C76.3266 32.6594 76.2542 32.4153 76.1469 32.1954C76.0397 31.9702 75.8868 31.7878 75.6884 31.6484C75.4953 31.5036 75.2406 31.4312 74.9241 31.4312C74.6024 31.4312 74.3422 31.5036 74.1438 31.6484C73.9507 31.7878 73.8006 31.9702 73.6933 32.1954C73.586 32.4153 73.5136 32.6594 73.4761 32.9275C73.4386 33.1957 73.4198 33.4558 73.4198 33.7078ZM79.6547 36.5476H78.9548V31.9863H77.7964V31.5116C77.9573 31.5009 78.1048 31.4875 78.2389 31.4714C78.3729 31.45 78.4963 31.4151 78.6089 31.3668C78.7215 31.3186 78.8234 31.2542 78.9146 31.1738C79.0058 31.0933 79.0889 30.9887 79.164 30.86H79.6547V36.5476ZM81.3222 36.5476L83.623 31.5036H80.6143V30.86H84.3953V31.4392L82.0945 36.5476H81.3222Z" fill="white"/>
</svg>
