<svg width="300" height="105" viewBox="0 0 300 105" fill="none" xmlns="http://www.w3.org/2000/svg">
<path d="M41.4041 45.2075L41.6272 45.2845C41.6712 45.4673 41.7101 45.7301 41.4391 45.709L41.3606 45.6186C41.3114 45.4635 41.3559 45.3585 41.4041 45.2075Z" fill="#9C9C9C"/>
<path d="M50.2393 31.4878C51.3596 31.5505 54.6567 33.3922 54.2292 34.0123C53.97 34.3881 51.6514 34.8552 51.1426 34.9079C49.5531 35.0411 46.5286 32.736 47.2819 32.1109C47.784 31.6943 49.5921 31.455 50.2393 31.4878Z" fill="#9C9C9C"/>
<path d="M60.0011 73.2013C60.8196 73.2277 64.3283 74.7295 63.6598 75.41C63.0135 76.0672 61.0002 76.4939 60.0786 76.4969C58.683 76.3929 57.0413 75.46 56.2416 74.3625C57.307 73.4997 58.6451 73.2103 60.0011 73.2013Z" fill="#9C9C9C"/>
<path d="M55.2852 63.1647C56.3523 64.8805 56.2506 68.0515 54.6325 69.4833C54.2248 69.8443 53.644 70.3066 53.0682 70.279C50.9073 68.4365 53.2444 63.9845 55.2852 63.1647Z" fill="#9C9C9C"/>
<path d="M46.2068 68.3075C47.1215 68.3311 48.3408 68.9219 49.3944 69.0914C48.3749 70.9308 46.4264 71.6434 44.3512 71.3781C43.1556 71.2152 41.7988 70.7129 41.2277 69.603C42.4982 68.5606 44.5722 68.1964 46.2068 68.3075Z" fill="#9C9C9C"/>
<path d="M47.4317 46.1102C47.9385 46.2021 48.5156 51.8766 44.0401 53.534C43.8431 53.6072 43.725 53.6348 43.5273 53.547C42.033 50.4246 44.3969 47.2389 47.4317 46.1102Z" fill="#9C9C9C"/>
<path d="M41.405 45.2074C41.5 40.2721 44.2725 37.9092 49.3816 38.7431C48.501 42.7829 41.9572 43.7445 41.6277 45.2844L41.405 45.2074Z" fill="#9C9C9C"/>
<path d="M36.9323 32.0272C39.8985 33.4723 41.4679 36.756 40.886 39.9164C40.8235 40.2558 40.7313 40.4943 40.4314 40.7001C39.3285 41.2294 37.7653 39.1889 37.315 38.4389C36.0816 36.3846 36.3445 34.2191 36.9323 32.0272Z" fill="#9C9C9C"/>
<path d="M55.5403 19.3157C55.937 19.3191 55.741 20.1978 55.7143 20.4625C55.3852 23.7315 52.6631 26.659 49.5252 27.7297C48.9343 27.6403 49.6712 25.0101 49.8002 24.5886C50.5942 21.994 53.0217 20.217 55.5403 19.3157Z" fill="#9C9C9C"/>
<path d="M51.8546 74.1665C52.8495 74.2097 57.1704 76.0186 55.5784 77.2279C54.2461 78.24 52.267 78.6997 50.6049 78.497C50.0555 78.4272 49.3916 78.3709 48.895 78.1278C48.4096 77.8901 45.8646 76.5585 46.5693 75.9027C47.9413 74.6261 49.9873 74.0831 51.8546 74.1665Z" fill="#9C9C9C"/>
<path d="M44.2062 21.8471C46.9107 24.1264 47.9987 29.5605 45.0031 31.9725C43.4226 32.8029 42.3863 28.4481 42.3902 27.5416C42.396 26.1784 43.3316 22.686 44.2062 21.8471Z" fill="#9C9C9C"/>
<path d="M38.4684 57.0634C42.4669 57.3917 44.8215 60.728 45.5947 64.273C44.7711 64.2576 43.9283 64.0881 43.1145 63.9685C39.3828 63.4566 37.191 61.3184 36.0745 57.8198C35.7096 56.677 37.5797 57.0138 38.4684 57.0634Z" fill="#9C9C9C"/>
<path d="M49.0726 55.9695C49.8025 56.0111 50.9417 58.0625 51.2777 58.6652C52.0158 59.9875 52.7938 63.8479 51.1093 64.6948C50.542 64.676 49.989 64.5629 49.4335 64.4596C48.347 64.2212 47.7063 63.7522 46.4987 63.7132C44.542 61.3083 46.5929 57.4126 49.0726 55.9695Z" fill="#9C9C9C"/>
<path d="M33.8617 45.7018C34.4511 45.8817 35.0894 45.9737 35.691 46.1194C39.535 47.0499 40.7103 49.5225 41.8402 52.8421C42.0072 53.3326 43.108 55.9344 43.0658 56.095C42.8559 55.9472 42.7496 55.7608 42.6182 55.5511C41.239 53.3458 37.4373 54.9307 34.8694 50.3304C34.2294 49.1836 33.4938 46.896 33.8617 45.7018Z" fill="#9C9C9C"/>
<path d="M259.154 45.2075L258.931 45.2845C258.887 45.4673 258.848 45.7301 259.12 45.709L259.198 45.6186C259.247 45.4635 259.203 45.3585 259.154 45.2075Z" fill="#9C9C9C"/>
<path d="M250.319 31.4878C249.199 31.5505 245.902 33.3922 246.329 34.0123C246.589 34.3881 248.907 34.8552 249.416 34.9079C251.006 35.0411 254.03 32.736 253.277 32.1109C252.775 31.6943 250.967 31.455 250.319 31.4878Z" fill="#9C9C9C"/>
<path d="M240.557 73.2013C239.739 73.2277 236.23 74.7295 236.899 75.41C237.545 76.0672 239.558 76.4939 240.48 76.4969C241.876 76.3929 243.517 75.46 244.317 74.3625C243.252 73.4997 241.913 73.2103 240.557 73.2013Z" fill="#9C9C9C"/>
<path d="M245.273 63.1647C244.206 64.8805 244.308 68.0515 245.926 69.4833C246.334 69.8443 246.915 70.3066 247.49 70.279C249.651 68.4365 247.314 63.9845 245.273 63.1647Z" fill="#9C9C9C"/>
<path d="M254.352 68.3075C253.437 68.3311 252.218 68.9219 251.164 69.0914C252.184 70.9308 254.132 71.6434 256.207 71.3781C257.403 71.2152 258.76 70.7129 259.331 69.603C258.06 68.5606 255.986 68.1964 254.352 68.3075Z" fill="#9C9C9C"/>
<path d="M253.127 46.1102C252.62 46.2021 252.043 51.8766 256.519 53.534C256.715 53.6072 256.834 53.6348 257.031 53.547C258.526 50.4246 256.162 47.2389 253.127 46.1102Z" fill="#9C9C9C"/>
<path d="M259.154 45.2074C259.059 40.2721 256.286 37.9092 251.177 38.7431C252.058 42.7829 258.601 43.7445 258.931 45.2844L259.154 45.2074Z" fill="#9C9C9C"/>
<path d="M263.626 32.0272C260.66 33.4723 259.091 36.756 259.673 39.9164C259.735 40.2558 259.827 40.4943 260.127 40.7001C261.23 41.2294 262.793 39.1889 263.244 38.4389C264.477 36.3846 264.214 34.2191 263.626 32.0272Z" fill="#9C9C9C"/>
<path d="M245.018 19.3157C244.622 19.3191 244.818 20.1978 244.844 20.4625C245.173 23.7315 247.896 26.659 251.033 27.7297C251.624 27.6403 250.887 25.0101 250.758 24.5886C249.964 21.994 247.537 20.217 245.018 19.3157Z" fill="#9C9C9C"/>
<path d="M248.704 74.1665C247.709 74.2097 243.388 76.0186 244.98 77.2279C246.313 78.24 248.292 78.6997 249.954 78.497C250.503 78.4272 251.167 78.3709 251.664 78.1278C252.149 77.8901 254.694 76.5585 253.989 75.9027C252.617 74.6261 250.571 74.0831 248.704 74.1665Z" fill="#9C9C9C"/>
<path d="M256.352 21.8471C253.648 24.1264 252.56 29.5605 255.555 31.9725C257.136 32.8029 258.172 28.4481 258.168 27.5416C258.163 26.1784 257.227 22.686 256.352 21.8471Z" fill="#9C9C9C"/>
<path d="M262.09 57.0634C258.092 57.3917 255.737 60.728 254.964 64.273C255.787 64.2576 256.63 64.0881 257.444 63.9685C261.176 63.4566 263.368 61.3184 264.484 57.8198C264.849 56.677 262.979 57.0138 262.09 57.0634Z" fill="#9C9C9C"/>
<path d="M251.486 55.9695C250.756 56.0111 249.617 58.0625 249.281 58.6652C248.543 59.9875 247.765 63.8479 249.449 64.6948C250.017 64.676 250.57 64.5629 251.125 64.4596C252.212 64.2212 252.852 63.7522 254.06 63.7132C256.017 61.3083 253.966 57.4126 251.486 55.9695Z" fill="#9C9C9C"/>
<path d="M266.697 45.7018C266.108 45.8817 265.469 45.9737 264.868 46.1194C261.024 47.0499 259.848 49.5225 258.718 52.8421C258.551 53.3326 257.451 55.9344 257.493 56.095C257.703 55.9472 257.809 55.7608 257.94 55.5511C259.32 53.3458 263.121 54.9307 265.689 50.3304C266.329 49.1836 267.065 46.896 266.697 45.7018Z" fill="#9C9C9C"/>
<path d="M74.6684 31.56H73.2124L71.4044 28.776L73.2124 25.992H74.6684L72.7804 28.776L74.6684 31.56ZM77.4524 31.56H76.0124L74.2044 28.776L76.0124 25.992H77.4524L75.6124 28.776L77.4524 31.56ZM79.7818 33V21.688H87.0618V22.952H81.1738V33H79.7818ZM89.3218 36.04H87.9618V24.568H89.2578L89.3218 25.864C89.6098 25.4053 89.9991 25.064 90.4898 24.84C90.9911 24.6053 91.5298 24.4827 92.1058 24.472C92.7564 24.472 93.3058 24.584 93.7538 24.808C94.2124 25.0213 94.5911 25.3253 94.8898 25.72C95.1991 26.104 95.4284 26.5627 95.5778 27.096C95.7271 27.6187 95.8018 28.184 95.8018 28.792C95.8018 29.4107 95.7271 29.9813 95.5778 30.504C95.4284 31.0267 95.1991 31.48 94.8898 31.864C94.5804 32.248 94.1911 32.552 93.7218 32.776C93.2524 32.9893 92.6924 33.096 92.0418 33.096C91.4018 33.096 90.8578 32.9947 90.4098 32.792C89.9618 32.5893 89.5991 32.3227 89.3218 31.992V36.04ZM91.9298 31.896C92.3884 31.896 92.7724 31.816 93.0818 31.656C93.4018 31.4853 93.6578 31.2613 93.8498 30.984C94.0524 30.696 94.1964 30.3653 94.2818 29.992C94.3778 29.6187 94.4311 29.2187 94.4418 28.792C94.4418 28.3653 94.3938 27.9653 94.2978 27.592C94.2124 27.208 94.0684 26.8773 93.8658 26.6C93.6631 26.3227 93.3964 26.104 93.0658 25.944C92.7458 25.7733 92.3564 25.688 91.8978 25.688C91.3538 25.688 90.8844 25.8373 90.4898 26.136C90.0951 26.424 89.7964 26.792 89.5938 27.24C89.4764 27.4853 89.3964 27.7413 89.3538 28.008C89.3111 28.264 89.2898 28.5307 89.2898 28.808C89.2898 29.128 89.3111 29.4267 89.3538 29.704C89.3964 29.9707 89.4764 30.2267 89.5938 30.472C89.7964 30.8773 90.0898 31.2187 90.4738 31.496C90.8684 31.7627 91.3538 31.896 91.9298 31.896ZM103.108 31.928C102.926 32.1733 102.718 32.3707 102.484 32.52C102.249 32.6693 102.004 32.7867 101.748 32.872C101.502 32.9573 101.252 33.016 100.996 33.048C100.75 33.08 100.505 33.096 100.26 33.096C99.8649 33.096 99.4915 33.048 99.1395 32.952C98.7875 32.856 98.4675 32.7013 98.1795 32.488C97.9022 32.2747 97.6782 32.008 97.5075 31.688C97.3475 31.368 97.2675 31.0053 97.2675 30.6C97.2675 30.12 97.3529 29.72 97.5235 29.4C97.7049 29.0693 97.9449 28.8027 98.2435 28.6C98.5422 28.3973 98.8835 28.2587 99.2675 28.184C99.6622 28.0987 100.078 28.056 100.516 28.056H102.996C102.996 27.3413 102.841 26.776 102.532 26.36C102.222 25.9333 101.7 25.7093 100.964 25.688C100.516 25.688 100.121 25.7627 99.7795 25.912C99.4382 26.0613 99.2035 26.3067 99.0755 26.648H97.6195C97.6942 26.264 97.8435 25.9387 98.0675 25.672C98.2915 25.3947 98.5582 25.1707 98.8675 25C99.1769 24.8187 99.5129 24.6853 99.8755 24.6C100.238 24.5147 100.601 24.472 100.964 24.472C101.593 24.472 102.121 24.5787 102.548 24.792C102.985 24.9947 103.337 25.2667 103.604 25.608C103.87 25.9387 104.057 26.344 104.164 26.824C104.27 27.304 104.324 27.8427 104.324 28.44V33H103.188L103.108 31.928ZM101.508 29.192C101.252 29.192 100.953 29.1973 100.612 29.208C100.281 29.208 99.9609 29.24 99.6515 29.304C99.3422 29.368 99.0915 29.5013 98.8995 29.704C98.7182 29.9067 98.6275 30.1733 98.6275 30.504C98.6275 30.7493 98.6755 30.9573 98.7715 31.128C98.8675 31.2987 98.9955 31.4427 99.1555 31.56C99.3262 31.6773 99.5182 31.7627 99.7315 31.816C99.9449 31.8693 100.164 31.896 100.388 31.896C101.188 31.896 101.817 31.704 102.276 31.32C102.745 30.9253 102.985 30.3547 102.996 29.608V29.192H101.508ZM106.431 33V24.568H107.791V28.264H112.015V24.568H113.375V33H112.015V29.464H107.791V33H106.431ZM116.852 33H115.524V24.568H116.884V31.032C116.959 30.8827 117.06 30.7227 117.188 30.552C117.316 30.3707 117.418 30.232 117.492 30.136L121.572 24.568H122.916V33H121.556V26.536C121.471 26.696 121.375 26.8507 121.268 27C121.172 27.1387 121.082 27.2613 120.996 27.368L116.852 33ZM133.544 33H132.152V22.952H128.52V21.688H137.176V22.952H133.544V33ZM138.737 29.288C138.769 29.6613 138.843 30.008 138.961 30.328C139.089 30.6373 139.259 30.9093 139.473 31.144C139.686 31.3787 139.947 31.5653 140.257 31.704C140.577 31.832 140.945 31.896 141.361 31.896C141.563 31.896 141.771 31.88 141.985 31.848C142.209 31.8053 142.417 31.7413 142.609 31.656C142.801 31.56 142.971 31.4373 143.121 31.288C143.27 31.1387 143.382 30.9573 143.457 30.744H144.849C144.753 31.1493 144.587 31.5013 144.353 31.8C144.129 32.0987 143.857 32.344 143.537 32.536C143.227 32.728 142.881 32.872 142.497 32.968C142.113 33.0533 141.723 33.096 141.329 33.096C140.657 33.096 140.07 32.9893 139.569 32.776C139.078 32.5627 138.667 32.2693 138.337 31.896C138.006 31.512 137.761 31.0587 137.601 30.536C137.441 30.0027 137.361 29.4213 137.361 28.792C137.361 28.1627 137.446 27.5867 137.617 27.064C137.798 26.5307 138.054 26.072 138.385 25.688C138.715 25.304 139.121 25.0053 139.601 24.792C140.081 24.5787 140.651 24.472 141.313 24.472C141.985 24.472 142.566 24.6053 143.057 24.872C143.547 25.1387 143.942 25.4907 144.241 25.928C144.539 26.3547 144.747 26.8187 144.865 27.32C144.993 27.8213 145.046 28.2853 145.025 28.712C145.025 28.808 145.019 28.904 145.009 29C145.009 29.096 145.003 29.192 144.993 29.288H138.737ZM143.649 28.104C143.627 27.3893 143.403 26.808 142.977 26.36C142.55 25.912 141.979 25.688 141.265 25.688C140.87 25.688 140.523 25.752 140.225 25.88C139.926 26.008 139.675 26.184 139.473 26.408C139.27 26.632 139.11 26.8933 138.993 27.192C138.875 27.48 138.801 27.784 138.769 28.104H143.649ZM152.404 31.928C152.223 32.1733 152.015 32.3707 151.78 32.52C151.546 32.6693 151.3 32.7867 151.044 32.872C150.799 32.9573 150.548 33.016 150.292 33.048C150.047 33.08 149.802 33.096 149.556 33.096C149.162 33.096 148.788 33.048 148.436 32.952C148.084 32.856 147.764 32.7013 147.476 32.488C147.199 32.2747 146.975 32.008 146.804 31.688C146.644 31.368 146.564 31.0053 146.564 30.6C146.564 30.12 146.65 29.72 146.82 29.4C147.002 29.0693 147.242 28.8027 147.54 28.6C147.839 28.3973 148.18 28.2587 148.564 28.184C148.959 28.0987 149.375 28.056 149.812 28.056H152.292C152.292 27.3413 152.138 26.776 151.828 26.36C151.519 25.9333 150.996 25.7093 150.26 25.688C149.812 25.688 149.418 25.7627 149.076 25.912C148.735 26.0613 148.5 26.3067 148.372 26.648H146.916C146.991 26.264 147.14 25.9387 147.364 25.672C147.588 25.3947 147.855 25.1707 148.164 25C148.474 24.8187 148.81 24.6853 149.172 24.6C149.535 24.5147 149.898 24.472 150.26 24.472C150.89 24.472 151.418 24.5787 151.844 24.792C152.282 24.9947 152.634 25.2667 152.9 25.608C153.167 25.9387 153.354 26.344 153.46 26.824C153.567 27.304 153.62 27.8427 153.62 28.44V33H152.484L152.404 31.928ZM150.804 29.192C150.548 29.192 150.25 29.1973 149.908 29.208C149.578 29.208 149.258 29.24 148.948 29.304C148.639 29.368 148.388 29.5013 148.196 29.704C148.015 29.9067 147.924 30.1733 147.924 30.504C147.924 30.7493 147.972 30.9573 148.068 31.128C148.164 31.2987 148.292 31.4427 148.452 31.56C148.623 31.6773 148.815 31.7627 149.028 31.816C149.242 31.8693 149.46 31.896 149.684 31.896C150.484 31.896 151.114 31.704 151.572 31.32C152.042 30.9253 152.282 30.3547 152.292 29.608V29.192H150.804ZM161.951 24.568V25.768H159.055V33H157.695V25.768H154.799V24.568H161.951ZM164.525 36.04H163.165V24.568H164.461L164.525 25.864C164.813 25.4053 165.202 25.064 165.693 24.84C166.194 24.6053 166.733 24.4827 167.309 24.472C167.96 24.472 168.509 24.584 168.957 24.808C169.416 25.0213 169.794 25.3253 170.093 25.72C170.402 26.104 170.632 26.5627 170.781 27.096C170.93 27.6187 171.005 28.184 171.005 28.792C171.005 29.4107 170.93 29.9813 170.781 30.504C170.632 31.0267 170.402 31.48 170.093 31.864C169.784 32.248 169.394 32.552 168.925 32.776C168.456 32.9893 167.896 33.096 167.245 33.096C166.605 33.096 166.061 32.9947 165.613 32.792C165.165 32.5893 164.802 32.3227 164.525 31.992V36.04ZM167.133 31.896C167.592 31.896 167.976 31.816 168.285 31.656C168.605 31.4853 168.861 31.2613 169.053 30.984C169.256 30.696 169.4 30.3653 169.485 29.992C169.581 29.6187 169.634 29.2187 169.645 28.792C169.645 28.3653 169.597 27.9653 169.501 27.592C169.416 27.208 169.272 26.8773 169.069 26.6C168.866 26.3227 168.6 26.104 168.269 25.944C167.949 25.7733 167.56 25.688 167.101 25.688C166.557 25.688 166.088 25.8373 165.693 26.136C165.298 26.424 165 26.792 164.797 27.24C164.68 27.4853 164.6 27.7413 164.557 28.008C164.514 28.264 164.493 28.5307 164.493 28.808C164.493 29.128 164.514 29.4267 164.557 29.704C164.6 29.9707 164.68 30.2267 164.797 30.472C165 30.8773 165.293 31.2187 165.677 31.496C166.072 31.7627 166.557 31.896 167.133 31.896ZM178.311 31.928C178.129 32.1733 177.921 32.3707 177.687 32.52C177.452 32.6693 177.207 32.7867 176.951 32.872C176.705 32.9573 176.455 33.016 176.199 33.048C175.953 33.08 175.708 33.096 175.463 33.096C175.068 33.096 174.695 33.048 174.343 32.952C173.991 32.856 173.671 32.7013 173.383 32.488C173.105 32.2747 172.881 32.008 172.711 31.688C172.551 31.368 172.471 31.0053 172.471 30.6C172.471 30.12 172.556 29.72 172.727 29.4C172.908 29.0693 173.148 28.8027 173.447 28.6C173.745 28.3973 174.087 28.2587 174.471 28.184C174.865 28.0987 175.281 28.056 175.719 28.056H178.199C178.199 27.3413 178.044 26.776 177.735 26.36C177.425 25.9333 176.903 25.7093 176.167 25.688C175.719 25.688 175.324 25.7627 174.983 25.912C174.641 26.0613 174.407 26.3067 174.279 26.648H172.823C172.897 26.264 173.047 25.9387 173.271 25.672C173.495 25.3947 173.761 25.1707 174.071 25C174.38 24.8187 174.716 24.6853 175.079 24.6C175.441 24.5147 175.804 24.472 176.167 24.472C176.796 24.472 177.324 24.5787 177.751 24.792C178.188 24.9947 178.54 25.2667 178.807 25.608C179.073 25.9387 179.26 26.344 179.367 26.824C179.473 27.304 179.527 27.8427 179.527 28.44V33H178.391L178.311 31.928ZM176.711 29.192C176.455 29.192 176.156 29.1973 175.815 29.208C175.484 29.208 175.164 29.24 174.855 29.304C174.545 29.368 174.295 29.5013 174.103 29.704C173.921 29.9067 173.831 30.1733 173.831 30.504C173.831 30.7493 173.879 30.9573 173.975 31.128C174.071 31.2987 174.199 31.4427 174.359 31.56C174.529 31.6773 174.721 31.7627 174.935 31.816C175.148 31.8693 175.367 31.896 175.591 31.896C176.391 31.896 177.02 31.704 177.479 31.32C177.948 30.9253 178.188 30.3547 178.199 29.608V29.192H176.711ZM185.946 24.568H187.77L190.506 28.792L193.194 24.568H194.986V33H193.642V26.072L190.666 30.84H190.282L187.29 26.072V33H185.946V24.568ZM202.686 31.928C202.504 32.1733 202.296 32.3707 202.062 32.52C201.827 32.6693 201.582 32.7867 201.326 32.872C201.08 32.9573 200.83 33.016 200.574 33.048C200.328 33.08 200.083 33.096 199.838 33.096C199.443 33.096 199.07 33.048 198.718 32.952C198.366 32.856 198.046 32.7013 197.758 32.488C197.48 32.2747 197.256 32.008 197.086 31.688C196.926 31.368 196.846 31.0053 196.846 30.6C196.846 30.12 196.931 29.72 197.102 29.4C197.283 29.0693 197.523 28.8027 197.822 28.6C198.12 28.3973 198.462 28.2587 198.846 28.184C199.24 28.0987 199.656 28.056 200.094 28.056H202.574C202.574 27.3413 202.419 26.776 202.11 26.36C201.8 25.9333 201.278 25.7093 200.542 25.688C200.094 25.688 199.699 25.7627 199.358 25.912C199.016 26.0613 198.782 26.3067 198.654 26.648H197.198C197.272 26.264 197.422 25.9387 197.646 25.672C197.87 25.3947 198.136 25.1707 198.446 25C198.755 24.8187 199.091 24.6853 199.454 24.6C199.816 24.5147 200.179 24.472 200.542 24.472C201.171 24.472 201.699 24.5787 202.126 24.792C202.563 24.9947 202.915 25.2667 203.182 25.608C203.448 25.9387 203.635 26.344 203.742 26.824C203.848 27.304 203.902 27.8427 203.902 28.44V33H202.766L202.686 31.928ZM201.086 29.192C200.83 29.192 200.531 29.1973 200.19 29.208C199.859 29.208 199.539 29.24 199.23 29.304C198.92 29.368 198.67 29.5013 198.478 29.704C198.296 29.9067 198.206 30.1733 198.206 30.504C198.206 30.7493 198.254 30.9573 198.35 31.128C198.446 31.2987 198.574 31.4427 198.734 31.56C198.904 31.6773 199.096 31.7627 199.31 31.816C199.523 31.8693 199.742 31.896 199.966 31.896C200.766 31.896 201.395 31.704 201.854 31.32C202.323 30.9253 202.563 30.3547 202.574 29.608V29.192H201.086ZM209.609 33.096C208.937 33.096 208.355 32.9893 207.865 32.776C207.374 32.5627 206.969 32.264 206.649 31.88C206.329 31.496 206.089 31.0427 205.929 30.52C205.769 29.9973 205.689 29.4267 205.689 28.808C205.689 28.2107 205.774 27.6507 205.945 27.128C206.115 26.5947 206.366 26.136 206.697 25.752C207.027 25.3573 207.443 25.048 207.945 24.824C208.446 24.5893 209.054 24.472 209.769 24.472C210.195 24.472 210.574 24.52 210.905 24.616C211.235 24.7013 211.545 24.8453 211.833 25.048C212.131 25.24 212.387 25.496 212.601 25.816C212.814 26.136 212.969 26.5253 213.065 26.984H211.673C211.513 26.5147 211.257 26.1787 210.905 25.976C210.563 25.7733 210.158 25.6773 209.689 25.688C209.23 25.688 208.825 25.7787 208.473 25.96C208.131 26.1307 207.854 26.36 207.641 26.648C207.438 26.936 207.289 27.272 207.193 27.656C207.097 28.0293 207.049 28.4133 207.049 28.808C207.049 29.224 207.097 29.6187 207.193 29.992C207.299 30.3653 207.454 30.696 207.657 30.984C207.87 31.2613 208.142 31.4853 208.473 31.656C208.803 31.816 209.198 31.896 209.657 31.896C209.881 31.896 210.099 31.8747 210.313 31.832C210.537 31.7893 210.739 31.72 210.921 31.624C211.113 31.5173 211.278 31.3787 211.417 31.208C211.555 31.0373 211.657 30.8293 211.721 30.584H213.129C213.043 31.0213 212.889 31.4 212.665 31.72C212.451 32.0293 212.185 32.2907 211.865 32.504C211.545 32.7067 211.193 32.856 210.809 32.952C210.425 33.048 210.025 33.096 209.609 33.096ZM218.609 33.096C217.937 33.096 217.355 32.9893 216.865 32.776C216.374 32.5627 215.969 32.264 215.649 31.88C215.329 31.496 215.089 31.0427 214.929 30.52C214.769 29.9973 214.689 29.4267 214.689 28.808C214.689 28.2107 214.774 27.6507 214.945 27.128C215.115 26.5947 215.366 26.136 215.697 25.752C216.027 25.3573 216.443 25.048 216.945 24.824C217.446 24.5893 218.054 24.472 218.769 24.472C219.195 24.472 219.574 24.52 219.905 24.616C220.235 24.7013 220.545 24.8453 220.833 25.048C221.131 25.24 221.387 25.496 221.601 25.816C221.814 26.136 221.969 26.5253 222.065 26.984H220.673C220.513 26.5147 220.257 26.1787 219.905 25.976C219.563 25.7733 219.158 25.6773 218.689 25.688C218.23 25.688 217.825 25.7787 217.473 25.96C217.131 26.1307 216.854 26.36 216.641 26.648C216.438 26.936 216.289 27.272 216.193 27.656C216.097 28.0293 216.049 28.4133 216.049 28.808C216.049 29.224 216.097 29.6187 216.193 29.992C216.299 30.3653 216.454 30.696 216.657 30.984C216.87 31.2613 217.142 31.4853 217.473 31.656C217.803 31.816 218.198 31.896 218.657 31.896C218.881 31.896 219.099 31.8747 219.313 31.832C219.537 31.7893 219.739 31.72 219.921 31.624C220.113 31.5173 220.278 31.3787 220.417 31.208C220.555 31.0373 220.657 30.8293 220.721 30.584H222.129C222.043 31.0213 221.889 31.4 221.665 31.72C221.451 32.0293 221.185 32.2907 220.865 32.504C220.545 32.7067 220.193 32.856 219.809 32.952C219.425 33.048 219.025 33.096 218.609 33.096ZM226.508 25.992H227.964L229.772 28.776L227.964 31.56H226.508L228.396 28.776L226.508 25.992ZM223.724 25.992H225.164L226.972 28.776L225.164 31.56H223.724L225.564 28.776L223.724 25.992ZM69.3667 50.048C69.6547 49.8027 69.9693 49.536 70.3107 49.248C70.6627 48.9493 70.988 48.6293 71.2867 48.288C71.596 47.9467 71.8573 47.5893 72.0707 47.216C72.284 46.832 72.396 46.416 72.4067 45.968C72.428 45.2853 72.2307 44.7627 71.8147 44.4C71.3987 44.0267 70.8493 43.84 70.1667 43.84C69.6227 43.84 69.148 43.952 68.7427 44.176C68.3373 44.4 68.0707 44.7253 67.9427 45.152H66.4547C66.5293 44.7147 66.684 44.336 66.9187 44.016C67.164 43.6853 67.4573 43.4133 67.7987 43.2C68.1507 42.9867 68.5347 42.8267 68.9507 42.72C69.3667 42.6133 69.7933 42.56 70.2307 42.56C70.7533 42.56 71.2333 42.6347 71.6707 42.784C72.108 42.9227 72.4867 43.1307 72.8067 43.408C73.1267 43.6853 73.372 44.032 73.5427 44.448C73.724 44.8533 73.8147 45.3173 73.8147 45.84C73.8147 46.3627 73.7347 46.832 73.5747 47.248C73.4253 47.664 73.2173 48.048 72.9507 48.4C72.6947 48.752 72.4013 49.0827 72.0707 49.392C71.74 49.7013 71.3987 50.0107 71.0467 50.32L68.1827 52.736H73.9427V54H66.1667V52.848L69.3667 50.048ZM84.4932 48.352C84.4932 49.0773 84.4185 49.7867 84.2692 50.48C84.1305 51.1733 83.8905 51.792 83.5492 52.336C83.2078 52.8693 82.7545 53.3013 82.1892 53.632C81.6238 53.9627 80.9198 54.128 80.0772 54.128C79.2238 54.128 78.5145 53.9627 77.9492 53.632C77.3838 53.3013 76.9305 52.8693 76.5892 52.336C76.2478 51.792 76.0078 51.184 75.8692 50.512C75.7305 49.84 75.6612 49.12 75.6612 48.352C75.6612 47.584 75.7305 46.864 75.8692 46.192C76.0078 45.5093 76.2478 44.9013 76.5892 44.368C76.9305 43.8347 77.3838 43.4027 77.9492 43.072C78.5145 42.7307 79.2238 42.56 80.0772 42.56C80.9198 42.56 81.6238 42.7253 82.1892 43.056C82.7545 43.3867 83.2078 43.824 83.5492 44.368C83.8905 44.912 84.1305 45.5307 84.2692 46.224C84.4185 46.9173 84.4932 47.6267 84.4932 48.352ZM77.0852 48.352C77.0852 48.864 77.1225 49.3867 77.1972 49.92C77.2718 50.4533 77.4158 50.9387 77.6292 51.376C77.8425 51.8133 78.1412 52.1707 78.5252 52.448C78.9198 52.7253 79.4372 52.864 80.0772 52.864C80.7065 52.864 81.2132 52.7253 81.5972 52.448C81.9918 52.1707 82.2958 51.8133 82.5092 51.376C82.7225 50.9387 82.8665 50.4533 82.9412 49.92C83.0158 49.3867 83.0532 48.864 83.0532 48.352C83.0532 47.8507 83.0158 47.3333 82.9412 46.8C82.8665 46.2667 82.7225 45.7813 82.5092 45.344C82.2958 44.896 81.9918 44.5333 81.5972 44.256C81.2132 43.968 80.7065 43.824 80.0772 43.824C79.4372 43.824 78.9198 43.968 78.5252 44.256C78.1412 44.5333 77.8425 44.896 77.6292 45.344C77.4158 45.7813 77.2718 46.2667 77.1972 46.8C77.1225 47.3333 77.0852 47.8507 77.0852 48.352ZM89.4858 54H88.0938V44.928H85.7898V43.984C86.1098 43.9627 86.4031 43.936 86.6698 43.904C86.9364 43.8613 87.1818 43.792 87.4058 43.696C87.6298 43.6 87.8324 43.472 88.0138 43.312C88.1951 43.152 88.3604 42.944 88.5098 42.688H89.4858V54ZM100.946 48.352C100.946 49.0773 100.872 49.7867 100.722 50.48C100.584 51.1733 100.344 51.792 100.002 52.336C99.6609 52.8693 99.2076 53.3013 98.6423 53.632C98.0769 53.9627 97.3729 54.128 96.5303 54.128C95.6769 54.128 94.9676 53.9627 94.4023 53.632C93.8369 53.3013 93.3836 52.8693 93.0423 52.336C92.7009 51.792 92.4609 51.184 92.3223 50.512C92.1836 49.84 92.1143 49.12 92.1143 48.352C92.1143 47.584 92.1836 46.864 92.3223 46.192C92.4609 45.5093 92.7009 44.9013 93.0423 44.368C93.3836 43.8347 93.8369 43.4027 94.4023 43.072C94.9676 42.7307 95.6769 42.56 96.5303 42.56C97.3729 42.56 98.0769 42.7253 98.6423 43.056C99.2076 43.3867 99.6609 43.824 100.002 44.368C100.344 44.912 100.584 45.5307 100.722 46.224C100.872 46.9173 100.946 47.6267 100.946 48.352ZM93.5383 48.352C93.5383 48.864 93.5756 49.3867 93.6503 49.92C93.7249 50.4533 93.8689 50.9387 94.0823 51.376C94.2956 51.8133 94.5943 52.1707 94.9783 52.448C95.3729 52.7253 95.8903 52.864 96.5303 52.864C97.1596 52.864 97.6663 52.7253 98.0503 52.448C98.4449 52.1707 98.7489 51.8133 98.9623 51.376C99.1756 50.9387 99.3196 50.4533 99.3943 49.92C99.4689 49.3867 99.5063 48.864 99.5063 48.352C99.5063 47.8507 99.4689 47.3333 99.3943 46.8C99.3196 46.2667 99.1756 45.7813 98.9623 45.344C98.7489 44.896 98.4449 44.5333 98.0503 44.256C97.6663 43.968 97.1596 43.824 96.5303 43.824C95.8903 43.824 95.3729 43.968 94.9783 44.256C94.5943 44.5333 94.2956 44.896 94.0823 45.344C93.8689 45.7813 93.7249 46.2667 93.6503 46.8C93.5756 47.3333 93.5383 47.8507 93.5383 48.352ZM103.891 54.032C103.614 54.0107 103.39 53.92 103.219 53.76C103.048 53.6 102.963 53.3867 102.963 53.12C102.974 52.8427 103.07 52.624 103.251 52.464C103.443 52.2933 103.662 52.208 103.907 52.208C104.216 52.208 104.462 52.32 104.643 52.544C104.835 52.768 104.931 53.0827 104.931 53.488C104.931 53.712 104.883 53.9573 104.787 54.224C104.702 54.5013 104.584 54.752 104.435 54.976C104.286 55.2 104.11 55.3973 103.907 55.568C103.715 55.7387 103.512 55.8613 103.299 55.936L102.915 55.408C103.128 55.2587 103.326 55.056 103.507 54.8C103.699 54.544 103.827 54.288 103.891 54.032ZM113.523 50.048C113.811 49.8027 114.126 49.536 114.467 49.248C114.819 48.9493 115.144 48.6293 115.443 48.288C115.752 47.9467 116.014 47.5893 116.227 47.216C116.44 46.832 116.552 46.416 116.563 45.968C116.584 45.2853 116.387 44.7627 115.971 44.4C115.555 44.0267 115.006 43.84 114.323 43.84C113.779 43.84 113.304 43.952 112.899 44.176C112.494 44.4 112.227 44.7253 112.099 45.152H110.611C110.686 44.7147 110.84 44.336 111.075 44.016C111.32 43.6853 111.614 43.4133 111.955 43.2C112.307 42.9867 112.691 42.8267 113.107 42.72C113.523 42.6133 113.95 42.56 114.387 42.56C114.91 42.56 115.39 42.6347 115.827 42.784C116.264 42.9227 116.643 43.1307 116.963 43.408C117.283 43.6853 117.528 44.032 117.699 44.448C117.88 44.8533 117.971 45.3173 117.971 45.84C117.971 46.3627 117.891 46.832 117.731 47.248C117.582 47.664 117.374 48.048 117.107 48.4C116.851 48.752 116.558 49.0827 116.227 49.392C115.896 49.7013 115.555 50.0107 115.203 50.32L112.339 52.736H118.099V54H110.323V52.848L113.523 50.048ZM128.649 48.352C128.649 49.0773 128.575 49.7867 128.425 50.48C128.287 51.1733 128.047 51.792 127.705 52.336C127.364 52.8693 126.911 53.3013 126.345 53.632C125.78 53.9627 125.076 54.128 124.233 54.128C123.38 54.128 122.671 53.9627 122.105 53.632C121.54 53.3013 121.087 52.8693 120.745 52.336C120.404 51.792 120.164 51.184 120.025 50.512C119.887 49.84 119.817 49.12 119.817 48.352C119.817 47.584 119.887 46.864 120.025 46.192C120.164 45.5093 120.404 44.9013 120.745 44.368C121.087 43.8347 121.54 43.4027 122.105 43.072C122.671 42.7307 123.38 42.56 124.233 42.56C125.076 42.56 125.78 42.7253 126.345 43.056C126.911 43.3867 127.364 43.824 127.705 44.368C128.047 44.912 128.287 45.5307 128.425 46.224C128.575 46.9173 128.649 47.6267 128.649 48.352ZM121.241 48.352C121.241 48.864 121.279 49.3867 121.353 49.92C121.428 50.4533 121.572 50.9387 121.785 51.376C121.999 51.8133 122.297 52.1707 122.681 52.448C123.076 52.7253 123.593 52.864 124.233 52.864C124.863 52.864 125.369 52.7253 125.753 52.448C126.148 52.1707 126.452 51.8133 126.665 51.376C126.879 50.9387 127.023 50.4533 127.097 49.92C127.172 49.3867 127.209 48.864 127.209 48.352C127.209 47.8507 127.172 47.3333 127.097 46.8C127.023 46.2667 126.879 45.7813 126.665 45.344C126.452 44.896 126.148 44.5333 125.753 44.256C125.369 43.968 124.863 43.824 124.233 43.824C123.593 43.824 123.076 43.968 122.681 44.256C122.297 44.5333 121.999 44.896 121.785 45.344C121.572 45.7813 121.428 46.2667 121.353 46.8C121.279 47.3333 121.241 47.8507 121.241 48.352ZM133.642 54H132.25V44.928H129.946V43.984C130.266 43.9627 130.559 43.936 130.826 43.904C131.093 43.8613 131.338 43.792 131.562 43.696C131.786 43.6 131.989 43.472 132.17 43.312C132.351 43.152 132.517 42.944 132.666 42.688H133.642V54ZM140.015 54.128C139.567 54.128 139.113 54.0853 138.655 54C138.207 53.9147 137.785 53.7707 137.391 53.568C137.007 53.3547 136.676 53.0773 136.399 52.736C136.132 52.3947 135.961 51.9733 135.887 51.472H137.327C137.423 51.7493 137.567 51.9787 137.759 52.16C137.961 52.3307 138.185 52.4693 138.431 52.576C138.687 52.6827 138.953 52.7573 139.231 52.8C139.508 52.8427 139.775 52.864 140.031 52.864C140.265 52.864 140.532 52.8427 140.831 52.8C141.129 52.7573 141.407 52.6667 141.663 52.528C141.929 52.3893 142.148 52.1867 142.319 51.92C142.5 51.6427 142.591 51.28 142.591 50.832C142.591 50.4053 142.505 50.064 142.335 49.808C142.175 49.552 141.961 49.3547 141.695 49.216C141.439 49.0773 141.145 48.9867 140.815 48.944C140.495 48.9013 140.169 48.88 139.839 48.88H138.751V47.632H139.407C139.695 47.632 139.961 47.6267 140.207 47.616C140.452 47.5947 140.724 47.52 141.023 47.392C141.364 47.232 141.636 47.008 141.839 46.72C142.041 46.4213 142.148 46.08 142.159 45.696C142.159 45.312 142.095 44.9973 141.967 44.752C141.839 44.5067 141.668 44.3147 141.455 44.176C141.241 44.0373 141.001 43.9467 140.735 43.904C140.468 43.8507 140.196 43.824 139.919 43.824C139.695 43.824 139.46 43.8507 139.215 43.904C138.98 43.9467 138.756 44.0213 138.543 44.128C138.34 44.2347 138.159 44.3787 137.999 44.56C137.839 44.7307 137.727 44.9387 137.663 45.184H136.271C136.335 44.7147 136.484 44.3147 136.719 43.984C136.953 43.6533 137.241 43.3813 137.583 43.168C137.935 42.9547 138.319 42.8 138.735 42.704C139.161 42.608 139.593 42.56 140.031 42.56C140.511 42.56 140.959 42.6133 141.375 42.72C141.801 42.816 142.175 42.9813 142.495 43.216C142.815 43.44 143.065 43.7387 143.247 44.112C143.439 44.4853 143.535 44.9387 143.535 45.472C143.535 45.6747 143.513 45.8933 143.471 46.128C143.428 46.352 143.348 46.576 143.231 46.8C143.113 47.024 142.943 47.248 142.719 47.472C142.495 47.696 142.201 47.8827 141.839 48.032C142.553 48.1707 143.097 48.4853 143.471 48.976C143.844 49.456 144.031 50.0373 144.031 50.72V50.784C144.031 51.3707 143.924 51.8773 143.711 52.304C143.508 52.72 143.225 53.0667 142.863 53.344C142.5 53.6107 142.073 53.808 141.583 53.936C141.092 54.064 140.569 54.128 140.015 54.128ZM146.985 54.032C146.707 54.0107 146.483 53.92 146.313 53.76C146.142 53.6 146.057 53.3867 146.057 53.12C146.067 52.8427 146.163 52.624 146.345 52.464C146.537 52.2933 146.755 52.208 147.001 52.208C147.31 52.208 147.555 52.32 147.737 52.544C147.929 52.768 148.025 53.0827 148.025 53.488C148.025 53.712 147.977 53.9573 147.881 54.224C147.795 54.5013 147.678 54.752 147.529 54.976C147.379 55.2 147.203 55.3973 147.001 55.568C146.809 55.7387 146.606 55.8613 146.393 55.936L146.009 55.408C146.222 55.2587 146.419 55.056 146.601 54.8C146.793 54.544 146.921 54.288 146.985 54.032ZM156.617 50.048C156.905 49.8027 157.219 49.536 157.561 49.248C157.913 48.9493 158.238 48.6293 158.537 48.288C158.846 47.9467 159.107 47.5893 159.321 47.216C159.534 46.832 159.646 46.416 159.657 45.968C159.678 45.2853 159.481 44.7627 159.065 44.4C158.649 44.0267 158.099 43.84 157.417 43.84C156.873 43.84 156.398 43.952 155.993 44.176C155.587 44.4 155.321 44.7253 155.193 45.152H153.705C153.779 44.7147 153.934 44.336 154.169 44.016C154.414 43.6853 154.707 43.4133 155.049 43.2C155.401 42.9867 155.785 42.8267 156.201 42.72C156.617 42.6133 157.043 42.56 157.481 42.56C158.003 42.56 158.483 42.6347 158.921 42.784C159.358 42.9227 159.737 43.1307 160.057 43.408C160.377 43.6853 160.622 44.032 160.793 44.448C160.974 44.8533 161.065 45.3173 161.065 45.84C161.065 46.3627 160.985 46.832 160.825 47.248C160.675 47.664 160.467 48.048 160.201 48.4C159.945 48.752 159.651 49.0827 159.321 49.392C158.99 49.7013 158.649 50.0107 158.297 50.32L155.433 52.736H161.193V54H153.417V52.848L156.617 50.048ZM171.743 48.352C171.743 49.0773 171.668 49.7867 171.519 50.48C171.38 51.1733 171.14 51.792 170.799 52.336C170.458 52.8693 170.004 53.3013 169.439 53.632C168.874 53.9627 168.17 54.128 167.327 54.128C166.474 54.128 165.764 53.9627 165.199 53.632C164.634 53.3013 164.18 52.8693 163.839 52.336C163.498 51.792 163.258 51.184 163.119 50.512C162.98 49.84 162.911 49.12 162.911 48.352C162.911 47.584 162.98 46.864 163.119 46.192C163.258 45.5093 163.498 44.9013 163.839 44.368C164.18 43.8347 164.634 43.4027 165.199 43.072C165.764 42.7307 166.474 42.56 167.327 42.56C168.17 42.56 168.874 42.7253 169.439 43.056C170.004 43.3867 170.458 43.824 170.799 44.368C171.14 44.912 171.38 45.5307 171.519 46.224C171.668 46.9173 171.743 47.6267 171.743 48.352ZM164.335 48.352C164.335 48.864 164.372 49.3867 164.447 49.92C164.522 50.4533 164.666 50.9387 164.879 51.376C165.092 51.8133 165.391 52.1707 165.775 52.448C166.17 52.7253 166.687 52.864 167.327 52.864C167.956 52.864 168.463 52.7253 168.847 52.448C169.242 52.1707 169.546 51.8133 169.759 51.376C169.972 50.9387 170.116 50.4533 170.191 49.92C170.266 49.3867 170.303 48.864 170.303 48.352C170.303 47.8507 170.266 47.3333 170.191 46.8C170.116 46.2667 169.972 45.7813 169.759 45.344C169.546 44.896 169.242 44.5333 168.847 44.256C168.463 43.968 167.956 43.824 167.327 43.824C166.687 43.824 166.17 43.968 165.775 44.256C165.391 44.5333 165.092 44.896 164.879 45.344C164.666 45.7813 164.522 46.2667 164.447 46.8C164.372 47.3333 164.335 47.8507 164.335 48.352ZM176.736 54H175.344V44.928H173.04V43.984C173.36 43.9627 173.653 43.936 173.92 43.904C174.186 43.8613 174.432 43.792 174.656 43.696C174.88 43.6 175.082 43.472 175.264 43.312C175.445 43.152 175.61 42.944 175.76 42.688H176.736V54ZM179.764 48.912L180.276 42.688H187.044V43.968H181.524L181.204 47.52C181.492 47.2853 181.844 47.0987 182.26 46.96C182.676 46.8107 183.188 46.736 183.796 46.736C184.34 46.736 184.836 46.8213 185.284 46.992C185.732 47.1627 186.116 47.408 186.436 47.728C186.756 48.0373 187.002 48.416 187.172 48.864C187.354 49.312 187.444 49.808 187.444 50.352C187.444 50.9493 187.338 51.4827 187.124 51.952C186.922 52.4107 186.639 52.8053 186.276 53.136C185.914 53.4667 185.482 53.7173 184.98 53.888C184.49 54.0587 183.956 54.144 183.38 54.144C182.911 54.144 182.458 54.0907 182.02 53.984C181.594 53.8773 181.204 53.7173 180.852 53.504C180.5 53.28 180.202 52.9973 179.956 52.656C179.711 52.3147 179.54 51.9093 179.444 51.44H180.852C180.938 51.664 181.066 51.8667 181.236 52.048C181.407 52.2187 181.599 52.368 181.812 52.496C182.036 52.6133 182.271 52.704 182.516 52.768C182.762 52.832 183.007 52.864 183.252 52.864C183.636 52.864 183.994 52.816 184.324 52.72C184.666 52.624 184.959 52.48 185.204 52.288C185.46 52.0853 185.658 51.8347 185.796 51.536C185.935 51.2267 186.004 50.8587 186.004 50.432C186.004 49.6533 185.77 49.056 185.3 48.64C184.831 48.224 184.223 48.016 183.476 48.016C183.028 48.016 182.612 48.096 182.228 48.256C181.855 48.416 181.514 48.6347 181.204 48.912H179.764ZM190.36 54.032C190.082 54.0107 189.858 53.92 189.688 53.76C189.517 53.6 189.432 53.3867 189.432 53.12C189.442 52.8427 189.538 52.624 189.72 52.464C189.912 52.2933 190.13 52.208 190.376 52.208C190.685 52.208 190.93 52.32 191.112 52.544C191.304 52.768 191.4 53.0827 191.4 53.488C191.4 53.712 191.352 53.9573 191.256 54.224C191.17 54.5013 191.053 54.752 190.904 54.976C190.754 55.2 190.578 55.3973 190.376 55.568C190.184 55.7387 189.981 55.8613 189.768 55.936L189.384 55.408C189.597 55.2587 189.794 55.056 189.976 54.8C190.168 54.544 190.296 54.288 190.36 54.032ZM199.992 50.048C200.28 49.8027 200.594 49.536 200.936 49.248C201.288 48.9493 201.613 48.6293 201.912 48.288C202.221 47.9467 202.482 47.5893 202.696 47.216C202.909 46.832 203.021 46.416 203.032 45.968C203.053 45.2853 202.856 44.7627 202.44 44.4C202.024 44.0267 201.474 43.84 200.792 43.84C200.248 43.84 199.773 43.952 199.368 44.176C198.962 44.4 198.696 44.7253 198.568 45.152H197.08C197.154 44.7147 197.309 44.336 197.544 44.016C197.789 43.6853 198.082 43.4133 198.424 43.2C198.776 42.9867 199.16 42.8267 199.576 42.72C199.992 42.6133 200.418 42.56 200.856 42.56C201.378 42.56 201.858 42.6347 202.296 42.784C202.733 42.9227 203.112 43.1307 203.432 43.408C203.752 43.6853 203.997 44.032 204.168 44.448C204.349 44.8533 204.44 45.3173 204.44 45.84C204.44 46.3627 204.36 46.832 204.2 47.248C204.05 47.664 203.842 48.048 203.576 48.4C203.32 48.752 203.026 49.0827 202.696 49.392C202.365 49.7013 202.024 50.0107 201.672 50.32L198.808 52.736H204.568V54H196.792V52.848L199.992 50.048ZM215.118 48.352C215.118 49.0773 215.043 49.7867 214.894 50.48C214.755 51.1733 214.515 51.792 214.174 52.336C213.833 52.8693 213.379 53.3013 212.814 53.632C212.249 53.9627 211.545 54.128 210.702 54.128C209.849 54.128 209.139 53.9627 208.574 53.632C208.009 53.3013 207.555 52.8693 207.214 52.336C206.873 51.792 206.633 51.184 206.494 50.512C206.355 49.84 206.286 49.12 206.286 48.352C206.286 47.584 206.355 46.864 206.494 46.192C206.633 45.5093 206.873 44.9013 207.214 44.368C207.555 43.8347 208.009 43.4027 208.574 43.072C209.139 42.7307 209.849 42.56 210.702 42.56C211.545 42.56 212.249 42.7253 212.814 43.056C213.379 43.3867 213.833 43.824 214.174 44.368C214.515 44.912 214.755 45.5307 214.894 46.224C215.043 46.9173 215.118 47.6267 215.118 48.352ZM207.71 48.352C207.71 48.864 207.747 49.3867 207.822 49.92C207.897 50.4533 208.041 50.9387 208.254 51.376C208.467 51.8133 208.766 52.1707 209.15 52.448C209.545 52.7253 210.062 52.864 210.702 52.864C211.331 52.864 211.838 52.7253 212.222 52.448C212.617 52.1707 212.921 51.8133 213.134 51.376C213.347 50.9387 213.491 50.4533 213.566 49.92C213.641 49.3867 213.678 48.864 213.678 48.352C213.678 47.8507 213.641 47.3333 213.566 46.8C213.491 46.2667 213.347 45.7813 213.134 45.344C212.921 44.896 212.617 44.5333 212.222 44.256C211.838 43.968 211.331 43.824 210.702 43.824C210.062 43.824 209.545 43.968 209.15 44.256C208.766 44.5333 208.467 44.896 208.254 45.344C208.041 45.7813 207.897 46.2667 207.822 46.8C207.747 47.3333 207.71 47.8507 207.71 48.352ZM220.111 54H218.719V44.928H216.415V43.984C216.735 43.9627 217.028 43.936 217.295 43.904C217.561 43.8613 217.807 43.792 218.031 43.696C218.255 43.6 218.457 43.472 218.639 43.312C218.82 43.152 218.985 42.944 219.135 42.688H220.111V54ZM224.099 48.384C224.462 47.8293 224.921 47.424 225.475 47.168C226.03 46.912 226.617 46.784 227.235 46.784C227.811 46.784 228.318 46.8747 228.755 47.056C229.203 47.2373 229.587 47.4827 229.907 47.792C230.227 48.1013 230.478 48.4747 230.659 48.912C230.841 49.3493 230.931 49.8347 230.931 50.368C230.931 50.9333 230.835 51.4453 230.643 51.904C230.451 52.3627 230.185 52.7573 229.843 53.088C229.502 53.4187 229.091 53.6747 228.611 53.856C228.142 54.0373 227.63 54.128 227.075 54.128C226.286 54.128 225.619 53.9893 225.075 53.712C224.531 53.424 224.089 53.0453 223.747 52.576C223.406 52.096 223.155 51.5413 222.995 50.912C222.846 50.2827 222.766 49.6213 222.755 48.928C222.755 48.064 222.819 47.28 222.947 46.576C223.075 45.8613 223.305 45.2107 223.635 44.624C223.977 44.0267 224.441 43.536 225.027 43.152C225.614 42.7573 226.361 42.56 227.267 42.56C227.673 42.56 228.062 42.6133 228.435 42.72C228.809 42.8267 229.15 42.9867 229.459 43.2C229.769 43.4027 230.041 43.6587 230.275 43.968C230.51 44.2773 230.691 44.6293 230.819 45.024H229.363C229.171 44.6293 228.878 44.3307 228.483 44.128C228.089 43.9253 227.678 43.824 227.251 43.824C226.643 43.824 226.137 43.968 225.731 44.256C225.326 44.544 225.001 44.912 224.755 45.36C224.521 45.808 224.35 46.304 224.243 46.848C224.147 47.3813 224.099 47.8933 224.099 48.384ZM229.507 50.512C229.507 50.16 229.449 49.84 229.331 49.552C229.214 49.2533 229.049 48.9973 228.835 48.784C228.633 48.56 228.382 48.3893 228.083 48.272C227.785 48.144 227.459 48.08 227.107 48.08C226.766 48.08 226.441 48.1387 226.131 48.256C225.833 48.3627 225.566 48.5227 225.331 48.736C225.097 48.9387 224.905 49.1893 224.755 49.488C224.617 49.7867 224.547 50.1173 224.547 50.48C224.547 50.8213 224.611 51.136 224.739 51.424C224.867 51.712 225.043 51.9627 225.267 52.176C225.491 52.3893 225.753 52.56 226.051 52.688C226.361 52.8053 226.691 52.864 227.043 52.864C227.395 52.864 227.721 52.8053 228.019 52.688C228.329 52.56 228.59 52.3947 228.803 52.192C229.027 51.9787 229.198 51.728 229.315 51.44C229.443 51.152 229.507 50.8427 229.507 50.512ZM233.844 54.032C233.567 54.0107 233.343 53.92 233.172 53.76C233.001 53.6 232.916 53.3867 232.916 53.12C232.927 52.8427 233.023 52.624 233.204 52.464C233.396 52.2933 233.615 52.208 233.86 52.208C234.169 52.208 234.415 52.32 234.596 52.544C234.788 52.768 234.884 53.0827 234.884 53.488C234.884 53.712 234.836 53.9573 234.74 54.224C234.655 54.5013 234.537 54.752 234.388 54.976C234.239 55.2 234.063 55.3973 233.86 55.568C233.668 55.7387 233.465 55.8613 233.252 55.936L232.868 55.408C233.081 55.2587 233.279 55.056 233.46 54.8C233.652 54.544 233.78 54.288 233.844 54.032ZM137.468 71.048C137.756 70.8027 138.071 70.536 138.412 70.248C138.764 69.9493 139.09 69.6293 139.388 69.288C139.698 68.9467 139.959 68.5893 140.172 68.216C140.386 67.832 140.498 67.416 140.508 66.968C140.53 66.2853 140.332 65.7627 139.916 65.4C139.5 65.0267 138.951 64.84 138.268 64.84C137.724 64.84 137.25 64.952 136.844 65.176C136.439 65.4 136.172 65.7253 136.044 66.152H134.556C134.631 65.7147 134.786 65.336 135.02 65.016C135.266 64.6853 135.559 64.4133 135.9 64.2C136.252 63.9867 136.636 63.8267 137.052 63.72C137.468 63.6133 137.895 63.56 138.332 63.56C138.855 63.56 139.335 63.6347 139.772 63.784C140.21 63.9227 140.588 64.1307 140.908 64.408C141.228 64.6853 141.474 65.032 141.644 65.448C141.826 65.8533 141.916 66.3173 141.916 66.84C141.916 67.3627 141.836 67.832 141.676 68.248C141.527 68.664 141.319 69.048 141.052 69.4C140.796 69.752 140.503 70.0827 140.172 70.392C139.842 70.7013 139.5 71.0107 139.148 71.32L136.284 73.736H142.044V75H134.268V73.848L137.468 71.048ZM152.595 69.352C152.595 70.0773 152.52 70.7867 152.371 71.48C152.232 72.1733 151.992 72.792 151.651 73.336C151.309 73.8693 150.856 74.3013 150.291 74.632C149.725 74.9627 149.021 75.128 148.179 75.128C147.325 75.128 146.616 74.9627 146.051 74.632C145.485 74.3013 145.032 73.8693 144.691 73.336C144.349 72.792 144.109 72.184 143.971 71.512C143.832 70.84 143.763 70.12 143.763 69.352C143.763 68.584 143.832 67.864 143.971 67.192C144.109 66.5093 144.349 65.9013 144.691 65.368C145.032 64.8347 145.485 64.4027 146.051 64.072C146.616 63.7307 147.325 63.56 148.179 63.56C149.021 63.56 149.725 63.7253 150.291 64.056C150.856 64.3867 151.309 64.824 151.651 65.368C151.992 65.912 152.232 66.5307 152.371 67.224C152.52 67.9173 152.595 68.6267 152.595 69.352ZM145.187 69.352C145.187 69.864 145.224 70.3867 145.299 70.92C145.373 71.4533 145.517 71.9387 145.731 72.376C145.944 72.8133 146.243 73.1707 146.627 73.448C147.021 73.7253 147.539 73.864 148.179 73.864C148.808 73.864 149.315 73.7253 149.699 73.448C150.093 73.1707 150.397 72.8133 150.611 72.376C150.824 71.9387 150.968 71.4533 151.043 70.92C151.117 70.3867 151.155 69.864 151.155 69.352C151.155 68.8507 151.117 68.3333 151.043 67.8C150.968 67.2667 150.824 66.7813 150.611 66.344C150.397 65.896 150.093 65.5333 149.699 65.256C149.315 64.968 148.808 64.824 148.179 64.824C147.539 64.824 147.021 64.968 146.627 65.256C146.243 65.5333 145.944 65.896 145.731 66.344C145.517 66.7813 145.373 67.2667 145.299 67.8C145.224 68.3333 145.187 68.8507 145.187 69.352ZM157.587 75H156.195V65.928H153.891V64.984C154.211 64.9627 154.505 64.936 154.771 64.904C155.038 64.8613 155.283 64.792 155.507 64.696C155.731 64.6 155.934 64.472 156.115 64.312C156.297 64.152 156.462 63.944 156.611 63.688H157.587V75ZM160.904 75L165.48 64.968H159.496V63.688H167.016V64.84L162.44 75H160.904Z" fill="white"/>
</svg>
